<svg width="32" height="32" viewBox="0 0 32 32" xmlns="http://www.w3.org/2000/svg">
    <g>
        <path fill="#fff" d="M0 0h32v32H0z"/>
        <path fill="#999" d="M0 0v32h32V0H0zm2 2h28v28H2V2z"/>
        <rect fill="#59f" x="6" y="7" width="20" height="16"></rect>
        <path fill="#fff" d="M11,17 L14.185069,13 L15.8068422,15.0685335 L16.6256053,14.295974 L19.4331665,17 L11,17 Z M19.3100266,13.8097202 C18.5865189,13.8097202 18,13.1807429 18,12.4048601 C18,11.6289773 18.5865189,11 19.3100266,11 C20.0335344,11 20.6200533,11.6289773 20.6200533,12.4048601 C20.6200533,13.1807429 20.0335344,13.8097202 19.3100266,13.8097202 Z"/>
        <rect stroke="#fff" fill="#666" x="8.5" y="20.5" width="10" height="5"></rect>
    </g>
</svg>
