<svg width="32" height="32" viewBox="0 0 32 32" xmlns="http://www.w3.org/2000/svg">
  <g fill="none" fill-rule="evenodd">
    <path fill="#fff" d="M0 0h32v32H0z"/>
    <path fill="#999" d="M0 0v32h32V0H0zm2 2h28v28H2V2z"/>
    <path fill="#8aafbf" d="M2 4h28v24H2z"/>
    <path fill="#fff" d="M9 24v2H7v-2h2zm-3 0v2H4v-2h2zm6 0v2h-2v-2h2zm1.704-9l1.865 1.932 1.193-.92L20 18.996 10 19l3.703-4zm6.796-3a1.5 1.5 0 1 1 0 3 1.5 1.5 0 0 1 0-3z"/>
    <path fill="#f59c2b" d="M4 24h2v2H4z"/>
    <path fill="#083f54" d="M4 6h10v2H4z"/>
  </g>
</svg>
