<svg width="32" height="32" viewBox="0 0 32 32" xmlns="http://www.w3.org/2000/svg">
  <g fill="none" fill-rule="evenodd">
    <path fill="#fff" d="M0 0h32v32H0z"/>
    <path fill="#999" d="M0 0v32h32V0H0zm2 2h28v28H2V2z"/>
    <path fill="#edeef0" d="M2 2h28v28H2z"/>
    <path fill="#8aafbf" d="M2 4h28v24H2z"/>
    <path fill="#a2cde0" d="M8.481 21l3.786 3.44 1.906-1.673L20 28l-18-.02L8.481 21zM22 17a3 3 0 1 1 0 6 3 3 0 0 1 0-6z"/>
    <path fill="#083f54" d="M26 12v2H6v-2h20zm2-4v2H4V8h24z"/>
  </g>
</svg>
