<svg width="32" height="32" viewBox="0 0 32 32" xmlns="http://www.w3.org/2000/svg">
  <g fill="none" fill-rule="evenodd">
    <path fill="#fff" d="M0 0h32v32H0z"/>
    <path fill="#418b44" d="M0 0v32h32V0H0zm2 2h28v28H2V2z"/>
    <path fill="#d8d8d8" d="M2 5h28v22H2z"/>
    <path fill="#a2a2a2" d="M28 22v1H4v-1h24zm0-14v1H4V8h24z"/>
    <path fill="#666" d="M15 15h13v2H15z"/>
    <path fill="#94b8e2" d="M4 10h9v8H4z"/>
    <path fill="red" d="M16.5 18a1.5 1.5 0 1 1 0 3 1.5 1.5 0 0 1 0-3zm-9-7l2.5 3v4H5v-4l2.5-3zM28 10v3H15v-3h13z"/>
  </g>
</svg>
