<svg width="32" height="32" viewBox="0 0 32 32" xmlns="http://www.w3.org/2000/svg">
  <polygon fill="#FFF" points="2 2 30 2 30 30 2 30"/>
  <path fill="#000" opacity="0.2" d="M28,4 L28,28 L4,28 L4,4 L28,4 Z M30,2 L2,2 L2,30 L30,30 L30,2 Z"/>
  <rect fill="#7375CF" x="13.5797558" y="12.0106481" width="4.13588569" height="7.43230476"/>
  <path fill="#EB001B" d="M13.842378,15.7268004 C13.8410539,14.2764582 14.5067933,12.9060806 15.6477118,12.0106481 C13.7097726,10.4873812 10.9266027,10.709087 9.25425832,12.5199471 C7.58191389,14.3308073 7.58191389,17.1227936 9.25425832,18.9336538 C10.9266027,20.7445139 13.7097726,20.9662197 15.6477118,19.4429528 C14.5068011,18.547514 13.8410637,17.1771404 13.842378,15.7268004 Z"/>
  <path fill="#00A2E5" d="M20.6344335,11.4754181 C22.2620751,12.2663411 23.2951876,13.9171661 23.2951876,15.7268004 C23.2951876,17.5364348 22.2620751,19.1872598 20.6344335,19.9781827 C19.0067918,20.7691057 17.0704323,20.5612743 15.6477118,19.4429528 C16.7875653,18.546663 17.4530327,17.1768355 17.4530327,15.7268004 C17.4530327,14.2767654 16.7875653,12.9069379 15.6477118,12.0106481 C17.0704323,10.8923266 19.0067918,10.6844952 20.6344335,11.4754181 Z M23.2400238,18.4743519 L23.2400238,18.6856761 L23.0473497,18.6856761 L23.0473497,19.7229638 L22.9420861,19.7229638 L22.9420861,18.6856761 L22.7493295,18.6856761 L22.7493295,18.4743519 L23.2400238,18.4743519 Z M23.5035333,18.4722933 L23.6765854,19.3325376 L23.849588,18.4722933 L24,18.4722933 L24,19.7229638 L23.8938746,19.7229638 L23.8937118,18.7790354 L23.7316252,19.5929112 L23.6214962,19.5929112 L23.4592509,18.7795681 L23.4592509,19.7229638 L23.3530389,19.7229638 L23.3530389,18.4722933 L23.5035333,18.4722933 Z"/>
</svg>