<svg width="32" height="32" viewBox="0 0 32 32" xmlns="http://www.w3.org/2000/svg">
  <polygon fill="#FFF" points="2 2 30 2 30 30 2 30"/>
  <path fill="#F47216" d="M2,30 C16.4728508,28.8461363 25.8061841,23.8461363 30,15 C30,15 30,20 30,30 L2,30 Z"/>
  <path fill="#000" opacity="0.2" d="M28,4 L28,28 L4,28 L4,4 L28,4 Z M30,2 L2,2 L2,30 L30,30 L30,2 Z"/>
  <path fill="#000" d="M22.5813831,13 C23.0774218,13 23.4934634,13.100207 24,13.3418827 L24,14.6191993 C23.5203537,14.1777832 23.1043121,13.9930318 22.5540437,13.9930318 C21.4725378,13.9930318 20.6221536,14.8359496 20.6221536,15.9045998 C20.6221536,17.0315217 21.4463212,17.8242518 22.6076559,17.8242518 C23.1304165,17.8242518 23.5387671,17.6491 24,17.2148135 L24,18.4927476 C23.4754991,18.7252728 23.0505877,18.8169468 22.5540437,18.8169468 C20.7982036,18.8169468 19.4338164,17.5483878 19.4338164,15.9125715 C19.4337041,14.294102 20.8344128,13 22.5813831,13 L22.5813831,13 Z M17.1296165,13.0351426 C17.7777903,13.0351426 18.37078,13.2440335 18.8666503,13.652328 L18.263275,14.3960493 C17.9628785,14.079092 17.6788183,13.9454265 17.333455,13.9454265 C16.8364057,13.9454265 16.4744816,14.211747 16.4744816,14.562275 C16.4744816,14.8628399 16.6775903,15.0219361 17.3695519,15.2629381 C18.6811691,15.7144591 19.0699274,16.1148942 19.0699274,16.9990737 C19.0699274,18.0765377 18.229199,18.8266026 17.0310375,18.8266026 C16.1535385,18.8266026 15.5156942,18.5012807 14.9844005,17.7672152 L15.7292446,17.0918705 C15.9947791,17.5751096 16.4378232,17.8341883 16.9878671,17.8341883 C17.5022631,17.8341883 17.8831059,17.5001649 17.8831059,17.0492053 C17.8831059,16.8154451 17.7676853,16.6150872 17.5374057,16.4733378 C17.4214238,16.4062524 17.1917056,16.3061577 16.7402968,16.1563805 C15.6572752,15.7893477 15.2857514,15.3969966 15.2857514,14.6302024 C15.2856952,13.7192449 16.0836462,13.0351426 17.1296165,13.0351426 L17.1296165,13.0351426 Z M13.3969755,13.1407389 L14.550114,13.1407389 L14.550114,18.7064664 L13.3969755,18.7064664 L13.3969755,13.1407389 L13.3969755,13.1407389 Z M9.69251605,13.1407389 L8,13.1407389 L8,18.7064664 L9.68370233,18.7064664 C10.578885,18.7064664 11.225543,18.5075682 11.7929897,18.0639627 C12.4674362,17.5385636 12.8661872,16.7465633 12.8661872,15.9275043 C12.8662433,14.2849514 11.5625978,13.1407389 9.69251605,13.1407389 Z M11.0396688,17.3218694 C10.6773517,17.6297323 10.2067436,17.7641837 9.46173117,17.7641837 L9.15218413,17.7641837 L9.15218413,14.0838076 L9.46167503,14.0838076 C10.2066875,14.0838076 10.6587137,14.2094453 11.0396126,14.5339251 C11.4384197,14.8682853 11.678299,15.3863303 11.678299,15.9195326 C11.6783551,16.4535771 11.4384197,16.9875092 11.0396688,17.3218694 Z"/>
</svg>