<svg width="32" height="32" viewBox="0 0 32 32" xmlns="http://www.w3.org/2000/svg">
  <polygon fill="#0079BE" points="2 2 30 2 30 30 2 30"/>
  <path fill="#000" opacity="0.2" d="M28,4 L28,28 L4,28 L4,4 L28,4 Z M30,2 L2,2 L2,30 L30,30 L30,2 Z" />
  <path fill="#FFF" d="M17.7166795,23.8449124 C22.047283,23.8655397 26,20.3130301 26,15.9912608 C26,11.2651655 22.047283,7.99842866 17.7166795,8 L13.9896883,8 C9.60721191,7.99842866 6,11.2661401 6,15.9912608 C6,20.3139732 9.60721191,23.8655711 13.9896883,23.8449124 L17.7166795,23.8449124 Z"/>
  <path fill="#0079BE" d="M14.0073251,8.65485697 C10.0027351,8.6561145 6.75769055,11.9021022 6.75674741,15.9082955 C6.75769055,19.9137972 10.0027037,23.1594705 14.0073251,23.160728 C18.0128582,23.1594705 21.258563,19.9137972 21.2591288,15.9082955 C21.2585315,11.9021022 18.0128582,8.6561145 14.0073251,8.65485697 Z M9.41138375,15.9082955 L9.41138375,15.9082955 C9.41515633,13.9506427 10.6377855,12.2812776 12.361853,11.6179014 L12.361853,20.1976836 C10.6377855,19.5346847 9.41512489,17.8662313 9.41138375,15.9082955 Z M15.6521684,20.1995699 L15.6521684,20.1995699 L15.6521684,11.6176185 C17.3768647,12.2793913 18.6013801,13.9496995 18.6045239,15.9082955 C18.6013801,17.8674888 17.3768647,19.5365395 15.6521684,20.1995699 Z"/>
</svg>