<svg width="32" height="32" viewBox="0 0 32 32" xmlns="http://www.w3.org/2000/svg">
  <polygon fill="#0353A5" points="2 2 30 2 30 30 2 30" />
  <path fill="#000" opacity="0.2" d="M28,4 L28,28 L4,28 L4,4 L28,4 Z M30,2 L2,2 L2,30 L30,30 L30,2 Z"/>
  <path fill="#FFF" d="M18.8541341,12.8791386 C19.4999978,12.8791386 20.0249218,13.0249653 20.3541407,13.1542007 L20.3541407,13.1542007 L20.1249918,14.5541894 L19.974939,14.4833369 C19.6749899,14.3542581 19.2749708,14.2250227 18.7291771,14.2375445 C18.0707916,14.2375445 17.7749642,14.5209023 17.7666686,14.7959122 C17.7666686,15.1000352 18.1250005,15.3000709 18.7124814,15.5958982 C19.6750421,16.0583698 20.125044,16.6209114 20.1165918,17.3583407 C20.1041222,18.6999465 18.9582737,19.5708373 17.199953,19.5667819 C16.4499498,19.5583676 15.7248858,19.4000191 15.3333188,19.220801 L15.3333188,19.220801 L15.5666416,17.7666555 L15.7875469,17.8709516 C16.3332362,18.1124657 16.6916204,18.2167096 17.3582494,18.2167096 C17.8374167,18.2167096 18.3541494,18.0167262 18.3624451,17.5833156 C18.3624451,17.3041839 18.1416441,17.0957482 17.4957804,16.7791556 C16.8624385,16.4667368 16.0166436,15.9500041 16.0291653,15.0208349 C16.0375132,13.7625511 17.2000052,12.8791386 18.8541341,12.8791386 Z M24.6500028,13.0000261 L25.9999565,19.4749412 L24.449915,19.4749412 C24.449915,19.4749412 24.2998622,18.733338 24.2499837,18.5041891 L24.2499837,18.5041891 L22.0999396,18.5041891 C22.0374871,18.6750073 21.7499554,19.4749412 21.7499554,19.4749412 L21.7499554,19.4749412 L19.9915826,19.4749412 L22.4791412,13.5375241 C22.6499072,13.1167396 22.9541868,13.0000261 23.3541537,13.0000261 L23.3541537,13.0000261 L24.6500028,13.0000261 Z M15.3374928,13.0000261 L14.2875404,19.4749934 L12.6166114,19.4749934 L13.662442,13.0000261 L15.3374928,13.0000261 Z M8.05826112,13.0000261 C8.42494098,13.0166696 8.72076835,13.133331 8.81661225,13.5458198 L8.81661225,13.5458198 L9.3999713,16.5208414 L9.57918947,17.4167236 L11.2166749,13.0000261 L12.987413,13.0000261 L10.354132,19.4667499 L8.58334167,19.4667499 L7.09163083,13.8416993 C6.57917643,13.5375763 5.99164344,13.2959056 5.33331014,13.1292093 L5.33331014,13.1292093 L5.36252766,13.0000261 Z M23.4708151,14.7458772 C23.387493,14.9875478 23.2416141,15.379219 23.249962,15.3667494 C23.249962,15.3667494 22.720864,16.8084253 22.5832808,17.1791747 L22.5832808,17.1792269 L23.9749738,17.1792269 C23.9041213,16.8542341 23.5874243,15.3042448 23.5874243,15.3042448 L23.5874243,15.3042448 Z"/>
</svg>