<svg width="32" height="32" viewBox="0 0 32 32" xmlns="http://www.w3.org/2000/svg">
  <polygon fill="#353F47" points="2 2 30 2 30 30 2 30"/>
  <path fill="#000" opacity="0.2" d="M28,4 L28,28 L4,28 L4,4 L28,4 Z M30,2 L2,2 L2,30 L30,30 L30,2 Z" />
  <path fill="#FFF" d="M11.1701571,10.003404 L11.0294503,10.0238282 C10.5795,10.0816023 10.1513453,10.2585892 9.78599476,10.5378371 C9.70746073,10.5957057 9.6354712,10.6569783 9.55366492,10.7216549 C9.54672346,10.7066613 9.54229672,10.6905437 9.54057592,10.6739984 C9.52748691,10.5820896 9.51439791,10.4867766 9.49803665,10.3948678 C9.47513089,10.2382823 9.39986911,10.1702016 9.24934555,10.1702016 L8.87303665,10.1702016 C8.64725131,10.1702016 8.60471204,10.214454 8.60471204,10.4493323 L8.60471204,17.5739722 C8.60471204,17.6080126 8.60471204,17.6420529 8.60798429,17.6760932 C8.6145288,17.7782142 8.67342932,17.8428908 8.76832461,17.8462948 C8.9973822,17.8496989 9.22971204,17.8496989 9.45876963,17.8462948 C9.55366492,17.8462948 9.61256545,17.7782142 9.6223822,17.6760932 C9.62565445,17.6420529 9.62565445,17.6080126 9.62565445,17.5739722 L9.62565445,15.1094527 C9.66164921,15.140089 9.68128272,15.1571092 9.69764398,15.1741294 C10.283377,15.6813302 10.9574607,15.8481278 11.6937173,15.6983504 C12.3612565,15.5621891 12.8259162,15.136685 13.1269634,14.510343 C13.3560209,14.0371825 13.4509162,13.5333857 13.4640052,13.0091647 C13.4803665,12.4270752 13.4247382,11.8551977 13.1989529,11.3139565 C12.9208115,10.6467662 12.4594241,10.207646 11.7624346,10.0578686 C11.6577225,10.0340403 11.5497382,10.0238282 11.4417539,10.0068081 C11.3501309,10.003404 11.2617801,10.003404 11.1701571,10.003404 L11.1701571,10.003404 Z M9.61910995,11.4296936 C9.61530391,11.3842283 9.63694282,11.3405318 9.67473822,11.3173606 C10.1230366,10.9939775 10.6171466,10.8237759 11.1668848,10.8680283 C11.6544503,10.9054726 12.0536649,11.153967 12.263089,11.7496727 C12.3907068,12.1139042 12.4234293,12.4917518 12.4234293,12.8730034 C12.4234293,13.2270228 12.3972513,13.5742341 12.2925393,13.9146373 C12.0700262,14.6396963 11.559555,14.9154229 10.8985602,14.8847866 C10.440445,14.8643624 10.0412304,14.6805446 9.67473822,14.4116261 C9.63746804,14.3879428 9.61600965,14.3446107 9.61910995,14.299293 C9.6223822,13.8193244 9.61910995,13.3427599 9.61910995,12.8627913 C9.61910995,12.3828227 9.6223822,11.9096622 9.61910995,11.4296936 L9.61910995,11.4296936 Z M16.3501309,10.003404 C16.3174084,10.0068081 16.2846859,10.0136161 16.2552356,10.0170202 C15.936358,10.031012 15.6195909,10.0777611 15.309555,10.1565855 C15.1099476,10.21105 14.9168848,10.2859387 14.723822,10.3540194 C14.6060209,10.3948678 14.5471204,10.4833726 14.5503927,10.6161299 C14.5536649,10.7284629 14.5471204,10.840796 14.5503927,10.9531291 C14.5536649,11.1165226 14.6191099,11.1607751 14.7729058,11.1199267 C15.0281414,11.051846 15.283377,10.9769573 15.5418848,10.9258968 C15.9443717,10.8476041 16.3501309,10.8135638 16.7591623,10.8782404 C16.9718586,10.9122807 17.171466,10.9769573 17.3089005,11.1641791 C17.4299738,11.3275727 17.4757853,11.5216025 17.4823298,11.7224404 C17.4921466,12.0049751 17.4888743,12.2875098 17.4921466,12.5700445 C17.4913496,12.5861027 17.4891592,12.602053 17.4856021,12.617701 C17.4692408,12.6142969 17.4561518,12.617701 17.4430628,12.6142969 C17.0995264,12.5262012 16.7490787,12.4703778 16.3959424,12.4474993 C16.026178,12.4270752 15.6596859,12.4509034 15.3062827,12.5802566 C14.8841623,12.7334381 14.5438482,12.9989526 14.3442408,13.4278607 C14.190445,13.7614559 14.1675393,14.1154753 14.216623,14.4728987 C14.2820681,14.9494632 14.5111257,15.3170987 14.9168848,15.551977 C15.3062827,15.7766431 15.7284031,15.8038754 16.1570681,15.7357947 C16.651178,15.657502 17.0896597,15.4396439 17.4757853,15.1094527 C17.4915712,15.0946208 17.5091764,15.0820298 17.5281414,15.0720084 C17.5477749,15.2013616 17.5641361,15.3239068 17.5870419,15.446452 C17.6066754,15.551977 17.6688482,15.6200576 17.7637435,15.6234616 C17.940445,15.6268657 18.1204188,15.6268657 18.2971204,15.6234616 C18.3823228,15.6227661 18.4517265,15.5520715 18.4541885,15.4634721 C18.4569126,15.4317846 18.4580049,15.3999681 18.4574607,15.3681592 L18.4574607,11.7598848 C18.4590508,11.6129245 18.4492018,11.4660715 18.4280105,11.3207646 C18.3658377,10.8816444 18.1858639,10.520817 17.8062827,10.2859387 C17.5870419,10.1497774 17.3448953,10.0816968 17.0929319,10.0442524 C16.9751309,10.0272323 16.8573298,10.0170202 16.7395288,10 C16.611911,10.003404 16.4810209,10.003404 16.3501309,10.003404 L16.3501309,10.003404 Z M17.4954188,14.3503535 C17.4979348,14.3911062 17.4791847,14.4301167 17.4463351,14.4524745 C17.0798429,14.7282011 16.677356,14.9120189 16.2225131,14.9596753 C16.0359948,14.9800995 15.8494764,14.9732914 15.6727749,14.8984027 C15.4758225,14.8234937 15.3250709,14.6552888 15.2670157,14.4456664 C15.2021425,14.2308849 15.2010021,14.0007499 15.2637435,13.7852841 C15.3455497,13.5027494 15.5386126,13.3427599 15.8003927,13.254255 C16.0631316,13.1718357 16.339328,13.1463476 16.611911,13.1793663 C16.8867801,13.2031946 17.1551047,13.2576591 17.4299738,13.2951034 C17.4823298,13.3019115 17.4986911,13.3291438 17.4986911,13.3836083 C17.4954188,13.5470018 17.4986911,13.7069914 17.4986911,13.8703849 C17.4986911,14.0337785 17.4921466,14.190364 17.4954188,14.3503535 Z M21.677356,14.5614035 C21.2552356,13.3461639 20.8331152,12.1297896 20.4109948,10.9122807 C20.3455497,10.7182509 20.2735602,10.527625 20.2048429,10.3369992 C20.1688482,10.2382823 20.1001309,10.1736057 19.9954188,10.1736057 C19.7467277,10.1702016 19.4980366,10.1667976 19.2460733,10.1702016 C19.164267,10.1702016 19.125,10.2382823 19.1413613,10.3233831 C19.1571186,10.3941032 19.1779,10.4635092 19.203534,10.5310291 C19.8448953,12.1819848 20.4895288,13.8329406 21.1374346,15.4838963 C21.1930628,15.6234616 21.2061518,15.7426028 21.1439791,15.8855721 C21.0359948,16.1340665 20.9509162,16.396177 20.8396597,16.6446714 C20.7414921,16.8659335 20.5778796,17.0327311 20.3422775,17.0974077 C20.1779533,17.1420742 20.0071095,17.1547688 19.8383508,17.1348521 C19.7565445,17.128044 19.6747382,17.1076198 19.5929319,17.1008117 C19.4816754,17.0940037 19.4260471,17.1450642 19.4227749,17.2642053 C19.4195026,17.377673 19.4195026,17.4900061 19.4227749,17.6012045 C19.4260471,17.7884263 19.4882199,17.8735271 19.6649215,17.9041634 C19.8472542,17.9419254 20.0321628,17.9646893 20.2179319,17.972244 C20.7774869,17.9858602 21.2225131,17.7509819 21.5104712,17.2437811 C21.6263772,17.043492 21.7270337,16.8340716 21.8115183,16.6174391 C22.5870419,14.5818277 23.3571117,12.5439469 24.1217277,10.5037968 C24.1456021,10.4435301 24.1631557,10.3807596 24.1740838,10.316575 C24.1871728,10.2212621 24.1446335,10.1667976 24.0530105,10.1667976 C23.8370419,10.1633936 23.617801,10.1667976 23.4018325,10.1667976 C23.2887237,10.1585642 23.1847811,10.2315861 23.1498691,10.3438073 C23.1335079,10.3914637 23.1138743,10.4357162 23.0975131,10.4833726 L21.9587696,13.8874051 C21.8769634,14.1324954 21.7918848,14.3809898 21.7068063,14.6431003 C21.6937173,14.6056559 21.6871728,14.5852317 21.677356,14.5614035 L21.677356,14.5614035 Z"/>
  <path fill="#F79A1A" d="M6.31740838,18.7755957 L6.99512798,19.1588645 C7.10856603,19.2219022 7.22273124,19.2839312 7.33835079,19.3440691 C8.66581703,20.0326665 10.0644799,20.5614424 11.507199,20.9201362 C12.1893695,21.0913489 12.8796618,21.225423 13.5752618,21.321812 C14.6053796,21.4658532 15.644824,21.5250404 16.6839005,21.4988217 C17.2532723,21.4852056 17.822644,21.4375491 18.3887435,21.3694684 C20.2267424,21.1465739 22.0255204,20.6561381 23.7323298,19.9125426 C23.8272251,19.8716942 23.9253927,19.8444619 24.0301047,19.8716942 C24.2493455,19.9329667 24.3246073,20.1780571 24.164267,20.3448547 C24.0667534,20.4381116 23.9616474,20.5223936 23.8501309,20.5967531 C22.8455497,21.3150039 21.7493455,21.8358209 20.5909686,22.2272846 C19.7888484,22.4962087 18.9669662,22.6965772 18.1335079,22.8263943 C17.5570343,22.9182491 16.9756388,22.9728184 16.3926702,22.9897879 C16.3652317,22.9915108 16.3379152,22.9949208 16.3108639,23 L15.6204188,23 C15.5933675,22.9949208 15.566051,22.9915108 15.5386126,22.9897879 C15.4208115,22.9829798 15.3030105,22.9795758 15.1884817,22.9761718 C14.6357907,22.9501091 14.0850796,22.8898648 13.539267,22.7957581 C12.6430306,22.6438095 11.7622885,22.4056401 10.908377,22.0843153 C9.15181414,21.4253488 7.53407583,20.4197768 6.14397906,19.122807 C6.08507853,19.0683425 6.04581152,18.9934538 6,18.9287772 L6,18.8606965 C6.07526178,18.7177272 6.17015707,18.6938989 6.31740838,18.7755957 Z M23.7323298,18.4045562 C24.1552167,18.323574 24.586619,18.3018222 25.0150524,18.3398795 C25.2484253,18.3550835 25.4791659,18.399661 25.7022251,18.4726368 C25.8429319,18.5202933 25.9672775,18.5849699 26,18.7551715 L26,18.7551715 L26,19.3440691 C25.9770942,19.4666143 25.9574607,19.5925635 25.9312827,19.7151087 C25.7873037,20.4061273 25.5418848,21.0494894 25.1230366,21.6077507 C24.9939071,21.7687716 24.8551039,21.9211233 24.7074607,22.0638911 C24.6630999,22.1059699 24.6089661,22.1353001 24.5503927,22.1489919 C24.4554974,22.1728201 24.3998691,22.1081435 24.4162304,22.0094266 C24.4241701,21.9744338 24.4351218,21.9402555 24.4489529,21.9073056 C24.6387435,21.4035088 24.8318063,20.8963079 24.9659686,20.3720869 C25.0346859,20.1133805 25.0935864,19.85127 25.0804974,19.5789474 C25.0739529,19.4019377 24.9986911,19.2725844 24.8318063,19.224928 C24.6781703,19.1776207 24.5202767,19.1468234 24.3606021,19.1330191 C23.9875654,19.1023828 23.6112565,19.1262111 23.2382199,19.1636554 C22.9829843,19.1908877 22.7310209,19.221524 22.4757853,19.2487562 C22.4518908,19.2515883 22.4278388,19.2527256 22.4037958,19.2521603 C22.354712,19.2555643 22.2990838,19.2419482 22.2859948,19.1908877 C22.2732818,19.1450859 22.2791964,19.0958635 22.302356,19.0547264 C22.3352295,19.0075159 22.3762916,18.9671091 22.4234293,18.9355852 C22.8193717,18.6530505 23.2643979,18.496465 23.7323298,18.4045562 Z"/>
</svg>