<svg width="32" height="32" viewBox="0 0 32 32" xmlns="http://www.w3.org/2000/svg">
  <polygon fill="#007AFF" points="2 2 30 2 30 30 2 30" />
  <path fill="#000" opacity="0.2" d="M28,4 L28,28 L4,28 L4,4 L28,4 Z M30,2 L2,2 L2,30 L30,30 L30,2 Z" />
  <path fill="#FFF" d="M9.65446927,13.0557036 C9.42011354,13.3336847 9.04514438,13.5523216 8.67017522,13.5210877 C8.62330407,13.1462817 8.80766391,12.7464886 9.02327118,12.5028647 C9.2576269,12.2186368 9.66696824,12.0156169 10.0013157,12 C10.0388127,12.3872995 9.88570025,12.7714757 9.65446927,13.0557036 M9.99506626,13.5929255 C9.45136097,13.5616917 8.98577426,13.9021405 8.72954533,13.9021405 C8.46706692,13.9021405 8.0733493,13.6085425 7.64213476,13.6179126 C7.08280576,13.6272828 6.56409842,13.9427445 6.27974681,14.4456092 C5.69229512,15.454462 6.1266344,16.9443159 6.69533763,17.7657658 C6.97343976,18.1718056 7.30466252,18.6184494 7.74212654,18.6028325 C8.15771736,18.5872156 8.320204,18.3342215 8.82016288,18.3342215 C9.32324651,18.3342215 9.47010943,18.6028325 9.90757345,18.5965858 C10.3606612,18.5872156 10.6450128,18.1905459 10.9231149,17.7845061 C11.238714,17.3222453 11.3699532,16.8756015 11.3762027,16.8506144 C11.3668284,16.8412443 10.5012746,16.5101656 10.4919004,15.5106829 C10.4825262,14.6736162 11.1762191,14.2769465 11.2074665,14.2519594 C10.8168737,13.6710101 10.2075488,13.6085425 9.99506626,13.5929255 M13.1323082,12.4622607 L13.1323082,18.549735 L14.0791054,18.549735 L14.0791054,16.4695617 L15.3883727,16.4695617 C16.5851493,16.4695617 17.4225804,15.6481118 17.4225804,14.4612261 C17.4225804,13.2743404 16.5976483,12.4622607 15.4196201,12.4622607 L13.1323082,12.4622607 L13.1323082,12.4622607 Z M14.0791054,13.2587235 L15.1696407,13.2587235 C15.9914481,13.2587235 16.4601596,13.6959972 16.4601596,14.4643495 C16.4601596,15.2327018 15.9914481,15.6762223 15.166516,15.6762223 L14.0791054,15.6762223 L14.0791054,13.2587235 Z M19.1474386,18.5965858 C19.7411397,18.5965858 20.2910945,18.2967409 20.5410739,17.8188633 L20.5598224,17.8188633 L20.5598224,18.549735 L21.4347504,18.549735 L21.4347504,15.5200531 C21.4347504,14.6423824 20.7316833,14.0739266 19.6505222,14.0739266 C18.6474797,14.0739266 17.9037908,14.6486291 17.8756682,15.4357217 L18.728723,15.4357217 C18.8005921,15.0609157 19.1474386,14.8141684 19.6223995,14.8141684 C20.200477,14.8141684 20.5254502,15.0827794 20.5254502,15.5793974 L20.5254502,15.9167228 L19.3442974,15.9885606 C18.2475126,16.0541517 17.6538114,16.5039189 17.6538114,17.2847647 C17.6569361,18.0718573 18.2693858,18.5965858 19.1474386,18.5965858 Z M19.4036675,17.8750842 C18.9005839,17.8750842 18.5787353,17.6314603 18.5787353,17.262901 C18.5787353,16.8787249 18.8880849,16.6569647 19.4786613,16.6226074 L20.528575,16.5570164 L20.528575,16.9005886 C20.528575,17.4690443 20.0442398,17.8750842 19.4036675,17.8750842 L19.4036675,17.8750842 Z M22.6065291,20.2051282 C23.5283283,20.2051282 23.9626676,19.8521859 24.3407615,18.7871121 L26,14.1332709 L25.0375792,14.1332709 L23.9251706,17.7282852 L23.9064222,17.7282852 L22.7940137,14.1332709 L21.8065949,14.1332709 L23.4064633,18.5653519 L23.3189705,18.8339629 C23.1752323,19.2899769 22.9408766,19.4680097 22.522161,19.4680097 C22.4471672,19.4680097 22.303429,19.4586396 22.2440589,19.4523928 L22.2440589,20.1832645 C22.3003043,20.1957581 22.53466,20.2051282 22.6065291,20.2051282 L22.6065291,20.2051282 Z"/>
</svg>