<svg width="32" height="32" viewBox="0 0 32 32" xmlns="http://www.w3.org/2000/svg">
  <polygon fill="#016FD0" points="2 2 30 2 30 30 2 30"/>
  <path fill="#FFF" d="M28,17.9921875 L26.2307292,19.8822917 L28,21.7906251 L28,24.2161459 L25.1755208,24.2161459 L23.6744792,22.5598959 L22.1838541,24.2229167 L12.69375,24.2026041 L12.69275,16.5687917 L9.61875,16.5692708 L13.4078125,7.96979173 L17.0973959,7.96979173 L18.3932292,10.9125 L18.3932292,7.96979173 L22.9484375,7.96979173 L23.7338541,10.1744792 L24.5218751,7.96979173 L28,7.96979173 L28,17.9921875 Z"/>
  <path fill="#016FD0" d="M14.1067708,8.90416667 L11.1291667,15.6088541 L13.1713541,15.6088541 L13.7328125,14.2661459 L16.7765625,14.2661459 L17.3380208,15.6088541 L19.4307292,15.6088541 L16.4656251,8.90416667 L14.1067708,8.90416667 Z M13.7161459,23.2593751 L13.7161459,16.5489584 L19.40625,16.5489584 L19.4061667,16.5491251 L21.8145833,16.5494792 L23.7385417,18.6760417 L25.6677084,16.5494792 L28,16.5494792 L28,16.6020833 L24.91875,19.9005208 L28,23.1645833 L28,23.2593751 L25.6442708,23.2593751 L23.6864584,21.1114584 L21.7484375,23.2593751 L13.7161459,23.2593751 Z M19.4061667,16.5801251 L19.40625,18.0947917 L15.5588541,18.0947917 L15.5588541,19.1442708 L19.3145833,19.1442708 L19.3145833,20.6645833 L15.5588541,20.6645833 L15.5588541,21.6953125 L19.40625,21.6953125 L19.4061667,23.2281251 L22.5260417,19.9005208 L19.4061667,16.5801251 Z M28,8.90312507 L28,15.6078125 L26.2223959,15.6234375 L26.2223959,11.0177084 L24.5442708,15.6078125 L22.9213541,15.6078125 L21.2083333,11.0020833 L21.2083333,15.6078125 L19.4031251,15.6078125 L19.4031251,8.90312507 L22.2734375,8.9130208 L23.7505208,13.0348959 L25.2375,8.90312507 L28,8.90312507 Z M15.2552084,10.6270833 L16.1473959,12.7614584 L14.3625,12.7614584 L15.2552084,10.6270833 Z"/>
  <path fill="#000" opacity="0.2" d="M28,4 L28,28 L4,28 L4,4 L28,4 Z M30,2 L2,2 L2,30 L30,30 L30,2 Z" />
</svg>