<svg width="32" height="32" viewBox="0 0 32 32" xmlns="http://www.w3.org/2000/svg">
  <polygon fill="#FFB3C7" points="2 2 30 2 30 30 2 30"/>
  <path fill="#000" opacity="0.2" d="M28,4 L28,28 L4,28 L4,4 L28,4 Z M30,2 L2,2 L2,30 L30,30 L30,2 Z"/>
  <path fill="#0A0B09" d="M22.2856339,19.2857143 C23.2324027,19.2857143 24,20.0531189 24,21 C24,21.9466739 23.2323705,22.7142857 22.2856339,22.7142857 C21.3388812,22.7142857 20.5714286,21.9466261 20.5714286,21 C20.5714286,20.0531826 21.3388812,19.2857143 22.2856339,19.2857143 Z M11.4285714,9 L11.4285714,22.7142857 L8,22.7142857 L8,9 L11.4285714,9 Z M19.3712778,9 C19.37126,11.9689256 18.1430745,14.7307593 15.9545767,16.7836235 L20.5714286,22.7142857 L16.4460709,22.7142857 L11.4285714,16.268958 L12.7235079,15.3553813 C14.8710005,13.8399756 16.1027525,11.5236332 16.1027525,9 L19.3712778,9 Z"/>
</svg>