<svg width="32" height="32" viewBox="0 0 32 32" xmlns="http://www.w3.org/2000/svg">
  <polygon fill="#FF424D" points="2 2 30 2 30 30 2 30"/>
  <path fill="#000" opacity="0.2" d="M28,4 L28,28 L4,28 L4,4 L28,4 Z M30,2 L2,2 L2,30 L30,30 L30,2 Z"/>
  <path fill="#141518" d="M10.8128336,8 L10.8128336,23.3584218 L8,23.3584218 L8,8 L10.8128336,8 Z M18.2569547,8.00005335 C21.42371,8.00005335 24,10.5868006 24,13.7664942 C24,16.9365841 21.42371,19.5156751 18.2569547,19.5156751 C15.0803823,19.5156751 12.4959826,16.9365841 12.4959826,13.7664942 C12.4959826,10.5868006 15.0803823,8.00005335 18.2569547,8.00005335 Z"/>
</svg>