<svg width="32" height="32" viewBox="0 0 32 32" xmlns="http://www.w3.org/2000/svg">
  <defs>
    <linearGradient x1="108.63338%" y1="30.1117195%" x2="46.9265964%" y2="65.8174868%" id="linearGradient">
      <stop stop-color="#0052CC" offset="18%"/>
      <stop stop-color="#2684FF" offset="100%"/>
    </linearGradient>
  </defs>
  <polygon fill="#FFF" points="2 2 30 2 30 30 2 30"/>
  <path fill="#000" opacity="0.2" d="M28,4 L28,28 L4,28 L4,4 L28,4 Z M30,2 L2,2 L2,30 L30,30 L30,2 Z"/>
  <polygon fill="#FFF" points="14.3377553 18.548058 17.6827504 18.548058 18.490163 13.8343064 13.4483199 13.8343064"/>
  <path fill="#2684FF" d="M8.51925817,9.0000409 C8.36781436,8.99813036 8.22325791,9.06324444 8.12436603,9.17795903 C8.02547414,9.29267362 7.98236962,9.44524625 8.00661525,9.5947494 L10.1827844,22.8055575 C10.2387523,23.1392612 10.5262466,23.3846041 10.8645995,23.3874503 L21.3045726,23.3874503 C21.5585322,23.3906758 21.7765997,23.2074992 21.8172156,22.9567872 L23.9933848,9.59731262 C24.0176304,9.44780947 23.9745259,9.29523683 23.875634,9.18052224 C23.7767421,9.06580765 23.6321856,9.00069358 23.4807418,9.00264683 L8.51925817,9.0000409 Z M17.6827504,18.548058 L14.3505714,18.548058 L13.4483199,13.8343064 L18.490163,13.8343064 L17.6827504,18.548058 Z"/>
  <path fill="url(#linearGradient)" d="M23.3013168,13.8343064 L18.490163,13.8343064 L17.6827504,18.548058 L14.3505714,18.548058 L10.416037,23.218235 C10.5407443,23.3260702 10.6997407,23.3860345 10.8645995,23.3874503 L21.3071358,23.3874503 C21.5610955,23.3906758 21.7791629,23.2074992 21.8197788,22.9567872 L23.3013168,13.8343064 Z"/>
</svg>