<svg width="32" height="32" viewBox="0 0 32 32" xmlns="http://www.w3.org/2000/svg">
  <defs>
    <linearGradient x1="50%" y1="16.6199552%" x2="50%" y2="119.282511%" id="linearGradient-1">
      <stop stop-color="#2684FF" offset="0%"/>
      <stop stop-color="#0052CC" offset="82%"/>
    </linearGradient>
    <linearGradient x1="41.179673%" y1="31.1603357%" x2="67.7136955%" y2="78.6783874%" id="linearGradient-2">
      <stop stop-color="#2684FF" offset="0%"/>
      <stop stop-color="#0052CC" offset="62%"/>
    </linearGradient>
  </defs>
  <polygon fill="#FFF" points="2 2 30 2 30 30 2 30"/>
  <path fill="#000" opacity="0.2" d="M28,4 L28,28 L4,28 L4,4 L28,4 Z M30,2 L2,2 L2,30 L30,30 L30,2 Z"/>
  <circle fill="url(#linearGradient-1)" fill-rule="nonzero" cx="15.7187429" cy="11.9924158" r="3.99241577"/>
  <path fill="url(#linearGradient-2)" d="M15.3785819,23.9025261 C12.7711829,22.2392479 10.6026906,19.9725018 9.05651092,17.2940038 C8.99674383,17.1866386 8.98374663,17.0594233 9.02056719,16.94219 C9.05738775,16.8249568 9.1407872,16.7280177 9.25120833,16.6741051 L12.2746129,15.1903766 C12.4861025,15.0872471 12.7413333,15.1654787 12.8587051,15.3694087 C14.3872778,17.9313648 16.6475357,19.9772879 19.3486186,21.2438994 C18.3524484,22.2476089 17.2492933,23.1391384 16.0589038,23.9025261 C15.8507508,24.0324913 15.5867349,24.0324913 15.3785819,23.9025261 Z"/>
  <path fill="#2684FF" d="M16.0589038,23.9025261 C18.66664,22.2396584 20.8352201,19.9728205 22.3809748,17.2940038 C22.4408964,17.1869176 22.4542235,17.0599259 22.4178387,16.9427329 C22.3814539,16.82554 22.2985487,16.7284254 22.1885153,16.6741051 L19.1628728,15.1903766 C18.9513832,15.0872471 18.6961524,15.1654787 18.5787806,15.3694087 C17.050529,17.9316279 14.7901799,19.9776335 12.0888671,21.2438994 C13.0844306,22.2482806 14.187663,23.1398724 15.3785819,23.9025261 C15.5867349,24.0324913 15.8507508,24.0324913 16.0589038,23.9025261 Z"/>
</svg>