<svg width="32" height="32" viewBox="0 0 32 32" xmlns="http://www.w3.org/2000/svg">
  <defs>
    <radialGradient cx="50.0092959%" cy="50.1223001%" fx="50.0092959%" fy="50.1223001%" r="50.6279461%" gradientTransform="translate(0.500093,0.501223),scale(0.985585,1.000000),translate(-0.500093,-0.501223)" id="radialGradient">
      <stop stop-color="#0052CC" offset="43%"/>
      <stop stop-color="#1B75F0" offset="84%"/>
      <stop stop-color="#2684FF" offset="100%"/>
    </radialGradient>
  </defs>
  <polygon fill="#FFF" points="2 2 30 2 30 30 2 30"/>
  <path fill="#000" opacity="0.2" d="M28,4 L28,28 L4,28 L4,4 L28,4 Z M30,2 L2,2 L2,30 L30,30 L30,2 Z"/>
  <path fill="url(#radialGradient)" d="M21.6637976,10.2831069 C22.7788033,11.3981126 23.5221404,12.7785959 23.8407135,14.3183657 C24.1592865,15.8581354 24,17.4510007 23.3628539,18.8845795 C22.7788033,20.3181582 21.7168931,21.5924505 20.4426009,22.4419786 C19.1152131,23.2915068 17.5754433,23.7693664 15.982578,23.7693664 C14.3897127,23.7693664 12.849943,23.2915068 11.5225552,22.4419786 C10.1951675,21.5924505 9.18635279,20.3181582 8.60230219,18.8845795 C8.01825158,17.4510007 7.85896505,15.8581354 8.1244426,14.3183657 C8.44301566,12.7785959 9.18635279,11.3450171 10.3013585,10.2831069 C11.0446956,9.53976978 11.9473193,8.95571917 12.9030385,8.58405061 C13.8587576,8.21238204 14.9206678,8 15.982578,8 C17.0444882,8 18.0533029,8.21238204 19.0621176,8.58405061 C20.0709323,8.95571917 20.9204604,9.53976978 21.6637976,10.2831069 Z M18.1594939,12.5662138 L19.6461682,11.0795396 C18.584258,10.2831069 17.3099658,9.85834284 15.982578,9.85834284 C14.6551903,9.85834284 13.3808981,10.2831069 12.3720834,11.0795396 L13.8587576,12.5662138 L12.6375609,13.7874106 L11.0977911,12.3007363 C10.3013585,13.3626465 9.87659442,14.6369387 9.87659442,15.9112309 C9.87659442,17.2386187 10.3013585,18.4598154 11.0977911,19.5217256 L12.5844654,18.0350513 L13.8056621,19.2562481 L12.3189879,20.7429223 C13.3808981,21.539355 14.6551903,21.9641191 15.982578,21.9641191 C17.3099658,21.9641191 18.584258,21.539355 19.6461682,20.7429223 L18.1594939,19.2562481 L19.3806907,18.0350513 L20.8673649,19.5217256 C21.6637976,18.4598154 22.0885617,17.1855232 22.0885617,15.9112309 C22.0885617,14.5838432 21.6637976,13.3626465 20.8673649,12.3007363 L19.3806907,13.7874106 L18.1594939,12.5662138 Z"/>
  <path fill="#2684FF" d="M15.982578,11.9290677 C15.1861454,11.9290677 14.4428083,12.1414498 13.7525666,12.6193093 C13.1154205,13.0440734 12.5844654,13.6812195 12.2658924,14.4245567 C11.9473193,15.1678938 11.8942238,15.9643265 12.0535103,16.7076636 C12.2127968,17.4510007 12.5844654,18.1943379 13.168516,18.725293 C13.7525666,19.2562481 14.4428083,19.6810121 15.1861454,19.7872032 C15.9294825,19.8933942 16.7790107,19.8402987 17.4692523,19.5748211 C18.1594939,19.3093436 18.79664,18.7783885 19.2744996,18.0881468 C19.6992637,17.4510007 19.9647413,16.6545681 19.9647413,15.9112309 C19.9647413,14.8493208 19.5399772,13.8405061 18.79664,13.0971689 C18.0533029,12.3538318 17.0444882,11.9290677 15.982578,11.9290677 Z M15.982578,18.1412424 C15.557814,18.1412424 15.0799544,18.0350513 14.7613813,17.7695738 C14.3897127,17.5040962 14.1242352,17.1855232 13.9118532,16.7607591 C13.7525666,16.335995 13.6994711,15.9112309 13.8056621,15.4864669 C13.9118532,15.0617028 14.1242352,14.6369387 14.4428083,14.3183657 C14.7613813,13.9997926 15.1330499,13.7874106 15.6109095,13.734315 C16.0356735,13.628124 16.5135331,13.6812195 16.8852017,13.8405061 C17.3099658,13.9997926 17.6285388,14.3183657 17.8940164,14.6369387 C18.1594939,14.9555118 18.265685,15.4333714 18.265685,15.8581354 C18.265685,16.1767085 18.2125894,16.442186 18.1063984,16.7076636 C18.0002074,16.9731411 17.8409209,17.2386187 17.6285388,17.4510007 C17.4161568,17.6633828 17.1506792,17.8226693 16.8852017,17.9288603 C16.6197242,18.0350513 16.3011511,18.1412424 15.982578,18.1412424 L15.982578,18.1412424 Z"/>
</svg>