<svg width="32" height="32" viewBox="0 0 32 32" xmlns="http://www.w3.org/2000/svg">
  <defs>
    <linearGradient x1="50%" y1="82.7990841%" x2="50%" y2="-5.78133944%" id="linearGradient">
      <stop stop-color="#2684FF" offset="0%"/>
      <stop stop-color="#0052CC" offset="82%"/>
    </linearGradient>
  </defs>
  <polygon fill="#FFF" points="2 2 30 2 30 30 2 30"/>
  <path fill="#000" opacity="0.2" d="M28,4 L28,28 L4,28 L4,4 L28,4 Z M30,2 L2,2 L2,30 L30,30 L30,2 Z"/>
  <circle fill="url(#linearGradient)" cx="16" cy="18.0378323" r="3.74580674"/>
  <path fill="#2684FF" d="M8.10100055,13.7045321 L10.1122007,16.0866679 C10.1865401,16.1740837 10.2928134,16.2280585 10.4072522,16.2365205 C10.5216911,16.2449825 10.6347473,16.2072258 10.7211355,16.1316948 C13.9780791,13.2113807 18.0112002,13.2113807 21.2767203,16.1316948 C21.3631085,16.2072258 21.4761648,16.2449825 21.5906036,16.2365205 C21.7050425,16.2280585 21.8113158,16.1740837 21.8856551,16.0866679 L23.8989995,13.7045321 C24.050983,13.5242893 24.0289546,13.2551593 23.8496843,13.1020297 C19.121863,8.9659901 12.8759929,8.9659901 8.15031569,13.1020297 C7.9710454,13.2551593 7.94901696,13.5242893 8.10100055,13.7045321 L8.10100055,13.7045321 Z"/>
</svg>