<svg width="32" height="32" viewBox="0 0 32 32" xmlns="http://www.w3.org/2000/svg">
  <defs>
    <linearGradient x1="49.9952715%" y1="100%" x2="49.9952715%" y2="0%" id="linearGradient">
      <stop stop-color="#0052CC" offset="0%"/>
      <stop stop-color="#2684FF" offset="100%"/>
    </linearGradient>
  </defs>
  <polygon fill="#FFF" points="2 2 30 2 30 30 2 30"/>
  <path fill="#000" opacity="0.2" d="M28,4 L28,28 L4,28 L4,4 L28,4 Z M30,2 L2,2 L2,30 L30,30 L30,2 Z"/>
  <path fill="url(#linearGradient)" d="M22.0991027,8 L9.90155097,8 C8.85233527,8 8.00139814,8.84983827 8.00002196,9.89905309 L8.00002196,22.0772831 C7.99759877,22.5819133 8.1958456,23.0668197 8.55112064,23.4252011 C8.90639567,23.7835825 9.38955797,23.9860431 9.89419029,23.9879906 L22.1006362,23.9879906 C22.6050536,23.9874216 23.0885764,23.7864547 23.4447931,23.4293176 C23.8010099,23.0721806 24.0007285,22.5881409 23.999998,22.0837237 L23.999998,9.89905309 C23.9986425,8.8500777 23.1480789,8.00033751 22.0991027,8 Z M14.9006733,19.5157696 C14.899152,19.8667812 14.613454,20.1501452 14.2624418,20.1487922 L11.5941986,20.1487922 C11.2457411,20.1470999 10.9641058,19.8642311 10.9639411,19.5157696 L10.9639411,11.5831133 C10.9637695,11.2345129 11.2456008,10.9514473 11.5941986,10.9500956 L14.2599882,10.9500956 C14.6090356,10.9514407 14.8916608,11.2340659 14.8930059,11.5831133 L14.9006733,19.5157696 Z M21.0508205,15.8734643 C21.0508205,16.22312 20.7674584,16.5066194 20.4178028,16.5067887 L17.7446525,16.5067887 C17.395486,16.5054425 17.1128118,16.2226314 17.1116348,15.8734643 L17.1116348,11.5831133 C17.1129799,11.2340659 17.3956052,10.9514407 17.7446525,10.9500956 L20.4101355,10.9500956 C20.7588531,10.9512788 21.0408706,11.2343936 21.0406996,11.5831133 L21.0508205,15.8734643 Z"/>
</svg>