<svg width="32" height="32" viewBox="0 0 32 32" xmlns="http://www.w3.org/2000/svg">
  <defs>
    <linearGradient x1="80.7973673%" y1="15.8123106%" x2="43.710396%" y2="97.4412689%" id="linearGradient">
      <stop stop-color="#0052CC" offset="0%"/>
      <stop stop-color="#2684FF" offset="92%"/>
    </linearGradient>
  </defs>
  <polygon fill="#FFF" points="2 2 30 2 30 30 2 30"/>
  <path fill="#000" opacity="0.2" d="M28,4 L28,28 L4,28 L4,4 L28,4 Z M30,2 L2,2 L2,30 L30,30 L30,2 Z"/>
  <path fill="url(#linearGradient)" d="M12.7486213,15.380366 C12.6519789,15.2537621 12.4961316,15.1869626 12.3378016,15.20428 C12.1794715,15.2215974 12.0417486,15.320506 11.9747583,15.4650073 L8.04982229,23.3148794 C7.97692893,23.4601612 7.98442857,23.6328221 8.06964444,23.7712363 C8.15486031,23.9096506 8.30564924,23.9940942 8.46819194,23.9945109 L13.9335989,23.9945109 C14.1144382,23.997884 14.279943,23.8932545 14.3543868,23.7284124 C15.5321095,21.3100908 14.8187046,17.5931304 12.7486213,15.380366 L12.7486213,15.380366 Z"/>
  <path fill="#2684FF" d="M15.6288424,8.25115374 C13.6382936,11.313381 13.40855,15.197885 15.0242619,18.4733994 L17.6723242,23.7284124 C17.7510795,23.8876646 17.9130342,23.9887692 18.0906938,23.9895912 L23.5561008,23.9895912 C23.7115293,23.9767687 23.851238,23.8897862 23.9313359,23.75597 C24.0114338,23.6221538 24.0220914,23.4579256 23.9599605,23.3148794 L16.4268885,8.25115374 C16.35326,8.09765534 16.1981091,8 16.0278654,8 C15.8576218,8 15.7024708,8.09765534 15.6288424,8.25115374 Z"/>
</svg>