<svg width="32" height="32" viewBox="0 0 32 32" xmlns="http://www.w3.org/2000/svg">
  <defs>
    <linearGradient x1="67.6800148%" y1="40.3276956%" x2="40.820818%" y2="81.6596195%" id="linearGradient-1">
      <stop stop-color="#0052CC" offset="18%"/>
      <stop stop-color="#2684FF" offset="100%"/>
    </linearGradient>
    <linearGradient x1="32.6559851%" y1="59.1664468%" x2="59.3430302%" y2="17.9899763%" id="linearGradient-2">
      <stop stop-color="#0052CC" offset="18%"/>
      <stop stop-color="#2684FF" offset="100%"/>
    </linearGradient>
  </defs>
  <polygon fill="#FFF" points="2 2 30 2 30 30 2 30"/>
  <path fill="#000" opacity="0.2" d="M28,4 L28,28 L4,28 L4,4 L28,4 Z M30,2 L2,2 L2,30 L30,30 L30,2 Z"/>
  <path fill="#2684FF" d="M23.2898332,15.5522703 L16.4049335,8.66737064 L15.7375629,8 L15.7375629,8 L10.5548807,13.1826822 L10.5548807,13.1826822 L8.18529253,15.5522703 C7.93823582,15.7996347 7.93823582,16.2003653 8.18529253,16.4477297 L12.920245,21.1826822 L15.7375629,24 L20.920245,18.8173178 L21.0004984,18.7370644 L23.2898332,16.4477297 C23.5368899,16.2003653 23.5368899,15.7996347 23.2898332,15.5522703 Z M15.7375629,18.3653643 L13.3721985,16 L15.7375629,13.6346357 L18.1029272,16 L15.7375629,18.3653643 Z"/>
  <path fill="url(#linearGradient-1)" d="M15.7375629,13.6346357 C14.1888993,12.0857892 14.1813517,9.57714451 15.7206674,8.01900739 L10.544321,13.1932418 L13.3616389,16.0105597 L15.7375629,13.6346357 Z"/>
  <path fill="url(#linearGradient-2)" d="M18.109263,15.9936642 L15.7375629,18.3653643 C16.4850524,19.1124093 16.905025,20.1258866 16.905025,21.1826822 C16.905025,22.2394777 16.4850524,23.252955 15.7375629,24 L15.7375629,24 L20.9265808,18.810982 L18.109263,15.9936642 Z"/>
</svg>