<svg width="32" height="32" viewBox="0 0 32 32" xmlns="http://www.w3.org/2000/svg">
  <defs>
    <linearGradient x1="49.9279136%" y1="90.7207251%" x2="49.9279136%" y2="36.2883187%" id="linearGradient">
      <stop stop-color="#0052CC" offset="18%"/>
      <stop stop-color="#2684FF" offset="100%"/>
    </linearGradient>
  </defs>
  <polygon fill="#FFF" points="2 2 30 2 30 30 2 30"/>
  <path fill="#000" opacity="0.2" d="M28,4 L28,28 L4,28 L4,4 L28,4 Z M30,2 L2,2 L2,30 L30,30 L30,2 Z"/>
  <path fill="#2684FF" d="M22.6948502,14.3437969 C22.6948502,10.8402217 19.8546413,8.00000638 16.3510661,8.00000638 L16.3510661,8.00000638 C13.2284381,7.99560912 10.5673345,10.2650487 10.0786939,13.3492107 C9.5900532,16.4333727 11.4193209,19.4142463 14.3903818,20.3752991 L14.3903818,23.553883 C14.3903818,23.8002666 14.5901152,24.0000064 14.8364988,24.0000064 L17.8477887,24.0000064 C18.0941724,24.0000064 18.2939058,23.8002666 18.2939058,23.553883 L18.2939058,20.3775297 C20.9143264,19.5337545 22.6918795,17.0967139 22.6948502,14.3437969 Z M16.3510661,16.4873892 L16.3510661,16.4873892 C15.1665768,16.4873892 14.2063585,15.5271709 14.2063585,14.3426816 C14.2063585,13.1581923 15.1665768,12.197974 16.3510661,12.197974 L16.3510661,12.197974 C17.5355554,12.197974 18.4957737,13.1581923 18.4957737,14.3426816 C18.4957737,15.5271709 17.5355554,16.4873892 16.3510661,16.4873892 Z"/>
  <path fill="url(#linearGradient)" d="M16.3510661,8.00000688 L16.3510661,12.2002046 L16.3510661,12.2002046 C17.5355554,12.2002046 18.4957737,13.1604229 18.4957737,14.3449122 C18.4957737,15.5294015 17.5355554,16.4896198 16.3510661,16.4896198 L16.3510661,16.4896198 C16.8710719,16.4896198 17.3697796,16.6961913 17.7374793,17.063891 C18.1051789,17.4315906 18.3117504,17.9302983 18.3117504,18.4503042 L18.3117504,20.3797603 C21.2839083,19.4185339 23.113984,16.4367146 22.6253434,13.3514417 C22.1367029,10.2661688 19.4747915,7.99578308 16.3510661,8.00000688 L16.3510661,8.00000688 Z"/>
</svg>