<svg width="32" height="32" viewBox="0 0 32 32" xmlns="http://www.w3.org/2000/svg">
  <defs>
    <linearGradient x1="41.0229509%" y1="6.61340131%" x2="57.382988%" y2="63.7130517%" id="linearGradient">
      <stop stop-color="#0052CC" offset="0%"/>
      <stop stop-color="#2684FF" offset="100%"/>
    </linearGradient>
  </defs>
  <polygon fill="#FFF" points="2 2 30 2 30 30 2 30"/>
  <path fill="#000" opacity="0.2" d="M28,4 L28,28 L4,28 L4,4 L28,4 Z M30,2 L2,2 L2,30 L30,30 L30,2 Z"/>
  <path fill="url(#linearGradient)" d="M17.4574248,14.3155157 L21.8106566,14.3425673 C22.0672303,14.3437455 22.3011848,14.4895788 22.4152242,14.7194189 C22.5292636,14.9492589 22.5038717,15.2237718 22.3496084,15.4287944 L15.9258862,24 C13.9086197,22.4907909 13.4951444,19.6327821 15.0019689,17.6137339 L17.4574248,14.3155157 Z"/>
  <path fill="#2684FF" d="M14.999888,17.6054103 L10.6737078,17.5783587 C10.4178832,17.5765984 10.1848065,17.4310652 10.0709235,17.2019802 C9.95704053,16.9728951 9.98172244,16.6992248 10.134756,16.4942125 L16.4939705,8 C18.5112369,9.50920907 18.9247123,12.3672179 17.4178878,14.3862661 L14.999888,17.6054103 Z"/>
</svg>