<svg width="32" height="32" viewBox="0 0 32 32" xmlns="http://www.w3.org/2000/svg">
  <defs>
    <linearGradient x1="99.140087%" y1="65.7068123%" x2="33.8589812%" y2="46.9329228%" id="linearGradient-1">
      <stop stop-color="#0052CC" offset="18%"/>
      <stop stop-color="#2684FF" offset="100%"/>
    </linearGradient>
    <linearGradient x1="0.92569163%" y1="34.3043893%" x2="66.1800713%" y2="53.0862751%" id="linearGradient-2">
      <stop stop-color="#0052CC" offset="18%"/>
      <stop stop-color="#2684FF" offset="100%"/>
    </linearGradient>
  </defs>
  <polygon fill="#FFF" points="2 2 30 2 30 30 2 30"/>
  <path fill="#000" opacity="0.2" d="M28,4 L28,28 L4,28 L4,4 L28,4 Z M30,2 L2,2 L2,30 L30,30 L30,2 Z"/>
  <path fill="url(#linearGradient-1)" d="M8.58020958,19.7365284 C8.41473133,20.0063852 8.22888652,20.319521 8.07104572,20.5690113 C7.92976595,20.8077565 8.00561058,21.1156631 8.24161561,21.2614742 L11.5511807,23.2981296 C11.6673533,23.3698565 11.8074652,23.3919218 11.9400597,23.3593716 C12.0726541,23.3268213 12.1866208,23.2423829 12.2563727,23.1250139 C12.3887553,22.9035276 12.5593252,22.6158501 12.74517,22.3078059 C14.0562669,20.1438595 15.3750014,20.4086247 17.7527966,21.5440601 L21.0343577,23.1046474 C21.1586421,23.1638032 21.3015819,23.1701198 21.4305999,23.1221578 C21.5596179,23.0741957 21.663721,22.9760415 21.7191831,22.8500654 L23.2950453,19.2859184 C23.4063825,19.031363 23.293095,18.7345497 23.0404633,18.6189137 C22.3480005,18.2930488 20.9707122,17.6438649 19.7308982,17.0455974 C15.2706228,14.8791051 11.4798978,15.0191252 8.58020958,19.7365284 Z"/>
  <path fill="url(#linearGradient-2)" d="M23.4197904,11.6484604 C23.5852687,11.3786036 23.7711135,11.0654678 23.9289543,10.8159775 C24.0702341,10.5772323 23.9943894,10.2693257 23.7583844,10.1235146 L20.4488193,8.08685918 C20.3316988,8.00797484 20.1870786,7.98127175 20.0495104,8.01312965 C19.9119422,8.04498756 19.7937823,8.13254498 19.7232608,8.25488325 C19.5908782,8.47636953 19.4203083,8.76404712 19.2344635,9.07209125 C17.9233665,11.2360377 16.6046321,10.9712725 14.2268368,9.83583705 L10.955459,8.28288726 C10.8311747,8.22373146 10.6882348,8.21741478 10.5592168,8.26537687 C10.4301988,8.31333895 10.3260957,8.41149315 10.2706336,8.5374692 L8.69477145,12.1016162 C8.58343423,12.3561716 8.69672177,12.652985 8.94935338,12.7686209 C9.64181624,13.0944858 11.0191045,13.7436697 12.2589185,14.3419373 C16.7293772,16.5058837 20.5201022,16.360772 23.4197904,11.6484604 Z"/>
</svg>