<svg width="32" height="32" viewBox="0 0 32 32" xmlns="http://www.w3.org/2000/svg">
  <polygon fill="#1587EA" points="2 2 30 2 30 30 2 30"/>
  <path fill="#000" opacity="0.2" d="M28,4 L28,28 L4,28 L4,4 L28,4 Z M30,2 L2,2 L2,30 L30,30 L30,2 Z"/>
  <path fill="#FFF" d="M15.7990637,18.6339171 C15.9208796,18.5367506 16.0937831,18.5369295 16.2154201,18.6343464 L16.2154201,18.6343464 L19.2882933,21.0960294 C19.4001994,21.185683 19.5568965,21.1937325 19.6773887,21.1160279 L19.6773887,21.1160279 L20.3937592,20.6540577 C20.6155679,20.5109911 20.907783,20.670264 20.907783,20.9342164 L20.907783,20.9342164 L20.907783,21.171015 C20.907783,21.2876077 20.8468929,21.3956858 20.7472221,21.4561108 L20.7472221,21.4561108 L16.1507378,24.2424573 C16.0445201,24.3068533 15.9113275,24.3068533 15.8051098,24.2424573 L15.8051098,24.2424573 L11.2086255,21.4561108 C11.1089547,21.3956858 11.0480646,21.2875719 11.0480646,21.171015 L11.0480646,21.171015 L11.0480646,20.9057032 C11.0480646,20.6417509 11.3402439,20.4824779 11.5620884,20.6255445 L11.5620884,20.6255445 L12.3230711,21.1163141 C12.4433486,21.1938756 12.5997237,21.186005 12.7116298,21.0967449 L12.7116298,21.0967449 Z M10.8940865,15.0273078 C11.0174407,14.9280305 11.1905588,14.9189435 11.323644,15.0047691 L11.323644,15.0047691 L15.4243859,17.6492296 C15.6350326,17.7850696 15.6508812,18.087266 15.455618,18.2444282 L15.455618,18.2444282 L12.6986433,20.463016 C12.575289,20.5622933 12.4021709,20.5713803 12.2690857,20.4855546 L12.2690857,20.4855546 L8.16834382,17.8410941 C7.95769711,17.7052542 7.94184852,17.4030577 8.13711172,17.2459313 L8.13711172,17.2459313 Z M20.6763507,15.0047691 C20.8094359,14.9189435 20.9825182,14.9280305 21.1059083,15.0273078 L21.1059083,15.0273078 L23.862883,17.2458956 C24.0581462,17.403022 24.0422976,17.7052184 23.8316509,17.8410584 L23.8316509,17.8410584 L19.730909,20.4855188 C19.5978238,20.5713445 19.4247415,20.5622575 19.3013514,20.4629802 L19.3013514,20.4629802 L16.5443767,18.2443924 C16.3491135,18.087266 16.3649979,17.7850696 16.5756088,17.6492296 L16.5756088,17.6492296 Z M12.2690857,9.05865049 C12.4021709,8.97282483 12.5752532,8.98191183 12.6986433,9.08118911 L12.6986433,9.08118911 L15.455618,11.2997769 C15.6508812,11.4569033 15.6350326,11.7590998 15.4243859,11.8949397 L15.4243859,11.8949397 L11.323644,14.5394002 C11.1905588,14.6252258 11.0174765,14.6161388 10.8940865,14.5168616 L10.8940865,14.5168616 L8.13711172,12.2982738 C7.94184852,12.1411474 7.95769711,11.8389509 8.16834382,11.703111 L8.16834382,11.703111 Z M19.3013514,9.08118911 C19.4247057,8.98191183 19.5978238,8.97282483 19.730909,9.05865049 L19.730909,9.05865049 L23.8316509,11.703111 C24.0422976,11.8389151 24.0581462,12.1411116 23.8629188,12.2982738 L23.8629188,12.2982738 L21.105944,14.5168616 C20.9825898,14.6161388 20.8094717,14.6252258 20.6763865,14.5394002 L20.6763865,14.5394002 L16.5756088,11.8949397 C16.3649621,11.7590998 16.3491135,11.4569033 16.5443767,11.2997769 L16.5443767,11.2997769 Z"/>
</svg>