<svg width="32" height="32" viewBox="0 0 32 32" xmlns="http://www.w3.org/2000/svg">
  <rect fill="#8C8C8C" x="2" y="2" width="28" height="28"/>
  <rect fill="#FFF" x="4" y="4" width="24" height="24"/>
  <polygon fill="#00A82D" points="2 2 30 2 30 30 2 30"/>
  <path fill="#000" opacity="0.2" d="M28,4 L28,28 L4,28 L4,4 L28,4 Z M30,2 L2,2 L2,30 L30,30 L30,2 Z"/>
  <path fill="#FFF" d="M13.2888003,11.5790855 C13.3041296,11.7926552 13.2419609,12.004594 13.1136931,12.1760419 C12.941239,12.3365568 12.6719454,12.3498225 12.5167367,12.3498225 L10.8187273,12.3498225 C10.4912678,12.3405688 10.1635472,12.3494261 9.83706558,12.3763539 C9.73213923,12.3955119 9.62976335,12.4266698 9.53195451,12.4692138 C9.51205596,12.4771733 9.50542311,12.4692138 9.51868881,12.4559481 L13.3949259,8.51603567 C13.4081916,8.50276997 13.416151,8.50807625 13.4081916,8.52930137 C13.3656476,8.62711021 13.3344897,8.72948609 13.3153317,8.83441244 C13.2884039,9.16089402 13.2795466,9.48861467 13.2888003,9.81607413 L13.2888003,11.5790855 Z M16.8904375,23.4930093 C16.5431077,23.2742902 16.2705802,22.9550304 16.1090878,22.5776761 C15.864204,21.9590603 15.9428976,21.2591773 16.3190425,20.7103889 C16.6951873,20.1616005 17.319556,19.8357285 17.9848576,19.8409625 C18.1434025,19.8413065 18.2952375,19.904986 18.4065961,20.0178394 C18.5179547,20.1306927 18.5796042,20.2833632 18.5778343,20.4418986 C18.5755703,20.6584834 18.4576797,20.8573291 18.2687436,20.9632406 C18.1981825,21.0008124 18.1220379,21.0267912 18.0432267,21.0401816 C17.8883096,21.0519851 17.7385581,21.1011437 17.6067852,21.1834512 C17.4599904,21.2935291 17.3727261,21.4656063 17.3706558,21.6490772 C17.3701785,21.8428193 17.4465007,22.0288546 17.5829069,22.1664395 C17.8217072,22.4060794 18.1466716,22.5398882 18.4849744,22.537879 C18.917831,22.5382314 19.3330602,22.3664358 19.6391362,22.0603598 C19.9452121,21.7542839 20.1170077,21.3390547 20.1166554,20.9061981 C20.1166554,20.0969905 19.5727617,19.3806428 18.856414,19.062266 C18.714901,19.0046232 18.5683521,18.9602144 18.418646,18.929609 C18.2196605,18.8898119 18.0339407,18.8632805 18.020675,18.8632805 C17.4635157,18.796952 16.0706173,18.359184 15.9777574,17.125474 C15.9777574,17.125474 15.5665208,18.9826718 14.7440475,19.4867683 C14.6469368,19.5341771 14.5445062,19.5698051 14.4389364,19.5928939 C14.3429188,19.6141864 14.245304,19.6274975 14.147091,19.632691 C12.8072555,19.7122852 11.3878257,19.2877829 10.406164,18.2795898 C10.406164,18.2795898 9.74287912,17.7356961 9.39797096,16.2101408 C9.31837676,15.8387013 9.15918838,15.1754163 9.06632849,14.5519285 C9.0265314,14.3264116 9.0132657,14.1539575 9,13.9947692 C9,13.3513828 9.39797096,12.9069819 9.89543465,12.8446331 L9.97370227,12.8446331 L12.598984,12.8446331 C13.0632835,12.8446331 13.3285974,12.7252418 13.5010515,12.5660534 C13.7265684,12.3538023 13.7796312,12.0486912 13.7796312,11.6905173 L13.7796312,8.97370227 C13.7796312,8.95513029 13.7796312,8.91135349 13.7796312,8.89543465 C13.84198,8.39929753 14.2863809,8 14.9297672,8 L15.248144,8 C15.3951018,8.00083488 15.5418226,8.01191651 15.6872386,8.03316425 C15.8075122,8.05048525 15.926666,8.07484755 16.0440859,8.10612559 C16.8532935,8.30776421 17.0257476,9.12758437 17.0257476,9.12758437 L19.3207134,9.52555533 C20.0503269,9.65821232 21.8544619,9.7776036 22.19937,11.5950043 C23.0085776,15.919622 22.5177468,20.1115828 22.4779497,20.1115828 C21.9075247,24.1974179 18.5115058,23.9984324 18.5115058,23.9984324 C17.9332709,23.9926149 17.3695191,23.8168461 16.8904375,23.4930093 Z M19.948181,14.7946908 C19.5090864,14.7495874 19.1363202,14.9273478 18.9996835,15.2616434 C18.9702146,15.3188711 18.9573481,15.3832034 18.9625396,15.4473632 C18.9739413,15.4782515 18.9988751,15.5022076 19.0301947,15.5123651 C19.2919599,15.6040633 19.5651882,15.6589768 19.8420554,15.6755332 C20.2254341,15.7219631 20.4947278,15.7471679 20.6685084,15.710024 C20.7013816,15.7073672 20.7312139,15.6897613 20.7494292,15.6622675 C20.770513,15.6011613 20.7732796,15.5352256 20.7573886,15.472568 C20.7003461,15.1170473 20.3846225,14.8596927 19.948181,14.7999971 L19.948181,14.7946908 Z"/>
</svg>