<svg width="32" height="32" viewBox="0 0 32 32" xmlns="http://www.w3.org/2000/svg">
  <polygon fill="#F05537" points="2 2 30 2 30 30 2 30"/>
  <path fill="#000" opacity="0.2" d="M28,4 L28,28 L4,28 L4,4 L28,4 Z M30,2 L2,2 L2,30 L30,30 L30,2 Z"/>
  <path fill="#FFF" d="M14.2016155,8.20256045 C18.5072051,7.2287631 22.8022884,9.85992021 23.7964416,14.0794899 C23.9169175,14.5902083 23.9851215,15.1118588 24,15.6363837 L24,15.6363837 L21.5579552,16.1892747 L20.2807901,16.4781964 L12.4391934,18.2524381 C13.4182438,19.6418887 15.1951121,20.3792956 16.9746069,19.9767751 C18.0364583,19.7406379 18.9699094,19.1120829 19.5880348,18.2169795 L19.5880348,18.2169795 L19.5880348,18.2176362 L23.3013349,19.0515692 C22.3111215,21.2119153 20.3379178,22.9099867 17.8013169,23.4838902 C13.496384,24.4576876 9.2006441,21.8271871 8.2064909,17.6076174 C7.21365098,13.3880478 9.89668267,9.17701445 14.2016155,8.20256045 Z M19.5446965,13.4064337 C18.5157215,11.9859326 16.73739,11.3179273 15.0276689,11.7096755 C13.2593369,12.110226 11.9966179,13.5206891 11.7273954,15.1754223 L11.7273954,15.1754223 Z"/>
</svg>