<svg width="32" height="32" viewBox="0 0 32 32" xmlns="http://www.w3.org/2000/svg">
  <polygon fill="#1E1E1E" points="2 2 30 2 30 30 2 30"/>
  <path fill="#000" d="M28,4 L28,28 L4,28 L4,4 L28,4 Z M30,2 L2,2 L2,30 L30,30 L30,2 Z"/>
  <path fill="#0ACF83" d="M13.6666667,24 C15.1386667,24 16.3333333,22.8053333 16.3333333,21.3333333 L16.3333333,18.6666667 L13.6666667,18.6666667 C12.1946667,18.6666667 11,19.8613333 11,21.3333333 C11,22.8053333 12.1946667,24 13.6666667,24 Z"/>
  <path fill="#A259FF" d="M11,16 C11,14.528 12.1946667,13.3333333 13.6666667,13.3333333 L16.3333333,13.3333333 L16.3333333,18.6666667 L13.6666667,18.6666667 C12.1946667,18.6666667 11,17.472 11,16 Z"/>
  <path fill="#F24E1E" d="M11,10.6666667 C11,9.19466667 12.1946667,8 13.6666667,8 L16.3333333,8 L16.3333333,13.3333333 L13.6666667,13.3333333 C12.1946667,13.3333333 11,12.1386667 11,10.6666667 Z"/>
  <path fill="#FF7262" d="M16.3333333,8 L19,8 C20.472,8 21.6666667,9.19466667 21.6666667,10.6666667 C21.6666667,12.1386667 20.472,13.3333333 19,13.3333333 L16.3333333,13.3333333 L16.3333333,8 Z"/>
  <path fill="#1ABCFE" d="M21.6666667,16 C21.6666667,17.472 20.472,18.6666667 19,18.6666667 C17.528,18.6666667 16.3333333,17.472 16.3333333,16 C16.3333333,14.528 17.528,13.3333333 19,13.3333333 C20.472,13.3333333 21.6666667,14.528 21.6666667,16 Z"/>
</svg>