<svg width="32" height="32" viewBox="0 0 32 32" xmlns="http://www.w3.org/2000/svg">
  <polygon fill="#FFF" points="2 2 30 2 30 30 2 30"/>
  <path fill="#000" opacity="0.2" d="M28,4 L28,28 L4,28 L4,4 L28,4 Z M30,2 L2,2 L2,30 L30,30 L30,2 Z"/>
  <path fill="#03214F" d="M10.948847,9.65680082 C10.3809659,8.88966319 9.26512939,8.77010927 8.53784306,9.42765581 C7.910185,10.0054997 7.86037087,10.9818567 8.36847501,11.6692917 L11.6462449,16.0628982 L8.34854936,20.4963559 C7.84044522,21.1837909 7.88029652,22.1601479 8.51791741,22.7379918 C9.24520373,23.3955384 10.3610403,23.2759844 10.9289214,22.5088468 L15.5317472,16.3219316 C15.6413383,16.1724893 15.6413383,15.9632699 15.5317472,15.8138275 L10.948847,9.65680082 Z"/>
  <path fill="#1FBAED" d="M21.051153,9.65680082 C21.6190341,8.88966319 22.7348706,8.77010927 23.4621569,9.42765581 C24.089815,10.0054997 24.1396291,10.9818567 23.631525,11.6692917 L20.3537551,16.0628982 L23.6514506,20.4963559 C24.1595548,21.1837909 24.1197035,22.1601479 23.4820826,22.7379918 C22.7547963,23.3955384 21.6389597,23.2759844 21.0710786,22.5088468 L16.4782157,16.3119688 C16.3686246,16.1625264 16.3686246,15.9533071 16.4782157,15.8038647 L21.051153,9.65680082 Z"/>
</svg>