<svg width="32" height="32" viewBox="0 0 32 32" xmlns="http://www.w3.org/2000/svg">
  <polygon fill="#1A1919" points="2 2 30 2 30 30 2 30"/>
  <path fill="#FFF" opacity="0.2" d="M28,4 L28,28 L4,28 L4,4 L28,4 Z M30,2 L2,2 L2,30 L30,30 L30,2 Z"/>
  <path fill="#FFF" d="M19.668175,15.1728615 L16.6873519,13.1793256 L16.6873519,9.97225813 L22.0745529,13.56351 L19.668175,15.1728615 Z M20.9047619,16.0000539 L22.6250808,14.8494398 L22.6250808,17.1504525 L20.9047619,16.0000539 Z M16.6873519,18.8207822 L19.668175,16.8272463 L22.0745529,18.4365977 L16.6873519,22.0278496 L16.6873519,18.8207822 Z M12.3316096,16.8272463 L15.3124327,18.8207822 L15.3124327,22.0278496 L9.9254471,18.4365977 L12.3316096,16.8272463 Z M11.0950226,16.0000539 L9.3749192,17.1504525 L9.3749192,14.8494398 L11.0950226,16.0000539 Z M15.3124327,13.1793256 L12.3316096,15.1728615 L9.9254471,13.56351 L15.3124327,9.97225813 L15.3124327,13.1793256 Z M16,17.6264275 L13.5681965,16.0000539 L16,14.3734648 L18.4318035,16.0000539 L16,17.6264275 Z M23.9883646,13.4430618 C23.9847016,13.423454 23.9814695,13.4042771 23.9762982,13.3853157 C23.9730661,13.3738957 23.9691877,13.3631222 23.9655247,13.3519177 C23.9601379,13.335111 23.9547511,13.3183042 23.9478561,13.301713 C23.9431157,13.2905085 23.9377289,13.279304 23.9325576,13.268315 C23.9252316,13.2528011 23.9176902,13.2375027 23.9090713,13.2226352 C23.9028227,13.2116462 23.8961431,13.2013036 23.8894635,13.1907455 C23.8801982,13.1765245 23.8707175,13.1625189 23.8603749,13.1489442 C23.8528334,13.1390325 23.8450765,13.1291209 23.8368886,13.1194247 C23.8261151,13.1064964 23.8144796,13.0942146 23.8026287,13.0821482 C23.793579,13.072883 23.7845292,13.0638332 23.775264,13.0552144 C23.7627666,13.0440099 23.7496229,13.0332364 23.7362637,13.0226783 C23.7259211,13.0147059 23.715794,13.006518 23.7050205,12.999192 C23.7013575,12.9963909 23.6976945,12.9931588 23.693816,12.9905732 L16.3811679,8.11554622 C16.1503986,7.96148459 15.8493859,7.96148459 15.6186167,8.11554622 L8.30618401,12.9905732 C8.30209007,12.9931588 8.29864253,12.9963909 8.29476406,12.999192 C8.28399052,13.006518 8.27386339,13.0147059 8.26352079,13.0226783 C8.25037707,13.0332364 8.23701788,13.0440099 8.22473605,13.0552144 C8.21525533,13.0638332 8.20620556,13.072883 8.19737126,13.0821482 C8.18530489,13.0942146 8.17388494,13.1064964 8.16289593,13.1194247 C8.15470804,13.1291209 8.14695109,13.1390325 8.13940961,13.1489442 C8.12906701,13.1625189 8.1195863,13.1765245 8.11032105,13.1907455 C8.10364146,13.2013036 8.09696186,13.2116462 8.09092868,13.2226352 C8.08209438,13.2375027 8.0745529,13.2528011 8.06744236,13.268315 C8.06227106,13.279304 8.05666882,13.2905085 8.05214393,13.301713 C8.04546434,13.3183042 8.03964663,13.335111 8.03425986,13.3519177 C8.03059685,13.3631222 8.02671838,13.3738957 8.02370179,13.3853157 C8.01874596,13.4042771 8.01508296,13.423454 8.01163542,13.4430618 C8.00991166,13.4529735 8.00754148,13.4626697 8.00603318,13.4725813 C8.00215471,13.5023163 8,13.5322668 8,13.5624327 L8,18.4374596 C8,18.467841 8.00215471,18.497576 8.00603318,18.5273109 C8.00754148,18.5374381 8.00991166,18.5471342 8.01163542,18.5570459 C8.01508296,18.5762228 8.01874596,18.5956152 8.02370179,18.6145766 C8.02671838,18.6259966 8.03059685,18.6369856 8.03425986,18.6479746 C8.03964663,18.6649968 8.04546434,18.6818035 8.05214393,18.6983947 C8.05666882,18.7098147 8.06227106,18.7205882 8.06744236,18.7315772 C8.0745529,18.7470911 8.08209438,18.7623896 8.09092868,18.7774725 C8.09696186,18.7882461 8.10364146,18.7988041 8.11032105,18.8089313 C8.1195863,18.8233678 8.12906701,18.8371579 8.13940961,18.8509481 C8.14695109,18.8612907 8.15470804,18.8709869 8.16289593,18.880683 C8.17388494,18.8933958 8.18530489,18.9058931 8.19737126,18.917744 C8.20620556,18.9267938 8.21525533,18.936059 8.22473605,18.9444624 C8.23701788,18.9558824 8.25037707,18.9668714 8.26352079,18.9774294 C8.27386339,18.9854019 8.28399052,18.9933743 8.29476406,19.0009158 C8.29864253,19.0037169 8.30209007,19.0067335 8.30618401,19.0093191 L15.6186167,23.884346 C15.734109,23.9614846 15.866839,24.0000539 16,24.0000539 C16.1329455,24.0000539 16.265891,23.9614846 16.3811679,23.884346 L23.693816,19.0093191 C23.6976945,19.0067335 23.7013575,19.0037169 23.7050205,19.0009158 C23.715794,18.9933743 23.7259211,18.9854019 23.7362637,18.9774294 C23.7496229,18.9668714 23.7627666,18.9558824 23.775264,18.9444624 C23.7845292,18.936059 23.793579,18.9267938 23.8026287,18.917744 C23.8144796,18.9058931 23.8261151,18.8933958 23.8368886,18.880683 C23.8450765,18.8709869 23.8528334,18.8612907 23.8603749,18.8509481 C23.8707175,18.8371579 23.8801982,18.8233678 23.8894635,18.8089313 C23.8961431,18.7988041 23.9028227,18.7882461 23.9090713,18.7774725 C23.9176902,18.7623896 23.9252316,18.7470911 23.9325576,18.7315772 C23.9377289,18.7205882 23.9431157,18.7098147 23.9478561,18.6983947 C23.9547511,18.6818035 23.9601379,18.6649968 23.9655247,18.6479746 C23.9691877,18.6369856 23.9730661,18.6259966 23.9762982,18.6145766 C23.9814695,18.5956152 23.9847016,18.5762228 23.9883646,18.5570459 C23.9900883,18.5471342 23.9924585,18.5374381 23.9937513,18.5273109 C23.9976298,18.497576 24,18.467841 24,18.4374596 L24,13.5624327 C24,13.5322668 23.9976298,13.5023163 23.9937513,13.4725813 C23.9924585,13.4626697 23.9900883,13.4529735 23.9883646,13.4430618 L23.9883646,13.4430618 Z"/>
</svg>