<svg width="32" height="32" viewBox="0 0 32 32" xmlns="http://www.w3.org/2000/svg">
  <rect fill="#8C8C8C" x="2" y="2" width="28" height="28"/>
  <rect fill="#FFF" x="4" y="4" width="24" height="24"/>
  <polygon fill="#EEE" points="2 2 30 2 30 30 2 30"/>
  <path fill="#000" opacity="0.2" d="M28,4 L28,28 L4,28 L4,4 L28,4 Z M30,2 L2,2 L2,30 L30,30 L30,2 Z" />
  <path fill="#FF9900" d="M8.24849274,20.5612041 C10.5018249,21.8738976 13.2897358,22.6615137 16.1686602,22.6615137 C18.1094462,22.6615137 20.2442609,22.2584543 22.2100507,21.4238313 C22.5035939,21.2988128 22.7536308,21.6208603 22.463088,21.8333916 L22.463088,21.8338917 C20.7098295,23.1275824 18.1719555,23.8151837 15.984133,23.8151837 C12.918181,23.8151837 10.1582742,22.684017 8.0704665,20.7957387 C7.90794254,20.648717 8.0514637,20.4456871 8.24849274,20.5612041 Z M23.9383054,20.4306849 C24.1318339,20.6682199 23.888298,22.3154627 22.9476594,23.1030788 C22.8036382,23.2250968 22.6661179,23.1595871 22.7286271,23.0000636 C22.9441589,22.4719858 23.4162285,21.2903116 23.1911953,21.0027692 L23.1911953,21.0022691 C22.9661621,20.7147267 21.709977,20.8647489 21.1438935,20.933759 C20.9718682,20.9527618 20.9468645,20.8057402 21.1003871,20.696224 C22.103535,19.9931204 23.7477773,20.1961503 23.9383054,20.4306849 Z"/>
  <path fill="#252F3E" d="M19.0530853,19.8395977 L19.0560858,19.8425982 C19.4436429,19.502048 20.1407456,18.8924581 20.5343037,18.5644098 C20.6908267,18.4393914 20.6623225,18.2298605 20.5403045,18.0548347 C20.1872525,17.5672628 19.8121972,17.1702043 19.8121972,16.2700716 L19.8121972,13.2696293 C19.8121972,11.9974418 19.8997101,10.83177 18.9650724,9.95664101 C18.2274636,9.25003686 17.002283,9 16.0646448,9 C14.2333749,9 12.1890736,9.68460091 11.7610105,11.9474344 C11.7140036,12.1879699 11.8925299,12.3164888 12.0485529,12.3504939 L13.9143279,12.5535238 C14.0893537,12.5440224 14.2143721,12.371997 14.2488772,12.1969712 C14.4084007,11.4188565 15.061497,11.0403007 15.7961053,11.0403007 C16.1931638,11.0403007 16.6432301,11.1838219 16.8777647,11.5403744 C17.1468043,11.937433 17.1122993,12.4780127 17.1122993,12.9375804 L17.1122993,13.1876173 C15.9966348,13.3126357 14.5369196,13.3936476 13.4927657,13.8532154 C12.286588,14.3752923 11.4394631,15.4379489 11.4394631,17.0006793 C11.4394631,19.0009741 12.6991488,20.0011216 14.3213879,20.0011216 C15.6905897,20.0011216 16.4371997,19.6790741 17.4938555,18.5979147 C17.8439071,19.1039893 17.9564237,19.3510257 18.5970181,19.8826041 C18.7440398,19.9606156 18.9250665,19.9546147 19.0535854,19.8390977 L19.0530853,19.8395977 Z M17.1122993,15.1449058 C17.1122993,15.8950163 17.1313021,16.5201085 16.7527463,17.1857066 C16.4462011,17.7292867 15.9621297,18.0608356 15.42155,18.0608356 C14.6839413,18.0608356 14.2523777,17.4982526 14.2523777,16.6666301 C14.2523777,15.0258882 15.7245947,14.7288444 17.1152997,14.7288444 L17.1152997,15.1444057 L17.1122993,15.1449058 Z"/>
</svg>