<svg width="32" height="32" viewBox="0 0 32 32" xmlns="http://www.w3.org/2000/svg">
  <rect fill="#8C8C8C" x="2" y="2" width="28" height="28"/>
  <rect fill="#FFF" x="4" y="4" width="24" height="24"/>
  <polygon fill="#395976" points="2 2 30 2 30 30 2 30"/>
  <path fill="#000" opacity="0.2" d="M28,4 L28,28 L4,28 L4,4 L28,4 Z M30,2 L2,2 L2,30 L30,30 L30,2 Z"/>
  <path fill="#FFF" d="M16.9986875,14.9997187 L16.9986875,18.6588331 C16.9986875,19.5873621 16.9866871,20.1223788 17.0851902,20.385387 C17.1826932,20.6473952 17.4277009,20.9189037 17.6942092,21.0759086 C18.0487203,21.2884153 18.4527329,21.3944186 18.9082471,21.3944186 C19.7182724,21.3944186 20.1967874,21.2874152 20.9978124,20.7608988 L20.9978124,23.166474 C20.3147911,23.487484 19.7187725,23.6759899 19.1647551,23.8059939 C18.6102378,23.934998 18.0107191,24 17.366699,24 C16.6351761,24 16.2031626,23.9079971 15.6416451,23.7239914 C15.0796275,23.5384856 14.6001125,23.2739773 14.2036001,22.9344667 C13.8060877,22.591956 13.5315791,22.2279446 13.3775743,21.8434326 C13.2235695,21.4589206 13.1475671,20.8994031 13.1475671,20.1678802 L13.1475671,14.5567049 L11,14.5567049 L11,12.2911341 C11.6280196,12.0871277 12.3305416,11.7946186 12.7780556,11.4136067 C13.2275696,11.0315947 13.5870808,10.5745805 13.8580893,10.0395637 C14.1295978,9.50604706 14.3166036,8.82502578 14.4186068,8 L16.9981874,8 L16.9981874,12.000125 L20.9978124,12.000125 L20.9978124,15.0002188 L16.9981874,15.0002188 L16.9986875,14.9997187 Z"/>
</svg>