<svg width="32" height="32" viewBox="0 0 32 32" xmlns="http://www.w3.org/2000/svg">
  <defs>
    <radialGradient cx="19.2474387%" cy="99.4651948%" fx="19.2474387%" fy="99.4651948%" r="108.959588%" id="radialGradient">
      <stop stop-color="#0099FF" offset="0%"/>
      <stop stop-color="#A033FF" offset="60.9753877%"/>
      <stop stop-color="#FF5280" offset="93.482299%"/>
      <stop stop-color="#FF7061" offset="100%"/>
    </radialGradient>
  </defs>
  <polygon fill="#FFF" points="2 2 30 2 30 30 2 30"/>
  <path fill="#000" opacity="0.2" d="M28,4 L28,28 L4,28 L4,4 L28,4 Z M30,2 L2,2 L2,30 L30,30 L30,2 Z"/>
  <path fill="url(#radialGradient)" d="M16.0000147,8 C20.506663,8 24.0000295,11.3011261 24.0000295,15.7600143 C24.0000295,20.2189025 20.506663,23.5200286 16.0000147,23.5200286 C15.1905412,23.5200286 14.4139318,23.4131484 13.6842505,23.212508 C13.5424102,23.173468 13.3915779,23.184508 13.2569697,23.2438681 L13.2569697,23.2438681 L11.6690788,23.9448294 C11.253718,24.1281897 10.7848531,23.8328292 10.7709331,23.3789083 L10.7709331,23.3789083 L10.727365,21.9558657 C10.722005,21.7805054 10.6431249,21.6166651 10.5124526,21.4997049 C8.95584176,20.1076703 8,18.0923066 8,15.7600143 C8,11.3011261 11.4933664,8 16.0000147,8 Z M20.8040236,13.970635 C21.029496,13.6128263 20.5897032,13.2096256 20.2527746,13.4653061 L20.2527746,13.4653061 L17.7284979,15.3810696 C17.5577296,15.5106698 17.3217772,15.5113578 17.1502889,15.3827176 L17.1502889,15.3827176 L15.2812134,13.980907 C14.7203324,13.5602662 13.9198509,13.7079465 13.5460422,14.3010676 L13.5460422,14.3010676 L11.1960379,18.0293945 C10.9705175,18.3871871 11.4103263,18.7903879 11.7472389,18.5347234 L11.7472389,18.5347234 L14.2715316,16.6189599 C14.4422839,16.4893596 14.6782523,16.4886716 14.8497246,16.6172799 L14.8497246,16.6172799 L16.7188481,18.0191225 C17.2796971,18.4397952 18.0801786,18.292083 18.4540193,17.6989939 L18.4540193,17.6989939 Z"/>
</svg>