<svg width="32" height="32" viewBox="0 0 32 32" xmlns="http://www.w3.org/2000/svg">
  <polygon fill="#EF4E23" points="2 2 30 2 30 30 2 30"/>
  <path fill="#000" opacity="0.2" d="M28,4 L28,28 L4,28 L4,4 L28,4 Z M30,2 L2,2 L2,30 L30,30 L30,2 Z"/>
  <path fill="#FFF" d="M15.9997143,10 C17.8887897,10 19.4281633,11.5393736 19.4281633,13.1787436 L19.4281633,14.2861326 L17.9636442,14.7146888 L17.1419592,14.2861326 L17.1419592,13.1787436 C17.1419592,12.8004714 16.6276919,12.2856327 15.9991429,12.2856327 C15.3711653,12.2856327 14.856898,12.7999 14.856898,13.428449 L14.856898,17.9997143 C14.856898,19.8887897 13.3175244,21.4281633 11.428449,21.4281633 C9.53937359,21.4281633 8,19.8887897 8,17.9997143 L8,15.7140816 L10.2856327,15.7140816 L10.2856327,17.9997143 C10.2856327,18.6282633 10.7999,19.1425306 11.428449,19.1425306 C12.056998,19.1425306 12.5712653,18.6282633 12.5712653,17.9997143 L12.5712653,13.428449 C12.5712653,11.5393736 14.1106389,10 15.9997143,10 Z M19.4287347,15.5352309 L19.4287347,17.7494375 C19.4287347,18.6282633 19.943002,19.1425306 20.571551,19.1425306 C21.2001,19.1425306 21.7143673,18.6282633 21.7143673,17.9997143 L21.7143673,15.7140816 L24,15.7140816 L24,17.9997143 C23.9994286,19.8887897 22.460055,21.4281633 20.5709796,21.4281633 C18.6819042,21.4281633 17.1425306,19.8887897 17.1425306,17.7494375 L17.1425306,15.5352309 L17.9642156,15.963787 L19.4287347,15.5352309 Z"/>
</svg>