<svg width="32" height="32" viewBox="0 0 32 32" xmlns="http://www.w3.org/2000/svg">
  <polygon fill="#15ACE5" points="2 2 30 2 30 30 2 30"/>
  <path fill="#000" opacity="0.2" d="M28,4 L28,28 L4,28 L4,4 L28,4 Z M30,2 L2,2 L2,30 L30,30 L30,2 Z"/>
  <path fill="#FFF" d="M23.405473,17.449438 C23.4967324,16.9804057 23.5450948,16.4960087 23.5450948,16.0002688 C23.5450948,11.8332691 20.1670512,8.45522555 16.0000515,8.45522555 C15.5043116,8.45522555 15.0199147,8.50358791 14.5508823,8.59484736 C13.9060337,8.21748693 13.1561078,8.00026879 12.3550354,8.00026879 C9.94980729,8.00026879 8,9.95007609 8,12.3553042 C8,13.1563766 8.21726969,13.9063025 8.59457857,14.5510995 C8.50331911,15.0201319 8.45495675,15.5045288 8.45495675,16.0002688 C8.45495675,20.1672684 11.8330003,23.545312 16,23.545312 C16.4957399,23.545312 16.9801369,23.4969496 17.4491692,23.4056902 C18.0940178,23.7830506 18.8439437,24.0002688 19.6449646,24.0002688 C22.0501927,24.0002688 24,22.0504615 24,19.6452334 C24,18.844161 23.7828334,18.0942866 23.405473,17.449438 Z M16.1433856,21.1818983 C13.4623168,21.1818983 12.1217824,20.1764975 11.7093103,18.9133016 C11.2968381,17.6501057 12.1991209,17.2891926 12.4826955,17.2634131 C12.7662701,17.2376336 13.3678091,17.3063618 13.5396553,17.8305623 C13.7183073,18.3753864 14.3130405,19.4546713 15.6020159,19.5835688 C16.8909913,19.7124663 17.7417151,19.1195377 17.9995102,18.5008295 C18.2573052,17.8821213 17.7932741,17.0313975 15.808252,16.7478229 C13.8232299,16.4642484 11.7608693,15.5877451 11.7608693,13.602723 C11.7608693,11.6177009 14.029466,10.8185361 16.1949446,10.8185361 C18.3604233,10.8185361 19.4582694,12.0415676 19.7009577,12.5199837 C20.0017014,13.1129123 19.8985834,14.1008346 19.1853675,14.2729902 C18.4377618,14.4534467 18.0510692,14.0409746 17.5096995,13.0355738 C16.9498717,11.9958863 14.9575282,12.2621886 14.287261,12.8551173 C13.6169938,13.4480459 13.7974504,14.2987697 16.5816372,14.8401394 C19.3658241,15.381509 20.3970044,16.3869098 20.3970044,17.9594598 C20.3970044,19.5320098 18.8244544,21.1818983 16.1433856,21.1818983 Z"/>
</svg>