<svg width="32" height="32" viewBox="0 0 32 32" xmlns="http://www.w3.org/2000/svg">
  <polygon fill="#222A30" points="2 2 30 2 30 30 2 30"/>
  <path fill="#000" opacity="0.2" d="M28,4 L28,28 L4,28 L4,4 L28,4 Z M30,2 L2,2 L2,30 L30,30 L30,2 Z"/>
  <path fill="#FFF" d="M23.8953966,11 L20.8119148,11 L20.7072765,11 L20.7072765,11.1047081 L20.7072765,11.4400041 L20.7072765,11.5446424 L20.8119148,11.5446424 L21.0261792,11.5446424 C21.2753928,11.5446424 21.500121,11.6725453 21.6273961,11.8868097 C21.7546362,12.1010741 21.7594496,12.3596005 21.6402317,12.578434 L18.211583,18.8718006 L16.6500655,15.149223 L18.1208965,12.4501824 C18.4252893,11.891623 19.0095199,11.5446424 19.6456162,11.5446424 L19.715096,11.5446424 L19.8197343,11.5446424 L19.8197343,11.4400041 L19.8197343,11.1047081 L19.8197343,11 L19.715096,11 L16.6316143,11 L16.526976,11 L16.526976,11.1047081 L16.526976,11.4400041 L16.526976,11.5446424 L16.6316143,11.5446424 L16.8458787,11.5446424 C17.0950922,11.5446424 17.3198205,11.6725453 17.4470955,11.8868097 C17.5743357,12.1010741 17.5791491,12.3596005 17.4599312,12.578434 L16.3930738,14.5366703 L15.4422952,12.2700649 C15.3733735,12.1057828 15.3904295,11.9264327 15.4890686,11.7780905 C15.5877076,11.6297482 15.7464788,11.5446424 15.924643,11.5446424 L16.1683805,11.5446424 L16.2730188,11.5446424 L16.2730188,11.4400041 L16.2730188,11.1047081 L16.2730188,11 L16.1683805,11 L12.4806125,11 L12.3759742,11 L12.3759742,11.1047081 L12.3759742,11.4400041 L12.3759742,11.5446424 L12.4806125,11.5446424 L12.5313272,11.5446424 C13.2588076,11.5446424 13.9106694,11.9781241 14.1921116,12.6489603 L15.5969507,15.9980141 L14.0313174,18.8718006 L11.2620296,12.2700649 C11.1931078,12.1057828 11.2101639,11.9264327 11.3088029,11.7780905 C11.407442,11.6297482 11.5662132,11.5446424 11.7443773,11.5446424 L12.1188778,11.5446424 L12.2235162,11.5446424 L12.2235162,11.4400041 L12.2235162,11.1047081 L12.2235162,11 L12.1188778,11 L8.10463831,11 L8,11 L8,11.1047081 L8,11.4400041 L8,11.5446424 L8.10463831,11.5446424 L8.35102665,11.5446424 C9.07850707,11.5446424 9.73040375,11.9781241 10.011811,12.6489603 L13.2041864,20.2593395 C13.2600284,20.3924394 13.3895009,20.4784521 13.5340761,20.4784521 C13.6667575,20.4784521 13.7839175,20.408763 13.8475027,20.2920564 L14.2639283,19.527848 L15.8538028,16.6103226 L17.3844521,20.2593046 C17.440294,20.3924046 17.5697665,20.4784521 17.7143418,20.4784521 C17.8470231,20.4784521 17.9641832,20.4087281 18.0277684,20.2920215 L18.444194,19.5278131 L22.3011621,12.4501126 C22.605555,11.8915533 23.1897856,11.5445727 23.8258819,11.5445727 L23.8953617,11.5445727 L24,11.5445727 L24,11.4399343 L24,11.1046383 L24,11 L23.8953966,11 L23.8953966,11 L23.8953966,11 Z"/>
</svg>