<svg width="32" height="32" viewBox="0 0 32 32"  xmlns="http://www.w3.org/2000/svg">
  <path fill="#FF0000" d="M2 2h28v28H2z"/>
  <path fill="#000" opacity="0.2" d="M28 4v24H4V4h24zm2-2H2v28h28V2z"/>
  <path fill="#FFF" d="M23.67 11.753a2.005 2.005 0 00-1.41-1.41C21.008 10 16 10 16 10s-5.008 0-6.26.33a2.046 2.046 0 00-1.41 1.423C8 13.005 8 15.6 8 15.6s0 2.61.33 3.849a2.005 2.005 0 001.41 1.41c1.265.343 6.26.343 6.26.343s5.008 0 6.26-.33a2.005 2.005 0 001.41-1.41c.33-1.252.33-3.849.33-3.849s.013-2.61-.33-3.861z"/>
  <path fill="#FF0000" d="M14.405 18l4.165-2.399-4.165-2.398z"/>
</svg>
