<svg width="32" height="32" viewBox="0 0 32 32" xmlns="http://www.w3.org/2000/svg">
  <polygon fill="#FECC00" points="2 2 30 2 30 30 2 30"/>
  <path fill="#000" opacity="0.2" d="M28,4 L28,28 L4,28 L4,4 L28,4 Z M30,2 L2,2 L2,30 L30,30 L30,2 Z"/>
  <path fill="#D50029" d="M12.4484375,16.0516194 C12.3610397,16.1699706 12.2148076,16.3757198 12.1258165,16.4958918 C12.0806382,16.5570021 11.9990441,16.6679564 12.269545,16.6679564 C12.5557503,16.6679564 13.6937433,16.6679564 13.6937433,16.6679564 C13.6937433,16.6679564 13.9232765,16.3556911 14.1157111,16.0945217 C14.3774495,15.7392403 14.1383572,15 13.2025855,15 C12.3650226,15 9.51730887,15 9.51730887,15 L8.87832578,15.8681749 C8.87832578,15.8681749 12.1909097,15.8681749 12.3609259,15.8681749 C12.5367458,15.8681749 12.534356,15.9350889 12.4484375,16.0516194 Z M11.4021667,16.8821267 C11.1316658,16.8821267 11.2132599,16.7709448 11.2584382,16.7098345 C11.3474293,16.5896625 11.4960512,16.3860755 11.583449,16.2677242 C11.6694813,16.1511938 11.6717573,16.0842798 11.4957098,16.0842798 C11.3258074,16.0842798 9.90297471,16.0842798 9.90297471,16.0842798 L8.61965997,17.8283679 C8.61965997,17.8283679 10.9116917,17.8283679 11.7492546,17.8283679 C12.7828937,17.8283679 13.3583768,17.1253158 13.5357899,16.8822405 C13.5357899,16.8821267 11.6882582,16.8821267 11.4021667,16.8821267 Z M13.4380363,17.8283679 L15.2739604,17.8283679 L15.969957,16.8820129 L14.1342604,16.8822405 C14.1336914,16.8821267 13.4380363,17.8283679 13.4380363,17.8283679 Z M18.1749323,15 L17.4707422,15.9564831 L16.6513872,15.9564831 L17.3552359,15 L15.5198807,15 L14.2919863,16.6679564 L18.7825068,16.6679564 L20.0100599,15 L18.1749323,15 Z M16.0933154,17.8283679 L17.9285568,17.8283679 L18.6248947,16.8822405 L16.7896534,16.8822405 C16.7889706,16.8821267 16.0933154,17.8283679 16.0933154,17.8283679 Z M6,17.2553884 L6,17.456358 L8.55684275,17.456358 L8.70455425,17.2553884 L6,17.2553884 Z M8.97937957,16.8821267 L6,16.8821267 L6,17.0828687 L8.83132667,17.0828687 L8.97937957,16.8821267 Z M6,17.8283679 L8.28292783,17.8283679 L8.42995653,17.6285363 L6,17.6285363 L6,17.8283679 Z M23.3056877,17.4562442 L26,17.4562442 L26,17.2552746 L23.4536268,17.2552746 L23.3056877,17.4562442 Z M23.0320004,17.8283679 L26,17.8283679 L26,17.6285363 L23.1789153,17.6285363 L23.0320004,17.8283679 Z M23.7279969,16.8821267 L23.5803992,17.0830963 L26,17.0830963 L26,16.8821267 L23.7279969,16.8821267 L23.7279969,16.8821267 Z M21.3241004,16.6679564 L22.5518811,15 L20.6080752,15 C20.6073924,15 19.3793841,16.6679564 19.3793841,16.6679564 L21.3241004,16.6679564 Z M19.2219997,16.8821267 C19.2219997,16.8821267 19.0878303,17.0654574 19.0226233,17.1537656 C18.7921797,17.4651205 18.9959943,17.8283679 19.7482077,17.8283679 C20.6171791,17.8283679 22.6957234,17.8283679 22.6957234,17.8283679 L23.3920614,16.8822405 L19.2219997,16.8822405 L19.2219997,16.8821267 Z"/>
</svg>