<svg width="32" height="32" viewBox="0 0 32 32" xmlns="http://www.w3.org/2000/svg">
  <polygon fill="#4B154C" points="2 2 30 2 30 30 2 30"/>
  <path fill="#000" opacity="0.2" d="M28,4 L28,28 L4,28 L4,4 L28,4 Z M30,2 L2,2 L2,30 L30,30 L30,2 Z"/>
  <path fill="#E01E5A" d="M13.893397,16.4264121 C14.8225935,16.4264121 15.5735879,17.1774065 15.5735879,18.106603 L15.5735879,22.3070804 C15.5735879,23.2362768 14.8225935,23.9872713 13.893397,23.9872713 C12.9642005,23.9872713 12.213206,23.2362768 12.213206,22.3070804 L12.213206,18.106603 C12.213206,17.1774065 12.9642005,16.4264121 13.893397,16.4264121 Z M11.3731106,16.4264121 L11.3731106,18.106603 C11.3731106,19.0357995 10.6221161,19.786794 9.69291965,19.786794 C8.76372315,19.786794 8.01272872,19.0357995 8.01272872,18.106603 C8.01272872,17.1774065 8.76372315,16.4264121 9.69291965,16.4264121 L11.3731106,16.4264121 Z"/>
  <path fill="#36C5F0" d="M13.893397,12.213206 C14.8225935,12.213206 15.5735879,12.9642005 15.5735879,13.893397 C15.5735879,14.8225935 14.8225935,15.5735879 13.893397,15.5735879 L9.68019093,15.5735879 C8.75099443,15.5735879 8,14.8225935 8,13.893397 C8,12.9642005 8.75099443,12.213206 9.68019093,12.213206 L13.893397,12.213206 Z M13.893397,8 C14.8225935,8 15.5735879,8.75099443 15.5735879,9.68019093 L15.5735879,11.3603819 L13.893397,11.3603819 C12.9642005,11.3603819 12.213206,10.6093874 12.213206,9.68019093 C12.213206,8.75099443 12.9642005,8 13.893397,8 Z"/>
  <path fill="#2EB67D" d="M22.3070804,12.213206 C23.2362768,12.213206 23.9872713,12.9642005 23.9872713,13.893397 C23.9872713,14.8225935 23.2362768,15.5735879 22.3070804,15.5735879 L20.6268894,15.5735879 L20.6268894,13.893397 C20.6268894,12.9642005 21.3778839,12.213206 22.3070804,12.213206 Z M18.106603,8 C19.0357995,8 19.786794,8.75099443 19.786794,9.68019093 L19.786794,13.893397 C19.786794,14.8225935 19.0357995,15.5735879 18.106603,15.5735879 C17.1774065,15.5735879 16.4264121,14.8225935 16.4264121,13.893397 L16.4264121,9.68019093 C16.4264121,8.75099443 17.1774065,8 18.106603,8 Z"/>
  <path fill="#ECB22E" d="M18.106603,20.6268894 C19.0357995,20.6268894 19.786794,21.3778839 19.786794,22.3070804 C19.786794,23.2362768 19.0357995,23.9872713 18.106603,23.9872713 C17.1774065,23.9872713 16.4264121,23.2362768 16.4264121,22.3070804 L16.4264121,20.6268894 L18.106603,20.6268894 Z M22.3198091,16.4264121 C23.2490056,16.4264121 24,17.1774065 24,18.106603 C24,19.0357995 23.2490056,19.786794 22.3198091,19.786794 L18.106603,19.786794 C17.1774065,19.786794 16.4264121,19.0357995 16.4264121,18.106603 C16.4264121,17.1774065 17.1774065,16.4264121 18.106603,16.4264121 L22.3198091,16.4264121 Z"/>
</svg>