<svg width="32" height="32" viewBox="0 0 32 32" xmlns="http://www.w3.org/2000/svg">
  <polygon fill="#FF0066" points="2 2 30 2 30 30 2 30"/>
  <path fill="#000" opacity="0.2" d="M28,4 L28,28 L4,28 L4,4 L28,4 Z M30,2 L2,2 L2,30 L30,30 L30,2 Z"/>
  <path fill="#FFF" d="M19.9951632,12.9662545 C21.3204353,12.9662545 22.4232164,13.9142594 22.4232164,15.7328809 C22.4232164,16.2552509 22.3458283,16.7679474 22.191052,17.2709704 L22.191052,17.2709704 L21.5139057,19.6990236 C21.4558646,19.911841 21.4171705,20.1343319 21.407497,20.3568228 C21.407497,20.7824577 21.5816203,20.9952751 21.8911729,20.9952751 C22.2007255,20.9952751 22.6070133,20.7631106 23.0713422,19.4765326 L23.0713422,19.4765326 L24,19.8344528 C23.4486094,21.7594831 22.452237,22.5623851 21.2043531,22.5623851 C19.7436518,22.5623851 19.0471584,21.6917684 19.0471584,20.5115991 C19.0471584,20.1536789 19.095526,19.8054323 19.1922612,19.4571856 L19.1922612,19.4571856 L19.8887545,16.9614178 C19.9661427,16.7099063 19.9951632,16.4583948 19.9951632,16.1972098 C19.9951632,15.3943077 19.5114873,14.9106318 18.7279323,14.9106318 C17.7315599,14.9106318 17.0737606,15.6264722 16.7351874,17.0001118 L16.7351874,17.0001118 L15.3808948,22.4269558 L13.0108827,22.4269558 L13.4365175,20.7244165 C12.7400242,21.8658918 11.7726723,22.5720586 10.5828295,22.5720586 C9.14147521,22.5720586 8.4643289,21.740136 8.4643289,20.4922521 C8.4643289,20.1343319 8.51269649,19.7764117 8.59008464,19.428165 L8.59008464,19.428165 L9.67351874,15.026714 L8,15.026714 L8.50302297,13.1500514 L12.5465538,13.1500514 L10.9600967,19.4475121 C10.8730351,19.7667382 10.8246675,20.0859643 10.814994,20.4148639 C10.814994,20.8211517 11.0084643,20.937234 11.3180169,21.0049486 C11.5114873,21.0436427 13.0108827,21.0146221 13.8331318,19.1960006 L13.8331318,19.1960006 L14.8778718,15.026714 L13.185006,15.026714 L13.688029,13.1500514 L17.305925,13.1500514 L16.8415961,15.2782255 C17.4800484,14.0883827 18.7472793,12.9662545 19.9951632,12.9662545 Z M11.5211608,9.00011183 C12.3047158,8.99043831 12.9528416,9.60954351 12.9625151,10.3930985 C12.9721886,11.1766535 12.3530834,11.8247793 11.5695284,11.8344528 C10.7762999,11.8441263 10.1378476,11.2056741 10.1281741,10.4221191 C10.1281741,9.64823759 10.7472793,9.00978535 11.5211608,9.00011183 Z"/>
</svg>