<svg width="32" height="32" viewBox="0 0 32 32" xmlns="http://www.w3.org/2000/svg">
  <polygon fill="#282E63" points="2 2 30 2 30 30 2 30"/>
  <path fill="#000" opacity="0.2" d="M28,4 L28,28 L4,28 L4,4 L28,4 Z M30,2 L2,2 L2,30 L30,30 L30,2 Z"/>
  <path fill="#FECA29" d="M13.8386758,18.170783 L13.8386758,18.170783 C15.7020494,20.0530741 15.7682606,22.9758276 15.7682606,25.0094587 L16.2317394,25.0094587 C16.2317394,22.9758276 16.2979506,20.0530741 18.1613242,18.170783 L18.1613242,18.170783 C20.0436153,16.3074094 22.9663689,16.2411981 25,16.2411981 L25,15.7682606 C22.9663689,15.7682606 20.0436153,15.7020494 18.1613242,13.8386758 L18.1613242,13.8386758 C16.2979506,11.9563847 16.2317394,9.03363111 16.2317394,7 L15.7682606,7 C15.7682606,9.03363111 15.7020494,11.9563847 13.8386758,13.8386758 L13.8386758,13.8386758 C11.9563847,15.7020494 9.03363111,15.7682606 7,15.7682606 L7,16.2317394 C9.03363111,16.2506569 11.9658434,16.2979506 13.8386758,18.170783 Z"/>
</svg>