<svg width="32" height="32" viewBox="0 0 32 32" xmlns="http://www.w3.org/2000/svg">
  <rect fill="#8C8C8C" x="2" y="2" width="28" height="28"/>
  <rect fill="#FFF" x="4" y="4" width="24" height="24"/>
  <polygon fill="#253b80" points="2 2 30 2 30 30 2 30"/>
  <path fill="#000" opacity="0.2" d="M28,4 L28,28 L4,28 L4,4 L28,4 Z M30,2 L2,2 L2,30 L30,30 L30,2 Z"/>
  <path fill="#FFF" d="M22.0923175,12.8218493 C22.5838022,13.5293272 22.6647997,14.4787975 22.4493064,15.5977626 C21.8743244,18.5411706 19.9113857,19.5601387 17.405464,19.5601387 L17.405464,19.5601387 L17.020976,19.5601387 C16.7149856,19.5601387 16.4524938,19.7821318 16.4054953,20.0851223 L16.4054953,20.0851223 L16.3739962,20.2536171 L15.8865115,23.3440205 L15.8615123,23.4750164 C15.8115138,23.7780069 15.5525219,24 15.2460315,24 L15.2460315,24 L12.6586123,24 C12.4301195,24 12.255125,23.7965064 12.2896239,23.5685135 L12.2896239,23.5685135 L12.3426222,23.2245242 L13.3550906,23.2245242 L14.1955643,17.887191 L15.4050265,17.887191 C19.0394129,17.887191 21.3453409,16.1372457 22.0923175,12.8218493 L22.0923175,12.8218493 Z M16.7519844,8 C18.4639309,8 19.804889,8.36248867 20.5453659,9.2064623 L20.5453659,9.2064623 C21.2208448,9.97143839 21.4143387,10.8219118 21.2208448,12.065373 C21.2083452,12.15887 21.1898457,12.255867 21.1708463,12.3558639 C20.5148668,15.7247586 18.270937,16.8872223 15.4055265,16.8872223 L15.4055265,16.8872223 L13.9460721,16.8872223 C13.5960831,16.8872223 13.2990923,17.1402144 13.246094,17.4872035 L13.249,17.475 L12.4991173,22.2245555 L9.42721333,22.2245555 C9.16472153,22.2245555 8.96472778,21.9900628 9.00522652,21.7305709 L9.00522652,21.7305709 L11.0771618,8.59998125 C11.1301601,8.25299209 11.4301507,8 11.7801398,8 L11.7801398,8 Z"/>
</svg>