<svg width="32" height="32" viewBox="0 0 32 32" xmlns="http://www.w3.org/2000/svg">
  <rect fill="#8C8C8C" x="2" y="2" width="28" height="28"/>
  <rect fill="#FFF" x="4" y="4" width="24" height="24"/>
  <polygon fill="#212121" points="2 2 30 2 30 30 2 30"/>
  <path fill="#000" opacity="0.2" d="M28,4 L28,28 L4,28 L4,4 L28,4 Z M30,2 L2,2 L2,30 L30,30 L30,2 Z"/>
  <path fill="#FFF" d="M16,8 C11.582,8 8,11.5815 8,16 C8,19.5345 10.2925,22.5335 13.471,23.591 C13.871,23.665 14.018,23.4175 14.018,23.206 C14.018,23.0155 14.0105,22.385 14.007,21.7165 C11.781,22.2005 11.3115,20.7725 11.3115,20.7725 C10.9475,19.848 10.4235,19.602 10.4235,19.602 C9.6975,19.1055 10.4785,19.1155 10.4785,19.1155 C11.2815,19.172 11.7045,19.94 11.7045,19.94 C12.418,21.163 13.576,20.8095 14.0325,20.605 C14.104,20.088 14.3115,19.735 14.5405,19.535 C12.7635,19.333 10.8955,18.6465 10.8955,15.5815 C10.8955,14.708 11.208,13.9945 11.72,13.434 C11.637,13.2325 11.363,12.419 11.7975,11.317 C11.7975,11.317 12.4695,11.102 13.998,12.137 C14.636,11.9595 15.3205,11.871 16.0005,11.8675 C16.68,11.8705 17.365,11.9595 18.0045,12.137 C19.5315,11.102 20.202,11.317 20.202,11.317 C20.6375,12.419 20.3635,13.2325 20.2805,13.434 C20.7935,13.994 21.104,14.708 21.104,15.5815 C21.104,18.654 19.2325,19.3305 17.451,19.529 C17.738,19.7775 17.9935,20.264 17.9935,21.0105 C17.9935,22.081 17.984,22.9425 17.984,23.206 C17.984,23.419 18.128,23.6685 18.5335,23.59 C21.7105,22.531 24,19.5335 24,16 C24,11.5815 20.418,8 16,8 Z"/>
</svg>