<svg width="32" height="32" viewBox="0 0 32 32" xmlns="http://www.w3.org/2000/svg">
  <rect fill="#8C8C8C" x="2" y="2" width="28" height="28"/>
  <rect fill="#FFF" x="4" y="4" width="24" height="24"/>
  <polygon fill="#FF7043" points="2 2 30 2 30 30 2 30"/>
  <path fill="#000" opacity="0.2" d="M28,4 L28,28 L4,28 L4,4 L28,4 Z M30,2 L2,2 L2,30 L30,30 L30,2 Z"/>
  <path fill="#FFF" d="M15.0557205,19.9192475 L14.4682021,18.3251977 C14.4682021,18.3251977 13.5151723,19.3877309 12.0871277,19.3877309 C10.8215882,19.3877309 9.92456014,18.2876965 9.92456014,16.5281415 C9.92456014,14.2750711 11.0620957,13.4685459 12.1776306,13.4685459 C13.7901809,13.4685459 14.302697,14.5125785 14.7432107,15.8501203 L15.3307291,17.6816776 C15.9182474,19.4597331 17.0182818,20.8877777 20.1873809,20.8877777 C22.4594519,20.8877777 24,20.190756 24,18.3596987 C24,16.8751523 23.1559736,16.1066283 21.5814244,15.7376168 L20.4093878,15.4816088 C19.6028626,15.297103 19.3658552,14.9690928 19.3658552,14.4190756 C19.3658552,13.7970562 19.8598706,13.4285446 20.6658958,13.4285446 C21.5469233,13.4285446 22.0219382,13.759555 22.0939404,14.5470796 L23.9254977,14.3280728 C23.7784931,12.6780212 22.6409575,12 20.7723991,12 C19.1223476,12 17.5097972,12.6220194 17.5097972,14.6220819 C17.5097972,15.8691209 18.1158161,16.6566455 19.6348636,17.0221569 L20.8819026,17.3156661 C21.8164318,17.534673 22.1289415,17.9216851 22.1289415,18.4532017 C22.1289415,19.1312229 21.4694209,19.4062314 20.2223819,19.4062314 C18.3723241,19.4062314 17.6003,18.4342011 17.1627863,17.0966593 L16.5567674,15.2656021 C15.7912435,12.8810275 14.5627051,12.0030001 12.1251289,12.0030001 C9.43104472,12.0030001 8,13.7060533 8,16.6031438 C8,19.3877309 9.42804463,20.8907778 11.9971249,20.8907778 C14.0661896,20.8907778 15.0567205,19.9187475 15.0567205,19.9187475 L15.0567205,19.9187475 L15.0557205,19.9192475 Z"/>
</svg>