<svg width="32" height="32" viewBox="0 0 32 32" xmlns="http://www.w3.org/2000/svg">
  <rect fill="#8C8C8C" x="2" y="2" width="28" height="28"/>
  <rect fill="#FFF" x="4" y="4" width="24" height="24"/>
  <polygon fill="#EEE" points="2 2 30 2 30 30 2 30"/>
  <path fill="#000" opacity="0.2" d="M28,4 L28,28 L4,28 L4,4 L28,4 Z M30,2 L2,2 L2,30 L30,30 L30,2 Z"/>
  <path fill="#0066DA" d="M9.20962199,21.2520046 L9.91523482,22.4707904 C10.0618557,22.7273769 10.2726231,22.9289805 10.5200458,23.0756014 L13.0400916,18.7136312 L8,18.7136312 C8,18.997709 8.07331042,19.2817869 8.21993127,19.5383734 L9.20962199,21.2520046 Z"/>
  <path fill="#00AC47" d="M16,13.5819015 L13.4799542,9.21993127 C13.2325315,9.36655212 13.021764,9.56815578 12.8751432,9.82474227 L8.21993127,17.8888889 C8.07600696,18.1399419 8.00019163,18.4242494 8,18.7136312 L13.0400916,18.7136312 L16,13.5819015 Z"/>
  <path fill="#EA4335" d="M21.4799542,23.0756014 C21.7273769,22.9289805 21.9381443,22.7273769 22.0847652,22.4707904 L22.3780069,21.9667812 L23.7800687,19.5383734 C23.9266896,19.2817869 24,18.997709 24,18.7136312 L18.9595418,18.7136312 L20.0320733,20.8213058 L21.4799542,23.0756014 Z"/>
  <path fill="#00832D" d="M16,13.5819015 L18.5200458,9.21993127 C18.2726231,9.07331042 17.9885452,9 17.6953036,9 L14.3046964,9 C14.0114548,9 13.7273769,9.08247423 13.4799542,9.21993127 L16,13.5819015 Z"/>
  <path fill="#2684FC" d="M18.9599084,18.7136312 L13.0400916,18.7136312 L10.5200458,23.0756014 C10.7674685,23.2222222 11.0515464,23.2955326 11.3447881,23.2955326 L20.6552119,23.2955326 C20.9484536,23.2955326 21.2325315,23.2130584 21.4799542,23.0756014 L18.9599084,18.7136312 Z"/>
  <path fill="#FFBA00" d="M21.4524628,13.8568156 L19.1248568,9.82474227 C18.978236,9.56815578 18.7674685,9.36655212 18.5200458,9.21993127 L16,13.5819015 L18.9599084,18.7136312 L23.9908362,18.7136312 C23.9908362,18.4295533 23.9175258,18.1454754 23.7709049,17.8888889 L21.4524628,13.8568156 Z"/>
</svg>