<svg width="32" height="32" viewBox="0 0 32 32" xmlns="http://www.w3.org/2000/svg">
  <polygon fill="#1C80BE" points="2 2 30 2 30 30 2 30"/>
  <path fill="#000" opacity="0.2" d="M28,4 L28,28 L4,28 L4,4 L28,4 Z M30,2 L2,2 L2,30 L30,30 L30,2 Z"/>
  <path fill="#FFF" d="M14.8254796,19.5045177 C15.1791993,19.3735104 15.4412138,19.1245965 15.5198182,18.718474 C15.5984226,18.3123514 15.1398971,17.74902 14.5241628,17.1594873 C13.8822271,16.543753 13.0437805,15.8887166 12.585255,15.6529035 C11.9171178,15.2467809 11.2882829,15.6005006 11.1572756,16.3865443 C11.0000668,17.2511924 11.1572756,18.0634375 11.6158011,18.7839776 C11.9433193,19.294906 12.4018448,19.5176184 12.9651761,19.5700213 C13.2795936,19.5569206 14.5503643,19.6224242 14.8254796,19.5045177 M17.7076399,19.7534315 C18.1137624,19.8058344 18.4936836,19.8844388 18.8998062,19.9106402 C19.436936,19.9368417 19.8430586,19.779633 20.1443754,19.4521147 C20.5242965,19.0459922 20.7077067,18.5350638 20.6815052,17.9979339 C20.6553038,17.4346026 20.1967783,17.1070843 19.581044,17.2118902 C19.0177127,17.2904945 18.5329858,17.5394084 18.0220573,17.7228186 C17.5635318,17.9062288 17.1574093,18.1289412 16.8298911,18.4171572 C16.3713656,18.8494812 16.6202794,19.439014 17.3408195,19.6617264 C17.4325246,19.7010286 17.5635318,19.72723 17.7076399,19.7534315 M21.7164628,19.3473089 C21.7819664,19.2425031 21.9129737,19.1901002 21.9915781,19.2687046 C22.2011898,19.4259133 22.3452978,19.9368417 22.3452978,20.2381585 C22.3714992,21.7840444 21.5854555,22.3211743 20.8911169,22.8583042 C18.860504,24.364888 11.7468084,23.3692326 16.3844663,23.0417144 C20.3146848,22.7665991 21.467549,20.1333526 21.7164628,19.3473089 Z M21.4282468,10.3340077 C21.6378584,10.5436193 21.9129737,10.7401303 21.6378584,11.0938499 C21.5854555,11.1462528 21.6640599,11.1986558 21.7164628,11.2510587 C22.3583985,12.1419082 22.7907225,13.1375636 22.9872335,14.2118233 C23.0134349,14.3166292 23.0920393,14.3690321 23.1706437,14.421435 C23.7077735,14.6965503 23.9828888,15.1550758 23.9828888,15.77081 C23.9828888,16.3079399 24.0352918,16.8450698 23.9566874,17.3821996 C23.8256801,18.1682434 23.0396364,18.7053732 22.2797941,18.5350638 C22.0701825,18.4826608 21.9784774,18.3254521 21.9784774,18.1027397 C21.9784774,17.2118902 22.0046788,16.3210406 21.9784774,15.4301911 C21.899873,13.0327578 20.8518147,11.2248572 18.7687989,10.0719931 C15.336408,8.18548819 10.8821603,10.3209069 10.1354188,14.2249241 C10.0044115,14.8930612 10.0306129,15.6005006 10.0306129,16.2686377 C10.0306129,16.9105734 10.0306129,17.5394084 10.0044115,18.1813441 C10.0044115,18.3909557 9.87340418,18.5350638 9.62449034,18.5350638 C8.6419357,18.5874667 8,17.9717324 8,16.9760771 C8.02620146,16.8188683 8.02620146,16.6223574 8.02620146,16.3603428 C8.05240291,16.111429 8,15.8232129 8.05240291,15.5218962 C8.13100729,15.0371692 8.40612259,14.6572481 8.83844663,14.4476364 C8.94325246,14.3952335 8.99565537,14.3428306 9.02185683,14.1987226 C9.20526703,13.1506643 9.63759107,12.1812104 10.266426,11.3165623 C10.3450304,11.2117565 10.3974333,11.1593536 10.2926275,11.0152456 C10.1878217,10.8580368 10.266426,10.6877273 10.3712319,10.5567201 C11.2620814,9.56106469 12.3101397,8.82742389 13.5547089,8.4213013 C16.541675,7.47804885 19.1618207,8.11998454 21.4282468,10.3340077 Z"/>
</svg>