<svg width="32" height="32" viewBox="0 0 32 32" xmlns="http://www.w3.org/2000/svg">
  <rect fill="#8C8C8C" x="2" y="2" width="28" height="28"/>
  <rect fill="#FFF" x="4" y="4" width="24" height="24"/>
  <polygon fill="#1BD741" points="2 2 30 2 30 30 2 30"/>
  <path fill="#000" opacity="0.2" d="M28,4 L28,28 L4,28 L4,4 L28,4 Z M30,2 L2,2 L2,30 L30,30 L30,2 Z"/>
  <path fill="#FFF" d="M16.0016296,7.5 C20.4024081,7.5 23.9826506,11.0802926 23.9826506,15.4810711 C23.9826506,19.8818496 20.4024081,23.4621422 16.0016296,23.4621422 C14.6303759,23.4621422 13.2876533,23.111143 12.0998217,22.4446455 L8,23.5 L9.11933661,19.5244822 C8.39953743,18.301651 8.02055853,16.9103401 8.02055853,15.4810711 C8.02055853,11.0802926 11.6008512,7.5 16.0016296,7.5 Z M16.0016296,8.85385425 C12.3473764,8.85385425 9.37441278,11.8268179 9.37441278,15.4810711 C9.37441278,16.754346 9.73629301,17.990816 10.4208418,19.0568008 L10.5853602,19.3129801 L9.94077514,21.6023978 L12.3094184,20.9926619 L12.5537139,21.1418366 C13.5893622,21.7740865 14.7816565,22.108288 16.0016296,22.108288 C19.6558828,22.108288 22.6287964,19.1353243 22.6287964,15.4810711 C22.6287964,11.8268179 19.6558828,8.85385425 16.0016296,8.85385425 Z M13.2417727,11.7382157 L13.759647,11.766446 C13.8615872,11.7720119 13.9515934,11.8349912 13.9917578,11.9289587 L13.9917578,11.9289587 L14.7462056,13.6940336 C14.7865204,13.788302 14.7695721,13.8973625 14.7024811,13.9749333 L14.7024811,13.9749333 L14.0458117,14.734596 C13.9926102,14.7962214 13.9832837,14.8839211 14.0207904,14.9561768 C14.8856526,16.6221195 16.4618398,17.2822488 16.9323794,17.4476196 C17.0126078,17.4757999 17.1014607,17.4491239 17.1533585,17.3818323 L17.1533585,17.3818323 L17.8404646,16.4910965 C17.9168821,16.3920646 18.0516157,16.3589704 18.1652392,16.4113194 L18.1652392,16.4113194 L19.9154719,17.2180661 C20.0294965,17.2706157 20.0918239,17.3951703 20.0655491,17.5179198 L20.0655491,17.5179198 L19.9828637,17.9041192 C19.8895982,18.3398597 19.6308115,18.725307 19.2553927,18.9654407 C18.7813933,19.2686539 18.1670443,19.4175277 17.386071,19.196699 C14.9625214,18.5113981 13.5919696,16.9068301 12.8565259,15.9039751 C12.1210822,14.9011201 11.8369232,13.8982651 12.0207967,13.0792835 C12.1440977,12.5300198 12.5455406,12.1085199 12.7966053,11.8904992 C12.9195554,11.7836951 13.0791096,11.7293404 13.2417727,11.7382157 L13.2417727,11.7382157 Z"/>
</svg>