<svg width="32" height="32" viewBox="0 0 32 32" xmlns="http://www.w3.org/2000/svg">
  <polygon fill="#DC0000" points="2 2 30 2 30 30 2 30"/>
  <path fill="#000" opacity="0.2" d="M28,4 L28,28 L4,28 L4,4 L28,4 Z M30,2 L2,2 L2,30 L30,30 L30,2 Z"/>
  <path fill="#FFF" d="M17.9913769,18.2106485 C17.7213664,18.4831591 17.9498753,18.9781783 17.9498753,18.9781783 L19.9824541,22.3723098 C19.9824541,22.3723098 20.316467,22.8198272 20.6054782,22.8198272 C20.8959895,22.8198272 21.1830006,22.581318 21.1830006,22.581318 L22.7900629,20.2842289 C22.7900629,20.2842289 22.9520692,19.9942177 22.9556186,19.7407078 C22.9615696,19.3796938 22.4170484,19.28069 22.4170484,19.28069 L18.612401,18.0586426 C18.612401,18.0586426 18.2393865,17.9596388 17.9913769,18.2101485 L17.9913769,18.2106485 Z M17.7988694,16.5000822 C17.993377,16.830095 18.5303978,16.7340913 18.5303978,16.7340913 L22.3265449,15.6245483 C22.3265449,15.6245483 22.844065,15.4140401 22.9175679,15.1335292 C22.9900707,14.8530184 22.8320645,14.5145052 22.8320645,14.5145052 L21.0179942,12.3774224 C21.0179942,12.3774224 20.8609881,12.1074119 20.5344755,12.0799109 C20.1749615,12.0494097 19.9534529,12.4844266 19.9534529,12.4844266 L17.8083698,15.8595574 C17.8083698,15.8595574 17.6188625,16.1955704 17.7983694,16.4995822 L17.7988694,16.5000822 Z M16.0052999,15.1840312 C16.4523172,15.0740269 16.52332,14.4245018 16.52332,14.4245018 L16.4928188,9.02029227 C16.4928188,9.02029227 16.4253162,8.35376643 16.1258046,8.17275941 C15.6557864,7.88774837 15.516781,8.03675414 15.3822758,8.0562549 L12.2306536,9.22730029 C12.2306536,9.22730029 11.9221416,9.32930425 11.7611354,9.58681423 C11.5316265,9.95182838 11.9941444,10.4858491 11.9941444,10.4858491 L15.2697714,14.9510222 C15.2697714,14.9510222 15.5932839,15.2855351 16.0047999,15.1835312 L16.0052999,15.1840312 Z M15.2267697,17.371116 C15.2382702,16.9540998 14.7262503,16.7040901 14.7262503,16.7040901 L11.338619,14.9925238 C11.338619,14.9925238 10.8365995,14.7855158 10.5930901,14.9295213 C10.4065829,15.0400256 10.2410765,15.2395334 10.2245758,15.4160402 L10.0040673,18.1321455 C10.0040673,18.1321455 9.97106599,18.6026637 10.0930707,18.816672 C10.2655774,19.1206838 10.8340994,18.9086756 10.8340994,18.9086756 L14.7887527,18.0346417 C14.9422587,17.9311377 15.2117691,17.9221373 15.2267697,17.370616 L15.2267697,17.371116 Z M16.2103078,18.8366728 C15.8707947,18.662166 15.4647789,19.02318 15.4647789,19.02318 L12.8166763,21.938293 C12.8166763,21.938293 12.4861635,22.3843103 12.5701667,22.6578209 C12.6491698,22.9143309 12.7801749,23.0418358 12.9656821,23.1318393 L15.6252852,23.9713718 C15.6252852,23.9713718 15.9477977,24.0383744 16.1918071,23.9673717 C16.5383206,23.8668678 16.4743181,23.3243468 16.4743181,23.3243468 L16.5343204,19.3771937 C16.5343204,19.3771937 16.5208199,18.997179 16.2103078,18.8361728 L16.2103078,18.8366728 Z"/>
</svg>