<svg width="32" height="32" viewBox="0 0 32 32" xmlns="http://www.w3.org/2000/svg">
  <rect fill="#8C8C8C" x="2" y="2" width="28" height="28"/>
  <rect fill="#FFF" x="4" y="4" width="24" height="24"/>
  <polygon fill="#ED4989" points="2 2 30 2 30 30 2 30"/>
  <path fill="#000000" opacity="0.2" d="M28,4 L28,28 L4,28 L4,4 L28,4 Z M30,2 L2,2 L2,30 L30,30 L30,2 Z"/>
  <path fill="#FFF" d="M16,8 C11.5814506,8 8,11.581868 8,16 C8,20.418132 11.5814506,24 16,24 C20.418132,24 24,20.418132 24,16 C24,11.581868 20.418132,8 16,8 Z M22.748642,15.9112302 C21.8339971,15.647054 20.8673148,15.5053655 19.8676569,15.5053655 C19.263892,15.5053655 18.6721858,15.557032 18.0967123,15.6561908 C17.9100359,15.2107646 17.7166809,14.7844931 17.5212852,14.3790459 C20.2539495,13.2102429 21.2481347,11.7572279 21.2481347,11.7572279 L21.2485521,11.7568105 C22.1694581,12.8944003 22.7282351,14.3378147 22.748642,15.9112302 Z M16,9.25089425 C17.7176085,9.25089425 19.2860149,9.89259729 20.4773119,10.9497191 L20.4768944,10.9501365 C19.5668412,11.9989565 18.3063464,12.7469143 16.9604675,13.2798581 C15.6616635,10.8684627 14.4286716,9.43506618 14.4286716,9.43506618 C14.9328603,9.31461931 15.4591254,9.25089425 16,9.25089425 Z M13.07732,9.91467381 C13.07732,9.91467381 14.2573931,11.4284919 15.5399644,13.7611354 C12.4510612,14.6491121 9.39587573,14.6019908 9.39587573,14.6019908 L9.39545831,14.6019908 C9.83174774,12.530648 11.2180693,10.8092828 13.07732,9.91467381 Z M9.25047684,16 C9.25047684,15.9408201 9.25131166,15.8820576 9.2525639,15.8233415 L9.25298131,15.8233415 C12.1393928,15.8387394 14.3965772,15.4424753 16.1350099,14.8916291 C16.3145903,15.2504189 16.4937997,15.6233543 16.6687885,16.0083483 C14.2761767,16.783809 12.2648022,18.4055516 10.9880747,20.5206764 C9.9079952,19.3239068 9.25047684,17.7388038 9.25047684,16 Z M16,22.7490594 C14.4616009,22.7490594 13.0440197,22.2344354 11.908517,21.3681641 C13.0443907,19.3647205 14.9149115,17.8325826 17.1533587,17.1379608 C17.7933921,18.7201419 18.3271707,20.4573224 18.5813289,22.2374037 C17.7863425,22.5673919 16.914181,22.7490594 16,22.7490594 Z M19.748926,21.6127682 C19.5147573,19.8801793 19.0788853,18.2688256 18.5530375,16.8221183 C18.982231,16.7600165 19.4213959,16.7279684 19.8677032,16.7279684 C20.8377712,16.7279684 21.7724055,16.8787937 22.6495295,17.1592489 C22.3290491,19.0126557 21.2523552,20.6068954 19.748926,21.6127682 Z"/>
</svg>