<svg width="32" height="32" viewBox="0 0 32 32" xmlns="http://www.w3.org/2000/svg">
  <rect fill="#8C8C8C" x="2" y="2" width="28" height="28"/>
  <rect fill="#FFF" x="4" y="4" width="24" height="24"/>
  <polygon fill="#61A8DE" points="2 2 30 2 30 30 2 30"/>
  <path fill="#000" opacity="0.2" d="M28,4 L28,28 L4,28 L4,4 L28,4 Z M30,2 L2,2 L2,30 L30,30 L30,2 Z"/>
  <path fill="#FFF" d="M22.9731698,9.05262027 C23.5301177,8.83558394 24.1057441,9.32305138 23.9833971,9.90813716 L23.9833971,9.90813716 L21.4850304,21.8528181 C21.3678212,22.4133192 20.710374,22.6650718 20.2487396,22.3262166 L20.2487396,22.3262166 L16.476533,19.5573228 L14.5539848,21.5203492 C14.2165701,21.8648703 13.6336931,21.7254293 13.4887302,21.2654755 L13.4887302,21.2654755 L12.1009941,16.8620388 L8.3825183,15.7639887 C7.89461871,15.619938 7.86590461,14.9397788 8.33987931,14.7550578 L8.33987931,14.7550578 Z M21.1385406,11.7034406 C21.3012698,11.559582 21.1122753,11.3054766 20.9276984,11.4200449 L20.9276984,11.4200449 L12.9010515,16.3982437 C12.7597378,16.4858745 12.6954432,16.6579671 12.7447565,16.8168069 L12.7447565,16.8168069 L13.8214392,20.2861711 C13.8441031,20.3590607 13.9502685,20.3490252 13.9588155,20.2731585 L13.9588155,20.2731585 L14.2205075,17.9468364 C14.2305911,17.8569487 14.2737102,17.7740236 14.3414621,17.7140985 L14.3414621,17.7140985 Z"/>
</svg>