<svg width="32" height="32" viewBox="0 0 32 32" xmlns="http://www.w3.org/2000/svg">
  <polygon fill="#0071B9" points="2 2 30 2 30 30 2 30"/>
  <path fill="#000" opacity="0.2" d="M28,4 L28,28 L4,28 L4,4 L28,4 Z M30,2 L2,2 L2,30 L30,30 L30,2 Z"/>
  <path fill="#FFF" d="M20.7032241,13.2911718 C22.8294081,13.2911718 24.5532759,15.0960435 24.5532759,17.3224446 C24.5532759,17.5148169 24.5456004,17.6999963 24.5302492,17.8770174 L19.0160446,17.8770174 C18.964874,19.0928004 19.8521518,19.8163324 20.8610803,19.8163324 C21.5760679,19.8163324 22.2044517,19.4370912 22.566604,18.7942251 L24.371524,18.7942251 C23.8762318,20.6017036 22.4211059,21.353814 20.7032241,21.353814 C18.4529273,21.353814 16.8531722,19.548894 16.8531722,17.3224929 C16.8531722,15.0960918 18.57704,13.2911718 20.7032241,13.2911718 Z M12.9498257,10.6462343 C13.632373,10.6462343 15.7405992,11.0514953 15.7525711,13.0778486 C15.7606812,14.478811 14.9676344,15.1191185 14.3051208,15.4258521 C14.3051208,15.4258038 16.0533187,15.9466813 16.1919619,17.4930935 C16.3306051,19.0395058 16.0533187,19.9993395 14.4749008,20.7779041 C13.8840742,21.0692865 13.1435013,21.1605728 12.4485475,21.1605728 L7.44672405,21.1605728 L7.44672405,10.6462343 L12.9498257,10.6462343 L12.9498257,10.6462343 Z M12.3031161,16.5008775 L9.76103228,16.5008196 L9.76103228,19.3752038 L12.2728298,19.3752038 C12.2728298,19.3752521 13.9391066,19.41363 13.9391066,17.9380358 C13.9391066,16.5804892 12.5287699,16.5043685 12.3031161,16.5008775 Z M20.7117686,14.8908786 C19.8585723,14.8908303 19.1508258,15.5294483 19.0160446,16.5311357 L22.4074926,16.5311357 C22.2727113,15.5294966 21.5649649,14.8908786 20.7117686,14.8908786 Z M12.1286351,12.4592643 L9.76103228,12.4592643 L9.76103228,14.8695415 L12.1611746,14.8693563 C12.3711071,14.8648637 13.5257356,14.7890334 13.5257356,13.6643788 C13.5257356,12.4272586 12.1286351,12.4592643 12.1286351,12.4592643 Z M22.8468834,11.3287334 L22.8468834,12.3952046 L18.5595647,12.3952046 L18.5595647,11.3287334 L22.8468834,11.3287334 Z"/>
</svg>