<svg width="32" height="32" viewBox="0 0 32 32" xmlns="http://www.w3.org/2000/svg">
  <polygon fill="#F06A36" points="2 2 30 2 30 30 2 30"/>
  <path fill="#000" opacity="0.2" d="M28,4 L28,28 L4,28 L4,4 L28,4 Z M30,2 L2,2 L2,30 L30,30 L30,2 Z"/>
  <path fill="#FFF" d="M14.2537965,8.00013605 C14.4992034,8.00092224 14.7684487,8.00321994 15.0653494,8.00668032 C16.6455899,8.02398222 17.1185086,8.04705143 17.3261314,8.11049174 C18.2085285,8.37578759 18.9755795,8.85447358 19.6676557,9.55808432 C20.6365623,10.5442928 21.1267828,11.64008 21.1267828,12.8166094 C21.1325501,13.4337107 21.2305943,13.6644027 21.5881669,13.8720255 C21.818859,14.0046735 21.8996012,14.0162081 22.6147465,14.0508119 C23.0472941,14.0738811 23.4452379,14.1142522 23.5086782,14.148856 C23.7105337,14.2584347 23.8893201,14.5237306 23.9527604,14.8120956 C24.021968,15.1292972 24.0392699,19.5989556 23.8547163,20.2275914 C23.600955,21.1330577 23.2145459,21.8193665 22.5974446,22.4480023 C21.7438841,23.3188648 20.8326505,23.7860162 19.673423,23.9417333 C19.4198313,23.9770156 18.3104491,23.995435 17.007119,23.9992483 L16.0819615,23.9995824 C14.2022099,23.9956945 12.2434429,23.9648025 11.9625414,23.9128968 C10.3765336,23.6245317 8.79629307,22.3153544 8.23686486,20.5447929 C8.06723836,20.0189508 8.00986469,19.5897708 8.00054697,17.9595588 L8.00020947,16.8269263 C8.00138336,16.4809211 8.00345879,16.0975253 8.00617281,15.6714235 C8.02347472,12.7820056 8.04077662,12.2744831 8.11575154,11.9630489 C8.52522991,10.2905316 9.63831903,8.98135421 11.1954903,8.36425299 C11.8691111,8.09665021 12.3581782,8.00991001 13.7936364,8.00068232 Z M16.5250964,17.9899337 L15.9938849,17.9898785 C15.8054864,17.9898785 15.6281034,17.9899209 15.4610364,17.9900506 L14.9900833,17.9907464 C12.8566266,17.99581 12.7449719,18.0286768 12.5219696,18.2263379 C12.320114,18.4051242 12.1932334,18.7684642 12.2278372,19.0279927 C12.2682083,19.2990559 12.5046677,19.6104902 12.7584289,19.7200689 C12.8490579,19.7612639 13.2251095,19.7936314 14.3195516,19.7982553 L14.8620031,19.7983996 C15.1919284,19.7973684 15.5708121,19.7944259 16.0054195,19.7892765 L18.7679567,19.7546727 L19.2985484,19.6681632 C19.8176055,19.3740308 19.904115,18.6646528 19.4773347,18.2609417 C19.2166188,18.0297408 19.1908655,17.9957406 17.2063086,17.9907406 L16.7670414,17.9900648 C16.6889321,17.9900027 16.6083137,17.9899613 16.5250964,17.9899337 Z M14.9435558,12.2458676 L14.3428606,12.2457255 C12.8032657,12.2470784 12.7180578,12.2689561 12.452762,12.539779 C12.0202144,12.9780939 12.2393718,13.8316544 12.8334038,13.9989062 C12.9487499,14.03351 13.7042663,14.0508119 14.6501037,14.0450446 C16.1842058,14.03351 16.2822499,14.0277427 16.4437343,13.9239313 C16.743634,13.727843 16.8820492,13.4913837 16.8820492,13.1511129 C16.8820492,12.770471 16.7378667,12.5340117 16.4033632,12.36676 C16.1936432,12.2618999 16.1316805,12.2476008 14.9435558,12.2458676 Z"/>
</svg>