<svg width="32" height="32" viewBox="0 0 32 32" xmlns="http://www.w3.org/2000/svg">
  <polygon fill="#341B14" points="2 2 30 2 30 30 2 30"/>
  <path fill="#FFB406" d="M28,4 L28,28 L4,28 L4,4 L28,4 Z M30,2 L2,2 L2,30 L30,30 L30,2 Z"/>
  <path fill="#341B14" d="M15.5247367,23.4038312 C15.6572187,23.3375902 19.1017497,21.8471681 20.1947259,20.9529148 C21.3208226,20.0255411 21.9169914,18.7007215 21.9169914,17.1109379 L21.9169914,9.65882747 L21.81763,9.62570698 C19.0686292,8.13528489 15.6572187,8.23464636 15.4916162,8.23464636 C15.3591342,8.23464636 11.9477237,8.13528489 9.19872295,9.62570698 L9.13248196,9.65882747 L9.13248196,17.1440584 C9.13248196,18.733842 9.7286508,20.0586616 10.8547475,20.9860353 C11.9477237,21.8802886 15.3922547,23.3707107 15.5247367,23.4038312"/>
  <path fill="#FFB406" d="M10.755386,21.0853968 C9.56304834,20.0917821 9,18.733842 9,17.1771789 L9,9.42698403 C11.8814827,7.87032096 15.5247367,8.00280292 15.5247367,8.00280292 C15.5247367,8.00280292 19.1679907,7.87032096 22.0494734,9.42698403 L22.0494734,17.1440584 C22.0494734,18.7007215 21.486425,20.0586616 20.2940874,21.0522763 C19.1679907,21.9796501 15.5247367,23.5694336 15.5247367,23.5694336 C15.5247367,23.5694336 11.8814827,21.9796501 10.755386,21.0853968 Z M9.52992785,17.1771789 C9.52992785,18.6344805 10.0598557,19.8268182 11.0865909,20.6548304 C12.0139647,21.4166017 14.7629654,22.6420599 15.5247367,22.9732648 C16.286508,22.6420599 19.0686292,21.3834812 19.9628825,20.6548304 C20.9896177,19.8268182 21.5195455,18.60136 21.5195455,17.1771789 L21.5195455,9.55946599 C17.6775686,9.19514059 13.1069409,9.39386354 9.52992785,12.7059126 L9.52992785,17.1771789 Z"/>
  <path fill="#FFB406" d="M19.2011112,16.0842027 C19.6979185,16.3822871 19.8966415,16.5810101 19.929762,16.9453355 C19.929762,17.3427813 19.6647981,17.5746248 19.2342317,17.5746248 C18.8699063,17.5746248 18.4393399,17.3759018 18.1412555,17.1109379 L18.1412555,18.1707936 C18.5055809,18.3695166 18.9361473,18.535119 19.3998341,18.535119 C20.5259308,18.535119 21.0558587,17.7402272 21.0558587,17.0115764 C21.0889792,16.3491666 20.8902562,15.8192388 19.929762,15.2561904 C19.4991956,14.9912265 19.1679907,14.825624 19.1679907,14.4281781 C19.1679907,14.0307323 19.5323161,13.8651298 19.8304005,13.8651298 C20.2278464,13.8651298 20.6252923,14.0969732 20.8571357,14.3288167 L20.8571357,13.3352019 C20.6584128,13.1695995 20.2278464,12.9377561 19.5985571,12.9708766 C18.8367858,13.003997 18.041894,13.5339249 18.041894,14.4612986 C18.0750145,15.090588 18.2737374,15.5542748 19.2011112,16.0842027 M15.2928933,18.468878 C15.3922547,18.5019985 15.5578572,18.535119 15.8228211,18.535119 C17.1145203,18.535119 17.8431711,17.3759018 17.8431711,15.7198773 C17.8431711,14.0307323 17.0813998,13.003997 15.7234596,13.003997 C15.0941703,13.003997 14.597363,13.136479 14.1667966,13.4014429 L14.1667966,20.8866739 L15.2928933,20.8866739 L15.2928933,18.468878 Z M15.2928933,13.9644913 C15.3922547,13.9313708 15.5578572,13.8651298 15.6903391,13.8651298 C16.352749,13.8651298 16.6177129,14.3950577 16.6177129,15.6867568 C16.6177129,16.9453355 16.286508,17.5415043 15.6240982,17.5415043 C15.4584957,17.5415043 15.3260138,17.5083838 15.2597728,17.4752633 L15.2597728,13.9644913 L15.2928933,13.9644913 Z M11.8152417,18.535119 C12.510772,18.535119 13.1069409,18.3695166 13.5375072,18.0714321 L13.5375072,13.070238 L12.3782901,13.070238 L12.3782901,17.4090223 C12.2458081,17.5083838 12.0802056,17.5415043 11.8483622,17.5415043 C11.3184344,17.5415043 11.2521934,17.0446969 11.2521934,16.7466125 L11.2521934,13.070238 L10.0929762,13.070238 L10.0929762,16.6803715 C10.0929762,17.9058297 10.689145,18.535119 11.8152417,18.535119 M19.5323161,23.0063853 L19.5323161,23.7681566 L19.6647981,23.7681566 L19.6647981,23.4700721 L19.6979185,23.4700721 L19.8966415,23.7681566 L20.0622439,23.7681566 C20.0622439,23.7681566 19.863521,23.4700721 19.8304005,23.4369517 C19.929762,23.4038312 19.996003,23.3375902 19.996003,23.2382287 C19.996003,23.1388672 19.929762,23.0063853 19.731039,23.0063853 L19.5323161,23.0063853 L19.5323161,23.0063853 Z M19.731039,23.1057467 C19.8304005,23.1057467 19.863521,23.1719877 19.863521,23.2051082 C19.863521,23.2713492 19.8304005,23.3375902 19.6979185,23.3375902 L19.6647981,23.3375902 L19.6647981,23.1057467 L19.731039,23.1057467 L19.731039,23.1057467 Z"/>
  <path fill="#FFB406" d="M20.2609669,23.3707107 C20.2609669,23.6356746 20.0291234,23.867518 19.7641595,23.867518 C19.4991956,23.867518 19.2673522,23.6356746 19.2673522,23.3707107 C19.2673522,23.1057467 19.4991956,22.8739033 19.7641595,22.8739033 C20.0622439,22.8739033 20.2609669,23.1057467 20.2609669,23.3707107 M19.7641595,22.7414213 C19.4329546,22.7414213 19.1348702,23.0063853 19.1348702,23.3707107 C19.1348702,23.7019156 19.3998341,24 19.7641595,24 C20.0953644,24 20.3934488,23.7350361 20.3934488,23.3707107 C20.3934488,23.0395058 20.0953644,22.7414213 19.7641595,22.7414213"/>
</svg>