<svg width="32" height="32" viewBox="0 0 32 32" xmlns="http://www.w3.org/2000/svg">
  <rect fill="#8C8C8C" x="2" y="2" width="28" height="28"/>
  <rect fill="#FFF" x="4" y="4" width="24" height="24"/>
  <polygon fill="#FF7700" points="2 2 30 2 30 30 2 30"/>
  <path fill="#000" opacity="0.2" d="M28,4 L28,28 L4,28 L4,4 L28,4 Z M30,2 L2,2 L2,30 L30,30 L30,2 Z"/>
  <path fill="#FFF" d="M11.9452055,19.890411 L13.0410959,19.890411 L13.0410959,13.5342466 C12.6301144,13.6412424 12.2597014,13.8355536 11.9452055,14.0909023 C11.9452055,14.0909577 11.9452055,19.890411 11.9452055,19.890411 Z M9.97260274,15.7324068 L9.97260274,19.8836027 L10.0432665,19.890411 L11.0684932,19.890411 L11.0684932,15.7260274 L10.0432665,15.7260274 C10.0432665,15.726081 9.97260274,15.7324068 9.97260274,15.7324068 Z M8,17.8071788 C8,18.6002186 8.44167869,19.2877597 9.09589041,19.6712329 L9.09589041,15.9452055 C8.44167869,16.3281163 8,17.0157136 8,17.8071788 Z M13.9178082,19.890411 L15.0136986,19.890411 L15.0136986,13.8901042 C14.686021,13.7041823 14.3150662,13.581603 13.9178082,13.5342466 L13.9178082,19.890411 Z M21.9637876,15.6821376 L21.4089741,15.6821376 C21.4370885,15.5105151 21.4548564,15.3364005 21.4548564,15.1563811 C21.4548564,13.4129605 20.0873239,12 18.4002941,12 C17.4850305,12 16.6693321,12.4212011 16.109589,13.0810378 L16.109589,19.890411 L21.9637876,19.890411 C23.0876616,19.890411 24,18.9484373 24,17.7854888 C24,16.6236237 23.0876616,15.6821376 21.9637876,15.6821376 Z"/>
</svg>