<svg width="32" height="32" viewBox="0 0 32 32" xmlns="http://www.w3.org/2000/svg">
  <rect fill="#8C8C8C" x="2" y="2" width="28" height="28"/>
  <rect fill="#FFF" x="4" y="4" width="24" height="24"/>
  <polygon fill="#FFFC00" points="2 2 30 2 30 30 2 30"/>
  <path fill="#000" opacity="0.2" d="M28,4 L28,28 L4,28 L4,4 L28,4 Z M30,2 L2,2 L2,30 L30,30 L30,2 Z"/>
  <path fill="#020202" d="M16.15384,8 L16.1531351,8 C16.1393273,8 16.1263488,8 16.1139923,8.00016586 C16.015472,8.00116101 15.8535105,8.00273668 15.8389563,8.00290254 C15.4837689,8.00290254 14.7731038,8.05307494 14.009737,8.39001785 C13.5732786,8.58253888 13.1806899,8.84285486 12.8429177,9.16375089 C12.4402116,9.54609775 12.1121422,10.017511 11.8679975,10.5650951 C11.5104466,11.3668583 11.595325,12.7173252 11.6634931,13.8025832 L11.6637419,13.8042833 C11.6710397,13.9205091 11.6787107,14.0418765 11.6857182,14.1601341 C11.6332653,14.1842252 11.548221,14.2096431 11.4228729,14.2096431 C11.2211882,14.2096431 10.9813558,14.1451653 10.7102175,14.0181172 C10.6304392,13.9809647 10.5393826,13.9621812 10.4389134,13.9621812 C10.2774909,13.9621812 10.1073194,14.0096998 9.95970475,14.0964857 C9.77398394,14.2055381 9.65398483,14.3596627 9.6213935,14.5305391 C9.59991474,14.6435721 9.60095136,14.8669844 9.84911814,15.0935481 C9.98562024,15.2182742 10.186144,15.3332975 10.4449672,15.4355912 C10.5128866,15.462336 10.5934941,15.4878783 10.6788701,15.5149548 C10.9751361,15.6091213 11.4235364,15.751387 11.5404671,16.0265889 C11.5997203,16.1661179 11.5742194,16.349724 11.4648768,16.5716436 C11.4620157,16.5776974 11.4591546,16.5836269 11.4565423,16.5898466 C11.429217,16.6536609 11.1742915,17.2310996 10.651379,17.8400931 C10.3542423,18.186407 10.0269606,18.4758313 9.67915396,18.7005705 C9.2546374,18.974943 8.79529042,19.1543197 8.31400856,19.2336004 C8.12501203,19.264616 7.99004413,19.4330046 8.00057619,19.6243646 C8.00381044,19.6795128 8.01674746,19.7344951 8.03917991,19.7876944 C8.03934577,19.7880261 8.03955309,19.7883579 8.03971895,19.7886481 C8.11613857,19.9674028 8.29331763,20.1192469 8.58137355,20.2531782 C8.93336818,20.4166739 9.4598052,20.5542126 10.1459231,20.6618137 C10.1805877,20.7277427 10.2165791,20.8934361 10.2414995,21.0068837 C10.2675808,21.1274634 10.2947817,21.2514431 10.3335513,21.3831353 C10.3753893,21.5258156 10.4839027,21.6963189 10.7626705,21.6963189 C10.8683228,21.6963189 10.9898146,21.6725181 11.1305047,21.6452342 C11.3365432,21.6048061 11.6182965,21.5496579 11.9699594,21.5496579 C12.1649269,21.5496579 12.3669848,21.5668243 12.5703696,21.6006181 C12.9624192,21.6658837 13.3003988,21.904638 13.6914532,22.1811252 C14.2638332,22.5857387 14.9117206,23.0437173 15.9016097,23.0437173 C15.9286032,23.0437173 15.9556797,23.0428466 15.9824245,23.0409806 C16.0151403,23.0425148 16.0556928,23.0437173 16.0984845,23.0437173 C17.0886638,23.0437173 17.7363853,22.5855728 18.3081433,22.1812911 L18.3090556,22.1804618 C18.700193,21.9043063 19.0377993,21.6658837 19.4297245,21.6006181 C19.6330264,21.5668658 19.8350429,21.5496579 20.0300933,21.5496579 C20.366041,21.5496579 20.6320377,21.592491 20.869548,21.6388072 C21.0245434,21.6693253 21.1449986,21.6840038 21.2374237,21.6840038 L21.246463,21.6841697 L21.255834,21.6841697 C21.4597164,21.6841697 21.6095287,21.5722562 21.6667087,21.376418 C21.7046904,21.2475039 21.7318084,21.1264267 21.7585532,21.0038153 C21.7818564,20.8974996 21.8190918,20.7270793 21.8537564,20.6604454 C22.5403304,20.5526369 23.0665601,20.4153885 23.4185962,20.2519342 C23.7059887,20.1186249 23.8829604,19.9669467 23.9598361,19.7889384 C23.9828906,19.7355732 23.9963666,19.6802591 23.9993936,19.6239499 C24.0102159,19.4329216 23.8750406,19.2642014 23.6859197,19.2331857 C21.5469584,18.8806521 20.583358,16.6828521 20.5435104,16.5894734 C20.5409395,16.5833366 20.538037,16.5772413 20.5350101,16.5713119 C20.4256674,16.3493093 20.4004153,16.1659106 20.45971,16.0261327 C20.5763919,15.7511797 21.024502,15.608914 21.3209752,15.5147889 C21.4068074,15.4877539 21.4877052,15.4620457 21.5550855,15.4354253 C21.8469561,15.3201532 22.0555655,15.1950954 22.1931872,15.0530784 C22.3575536,14.8837777 22.3895644,14.7215674 22.3875741,14.6154175 C22.3825569,14.3585846 22.1862211,14.1303624 21.8739082,14.0186148 C21.7684218,13.9749938 21.6481324,13.9519808 21.5256454,13.9519808 C21.4422597,13.9519808 21.3187776,13.9634251 21.2018883,14.0179928 C20.9516483,14.1350894 20.7274896,14.199111 20.5350515,14.2082333 C20.4327164,14.2030502 20.3609409,14.1808665 20.3144588,14.159678 C20.3203054,14.0594991 20.3267739,13.9565834 20.3334497,13.8492726 L20.3362278,13.8033296 C20.4047692,12.7173666 20.4899378,11.3658631 20.1322211,10.5635194 C19.8870397,10.0139865 19.5578093,9.54137077 19.1534861,9.15819461 C18.814387,8.83709125 18.4204715,8.57681674 17.9824374,8.3844201 C17.2201486,8.04996508 16.509525,8 16.15384,8"/>
  <path fill="#FFF" d="M16.0984845,22.8564623 C16.0542001,22.8564623 16.0119475,22.8548452 15.9798123,22.853311 C15.9543114,22.8555086 15.9279813,22.8564623 15.9016097,22.8564623 C14.9712641,22.8564623 14.3492092,22.4166453 13.8002568,22.028286 C13.4067974,21.7503475 13.035729,21.4879583 12.6010121,21.4156437 C12.3875099,21.3802327 12.1751272,21.3622785 11.9699179,21.3622785 C11.6001764,21.3622785 11.307974,21.4196243 11.0946376,21.4613379 C10.9633601,21.4869217 10.8501612,21.5089395 10.7626705,21.5089395 C10.6710333,21.5089395 10.5597003,21.4886217 10.5133012,21.3301847 C10.4765219,21.2052098 10.4501503,21.0841326 10.4246909,20.9675336 C10.361001,20.6761605 10.3148092,20.498318 10.2057154,20.4814419 C9.03885462,20.3014017 8.34941949,20.0361929 8.2120881,19.7150066 C8.19769982,19.6812543 8.18965565,19.6472946 8.18787266,19.6137081 C8.1825237,19.5179659 8.25011131,19.4339997 8.34448518,19.4183675 C9.27114039,19.2657771 10.0950873,18.7759949 10.7935617,17.9621654 C11.3346358,17.3321079 11.6003422,16.730122 11.62887,16.6636539 C11.630114,16.6606685 11.6315652,16.6575172 11.633058,16.6546561 C11.7676941,16.381486 11.7944804,16.145427 11.7129191,15.9532376 C11.5625678,15.5986722 11.0646171,15.4406913 10.7351793,15.3361586 C10.6532449,15.3102431 10.5757472,15.2856959 10.5140061,15.2611902 C10.2219696,15.1458352 9.74168286,14.9021051 9.80566304,14.5657013 C9.85226947,14.3203955 10.1767315,14.1495606 10.4389548,14.1495606 C10.511767,14.1495606 10.5762862,14.1623317 10.6306051,14.1878326 C10.9269125,14.3266567 11.1934897,14.3970225 11.4227485,14.3970225 C11.7078604,14.3970225 11.845565,14.2884676 11.8788612,14.2576178 C11.8706512,14.105525 11.8606167,13.9447245 11.850914,13.7926316 C11.850914,13.7924658 11.8507067,13.7906413 11.8507067,13.7906413 C11.7837825,12.7260328 11.7003138,11.4011497 12.0392056,10.6413903 C13.0535174,8.36717075 15.2045865,8.1903234 15.8394954,8.1903234 C15.856413,8.1903234 16.1162314,8.18775258 16.1162314,8.18775258 C16.127966,8.18754526 16.1406957,8.1873794 16.1538815,8.1873794 C16.7905319,8.1873794 18.9460792,8.36443407 19.9610129,10.6400219 C20.2999047,11.4002789 20.2163531,12.7262816 20.1492216,13.7920097 L20.1460703,13.8430114 C20.1368651,13.9877235 20.1283648,14.1246817 20.1211914,14.257452 C20.1525388,14.2863115 20.2785503,14.385827 20.5349271,14.3959029 C20.7534881,14.387527 21.0046403,14.317493 21.2812105,14.1879985 C21.3667109,14.1478605 21.461375,14.1395261 21.5256454,14.1395261 C21.6227975,14.1395261 21.7216495,14.1584341 21.8040401,14.1928084 L21.8084353,14.1945084 C22.0431261,14.2778112 22.1968361,14.4442923 22.2001532,14.6191908 C22.2030972,14.7822304 22.0819371,15.025919 21.4860051,15.2612732 C21.4249689,15.2854471 21.347098,15.3101602 21.2648319,15.3362415 C20.9351039,15.4408987 20.4375678,15.5987966 20.2872165,15.9531547 C20.2055308,16.145344 20.2324,16.3813202 20.3670777,16.6544073 C20.3685704,16.6573928 20.3698558,16.6604197 20.3713071,16.663571 C20.4127719,16.7607645 21.4164272,19.0492479 23.6556919,19.4181602 C23.7500243,19.4338753 23.8177363,19.5179245 23.8123459,19.6135008 C23.8103556,19.6478337 23.8020626,19.6821665 23.7875499,19.7157115 C23.6511722,20.0351148 22.9617786,20.2999505 21.7945861,20.4802394 C21.6850361,20.497157 21.6388858,20.6742117 21.5757764,20.9640506 C21.5496536,21.0837595 21.5230746,21.2011048 21.4867929,21.3244211 C21.4528333,21.4403982 21.3772844,21.4970805 21.2559584,21.4970805 L21.2376725,21.4970805 C21.158682,21.4970805 21.0467685,21.4827337 20.9056224,21.4551182 C20.6589069,21.4071019 20.3822123,21.3624029 20.0303421,21.3624029 C19.8251743,21.3624029 19.6128331,21.3803986 19.3990821,21.4157681 C18.9648213,21.4880827 18.5937943,21.7500572 18.2010398,22.0277055 C17.6510093,22.4166038 17.0287471,22.8564623 16.0984845,22.8564623"/>
</svg>