<svg width="32" height="32" viewBox="0 0 32 32" xmlns="http://www.w3.org/2000/svg">
  <rect fill="#8C8C8C" x="2" y="2" width="28" height="28"/>
  <rect fill="#FFF" x="4" y="4" width="24" height="24"/>
  <polygon fill="#212121" points="2 2 30 2 30 30 2 30"/>
  <path fill="#000" opacity="0.2" d="M28,4 L28,28 L4,28 L4,4 L28,4 Z M30,2 L2,2 L2,30 L30,30 L30,2 Z"/>
  <path fill="#EE1D52" d="M19.5201137,13.7833803 C20.5544084,14.5209004 21.8215706,14.9548855 23.1900452,14.9548855 L23.1900452,12.3278652 C22.9310316,12.3279678 22.6727192,12.3010013 22.4193332,12.2474068 L22.4193332,14.3152738 C21.050953,14.3152738 19.7839798,13.8812887 18.7494016,13.1437686 L18.7494016,18.5046784 C18.7494016,21.186501 16.570049,23.3603883 13.8817713,23.3603883 C12.8787587,23.3603883 11.9464381,23.057891 11.1719457,22.5391085 C12.0558783,23.4406581 13.2885451,24 14.6522943,24 C17.3407611,24 19.5202082,21.8261126 19.5202082,19.1441957 L19.5202082,13.7833803 L19.5201137,13.7833803 Z M20.4708634,11.1330619 C19.9422806,10.5570247 19.5952475,9.81252464 19.5201137,8.98945261 L19.5201137,8.65158371 L18.7897565,8.65158371 C18.9735744,9.69763789 19.6006345,10.5913587 20.4708634,11.1330619 L20.4708634,11.1330619 Z M12.8722377,20.4812397 C12.5769436,20.0949797 12.4173203,19.6224115 12.4180326,19.1365555 C12.4180326,17.909965 13.4149021,16.9155061 14.6447337,16.9155061 C14.8739014,16.915347 15.1017248,16.9504387 15.3201818,17.0195456 L15.3201818,14.3338557 C15.0649322,14.2989657 14.8073278,14.2841741 14.5497532,14.2896177 L14.5497532,16.3800282 C14.3311991,16.3109205 14.1032822,16.2758291 13.8740216,16.2759887 C12.6441901,16.2759887 11.647415,17.2704476 11.647415,18.4971325 C11.647415,19.3644425 12.1456608,20.1154509 12.8722377,20.4812397 L12.8722377,20.4812397 Z"/>
  <path fill="#FFF" d="M18.7346198,13.1400835 C19.7661291,13.8769985 21.029344,14.3106277 22.3936652,14.3106277 L22.3936652,12.2444569 C21.6321179,12.0823526 20.9579195,11.684443 20.4509752,11.1310263 C19.5833276,10.5897674 18.9581276,9.69677977 18.774855,8.65158371 L16.8621293,8.65158371 L16.8621293,19.1354939 C16.8577949,20.3576853 15.8655785,21.3472758 14.6420334,21.3472758 C13.9210039,21.3472758 13.2804448,21.0037465 12.8747951,20.4715353 C12.1503735,20.1060466 11.6536057,19.3556543 11.6536057,18.4890557 C11.6536057,17.2633772 12.647424,16.2697341 13.8736074,16.2697341 C14.1085168,16.2697341 14.3349457,16.3063018 14.5473346,16.3736882 L14.5473346,14.2849925 C11.9141449,14.3393729 9.79638009,16.4902714 9.79638009,19.1355882 C9.79638009,20.4560789 10.3237719,21.6532006 11.179641,22.5278102 C11.951836,23.0461671 12.881391,23.3484163 13.8814283,23.3484163 C16.5617318,23.3484163 18.7346198,21.176218 18.7346198,18.4966897 L18.7346198,13.1400835 Z"/>
  <path fill="#69C9D0" d="M22.3936652,12.2426274 L22.3936652,11.6825121 C21.7054396,11.683551 21.0308091,11.4907917 20.4468983,11.1262708 C20.9637651,11.6922249 21.6443733,12.0825138 22.3936652,12.2426274 L22.3936652,12.2426274 Z M18.7672607,8.64061765 C18.7497164,8.54048629 18.7362653,8.43967984 18.7269411,8.33845021 L18.7269411,8 L16.0803882,8 L16.0803882,18.5106648 C16.0761391,19.7358697 15.0819349,20.7279767 13.8557277,20.7279767 C13.4956839,20.7279767 13.1558472,20.642561 12.8548193,20.4906269 C13.2613203,21.0241915 13.9032236,21.3685943 14.6257662,21.3685943 C15.8517845,21.3685943 16.8461776,20.3764873 16.8505211,19.151188 L16.8505211,8.64061765 L18.7672607,8.64061765 Z M14.5309631,14.288352 L14.5309631,13.6920484 C14.309816,13.6617939 14.0868638,13.6466725 13.8636594,13.6467888 C11.1774479,13.6467888 9,15.8245115 9,18.5106648 C9,20.19479 9.85577668,21.6789821 11.1562022,22.5520362 C10.298537,21.6752026 9.77003849,20.4750366 9.77003849,19.151188 C9.77003849,16.4992388 11.8921531,14.3428706 14.5309631,14.288352 L14.5309631,14.288352 Z"/>
</svg>