<svg width="32" height="32" viewBox="0 0 32 32" xmlns="http://www.w3.org/2000/svg">
  <polygon fill="#FF9800" points="2 2 30 2 30 30 2 30"/>
  <path fill="#000" opacity="0.2" d="M28,4 L28,28 L4,28 L4,4 L28,4 Z M30,2 L2,2 L2,30 L30,30 L30,2 Z"/>
  <path fill="#FFF" d="M24,18 L24,24 L8,24 L8,18 L10,18 L10,22 L22,22 L22,18 L24,18 Z M11,19 L21,19 L21,21 L11,21 L11,19 Z M11.2365,16.8355 L11.6695,14.883 L21.4325,17.047 L20.9995,18.9995 L11.2365,16.8355 Z M12.3695,12.821 L13.2145,11.0085 L22.2775,15.2345 L21.4325,17.047 L12.3695,12.821 Z M23.4955,13.648 L22.278,15.2345 L14.3445,9.147 L15.225,8 L16.135,8 L23.4955,13.648 Z"/>
</svg>