<svg width="32" height="32" viewBox="0 0 32 32" xmlns="http://www.w3.org/2000/svg">
  <polygon fill="#FF5A5F" points="2 2 30 2 30 30 2 30"/>
  <path fill="#000" opacity="0.2" d="M28,4 L28,28 L4,28 L4,4 L28,4 Z M30,2 L2,2 L2,30 L30,30 L30,2 Z" />
  <path fill="#FFF" d="M16.4487821,8 C17.2335669,8 17.9703036,8.35235235 18.4828161,8.99299299 C18.7390724,9.28128128 18.8992326,9.58558559 19.0593927,9.87387387 C19.1875209,10.1301301 19.315649,10.3863864 19.4437771,10.6266266 L19.4437771,10.6266266 L19.4918252,10.7227227 C20.7410744,13.1251251 21.9262596,15.5595596 23.0313647,17.961962 L23.0313647,17.961962 L23.0473807,17.977978 C23.1594928,18.2342342 23.287621,18.5065065 23.4157491,18.7947948 C23.4424424,18.8535202 23.4691358,18.9158047 23.4958292,18.9798688 L23.6559893,19.3713714 C23.8641975,19.963964 23.9282616,20.5245245 23.8001335,21.0850851 C23.6239573,22.2702703 22.8391725,23.2952953 21.7180514,23.7437437 C21.317651,23.9199199 20.8692025,24 20.4207541,24 C20.292626,24 20.1324658,23.983984 20.0043377,23.967968 C19.4758091,23.9039039 18.9312646,23.7277277 18.4027361,23.4234234 C17.7620954,23.0550551 17.1214548,22.5265265 16.4167501,21.7577578 C15.7120454,22.5265265 15.0874208,23.0550551 14.4307641,23.4234234 C13.9022356,23.7277277 13.357691,23.9039039 12.8291625,23.967968 C12.7010344,23.983984 12.5408742,24 12.4127461,24 C11.9642976,24 11.5318652,23.9199199 11.1154488,23.7437437 C10.0103437,23.2952953 9.20954288,22.2862863 9.0333667,21.0850851 C8.95328662,20.5085085 9.01735068,19.9479479 9.22555889,19.3553554 C9.30563897,19.1471471 9.38571905,18.954955 9.46579913,18.7787788 C9.59392726,18.4904905 9.72205539,18.2182182 9.8341675,17.961962 L9.8341675,17.961962 L9.85018352,17.9299299 C10.9552886,15.5275275 12.1564898,13.0930931 13.3897231,10.6906907 L13.3897231,10.6906907 L13.4377711,10.5945946 C13.5658992,10.3543544 13.6940274,10.0980981 13.8221555,9.84184184 C13.9823156,9.55355355 14.1584918,9.24924925 14.3987321,8.96096096 C14.9272606,8.35235235 15.6479813,8 16.4487821,8 Z M16.4647981,9.05705706 C15.9683016,9.05705706 15.5198532,9.26526527 15.1835169,9.64964965 C15.0073407,9.85785786 14.8631965,10.0980981 14.7350684,10.3543544 C14.6069403,10.5945946 14.4788121,10.8508509 14.350684,11.0910911 L14.350684,11.0910911 L14.302636,11.1871872 C13.0694027,13.5575576 11.8842176,15.991992 10.7791124,18.3783784 L10.7791124,18.3783784 L10.7630964,18.4104104 C10.6349683,18.6826827 10.5068402,18.954955 10.3947281,19.2112112 C10.314648,19.4034034 10.2345679,19.5635636 10.1865199,19.7237237 C10.0263597,20.1721722 9.99432766,20.5725726 10.0423757,20.972973 C10.1544878,21.8058058 10.7150484,22.5265265 11.4998332,22.8468468 C11.8682015,22.990991 12.284618,23.0550551 12.7170504,23.007007 C13.1174508,22.958959 13.5178512,22.8308308 13.9342676,22.5905906 C14.5108442,22.2702703 15.1034368,21.7737738 15.7600934,21.037037 C14.7190524,19.7397397 14.0623957,18.5385385 13.8221555,17.4814815 C13.6940274,17.001001 13.6780113,16.5365365 13.7420754,16.1201201 C13.8061395,15.7197197 13.9502836,15.3513514 14.1745078,15.031031 C14.6710043,14.3263263 15.5038372,13.8938939 16.4327661,13.8938939 C17.361695,13.8938939 18.1945279,14.3103103 18.6910244,15.031031 C18.9152486,15.3513514 19.0593927,15.7197197 19.1234568,16.1201201 C19.1715048,16.5365365 19.1554888,16.984985 19.0433767,17.4814815 C18.8031365,18.5385385 18.1624958,19.7237237 17.1054388,21.021021 C17.7781114,21.7577578 18.354688,22.2542543 18.9312646,22.5745746 C19.347681,22.8148148 19.7480814,22.9429429 20.1484818,22.990991 C20.5648982,23.039039 20.9813146,22.990991 21.365699,22.8308308 C22.1504838,22.5105105 22.7110444,21.7897898 22.8231565,20.956957 C22.8872206,20.5405405 22.8391725,20.1401401 22.7110444,19.7237237 C22.6629963,19.5635636 22.5829162,19.4034034 22.5028362,19.2112112 C22.374708,18.954955 22.2625959,18.6666667 22.1344678,18.4104104 L22.1344678,18.4104104 L22.1344678,18.3943944 C21.0293627,16.008008 19.8441775,13.5735736 18.6269603,11.1871872 L18.6269603,11.1871872 L18.5789122,11.0910911 C18.4507841,10.8508509 18.322656,10.5945946 18.1945279,10.3543544 C18.0663997,10.0980981 17.9222556,9.85785786 17.7460794,9.64964965 C17.4097431,9.26526527 16.9612946,9.05705706 16.4647981,9.05705706 Z M16.4327661,14.8708709 C15.8401735,14.8708709 15.327661,15.1431431 15.0233567,15.5755756 C14.8952286,15.7677678 14.7991325,15.991992 14.7671004,16.2482482 C14.7190524,16.5365365 14.7350684,16.8568569 14.8151485,17.2252252 C15.0073407,18.0900901 15.5679012,19.1151151 16.4327661,20.2042042 C17.297631,19.0990991 17.8581915,18.0740741 18.0503837,17.2252252 C18.1304638,16.8728729 18.1464798,16.5365365 18.0984318,16.2482482 C18.0663997,15.991992 17.9703036,15.7677678 17.8421755,15.5755756 C17.5538872,15.1271271 17.0253587,14.8708709 16.4327661,14.8708709 Z"/>
</svg>