<svg width="32" height="32" viewBox="0 0 32 32" xmlns="http://www.w3.org/2000/svg">
  <rect fill="#8C8C8C" x="2" y="2" width="28" height="28"/>
  <rect fill="#FFF" x="4" y="4" width="24" height="24"/>
  <polygon fill="#F78422" points="2 2 30 2 30 30 2 30"/>
  <path fill="#000" opacity="0.2" d="M28,4 L28,28 L4,28 L4,4 L28,4 Z M30,2 L2,2 L2,30 L30,30 L30,2 Z"/>
  <path fill="#FFF" d="M10.3869462,19.2366141 C11.7052202,19.2366141 12.7738924,20.3029344 12.7738924,21.6183071 C12.7738924,22.9336797 11.7052202,24 10.3869462,24 C9.06867222,24 8,22.9336797 8,21.6183071 C8,20.3029344 9.06867222,19.2366141 10.3869462,19.2366141 Z M8.05515748,7 C12.5845961,7 16.8407334,8.75779564 20.0395044,11.9495267 C23.2382754,15.1412578 25,19.3880796 25,23.9075497 L25,23.9075497 L21.6673491,23.9075497 C21.6673491,20.2763052 20.2523138,16.8645848 17.6830113,14.3008852 C15.113657,11.7371856 11.6944114,10.3253163 8.05515748,10.3253163 L8.05515748,10.3253163 Z M8.02061284,12.6271682 C14.2543916,12.6271682 19.3258754,17.6875422 19.3258754,23.9076014 L19.3258754,23.9076014 L15.9932245,23.9076014 C15.9932245,19.5210964 12.4166895,15.9524845 8.02061284,15.9524845 L8.02061284,15.9524845 Z"/>
</svg>