<svg width="32" height="32" viewBox="0 0 32 32" xmlns="http://www.w3.org/2000/svg">
  <rect fill="#8C8C8C" x="2" y="2" width="28" height="28"/>
  <rect fill="#FFF" x="4" y="4" width="24" height="24"/>
  <polygon fill="#EEE" points="2 2 30 2 30 30 2 30"/>
  <path fill="#000" opacity="0.2" d="M28,4 L28,28 L4,28 L4,4 L28,4 Z M30,2 L2,2 L2,30 L30,30 L30,2 Z"/>
  <path fill="#4285F4" d="M23.6813505,16.1824787 C23.6820177,15.6373321 23.6359243,15.0931325 23.5435699,14.5558654 L15.999373,14.5558654 L15.999373,17.6368754 L20.3203423,17.6368754 C20.1416716,18.631234 19.5645039,19.509428 18.722617,20.0679068 L18.722617,22.0678412 L21.3014213,22.0678412 C22.8113717,20.6756646 23.6813505,18.6168433 23.6813505,16.1824787 Z"/>
  <path fill="#34A853" d="M15.999373,24 C18.158191,24 19.9759092,23.2911344 21.3014213,22.0689522 L18.722617,20.0690178 C18.0048627,20.5556685 17.0804486,20.8334372 15.999373,20.8334372 C13.9127748,20.8334372 12.1417218,19.4268167 11.5084092,17.5313233 L8.85182967,17.5313233 L8.85182967,19.5923668 C10.2097339,22.2944526 12.9752745,23.9998622 15.999373,24 Z"/>
  <path fill="#FBBC04" d="M11.5084092,17.5313233 C11.1735996,16.5380719 11.1735996,15.462453 11.5084092,14.4692015 L11.5084092,12.408158 L8.85182967,12.408158 C7.71605678,14.668226 7.71605678,17.3322988 8.85182967,19.5923668 L11.5084092,17.5313233 Z"/>
  <path fill="#EA4335" d="M15.999373,11.1670876 C17.1402106,11.1484494 18.2425625,11.5794921 19.0681612,12.3670483 L19.0681612,12.3670483 L21.3514196,10.0837899 C19.9035961,8.7239187 17.9855513,7.97732666 15.999373,8.00052486 C12.9752745,8.00066268 10.2097339,9.70607222 8.85182967,12.408158 L11.5084092,14.4692015 C12.1417218,12.5737082 13.9127748,11.1670876 15.999373,11.1670876 Z"/>
</svg>