<svg width="32" height="32" viewBox="0 0 32 32" xmlns="http://www.w3.org/2000/svg">
  <polygon fill="#005A5F" points="2 2 30 2 30 30 2 30"/>
  <path fill="#000" opacity="0.2" d="M28,4 L28,28 L4,28 L4,4 L28,4 Z M30,2 L2,2 L2,30 L30,30 L30,2 Z"/>
  <path fill="#FFF" d="M23.2650973,8 C23.4041373,8 23.5130973,8.0524 23.5719773,8.14744 C23.6326973,8.246 23.6313373,8.37608 23.5670973,8.5036 L23.5670973,8.5036 L18.4580573,17.5372 C18.454931,17.5417552 18.454931,17.5477648 18.4580573,17.55232 L18.4580573,17.55232 L21.7111773,23.49592 C21.7757373,23.624 21.7774973,23.75416 21.7158973,23.85256 C21.6573373,23.94768 21.5486973,24 21.4096573,24 L21.4096573,24 L19.1048573,24 C18.7513373,24 18.5746173,23.76512 18.4600573,23.56048 C18.4600573,23.56048 15.1897373,17.56088 15.1813373,17.5452 C15.3451773,17.25576 20.3163773,8.43976 20.3163773,8.43976 C20.4401373,8.21736 20.5894973,8.00024 20.9342173,8.00024 L20.9342173,8 Z M13.5477373,11.16008 C13.9016573,11.16008 14.0750173,11.38832 14.1901373,11.59288 C14.1901373,11.59288 15.7670973,14.34408 15.7765373,14.35928 C15.6831773,14.52392 13.2853373,18.76472 13.2853373,18.76472 C13.1674173,18.97752 13.0009373,19.21032 12.6559773,19.21032 L12.6559773,19.21032 L10.3484573,19.21032 C10.2094173,19.21032 10.1056573,19.148 10.0467773,19.05304 C9.98597731,18.95432 9.98285731,18.8264 10.0467773,18.69904 L10.0467773,18.69904 L12.4986173,14.37232 C12.5012573,14.3676 12.5012573,14.36432 12.4986173,14.3592 L12.4986173,14.3592 L10.9383773,11.65832 C10.8734973,11.52984 10.8642973,11.40288 10.9250973,11.3044 C10.9840573,11.20896 11.1009373,11.16008 11.2398173,11.16008 L11.2398173,11.16008 Z"/>
</svg>