<svg width="32" height="32" viewBox="0 0 32 32" xmlns="http://www.w3.org/2000/svg">
  <defs>
    <linearGradient x1="49.9619166%" y1="100.283203%" x2="49.9619166%" y2="-0.0316596797%" id="linearGradient">
      <stop stop-color="#096FD2" offset="0%"/>
      <stop stop-color="#0E8EE9" offset="100%"/>
    </linearGradient>
  </defs>
  <polygon fill="url(#linearGradient)" points="2 2 30 2 30 30 2 30"/>
  <path fill="#000" opacity="0.2" d="M28,4 L28,28 L4,28 L4,4 L28,4 Z M30,2 L2,2 L2,30 L30,30 L30,2 Z"/>
  <path fill="#FFF" d="M15.9971637,8 C20.4470741,8.03081386 24.0295503,11.6149831 23.9998162,16.0064346 C24.0295503,20.397886 20.4470741,23.9820553 15.9971637,24.0128691 C11.549475,23.978981 7.97044164,20.3957161 8.00018404,16.0064346 C7.97044164,11.6171531 11.549475,8.03388815 15.9971637,8 Z M17.8711307,13.4403664 L18.3170252,15.0845787 L13.6803277,15.0845787 L14.1262221,13.4403664 L8.57617834,16.0083254 L14.1300041,18.5743933 L13.6841096,16.930181 L18.3208072,16.930181 L17.8749127,18.5743933 L23.4211745,16.0083254 L23.4211745,16.0064344 L17.8711307,13.4403664 Z"/>
</svg>