<svg width="32" height="32" viewBox="0 0 32 32" xmlns="http://www.w3.org/2000/svg">
  <rect fill="#8C8C8C" x="2" y="2" width="28" height="28"/>
  <rect fill="#FFF" x="4" y="4" width="24" height="24"/>
  <polygon fill="#4D76A1" points="2 2 30 2 30 30 2 30"/>
  <path fill="#000" opacity="0.2" d="M28,4 L28,28 L4,28 L4,4 L28,4 Z M30,2 L2,2 L2,30 L30,30 L30,2 Z"/>
  <path fill="#FFF" d="M23.2664649,21.0824457 L21.1302291,21.1145805 C21.1302291,21.1145805 20.6693865,21.2058726 20.0668584,20.7903109 C19.2678697,20.2425581 18.5148923,18.8140189 17.9262406,19.0009852 C17.3324766,19.1879515 17.3507351,20.4704233 17.3507351,20.4704233 C17.3507351,20.4704233 17.3551171,20.7442997 17.2185441,20.8903671 C17.0724767,21.0503109 16.7803419,21.0817154 16.7803419,21.0817154 L15.8265217,21.0817154 C15.8265217,21.0817154 13.7173084,21.2095243 11.8600614,19.2741312 C9.83337618,17.1656483 8.04405049,12.9793565 8.04405049,12.9793565 C8.04405049,12.9793565 7.93888196,12.7054801 8.05354487,12.5732891 C8.18135385,12.4228397 8.52388191,12.4133453 8.52388191,12.4133453 L10.8105671,12.3994689 C10.8105671,12.3994689 11.0252862,12.4359858 11.1801176,12.5499184 C11.3079266,12.6412105 11.3765783,12.8194127 11.3765783,12.8194127 C11.3765783,12.8194127 11.7461288,13.7549744 12.2347243,14.5999744 C13.1885444,16.2476147 13.636241,16.6084011 13.9597803,16.4353113 C14.4301173,16.1796933 14.288432,14.1026148 14.288432,14.1026148 C14.288432,14.1026148 14.297196,13.3496374 14.0510724,13.0158734 C13.8597241,12.7558734 13.4989376,12.6777273 13.3433759,12.6594689 C13.2155669,12.6412105 13.4259039,12.3446937 13.6997803,12.2073903 C14.1109601,12.0065476 14.8361847,11.9926712 15.6943307,12.0021656 C16.3611284,12.0065476 16.5568587,12.0525589 16.817589,12.1117161 C17.6070834,12.3030644 17.337589,13.0385138 17.337589,14.8000867 C17.337589,15.3660979 17.2375328,16.1607046 17.6436002,16.4207045 C17.8174204,16.5346371 18.2461282,16.438963 19.3189933,14.6175024 C19.8258472,13.7549744 20.2092741,12.7412667 20.2092741,12.7412667 C20.2092741,12.7412667 20.2918022,12.5586824 20.4196112,12.4812667 C20.5518022,12.403851 20.7300044,12.4264914 20.7300044,12.4264914 L23.1357345,12.412615 C23.1357345,12.412615 23.8573075,12.3257049 23.9756221,12.6543566 C24.0990491,12.9968846 23.7061278,13.7958733 22.7252851,15.1053676 C21.1141617,17.2554797 20.9315774,17.0546371 22.2732065,18.29621 C23.5512963,19.4830076 23.8164086,20.0628952 23.8616895,20.1359289 C24.3816895,21.0123333 23.2679255,21.080985 23.2679255,21.080985 L23.2664649,21.0824457 Z"/>
</svg>