<svg width="32" height="32" viewBox="0 0 32 32" xmlns="http://www.w3.org/2000/svg">
  <polygon fill="#FF1A03" points="2 2 30 2 30 30 2 30"/>
  <path fill="#000" opacity="0.2" d="M28,4 L28,28 L4,28 L4,4 L28,4 Z M30,2 L2,2 L2,30 L30,30 L30,2 Z"/>
  <path fill="#FFF" d="M8,8.91311556 L8,23.0868844 C8,23.59117 8.40878972,24 8.91311556,24 L23.0868844,24 C23.59117,24 24,23.5912103 24,23.0868844 L24,8.91311556 C24,8.40878972 23.59117,8 23.0868844,8 L8.91311556,8 C8.40878972,8 8,8.40878972 8,8.91311556 Z M15.2946452,12.362493 L12.7836581,12.362493 C12.531475,12.362493 12.3263747,12.5675933 12.3263747,12.8197764 L12.3263747,15.2351871 L10.2313123,15.2351871 L10.2313123,12.8197764 C10.2313123,11.4124529 11.3763347,10.2674306 12.7836581,10.2674306 L15.2946452,10.2674306 L15.2946452,12.362493 L15.2946452,12.362493 Z M21.7686877,19.1802236 C21.7686877,20.5875471 20.6236653,21.7325694 19.2163419,21.7325694 L16.7053548,21.7325694 L16.7053548,19.637507 L19.2163419,19.637507 C19.468525,19.637507 19.6736253,19.4324067 19.6736253,19.1802236 L19.6736253,16.7648129 L21.7686877,16.7648129 L21.7686877,19.1802236 L21.7686877,19.1802236 Z"/>
</svg>