<svg width="32" height="32" viewBox="0 0 32 32" xmlns="http://www.w3.org/2000/svg">
  <rect fill="#8C8C8C" x="2" y="2" width="28" height="28"/>
  <rect fill="#FFF" x="4" y="4" width="24" height="24"/>
  <polygon fill="#63AD86" points="2 2 30 2 30 30 2 30"/>
  <path fill="#000" opacity="0.2" d="M28,4 L28,28 L4,28 L4,4 L28,4 Z M30,2 L2,2 L2,30 L30,30 L30,2 Z"/>
  <path fill="#FFF" d="M23.0238709,15.9523597 C22.6114041,16.0463521 22.214436,16.0898486 21.8554649,16.0898486 C19.8366275,16.0898486 18.2837525,14.6804621 18.2837525,12.2276596 C18.2837525,11.0247565 18.749215,10.4028065 19.4056622,10.4028065 C20.0306119,10.4028065 20.4460784,10.9622615 20.4460784,12.0996699 C20.4460784,12.7466178 20.2740923,13.4560607 20.1461026,13.874527 C20.1461026,13.874527 20.7680525,14.9589397 22.4679156,14.6274664 C22.8303864,13.824531 23.0243708,12.7871146 23.0243708,11.8776878 C23.0243708,9.42788503 21.7744715,8 19.4841559,8 C17.1278456,8 15.7499565,9.80935432 15.7499565,12.1966621 C15.7499565,14.5619717 16.8558675,16.5898084 18.6777208,17.5147339 C17.9122824,19.0491104 16.9373609,20.3990017 15.918443,21.4174197 C14.0745914,19.1865993 12.4062257,16.2113389 11.7217809,10.4028065 L9,10.4028065 C10.2593986,20.0770276 14.005597,23.1577796 14.999517,23.748732 C15.5589719,24.0862048 16.0434329,24.0707061 16.5553917,23.7802295 C17.3618267,23.3237662 19.7771323,20.9054609 21.1175244,18.0776886 C21.6799791,18.0776886 22.3549247,18.0121939 23.0268706,17.8587062 L23.0268706,15.9523597 L23.0238709,15.9523597 Z"/>
</svg>