<svg width="32" height="32" viewBox="0 0 32 32" xmlns="http://www.w3.org/2000/svg">
  <rect fill="#8C8C8C" x="2" y="2" width="28" height="28"/>
  <rect fill="#FFF" x="4" y="4" width="24" height="24"/>
  <polygon fill="#90B24C" points="2 2 30 2 30 30 2 30"/>
  <path fill="#000" opacity="0.2" d="M28,4 L28,28 L4,28 L4,4 L28,4 Z M30,2 L2,2 L2,30 L30,30 L30,2 Z"/>
  <path fill="#FFF" d="M20.8538365,8.18242987 C20.2682121,7.86806668 18.9059157,7.96428151 17.3046112,8.43785781 C16.0880822,9.41935791 12.128614,12.9482679 12.0817423,17.3364094 C12.0779724,17.6910262 11.5938825,17.7901731 11.4538118,17.4643328 C11.0767016,16.5870899 10.7702551,15.1228821 11.1841003,12.872159 C11.2452974,12.5392398 10.8225722,12.3437942 10.6080261,12.605589 C10.4638924,12.7814732 10.3271726,12.9621326 10.1987885,13.1474833 C7.67374628,16.7932585 9.47916695,21.4659814 12.4503912,23.0900725 C15.4216155,24.7142056 19.8377795,24.3524261 21.9648936,20.4610245 C24.0920077,16.5697067 22.3354275,8.97769962 20.8538365,8.18242987 Z"/>
</svg>