<svg width="32" height="32" viewBox="0 0 32 32"  xmlns="http://www.w3.org/2000/svg">
  <path fill="#8C8C8C" d="M2 2h28v28H2z"/>
  <path fill="#FFF" d="M4 4h24v24H4z"/>
  <path fill="#4CAF50" d="M2 2h28v28H2z"/>
  <path fill="#000" opacity=".2" d="M28 4v24H4V4h24zm2-2H2v28h28V2z"/>
  <path fill="#FFF" d="M16 8a8 8 0 110 16 8 8 0 010-16zm3.425 10.743c-2.303-1.378-5.003-1.429-7.645-.846-.243.052-.44.21-.44.542 0 .262.197.51.51.51.094 0 .259-.051.385-.084 2.313-.474 4.655-.423 6.668.79.126.074.21.116.345.116.26 0 .49-.204.49-.496 0-.294-.117-.406-.313-.532zm-4.758-3.82c-1.342 0-2.258.188-3.154.44-.332.093-.5.322-.5.667 0 .345.28.625.625.625.145 0 .23-.042.384-.084 2.675-.726 5.68-.244 7.697.949.116.061.229.135.397.135a.625.625 0 00.626-.628c0-.28-.103-.481-.365-.636-1.594-.948-3.616-1.468-5.71-1.468zm.156-2.748c-1.384 0-2.656.158-3.791.49a.762.762 0 00-.561.77c0 .429.325.762.751.762.155 0 .3-.052.417-.084 2.657-.742 6.764-.413 9.06.958a.747.747 0 001.165-.625c0-.383-.163-.583-.415-.729-1.804-1.052-4.272-1.542-6.626-1.542z"/>
</svg>
