<svg width="32" height="32" viewBox="0 0 32 32" xmlns="http://www.w3.org/2000/svg">
  <polygon fill="#FA4778" points="2 2 30 2 30 30 2 30"/>
  <path fill="#000" opacity="0.2" d="M28,4 L28,28 L4,28 L4,4 L28,4 Z M30,2 L2,2 L2,30 L30,30 L30,2 Z"/>
  <path fill="#FFF" d="M19.5483041,10.3104268 L19.165058,12.1609582 C19.1212584,12.3580562 18.9351103,12.5332545 18.7051626,12.5332545 L15.376396,12.5332545 C15.0040998,12.5332545 14.6975028,12.8398514 14.6975028,13.2121477 L14.6975028,13.6172936 C14.6975028,13.9895899 15.0040998,14.2961868 15.376396,14.2961868 L18.1905178,14.2961868 C18.4533151,14.2961868 18.6723129,14.5480343 18.6175635,14.8217815 C18.562814,15.1064787 18.267167,16.5518641 18.2343173,16.7051626 C18.2124176,16.869411 18.0372193,17.0774589 17.774422,17.0774589 L15.474945,17.0774589 C14.9931499,17.0884088 14.8946009,17.0993587 14.6099037,17.4497551 C14.3252066,17.8001516 11.8067319,20.95372 11.8067319,20.95372 C11.7848321,20.9865696 11.7629323,20.9756197 11.7629323,20.9427701 L11.7629323,10.2228277 C11.7629323,9.97098021 11.9709802,9.7629323 12.2228277,9.7629323 L19.1322083,9.7629323 C19.3731059,9.7629323 19.6140035,10.0038299 19.5483041,10.3104268 M20.0519991,8 C20.0519991,8 12.7046228,8 11.5220347,8 C10.3503965,8 10,8.8869411 10,9.44538549 L10,23.0013494 C10,23.6692927 10.3394466,23.8663907 10.5255947,23.9430399 C10.7117429,24.0196892 11.2044879,24.0744386 11.5548844,23.7240421 C11.5548844,23.7240421 15.6063437,19.0046395 15.6720431,18.9279903 C15.7377424,18.8513411 15.7705921,18.8513411 15.8143916,18.8513411 C15.8581912,18.8513411 17.5335244,18.8513411 18.3766659,18.8513411 C19.4716549,18.8513411 19.6797028,18.0957986 19.8001516,17.6359033 C19.8987006,17.2526571 21.0265393,11.7777121 21.3769358,10.0476294 C21.6397331,8.71174285 21.3002866,8 20.0519991,8"/>
</svg>