<svg width="32" height="32" viewBox="0 0 32 32" xmlns="http://www.w3.org/2000/svg">
  <polygon fill="#007CAA" points="2 2 30 2 30 30 2 30"/>
  <path fill="#000" opacity="0.2" d="M28,4 L28,28 L4,28 L4,4 L28,4 Z M30,2 L2,2 L2,30 L30,30 L30,2 Z"/>
  <path fill="#FFF" d="M13.4822899,20.9096512 C12.540326,20.6741602 12.0158461,19.9256889 12.014339,18.8152314 C12.0138462,18.460245 12.0393452,18.2897516 12.1283418,18.0617603 C12.3458335,17.5017818 12.9208114,17.079298 13.6777824,16.9238039 C14.054268,16.8463069 14.1707635,16.7633101 14.1707635,16.5713174 C14.1707635,16.5108197 14.2157618,16.3313266 14.2702597,16.1718327 C14.5192502,15.4483605 14.9802325,14.8453836 15.4727136,14.598393 C15.9881939,14.3404029 16.2481839,14.2819052 16.87166,14.285405 C17.7571261,14.2899048 18.1991092,14.4823975 18.8165855,15.1308726 L19.1565725,15.4878589 L19.4610608,15.382363 C20.9345043,14.8723825 22.403448,15.7403493 22.5219435,17.1907937 L22.5544423,17.5877785 L22.8444311,17.6917745 C23.6728994,17.9887631 24.0623845,18.6122392 23.9918872,19.5287041 C23.9458889,20.1281811 23.6653997,20.6066628 23.2214167,20.8441537 L23.0129247,20.9556494 L18.3751024,20.9646491 C14.811239,20.9716488 13.6782824,20.9586493 13.4827899,20.9101511 L13.4827899,20.9101511 L13.4822899,20.9096512 Z M9.61293819,20.2466766 C9.04745986,20.104682 8.44898279,19.5772022 8.16799356,18.9737254 C8.00849967,18.6312385 8,18.5812404 8,17.9757636 C8,17.3997857 8.01349948,17.3072892 8.14049462,17.0213002 C8.40798437,16.4183233 8.91996475,15.98284 9.56294011,15.8118465 C9.69843491,15.7758479 9.82593003,15.7178501 9.84642924,15.6838514 C9.86692846,15.6498527 9.88892761,15.4623599 9.89592735,15.2683673 C9.94092562,14.0624136 10.6893969,12.9994543 11.7348569,12.6579674 C12.2998352,12.4734745 13.0408068,12.4564751 13.6552833,12.7159652 C13.8502758,12.798462 13.8282767,12.8159613 14.2402609,12.2449832 C14.4837515,11.9074961 14.9452338,11.5500098 15.3482184,11.336018 C15.7832017,11.1050269 16.2356844,10.998531 16.7766637,11.0000153 C18.2886057,11.0040308 19.5915558,12.0034925 20.0735373,13.528934 C20.2275314,14.0164153 20.2200317,14.1529101 20.0380387,14.1569099 C19.9585417,14.1589099 19.7315504,14.2049081 19.533558,14.259406 L19.1730718,14.3589022 L18.8440844,14.0114155 C17.91662,13.0314531 16.403178,12.8194612 15.1162273,13.4894355 C14.602247,13.7574252 14.1892628,14.1419105 13.8772748,14.6428913 C13.6547833,14.9998776 13.3712942,15.6663521 13.3712942,15.8318458 C13.3712942,15.9493413 13.2812976,16.007839 12.8973123,16.1408339 C11.7083579,16.5528181 11.0143845,17.5047816 11.0148845,18.722235 C11.0148845,19.165718 11.1228803,19.7076972 11.2728746,20.0181853 C11.3293724,20.1351808 11.3608712,20.2466766 11.3428719,20.2656758 C11.2968737,20.314174 9.81793033,20.2976746 9.61343817,20.2466766 L9.61343817,20.2466766 L9.61293819,20.2466766 Z"/>
</svg>