<svg width="32" height="32" viewBox="0 0 32 32" xmlns="http://www.w3.org/2000/svg">
  <polygon fill="#FFF" points="2 2 30 2 30 30 2 30"/>
  <path fill="#000" opacity="0.2" d="M28,4 L28,28 L4,28 L4,4 L28,4 Z M30,2 L2,2 L2,30 L30,30 L30,2 Z"/>
  <path fill="#34A853" d="M13.0700098,19.8528167 C13.56366,20.4702051 14.0664279,21.2464995 14.3295344,21.7154021 C14.6499512,22.3249756 14.7828069,22.7365679 15.0211657,23.473787 C15.160534,23.8775643 15.2933898,24 15.5721263,24 C15.8769131,24 16.0162813,23.7942038 16.1230869,23.473787 C16.3458157,22.7821556 16.5177467,22.2559427 16.7899707,21.7544774 C17.8397916,19.7746662 19.5512862,18.3679583 20.5151416,16.4402475 C20.5151416,16.4402475 21.1494627,15.2627809 21.1494627,13.6138066 C21.1494627,12.0768479 20.5242592,11.0087919 20.5242592,11.0087919 L13.0739173,19.8658417 L13.0700098,19.8528167 Z"/>
  <path fill="#FBBC04" d="M10.5431456,16.2318463 C11.1436014,17.599479 12.2885054,18.7977857 13.0700098,19.8528167 L17.2119831,14.9423641 C17.2119831,14.9423641 16.6271573,15.7082384 15.5708238,15.7082384 C14.3933572,15.7082384 13.4347118,14.7704331 13.4347118,13.5851514 C13.4347118,12.7697818 13.9205471,12.2044937 13.9205471,12.2044937 C10.8726799,12.6577662 11.0420059,13.3962879 10.534028,16.2292413 L10.5431456,16.2318463 Z"/>
  <path fill="#4285F4" d="M17.2640834,8.25659394 C18.6447411,8.70074894 19.8169977,9.63725171 20.5203517,11.0048844 L17.2119831,14.9514816 C17.2119831,14.9514816 17.6978183,14.3835884 17.6978183,13.5708238 C17.6978183,12.3607945 16.6766526,11.4477369 15.5747314,11.4477369 C14.528818,11.4477369 13.9335721,12.2044937 13.9335721,12.2044937 C14.1875611,11.6261804 16.8121133,8.45327255 17.2679909,8.25789645 L17.2640834,8.25659394 Z"/>
  <path fill="#1A73E8" d="M11.2985998,9.99283621 C12.1217844,9.0133507 13.5649626,8 15.5577988,8 C16.5203517,8 17.2510583,8.25529144 17.2510583,8.25529144 L13.9296646,12.2018886 C13.7056333,12.0803647 11.5200261,10.3783784 11.2985998,9.98762618 L11.2985998,9.99283621 Z"/>
  <path fill="#EA4335" d="M10.5431456,16.2318463 C10.5431456,16.2318463 10,15.1533702 10,13.6007815 C10,12.1289482 10.5757082,10.839466 11.3025073,10.0058613 L13.9335721,12.2201237 L10.5470531,16.2318463 L10.5431456,16.2318463 Z"/>
</svg>