<svg width="32" height="32" viewBox="0 0 32 32" xmlns="http://www.w3.org/2000/svg">
  <polygon fill="#1877F2" points="2 2 30 2 30 30 2 30"/>
  <path fill="#000" opacity="0.2" d="M28,4 L28,28 L4,28 L4,4 L28,4 Z M30,2 L2,2 L2,30 L30,30 L30,2 Z"/>
  <path fill="#FFF" d="M21.2023907,15.9995312 L17.8741357,15.9995312 L17.8741357,13.7484355 C17.8741357,12.799414 18.3390367,11.8743701 19.8297902,11.8743701 L21.3430212,11.8743701 L21.3430212,8.92112973 C21.3430212,8.92112973 19.9696941,8.68674558 18.6567444,8.68674558 C15.9155748,8.68674558 14.1239892,10.3480605 14.1239892,13.355678 L14.1239892,15.9995312 L11.0769952,15.9995312 L11.0769952,19.4684167 L14.1239892,19.4684167 L14.1239892,28 L17.8741357,28 L17.8741357,19.4684167 L20.6703387,19.4684167 L21.2023907,15.9995312 Z"/>
</svg>