<svg width="32" height="32" viewBox="0 0 32 32" xmlns="http://www.w3.org/2000/svg">
  <polygon fill="#29007C" points="2 2 30 2 30 30 2 30"/>
  <path fill="#FFFFFF" opacity="0.2" d="M28,4 L28,28 L4,28 L4,4 L28,4 Z M30,2 L2,2 L2,30 L30,30 L30,2 Z"/>
  <path fill="#FFF" d="M16.225223,13 L16.225223,15.4194719 L16.2098811,15.4194719 C15.9034561,15.0672974 15.5204594,14.9445615 15.0763713,14.9445615 C14.1663568,14.9445615 13.4808052,15.5636312 13.2401711,16.3814556 C12.965674,15.4801487 12.2578697,14.9276992 11.2085335,14.9276992 C10.3561551,14.9276992 9.6833194,15.310143 9.33183599,15.9334973 L9.33183599,15.1589346 L7.57027249,15.1589346 L7.57027249,14.31789 L9.49285769,14.31789 L9.49285769,13.0002764 L6,13.0002764 L6,18.9119149 L7.57027249,18.9119149 L7.57027249,16.4270668 L9.13543099,16.4270668 C9.08721901,16.6181481 9.06312022,16.8145137 9.06369686,17.0115825 C9.06369686,18.2441932 10.0056392,19.1103932 11.208257,19.1103932 C12.2191692,19.1103932 12.8859234,18.6353446 13.2382361,17.7705268 L11.8924265,17.7705268 C11.7105341,18.0307876 11.5723181,18.1076357 11.2083952,18.1076357 C10.7865599,18.1076357 10.4224988,17.7394282 10.4224988,17.3034948 L13.1627701,17.3034948 C13.2816359,18.2827555 14.0445885,19.1271173 15.0917133,19.1271173 C15.5434033,19.1271173 15.9569457,18.9050041 16.2097428,18.5297475 L16.2249466,18.5297475 L16.2249466,18.9127442 L17.6094567,18.9127442 L17.6094567,13.0002764 L16.225223,13.0002764 L16.225223,13 Z M10.4661751,16.4447585 C10.5536658,16.0690873 10.844887,15.8236156 11.2083952,15.8236156 C11.6086689,15.8236156 11.885101,16.0614854 11.9576644,16.4447585 L10.4661751,16.4447585 Z M15.3850077,18.0122667 C14.8748523,18.0122667 14.5577847,17.5369417 14.5577847,17.0404697 C14.5577847,16.50972 14.8336639,15.9998411 15.3850077,15.9998411 C15.9570839,15.9998411 16.1850022,16.5099965 16.1850022,17.0404697 C16.1850022,17.5432996 15.943677,18.0122667 15.3850077,18.0122667 Z"/>
  <path fill="#FF5A00" d="M24.2306964,18.9119149 L23.4114899,17.9931929 L22.5994706,18.9119149 L20.8908439,18.9119149 L22.5607701,17.0357703 L20.8908439,15.1590728 L22.652822,15.1590728 L23.4803215,16.0707459 L24.2765841,15.1590728 L25.9769179,15.1590728 L24.3152846,17.027892 L26,18.9119149 L24.2306964,18.9119149 Z M17.6098714,18.9119149 L17.6098714,13 L20.8908439,13 L20.8908439,14.3177518 L18.9996337,14.3177518 L18.9996337,15.1590728 L20.8908439,15.1590728 L20.8908439,16.4270668 L18.9996337,16.4270668 L18.9996337,17.590846 L20.8908439,17.590846 L20.8908439,18.9119149 L17.6098714,18.9119149 Z"/>
</svg>