<svg width="32" height="32" viewBox="0 0 32 32" xmlns="http://www.w3.org/2000/svg">
  <polygon fill="#C9353D" points="2 2 30 2 30 30 2 30"/>
  <path fill="#000" opacity="0.2" d="M28,4 L28,28 L4,28 L4,4 L28,4 Z M30,2 L2,2 L2,30 L30,30 L30,2 Z"/>
  <path fill="#FFF" d="M12.8098478,23.3121458 C9.28231238,21.8380631 6.98608023,17.6371572 8.44640914,13.3705647 C9.89099223,9.1499766 14.5640827,6.93972985 18.771818,8.50226423 C22.9915051,10.0692568 25.0785835,14.7253208 23.4427268,18.8992407 C21.7491513,23.2204218 17.2088094,24.7492829 13.8045845,23.6712167 C14.0590785,23.0426649 14.3486686,22.4224602 14.5608102,21.7768346 C14.7738529,21.1284109 14.9096842,20.454661 15.0694662,19.8305673 C15.2070049,19.9462895 15.3452076,20.0689835 15.4899552,20.1833778 C16.242197,20.7778769 17.0932295,20.8355957 17.9848596,20.6212251 C18.9323115,20.3934326 19.6810436,19.8562254 20.2355143,19.0665636 C21.173291,17.7310155 21.5042375,16.2200344 21.2775833,14.6299449 C21.0431984,12.985741 20.0696616,11.795889 18.543409,11.196742 C16.2438095,10.2940139 14.0637738,10.597927 12.175415,12.2524226 C10.7231013,13.5248926 10.2348864,15.6820684 10.9334406,17.3614633 C11.1755562,17.9435839 11.5581983,18.4004495 12.1370939,18.6749578 C12.4304782,18.8140615 12.5550218,18.7573387 12.6399164,18.450912 C12.6462242,18.4280995 12.6539074,18.4056191 12.6622546,18.3834706 C12.8248348,17.9547293 12.7868931,17.6022508 12.4975401,17.1883542 C11.9702452,16.4339782 12.0642932,15.5607024 12.3186924,14.7239929 C12.8011212,13.1373181 14.2187183,12.0786496 15.881229,12.0632832 C16.3265698,12.059157 16.7850005,12.0973359 17.2163029,12.2025767 C18.4991594,12.5155484 19.3274744,13.5076766 19.4104718,14.8230682 C19.4770595,15.8779425 19.3122028,16.9027006 18.8535824,17.8659457 C18.6265013,18.3428255 18.3268092,18.7668715 17.880757,19.0670379 C17.4617383,19.3489922 17.0035448,19.4626276 16.5063661,19.3327247 C15.821376,19.1537347 15.4325209,18.5288348 15.6057722,17.8431807 C15.7853314,17.1324851 16.0176769,16.435069 16.1938213,15.723662 C16.2682819,15.4227843 16.3074093,15.0960113 16.2768662,14.7895372 C16.1935367,13.9547722 15.4048235,13.5654903 14.6675212,13.9730316 C14.1510872,14.2584956 13.9024267,14.7356125 13.7870839,15.2876644 C13.6682789,15.8564106 13.7258081,16.4169519 13.9108687,16.9684346 C13.9480516,17.0792718 13.9535532,17.2161939 13.9273259,17.3304933 C13.5923481,18.7912017 13.2340835,20.2467879 12.9168434,21.7112903 C12.8242657,22.1386563 12.8414343,22.5899729 12.8106541,23.0304761 C12.8048205,23.1148015 12.8098478,23.1999807 12.8098478,23.3121458 Z"/>
</svg>