<svg width="32" height="32" viewBox="0 0 32 32" xmlns="http://www.w3.org/2000/svg">
  <polygon fill="#FFE01B" points="2 2 30 2 30 30 2 30"/>
  <path fill="#000" opacity="0.2" d="M28,4 L28,28 L4,28 L4,4 L28,4 Z M30,2 L2,2 L2,30 L30,30 L30,2 Z"/>
  <path fill="#231F20" d="M19.3246331,15.5640161 C19.4338195,15.5515376 19.5461256,15.5515376 19.655312,15.5640161 C19.7145847,15.4267531 19.7239435,15.1927822 19.6709101,14.9369739 C19.5898001,14.5563812 19.4837333,14.3255298 19.2622408,14.3629652 C19.0407483,14.4004005 19.0313895,14.6749265 19.1124994,15.0555192 C19.156174,15.2676529 19.2372839,15.45171 19.3246331,15.5640161 L19.3246331,15.5640161 Z M17.4185497,15.8666185 C17.5776499,15.93525 17.6743579,15.9820442 17.7117933,15.9414892 C17.7367502,15.9165323 17.7305109,15.8666185 17.6930756,15.8073459 C17.6150853,15.6794418 17.4528654,15.548418 17.2812867,15.4766669 C16.9194116,15.3269255 16.5076227,15.3768393 16.1925419,15.6076907 C16.086475,15.685681 15.9866474,15.7948674 15.9991259,15.8603793 C16.0053651,15.8822166 16.0209631,15.8978147 16.0583985,15.9040539 C16.1457477,15.9134127 16.4514697,15.7605517 16.803986,15.7387144 C17.053555,15.7168771 17.2594494,15.7948674 17.4185497,15.8666185 L17.4185497,15.8666185 Z M17.0972296,16.0475561 C16.8913351,16.0818718 16.7759094,16.1473837 16.7041583,16.2128955 C16.6417661,16.2690486 16.6043307,16.3283212 16.6043307,16.3719958 L16.6199288,16.4094312 L16.6542445,16.4219096 C16.7010387,16.4219096 16.8071056,16.378235 16.8071056,16.378235 C17.0192392,16.2971251 17.2500906,16.2752878 17.4747027,16.3096035 C17.5776499,16.322082 17.6275637,16.3283212 17.649401,16.2908859 C17.6556402,16.281527 17.6649991,16.2596897 17.6431618,16.225374 C17.593248,16.1473837 17.3842339,16.0163599 17.0972296,16.0475561 L17.0972296,16.0475561 Z M18.6819928,16.7182728 C18.8223754,16.7869043 18.9752364,16.7588278 19.0282698,16.6590002 C19.0781837,16.556053 19.0064326,16.4156704 18.86605,16.3470389 C18.7256674,16.2784074 18.5728064,16.3064839 18.519773,16.4063115 C18.4667396,16.5123784 18.5416103,16.6496413 18.6819928,16.7182728 Z M19.5835609,15.9290108 C19.4681352,15.9258912 19.3745469,16.0537953 19.3714273,16.2097759 C19.3683076,16.3657566 19.4587764,16.4936607 19.5742021,16.4967803 C19.6896278,16.4998999 19.7832161,16.3719958 19.7863358,16.2160152 C19.7894554,16.0600345 19.6989866,15.9321304 19.5835609,15.9290108 Z M11.9124331,18.7584996 C11.8843566,18.7241838 11.8375624,18.7335427 11.7938879,18.7460211 C11.7595721,18.7553799 11.7221368,18.7616192 11.687821,18.7616192 C11.6098307,18.7647388 11.5380796,18.7273034 11.494405,18.6617916 C11.4413716,18.5806816 11.4444912,18.4621363 11.5037639,18.3248734 L11.5318404,18.2624811 C11.6223092,18.0565867 11.7782898,17.7134293 11.6067111,17.3827503 C11.478807,17.1363009 11.2666733,16.9803203 11.0108651,16.9491242 C10.7675353,16.917928 10.5242055,17.0052772 10.3557464,17.1862147 C10.1030577,17.4638603 10.0625028,17.844453 10.1124166,17.9785964 C10.1311343,18.0285102 10.1592108,18.0409886 10.1779285,18.0441082 C10.221603,18.0503475 10.2839953,18.0191513 10.3245503,17.9099649 L10.3370287,17.8756491 C10.3557464,17.8194961 10.3869425,17.7134293 10.4430955,17.6291997 C10.5803585,17.4170661 10.8642433,17.3577934 11.0794965,17.4950564 C11.0794965,17.4950564 11.0794965,17.4950564 11.0794965,17.4950564 C11.2573145,17.6104821 11.3259459,17.828855 11.2510752,18.0347494 C11.2105203,18.1408162 11.148128,18.3467107 11.1637261,18.5151698 C11.1918026,18.8552076 11.4008167,18.9924705 11.5879934,19.0080686 C11.7720506,19.0143078 11.8999547,18.9113606 11.9311508,18.8364899 C11.9405097,18.7959349 11.9249116,18.7678584 11.9124331,18.7584996 L11.9124331,18.7584996 L11.9124331,18.7584996 Z M22.4660831,18.134577 C22.4598439,18.1096201 22.4130497,17.9442806 22.3506574,17.7446254 L22.2227533,17.4045876 C22.4723223,17.0302341 22.4754419,16.6933159 22.4442458,16.5030195 C22.4068105,16.2690486 22.3101025,16.0662737 22.1135669,15.8603793 C21.9170313,15.6513653 21.5146012,15.4392316 20.9468317,15.2801313 L20.6504685,15.1959018 C20.6504685,15.1834233 20.6348704,14.4939889 20.622392,14.1976257 C20.6130331,13.985492 20.5943155,13.6485739 20.4913682,13.3210145 C20.3665837,12.8749099 20.1544501,12.4849583 19.8830437,12.2353893 C20.622392,11.4679645 21.0840947,10.6194299 21.0840947,9.89567971 C21.080975,8.49809319 19.3683076,8.07382586 17.2594494,8.95043704 L16.8133448,9.14073342 C16.5388189,8.87244672 16.2674126,8.60416003 15.9928866,8.33587333 C13.5845456,6.23325433 6.06315922,14.6094146 8.46838066,16.6434021 L8.99559521,17.0895067 C8.85209303,17.4700995 8.80217922,17.8818884 8.84897342,18.2843184 C8.90512644,18.8458487 9.19525043,19.3793025 9.66007273,19.794211 C10.1030577,20.1872822 10.6864253,20.4368512 11.2541949,20.4368512 C12.1900787,22.5987429 14.3270134,23.9214587 16.8351821,23.9963294 C19.5242883,24.0774393 21.7828879,22.8108765 22.7312502,20.5397984 C22.7936425,20.3806982 23.0556899,19.6600676 23.0556899,19.0267863 C23.0556899,18.3966245 22.6938148,18.134577 22.4660831,18.134577 Z M11.4632089,19.834766 C11.382099,19.850364 11.2978694,19.8534836 11.2136399,19.8534836 C10.4025406,19.8316463 9.52280977,19.0985373 9.43546061,18.231285 C9.33875262,17.2704443 9.82853182,16.531096 10.6957842,16.3563977 C10.8143295,16.3314408 10.939114,16.322082 11.0607789,16.3283212 C11.5474385,16.3563977 12.2618298,16.7276317 12.4271693,17.7883 C12.5706714,18.7273034 12.3398201,19.6850245 11.4632089,19.834766 L11.4632089,19.834766 Z M10.5554016,15.7792694 C10.0157086,15.8853362 9.53840783,16.1910583 9.24828385,16.6153256 C9.07358553,16.4687038 8.74914581,16.1879386 8.69299278,16.0787522 C8.22817048,15.1959018 9.19837004,13.4769952 9.87844563,12.5067956 C11.5567973,10.1078134 14.1835112,8.29531836 15.4001602,8.6228777 C15.5966958,8.67903073 16.2518145,9.44021625 16.2518145,9.44021625 C16.2518145,9.44021625 15.0351655,10.1171722 13.9089853,11.0592953 C12.3897339,12.2291501 11.2417164,13.9324586 10.5554016,15.7792694 L10.5554016,15.7792694 Z M19.0813033,19.4760105 C19.1000209,19.4666517 19.1093798,19.447934 19.1093798,19.4292163 C19.1062602,19.4042594 19.0844229,19.3855417 19.059466,19.3886613 C19.059466,19.3886613 19.059466,19.3886613 19.059466,19.3886613 C19.059466,19.3886613 17.786664,19.5758381 16.5856131,19.1359727 C16.7166368,18.7085858 17.0629138,18.8645664 17.5901284,18.9051214 C18.4074669,18.9550352 19.2279251,18.8645664 20.0171871,18.6430739 C20.5599997,18.4870932 21.2775106,18.1782516 21.8328017,17.7383862 C22.0199785,18.1501751 22.0854904,18.6025189 22.0854904,18.6025189 C22.0854904,18.6025189 22.2289925,18.577562 22.3506574,18.6524327 C22.4660831,18.7241838 22.547193,18.8708056 22.49104,19.2482788 C22.3756143,19.9564309 22.0730119,20.5335592 21.5676346,21.0607738 C21.2525537,21.4039312 20.8750806,21.6846963 20.4601721,21.8905908 C20.2293208,22.0122557 19.985991,22.1152029 19.7364219,22.1963128 C17.8303386,22.8202354 15.8805806,22.1339206 15.2504188,20.6614633 C15.200505,20.5491573 15.1568304,20.4337316 15.1225147,20.3120667 C14.854228,19.3418671 15.0819597,18.1782516 15.7932314,17.4451426 C15.836906,17.3983484 15.8805806,17.3421954 15.8805806,17.2735639 C15.8805806,17.2142912 15.8431452,17.1550186 15.8119491,17.111344 C15.5623801,16.7494689 14.701367,16.1349052 14.8729457,14.9400935 C14.9977302,14.0822 15.7464372,13.4801148 16.4421109,13.5175501 L16.6199288,13.526909 C16.9225312,13.5456266 17.1845787,13.583062 17.4341477,13.5955404 C17.8490562,13.6142581 18.2234098,13.5518659 18.6663948,13.1837516 C18.8161362,13.058967 18.9346815,12.9497806 19.1374563,12.9154649 C19.1592936,12.9123452 19.212327,12.8936276 19.3183938,12.8967472 C19.4275803,12.8998668 19.5305275,12.9341825 19.6209963,12.9934552 C19.9766321,13.2305457 20.0265459,13.8045545 20.0452636,14.2225826 C20.0546224,14.4627928 20.0858186,15.0399211 20.0951774,15.2083802 C20.1170147,15.588973 20.2168423,15.6420064 20.4196171,15.7075183 C20.5319232,15.7449536 20.63799,15.7730301 20.7939707,15.8167047 C21.2650322,15.9508481 21.5426777,16.0849914 21.717376,16.2565701 C21.8234429,16.362637 21.8702371,16.4780626 21.8858351,16.5872491 C21.9419882,16.9927987 21.5738739,17.4919368 20.5943155,17.9474002 C19.5242883,18.4434187 18.2265294,18.5713228 17.3312005,18.4714952 L17.0161196,18.4371794 C16.2986087,18.3404714 15.8899394,19.2701161 16.320446,19.9033974 C16.5980915,20.3120667 17.3530378,20.5803534 18.1079841,20.5803534 C19.8424888,20.5803534 21.1745634,19.8410052 21.6705819,19.198365 L21.7111368,19.1422119 C21.7360937,19.1047766 21.7142564,19.0860589 21.6830603,19.1047766 C21.2775106,19.3824221 19.4806137,20.4836454 17.5558126,20.1529665 C17.5558126,20.1529665 17.3218417,20.1155311 17.109708,20.0313016 C16.9412489,19.9657897 16.5856131,19.8004502 16.5419385,19.4385751 C18.1048645,19.931474 19.0813033,19.4760105 19.0813033,19.4760105 L19.0813033,19.4760105 Z M13.6531771,12.4974368 C14.2490231,11.8080023 14.9852517,11.2059171 15.6403704,10.8689989 C15.6622077,10.8565204 15.6871646,10.8814773 15.6746861,10.9033146 C15.6216527,10.996903 15.5218251,11.2027975 15.490629,11.3556585 C15.4875094,11.3712565 15.4968682,11.383735 15.5124663,11.3868546 C15.5187055,11.3868546 15.5280643,11.3868546 15.5343036,11.383735 C15.9429728,11.1029698 16.6542445,10.803487 17.2812867,10.7660517 C17.3093632,10.7629321 17.3218417,10.7972478 17.3000044,10.8159655 C17.1970572,10.8939558 17.1034688,10.9875442 17.0254785,11.0904914 C17.0161196,11.1029698 17.0192392,11.1185679 17.0317177,11.1279267 C17.0348373,11.1310464 17.0410765,11.134166 17.0473157,11.134166 C17.4840615,11.1372856 18.1048645,11.2901466 18.5072945,11.5178783 C18.535371,11.5334764 18.5166534,11.5865098 18.4854572,11.5802706 C17.8771327,11.439888 16.8788567,11.3338212 15.8431452,11.5865098 C14.9197398,11.8111219 14.2115877,12.1605186 13.6968516,12.5379917 C13.6625359,12.5535898 13.6313398,12.519274 13.6531771,12.4974368 L13.6531771,12.4974368 Z"/>
</svg>