<svg width="32" height="32" viewBox="0 0 32 32" xmlns="http://www.w3.org/2000/svg">
  <polygon fill="#FFF" points="2 2 30 2 30 30 2 30"/>
  <path fill="#000" opacity="0.2" d="M28,4 L28,28 L4,28 L4,4 L28,4 Z M30,2 L2,2 L2,30 L30,30 L30,2 Z"/>
  <path fill="#3798D4" d="M15.8266271,21.354637 C13.9570496,21.354637 13.1905058,19.9057214 13.1905058,18.2890223 C13.1905058,16.6510197 13.9570496,15.2021039 15.8266271,15.2021039 C17.6962047,15.2021039 18.4620386,16.6510197 18.4620386,18.2890223 C18.4620386,19.9057214 17.6962047,21.354637 15.8266271,21.354637 L15.8266271,21.354637 L15.8266271,21.354637 Z M18.5979124,8 L18.5979124,12.9645545 C17.7576815,12.6963397 16.8231767,12.556741 15.8266271,12.556741 C11.9515984,12.556741 9,14.6562795 9,18.2890223 C9,21.9004616 11.9515984,24 15.8266271,24 C16.8231767,24 17.8803513,23.6071388 18.5979124,23.1858285 L18.5979124,23.7481931 L22.6532543,23.7481931 L22.6532543,8 L18.5979124,8 L18.5979124,8 Z"/>
</svg>