<svg width="32" height="32" viewBox="0 0 32 32" xmlns="http://www.w3.org/2000/svg">
  <linearGradient x1="6.714%" y1="93.485%" x2="93.608%" y2="6.619%" id="gradient">
    <stop stop-color="#FD5" offset="0%"/>
    <stop stop-color="#FF543E" offset="50%"/>
    <stop stop-color="#C837AB" offset="100%"/>
  </linearGradient>
  <path fill="#8C8C8C" d="M2 2h28v28H2z"/>
  <path fill="#FFF" d="M4 4h24v24H4z"/>
  <path fill="url(#gradient)" d="M2 2h28v28H2z"/>
  <path fill="#000" opacity=".2" d="M28 4v24H4V4h24zm2-2H2v28h28V2z"/>
  <path fill="#FFF" d="M16 8.008c-3.277 0-6.388-.292-7.577 2.756-.49 1.26-.42 2.894-.42 5.235 0 2.054-.065 3.985.42 5.234 1.186 3.05 4.323 2.757 7.575 2.757 3.138 0 6.374.327 7.576-2.757.492-1.272.42-2.882.42-5.234 0-3.122.172-5.137-1.343-6.65-1.534-1.533-3.609-1.341-6.654-1.341H16zm-.716 1.44c6.835-.011 7.705-.77 7.225 9.777-.17 3.73-3.014 3.321-6.508 3.321-6.371 0-6.554-.182-6.554-6.55 0-6.444.505-6.545 5.837-6.55v.002zm4.985 1.326a.959.959 0 100 1.918.959.959 0 000-1.918zM16 11.895a4.104 4.104 0 100 8.207 4.104 4.104 0 100-8.207zm0 1.44c3.524 0 3.529 5.328 0 5.328-3.523 0-3.528-5.328 0-5.328z"/>
</svg>
