<svg width="32" height="32" viewBox="0 0 32 32" xmlns="http://www.w3.org/2000/svg">
  <defs>
    <linearGradient x1="0.0030660866%" y1="100.002142%" x2="0.0030660866%" y2="-0.00420894401%" id="linearGradient-1">
      <stop stop-color="#58AB27" offset="0%"/>
      <stop stop-color="#93C36C" offset="78.019702%"/>
      <stop stop-color="#93C36C" offset="78.019702%"/>
      <stop stop-color="#93C36C" offset="100%"/>
    </linearGradient>
    <linearGradient x1="-0.000911539258%" y1="-0.00417136415%" x2="-0.000911539258%" y2="100.00218%" id="linearGradient-2">
      <stop stop-color="#88BCE2" offset="0%"/>
      <stop stop-color="#5489C2" offset="100%"/>
    </linearGradient>
  </defs>
  <polygon fill="#FFF" points="2 2 30 2 30 30 2 30"/>
  <path fill="#5489C2" d="M28,4 L28,28 L4,28 L4,4 L28,4 Z M30,2 L2,2 L2,30 L30,30 L30,2 Z"/>
  <path fill="url(#linearGradient-1)" d="M8,15.9992485 C8,20.1799906 11.185721,23.5783936 15.2552372,23.9984969 L15.2552372,23.9984969 L15.2552372,21.1494598 C12.7601691,20.7503992 10.8497886,18.6055425 10.8497886,15.9992485 L10.8497886,15.9992485 C10.8497886,13.3922029 12.7601691,11.2473462 15.2552372,10.8482856 L15.2552372,10.8482856 L15.2552372,8 C11.185721,8.41935181 8,11.8185063 8,15.9992485"/>
  <path fill="url(#linearGradient-2)" d="M16.7447628,10.8482856 C19.2390794,11.2473462 21.1509629,13.3922029 21.1509629,15.9992485 L21.1509629,15.9992485 C21.1509629,18.6055425 19.2390794,20.7503992 16.7447628,21.1494598 L16.7447628,21.1494598 L16.7447628,23.9984969 C20.814279,23.5783936 24,20.1799906 24,15.9992485 L24,15.9992485 C24,11.8185063 20.814279,8.41935181 16.7447628,8 L16.7447628,8 L16.7447628,10.8482856 Z"/>
</svg>