<svg width="32" height="32" viewBox="0 0 32 32" xmlns="http://www.w3.org/2000/svg">
  <polygon fill="#2E9FFF" points="2 2 30 2 30 30 2 30"/>
  <path fill="#000" opacity="0.2" d="M28,4 L28,28 L4,28 L4,4 L28,4 Z M30,2 L2,2 L2,30 L30,30 L30,2 Z"/>
  <path fill="#FFF" d="M16.2917986,23.5395683 C14.390446,23.5395683 12.6519712,22.844777 11.3078561,21.6954245 L8,22.1473381 L9.27792806,18.9932662 C8.83269065,18.0108201 8.58290647,16.9201727 8.58290647,15.7697842 C8.58290647,11.4789065 12.0343022,8 16.2917986,8 C20.5489496,8 24,11.4789065 24,15.7697842 C24,20.0614676 20.5490647,23.5395683 16.2917986,23.5395683 Z M20.5009496,15.7475683 L20.5009496,15.7259281 C20.5009496,13.4838561 18.9198273,11.8851223 16.1936115,11.8851223 L13.2491511,11.8851223 L13.2491511,19.6549065 L16.1499856,19.6549065 C18.8973813,19.6550216 20.5009496,17.9895252 20.5009496,15.7475683 L20.5009496,15.7475683 Z M16.2260719,17.7459568 L15.3648345,17.7459568 L15.3648345,13.7946475 L16.2260719,13.7946475 C17.4909928,13.7946475 18.3305899,14.5157986 18.3305899,15.7595396 L18.3305899,15.7811799 C18.3305899,17.0353957 17.4909928,17.7459568 16.2260719,17.7459568 Z"/>
</svg>