<svg width="32" height="32" viewBox="0 0 32 32" xmlns="http://www.w3.org/2000/svg">
  <rect fill="#8C8C8C" x="2" y="2" width="28" height="28"/>
  <rect fill="#FFF" x="4" y="4" width="24" height="24"/>
  <polygon fill="#EC407A" points="2 2 30 2 30 30 2 30"/>
  <path fill="#000" opacity="0.2" d="M28,4 L28,28 L4,28 L4,4 L28,4 Z M30,2 L2,2 L2,30 L30,30 L30,2 Z"/>
  <path fill="#FFF" d="M8,16.5 C8,14.567 9.567,13 11.5,13 C13.433,13 15,14.567 15,16.5 C15,18.433 13.433,20 11.5,20 C9.567,20 8,18.433 8,16.5 Z M17,16.5 C17,14.567 18.567,13 20.5,13 C22.433,13 24,14.567 24,16.5 C24,18.433 22.433,20 20.5,20 C18.567,20 17,18.433 17,16.5 Z"/>
</svg>