<svg width="32" height="32" viewBox="0 0 32 32"  xmlns="http://www.w3.org/2000/svg">
  <path fill="#19B2E5" d="M2 2h28v28H2z"/>
  <path fill="#000" opacity="0.2" d="M28 4v24H4V4h24zm2-2H2v28h28V2z"/>
  <path fill="#FFF" d="M21.664 9.004c-2.218-.081-3.717 1.19-4.508 3.796a2.875 2.875 0 011.185-.264c.813 0 1.172.465 1.076 1.388-.048.56-.405 1.373-1.075 2.443-.672 1.07-1.175 1.606-1.51 1.606-1.014 0-1.624-4.856-1.83-6.182-.288-1.843-1.054-2.705-2.299-2.585-1.142.109-3.136 2.166-4.703 3.56l.753.982c.716-.508 1.134-.762 1.254-.762 1.247 0 1.85 4.244 2.82 7.4.65 1.743 1.429 2.614 2.368 2.614 1.51 0 3.348-1.43 5.527-4.29 2.103-2.737 3.192-4.895 3.262-6.47l.009-.006c.09-2.11-.68-3.19-2.329-3.23z"/>
</svg>
