<svg width="32" height="32" viewBox="0 0 32 32" xmlns="http://www.w3.org/2000/svg">
  <polygon fill="#FFF" points="2 2 30 2 30 30 2 30"/>
  <path fill="#000" opacity="0.2" d="M28,4 L28,28 L4,28 L4,4 L28,4 Z M30,2 L2,2 L2,30 L30,30 L30,2 Z"/>
  <path fill="#5DCD11" d="M8.81026982,12 C9.02518427,12 9.23129897,12.0853614 9.38326641,12.2373289 C9.53523384,12.3892964 9.62060421,12.5954111 9.62059509,12.8103256 L9.62059509,12.8103256 L9.62059509,15.9830129 L11.2510164,14.4251716 C11.406387,14.2766972 11.614376,14.1960259 11.8292269,14.200905 C12.0440777,14.2057841 12.2481902,14.295814 12.3966606,14.4511885 C12.5451278,14.6065664 12.6257892,14.8145597 12.6208996,15.0294106 C12.6160099,15.2442615 12.5259698,15.4483699 12.3705877,15.5968327 L12.3705877,15.5968327 L11.3086894,16.6114981 L12.8407371,18.6897368 C13.1062797,19.0499449 13.0295418,19.5572155 12.6693372,19.8227629 C12.3091291,20.0883057 11.8018583,20.0115678 11.5363108,19.6513631 L11.5363108,19.6513631 L10.1274811,17.7401681 L9.62059509,18.2244986 L9.62059509,19.1705485 C9.62058935,19.3854532 9.53521242,19.5915536 9.3832466,19.7435089 C9.23128077,19.8954643 9.02517456,19.9808866 8.81026982,19.9808866 C8.36277515,19.9808062 8,19.6180432 8,19.1705485 L8,19.1705485 L8,12.8103256 C8,12.5954207 8.08535364,12.3893144 8.23730908,12.2373485 C8.38926452,12.0853826 8.59536498,12 8.81026982,12 Z M14.8145724,14.174714 C15.0294772,14.174714 15.2355835,14.2600676 15.3875494,14.412023 C15.5395152,14.5639784 15.6248979,14.7700788 15.6248979,14.9849835 L15.6248979,14.9849835 L15.6248979,19.1705485 C15.6248979,19.3854533 15.5395152,19.5915537 15.3875494,19.743509 C15.2355835,19.8954644 15.0294772,19.980818 14.8145724,19.980818 C14.3670778,19.980818 14.0043029,19.618043 14.0043029,19.1705485 L14.0043029,19.1705485 L14.0043029,14.9849835 C14.0043029,14.537489 14.3670778,14.174714 14.8145724,14.174714 Z M17.5442426,12 C17.7591474,12 17.9652477,12.0853827 18.1172031,12.2373486 C18.2691585,12.3893145 18.3545212,12.5954208 18.3545121,12.8103256 L18.3545121,12.8103256 L18.3545121,15.9830689 L19.9849894,14.4251716 C20.14036,14.2766973 20.348349,14.196026 20.5631998,14.2009051 C20.7780505,14.2057843 20.982163,14.2958141 21.1306334,14.4511885 C21.2791006,14.6065664 21.359762,14.8145597 21.3548723,15.0294106 C21.3499827,15.2442615 21.2599426,15.4483699 21.1045604,15.5968327 L21.1045604,15.5968327 L20.0426625,16.6114981 L21.5747101,18.6897368 C21.8402527,19.0499449 21.7635146,19.5572156 21.40331,19.8227629 C21.0431019,20.0883055 20.5358313,20.0115676 20.2702839,19.6513631 L20.2702839,19.6513631 L18.8613984,17.7401681 L18.3545121,18.2244986 L18.3545121,19.1705485 C18.3545002,19.618043 17.9917371,19.9808061 17.5442426,19.9808865 C17.096748,19.9808061 16.733973,19.618043 16.733973,19.1705485 L16.733973,19.1705485 L16.733973,12.8103256 C16.733973,12.5954208 16.8193266,12.3893145 16.971282,12.2373486 C17.1232374,12.0853827 17.3293378,12 17.5442426,12 Z M23.0723751,15.7844852 C23.5846882,15.7844852 24,16.199797 24,16.7121101 C24,17.2244232 23.5846882,17.639735 23.0723751,17.639735 C22.560062,17.639735 22.1447502,17.2244232 22.1447502,16.7121101 C22.1447502,16.199797 22.560062,15.7844852 23.0723751,15.7844852 Z"/>
</svg>