<svg width="32" height="32" viewBox="0 0 32 32" xmlns="http://www.w3.org/2000/svg">
  <rect fill="#8C8C8C" x="2" y="2" width="28" height="28"/>
  <rect fill="#FFF" x="4" y="4" width="24" height="24"/>
  <polygon fill="#5865F2" points="2 2 30 2 30 30 2 30"/>
  <path fill="#000" opacity="0.2" d="M28,4 L28,28 L4,28 L4,4 L28,4 Z M30,2 L2,2 L2,30 L30,30 L30,2 Z"/>
  <path fill="#FFF" d="M21.5446757,10.9947345 C20.5248898,10.5343152 19.4313236,10.1950985 18.2879321,10.000815 C18.2671096,9.99706538 18.2463096,10.0064359 18.2355828,10.0251773 C18.0949406,10.2713103 17.9391547,10.5924108 17.8300617,10.8447945 C16.6002702,10.6636335 15.3767885,10.6636335 14.1722139,10.8447945 C14.0630984,10.5868008 13.9016562,10.2713103 13.7603829,10.0251773 C13.7496562,10.0070612 13.7288562,9.99769069 13.7080336,10.000815 C12.5652731,10.1944776 11.4717069,10.5336943 10.4512901,10.9947345 C10.4424563,10.9984819 10.4348844,11.004735 10.4298591,11.0128506 C8.35559433,14.0620756 7.78736652,17.0363527 8.06612009,19.9737546 C8.06738138,19.9881233 8.07557992,20.0018711 8.08693203,20.0106076 C9.45547262,20.9995203 10.7811379,21.5998793 12.0821858,21.9978125 C12.1030083,22.0040656 12.1250703,21.9965708 12.138321,21.9796964 C12.4460844,21.5661527 12.720428,21.1301025 12.9556506,20.6715458 C12.9695323,20.6446932 12.9562815,20.6128292 12.9279097,20.6022079 C12.4927548,20.4397839 12.0783999,20.2417486 11.6798196,20.0168607 C11.6482928,19.9987446 11.6457689,19.9543746 11.6747717,19.9331319 C11.7586478,19.8712889 11.8425464,19.8069401 11.9226365,19.7419705 C11.9371266,19.7301075 11.9573182,19.7276018 11.9743548,19.7350966 C14.5928562,20.9114455 17.4276955,20.9114455 20.0153011,19.7350966 C20.0323377,19.726981 20.0525293,19.7294866 20.0676504,19.7413497 C20.1477631,19.8063193 20.2316391,19.8712889 20.3161462,19.9331319 C20.345149,19.9543746 20.343256,19.9987446 20.3117293,20.0168607 C19.913149,20.2461169 19.4987941,20.4397839 19.0630082,20.6015871 C19.0346363,20.6122084 19.0220166,20.6446932 19.0358983,20.6715458 C19.2761687,21.1294595 19.5505124,21.5655097 19.8525969,21.9790756 C19.8652166,21.9965708 19.8879096,22.0040656 19.9087321,21.9978125 C21.2160898,21.5998793 22.5417461,20.9995203 23.9102869,20.0106076 C23.9222757,20.0018711 23.9298475,19.9887441 23.9311095,19.9743754 C24.2647207,16.5784168 23.3723264,13.628531 21.5654757,11.0134715 C21.5610588,11.004735 21.5535095,10.9984819 21.5446757,10.9947345 Z M13.3466815,18.1851837 C12.5583323,18.1851837 11.9087548,17.4730238 11.9087548,16.5984177 C11.9087548,15.7238116 12.5457351,15.0116517 13.3466815,15.0116517 C14.1539153,15.0116517 14.7972054,15.7300647 14.7845857,16.5984177 C14.7845857,17.4730238 14.1476055,18.1851837 13.3466815,18.1851837 Z M18.6631659,18.1851837 C17.8748392,18.1851837 17.2252617,17.4730238 17.2252617,16.5984177 C17.2252617,15.7238116 17.8622195,15.0116517 18.6631659,15.0116517 C19.4704222,15.0116517 20.1136898,15.7300647 20.1010926,16.5984177 C20.1010926,17.4730238 19.4704222,18.1851837 18.6631659,18.1851837 Z"/>
</svg>