<svg width="32" height="32" viewBox="0 0 32 32" xmlns="http://www.w3.org/2000/svg">
  <polygon fill="#02599E" points="2 2 30 2 30 30 2 30"/>
  <path fill="#000" opacity="0.2" d="M28,4 L28,28 L4,28 L4,4 L28,4 Z M30,2 L2,2 L2,30 L30,30 L30,2 Z"/>
  <path fill="#FFF" d="M22.6016013,15.5824034 C23.5900382,13.9999652 23.1839504,13.7126602 22.153209,13.7126602 L21.118772,13.7126602 C21.1149459,13.7126602 21.0612936,13.6590514 20.7011189,14.0191827 C20.2719875,14.2337918 19.2491158,14.260531 19.2491158,14.3525312 C19.2491158,14.5249664 21.9425564,14.2337918 22.6245579,14.3525312 C22.9886021,14.4099661 22.567123,15.1341416 22.4559488,15.5785339 C22.4368183,15.750969 22.5479925,15.666708 22.6016013,15.5824034 Z M18.3065485,16.4482749 C20.7585538,15.6321862 22.0345131,15.5325338 22.214557,15.4444901 C22.3832095,15.3333159 22.0460349,15.19162 21.2107287,15.2222287 C19.2299853,15.3065333 15.9387607,16.6436666 14.5977143,17.2873202 L13.4215379,13.7126602 L20.954076,13.7126602 C20.8505975,12.6322231 15.0958459,12.8467453 8.00761306,12.8467453 L6,22.2528527 C13.5249729,18.5249316 15.9195868,17.260581 18.3065485,16.4482749 L18.3065485,16.4482749 Z M8.59391868,10 C18.2988963,12.0575262 21.2375983,12.5172663 21.3179898,13.2643984 C22.7126015,13.2643984 23.0766023,13.2643984 23.3256464,13.5172685 C24.1341264,14.2720093 22.7662973,16.1111002 22.7662973,16.1111002 C22.5976883,16.2222309 7.19543738,22.2490266 7.19543738,22.2490266 L23.4060813,22.2490266 L26,10 L8.59391868,10 L8.59391868,10 Z"/>
</svg>