<svg width="32" height="32" viewBox="0 0 32 32" xmlns="http://www.w3.org/2000/svg">
  <polygon fill="#F4881B" points="2 2 30 2 30 30 2 30"/>
  <path fill="#000" opacity="0.2" d="M28,4 L28,28 L4,28 L4,4 L28,4 Z M30,2 L2,2 L2,30 L30,30 L30,2 Z"/>
  <path fill="#FFF" d="M24,14.545 L24,15.895 L16,20.895 L8,15.8975 L8,14.5475 L16,19.5475 L24,14.545 Z M19.1375,16.345 L20.315,15.61 C19.385,14.215 17.7975,13.295 15.9975,13.295 C14.1975,13.295 12.61,14.2125 11.6825,15.605 L11.69,15.605 C11.7525,15.5475 11.8175,15.4925 11.8825,15.4375 C14.125,13.5775 17.3675,13.985 19.1375,16.345 Z M13.635,16.815 C14.0575,16.5175 14.5475,16.3475 15.07,16.3475 C15.93,16.3475 16.7,16.8075 17.23,17.5375 L18.365,16.8275 C17.8425,16.08 16.975,15.59 15.995,15.59 C15.0225,15.59 14.16,16.075 13.635,16.815 L13.635,16.815 Z M10.59,13.575 C13.885,10.9675 18.545,11.665 21.0275,15.1275 L21.045,15.1525 L22.265,14.3925 C20.9275,12.35 18.62,11 15.9975,11 C13.41,11 11.0825,12.3375 9.735,14.39 C9.9825,14.1275 10.3025,13.8025 10.59,13.575 Z"/>
</svg>