<svg width="32" height="32" viewBox="0 0 32 32" xmlns="http://www.w3.org/2000/svg">
  <rect fill="#8C8C8C" x="2" y="2" width="28" height="28"/>
  <rect fill="#FFF" x="4" y="4" width="24" height="24"/>
  <polygon fill="#FF4500" points="2 2 30 2 30 30 2 30"/>
  <path fill="#000" opacity="0.2" d="M28,4 L28,28 L4,28 L4,4 L28,4 Z M30,2 L2,2 L2,30 L30,30 L30,2 Z"/>
  <path fill="#FFF" d="M21.4662857,9 C22.2651429,9 22.9142857,9.64685714 22.9142857,10.4422857 C22.9142857,11.2377143 22.2651429,11.8845714 21.4662857,11.8845714 C20.6674286,11.8845714 20.0171429,11.2377143 20.0171429,10.4422857 L20.0171429,10.4422857 L20.0205714,10.4034286 L17.3428571,9.776 L16.3542857,12.8891429 C18.1611429,12.9542857 19.7942857,13.4594286 21.0011429,14.2537143 C21.32,13.9474286 21.752,13.7565714 22.2285714,13.7565714 C23.2057143,13.7565714 24,14.5474286 24,15.52 C24,16.1908571 23.6182857,16.768 23.0628571,17.0662857 C23.0937143,17.2434286 23.1131429,17.4228571 23.1131429,17.6057143 C23.1131429,20.2125714 19.9074286,22.3337143 15.9668571,22.3337143 C12.0262857,22.3337143 8.82057143,20.2125714 8.82057143,17.6057143 C8.82057143,17.4125714 8.84342857,17.2217143 8.87771429,17.0342857 C8.35542857,16.7268571 8,16.1668571 8,15.52 C8,14.5474286 8.79428571,13.7565714 9.77028571,13.7554286 C10.2342857,13.7554286 10.6537143,13.9382857 10.9702857,14.2297143 C12.2308571,13.4125714 13.944,12.9028571 15.8365714,12.88 L15.8365714,12.88 L16.9394286,9.408 C16.9782857,9.28457143 17.1074286,9.21142857 17.2331429,9.24228571 L17.2331429,9.24228571 L20.1188571,9.91885714 C20.3302857,9.38285714 20.8525714,9 21.4662857,9 Z M18.5577143,19.4937143 C18.4617143,19.3977143 18.304,19.3977143 18.2068571,19.4937143 C17.7725714,19.9245714 17.0537143,20.1348571 16.008,20.1348571 L16.008,20.1348571 L15.9988571,20.1371429 C14.9428571,20.1348571 14.224,19.9245714 13.7908571,19.4937143 C13.6937143,19.3977143 13.536,19.3977143 13.44,19.4937143 C13.3428571,19.5897143 13.3428571,19.7462857 13.44,19.8422857 C13.9714286,20.3714286 14.8057143,20.6285714 15.9897143,20.6285714 L15.9897143,20.6285714 L15.9988571,20.6262857 C17.1931429,20.6285714 18.0262857,20.3714286 18.5577143,19.8434286 C18.6548571,19.7462857 18.6548571,19.5897143 18.5577143,19.4937143 Z M18.432,15.6811429 C17.8502857,15.6811429 17.3782857,16.152 17.3782857,16.7314286 C17.3782857,17.3097143 17.8514286,17.7805714 18.432,17.7805714 C19.0125714,17.7805714 19.4857143,17.3097143 19.4857143,16.7314286 C19.4857143,16.152 19.0137143,15.6811429 18.432,15.6811429 Z M13.5725714,15.68 C12.9908571,15.68 12.5177143,16.1508571 12.5177143,16.7302857 C12.5177143,17.3085714 12.9908571,17.7794306 13.5725714,17.7794306 C14.1531429,17.7805714 14.6262857,17.3097143 14.6262857,16.7302857 C14.6262857,16.1508571 14.1531429,15.68 13.5725714,15.68 Z"/>
</svg>