<svg width="32" height="32" viewBox="0 0 32 32" xmlns="http://www.w3.org/2000/svg">
  <polygon fill="#0A66C2" points="2 2 30 2 30 30 2 30"/>
  <path fill="#000" opacity="0.2" d="M28,4 L28,28 L4,28 L4,4 L28,4 Z M30,2 L2,2 L2,30 L30,30 L30,2 Z"/>
  <path fill="#FFF" d="M20.0233006,13.0378259 C23.3808845,13.0378259 24,15.2462812 24,18.119453 L23.9986,23.9719993 L20.6858171,23.9719993 L20.6858171,18.7840696 C20.6858171,17.5469387 20.6637166,15.9543989 18.9628741,15.9543989 C17.2374309,15.9543989 16.9734243,17.3022326 16.9734243,18.6939673 L16.9734243,23.9715993 L13.6607415,23.9715993 L13.6607415,13.3031326 L16.840921,13.3031326 L16.840921,14.761069 L16.8855221,14.761069 C17.5330383,13.6539413 18.7414685,12.9902248 20.0233006,13.0378259 Z M11.5791895,13.3031326 L11.5791895,23.9719993 L8.26300658,23.9719993 L8.26300658,13.3031326 L11.5791895,13.3031326 Z M9.92244806,8 C10.9267589,8 11.7616324,8.78695845 11.8390395,9.77276001 L11.8448961,9.92244806 L11.8448961,9.92244806 C11.8448961,10.9266636 11.0579377,11.7616233 10.0721361,11.8389525 L9.92244806,11.8447961 L9.92244806,11.8447961 C8.8678217,11.8447961 8,10.9770744 8,9.92244806 C8,8.8678217 8.8678217,8 9.92244806,8 Z"/>
</svg>