<svg width="32" height="32" viewBox="0 0 32 32" xmlns="http://www.w3.org/2000/svg">
  <rect fill="#8C8C8C" x="2" y="2" width="28" height="28"/>
  <rect fill="#FFF" x="4" y="4" width="24" height="24"/>
  <polygon fill="#EEE" points="2 2 30 2 30 30 2 30"/>
  <path fill="#000" opacity="0.2" d="M28,4 L28,28 L4,28 L4,4 L28,4 Z M30,2 L2,2 L2,30 L30,30 L30,2 Z"/>
  <path fill="#252F3E" d="M12.5089565,15.474895 C12.5089565,15.671788 12.5302423,15.8314309 12.5674923,15.9485024 C12.6100637,16.0655739 12.663278,16.1932883 12.7377781,16.3316455 C12.7643853,16.374217 12.7750281,16.4167884 12.7750281,16.4540384 C12.7750281,16.5072528 12.7430995,16.5604671 12.6739209,16.6136814 L12.3386707,16.8371815 C12.2907778,16.8691101 12.2428849,16.8850744 12.2003135,16.8850744 C12.1470992,16.8850744 12.0938848,16.8584673 12.0406705,16.8105744 C11.9661705,16.7307529 11.9023133,16.64561 11.849099,16.5604671 C11.7958847,16.4700027 11.7426703,16.3688955 11.6841346,16.2465026 C11.2690629,16.7360743 10.7475626,16.9808602 10.1196336,16.9808602 C9.67263336,16.9808602 9.31609743,16.8531458 9.05534727,16.5977171 C8.79459711,16.3422884 8.66156131,16.0017167 8.66156131,15.5760022 C8.66156131,15.1236805 8.82120427,14.7565017 9.14581161,14.4797872 C9.47041895,14.2030728 9.90145493,14.0647155 10.4495624,14.0647155 C10.6304911,14.0647155 10.8167412,14.0806798 11.0136342,14.107287 C11.2105272,14.1338942 11.4127416,14.1764656 11.6255988,14.2243585 L11.6255988,13.835894 C11.6255988,13.4314652 11.5404559,13.1494293 11.3754915,12.9844649 C11.2052057,12.8195005 10.9178484,12.739679 10.5080982,12.739679 C10.321848,12.739679 10.1302765,12.7609648 9.93338352,12.8088576 C9.73649054,12.8567505 9.544919,12.9152863 9.35866888,12.9897863 C9.27352597,13.0270363 9.20966879,13.0483221 9.17241877,13.0589649 C9.13516875,13.0696078 9.10856159,13.0749292 9.08727586,13.0749292 C9.01277581,13.0749292 8.97552579,13.0217149 8.97552579,12.9099648 L8.97552579,12.6492147 C8.97552579,12.5640718 8.98616865,12.5002146 9.01277581,12.4629646 C9.03938297,12.4257145 9.08727586,12.3884645 9.1617759,12.3512145 C9.34802602,12.2554287 9.57152616,12.1756073 9.83227631,12.1117501 C10.0930265,12.0425715 10.3697409,12.0106429 10.6624197,12.0106429 C11.2956701,12.0106429 11.7586346,12.1543215 12.0566348,12.4416788 C12.3493136,12.7290362 12.4983137,13.1653936 12.4983137,13.7507511 L12.4983137,15.474895 L12.5089565,15.474895 Z M10.3484552,16.2837526 C10.5240625,16.2837526 10.7049911,16.251824 10.8965627,16.1879668 C11.0881342,16.1241097 11.25842,16.0070382 11.4020987,15.8473952 C11.4872416,15.746288 11.5510988,15.6345379 11.5830274,15.5068236 C11.614956,15.3791092 11.6362417,15.2247877 11.6362417,15.043859 L11.6362417,14.8203589 C11.4819202,14.7831088 11.3169558,14.7511803 11.14667,14.7298945 C10.9763842,14.7086088 10.8114198,14.6979659 10.6464554,14.6979659 C10.2899195,14.6979659 10.0291693,14.7671446 9.85356204,14.9108232 C9.67795479,15.0545019 9.59281188,15.2567163 9.59281188,15.5227879 C9.59281188,15.7728952 9.65666906,15.9591453 9.78970486,16.0868596 C9.91741922,16.2198954 10.1036693,16.2837526 10.3484552,16.2837526 Z M14.621565,16.8584673 C14.5257792,16.8584673 14.461922,16.842503 14.4193506,16.8052529 C14.3767791,16.7733244 14.3395291,16.6988243 14.3076005,16.5977171 L13.057064,12.4842503 C13.0251354,12.3778217 13.0091711,12.308643 13.0091711,12.271393 C13.0091711,12.1862501 13.0517426,12.1383572 13.1368855,12.1383572 L13.6583858,12.1383572 C13.759493,12.1383572 13.8286716,12.1543215 13.8659216,12.1915715 C13.9084931,12.2235001 13.9404217,12.2980002 13.9723503,12.3991074 L14.8663508,15.9218953 L15.6964942,12.3991074 C15.7231013,12.2926788 15.7550299,12.2235001 15.7976014,12.1915715 C15.8401728,12.159643 15.9146729,12.1383572 16.0104587,12.1383572 L16.4361732,12.1383572 C16.5372804,12.1383572 16.606459,12.1543215 16.6490305,12.1915715 C16.6916019,12.2235001 16.728852,12.2980002 16.7501377,12.3991074 L17.5909239,15.9644667 L18.5115316,12.3991074 C18.5434602,12.2926788 18.5807102,12.2235001 18.6179603,12.1915715 C18.6605317,12.159643 18.7297103,12.1383572 18.8254961,12.1383572 L19.3203893,12.1383572 C19.4055322,12.1383572 19.4534251,12.1809287 19.4534251,12.271393 C19.4534251,12.2980002 19.4481036,12.3246073 19.4427822,12.3565359 C19.4374608,12.3884645 19.4268179,12.431036 19.4055322,12.4895717 L18.1230671,16.6030385 C18.0911385,16.7094672 18.0538885,16.7786458 18.011317,16.8105744 C17.9687456,16.842503 17.899567,16.8637887 17.8091026,16.8637887 L17.3514595,16.8637887 C17.2503523,16.8637887 17.1811737,16.8478244 17.1386022,16.8105744 C17.0960308,16.7733244 17.0587807,16.7041457 17.037495,16.5977171 L16.2126731,13.1653936 L15.3931726,16.5923957 C15.3665654,16.6988243 15.3346368,16.7680029 15.2920654,16.8052529 C15.2494939,16.842503 15.1749939,16.8584673 15.0792081,16.8584673 L14.621565,16.8584673 Z M21.4596049,17.0021459 C21.1828904,17.0021459 20.9061759,16.9702173 20.6401044,16.9063601 C20.3740328,16.842503 20.1664969,16.7733244 20.0281397,16.6935029 C19.9429968,16.64561 19.884461,16.5923957 19.8631753,16.5445028 C19.8418896,16.4966099 19.8312467,16.4433956 19.8312467,16.3955027 L19.8312467,16.1241097 C19.8312467,16.0123596 19.8738182,15.9591453 19.9536397,15.9591453 C19.9855682,15.9591453 20.0174968,15.9644667 20.0494254,15.9751096 C20.081354,15.9857524 20.1292469,16.0070382 20.1824612,16.0283239 C20.3633899,16.1081454 20.5602829,16.1720026 20.7678187,16.214574 C20.980676,16.2571455 21.1882118,16.2784312 21.4010691,16.2784312 C21.7363193,16.2784312 21.9970695,16.2198954 22.1779982,16.1028239 C22.3589268,15.9857524 22.4547126,15.8154666 22.4547126,15.5972879 C22.4547126,15.4482878 22.4068197,15.3258949 22.311034,15.2247877 C22.2152482,15.1236805 22.0343195,15.0332161 21.7735693,14.9480732 L21.0019617,14.7086088 C20.6134972,14.5862159 20.3261399,14.4052872 20.1505326,14.1658228 C19.9749254,13.9316798 19.884461,13.6709296 19.884461,13.3942151 C19.884461,13.170715 19.9323539,12.973822 20.0281397,12.8035362 C20.1239255,12.6332504 20.2516398,12.4842503 20.4112828,12.3671788 C20.5709257,12.2447859 20.7518544,12.1543215 20.9647117,12.0904643 C21.177569,12.0266072 21.4010691,12 21.6352121,12 C21.7522836,12 21.8746765,12.0053214 21.991748,12.0212857 C22.114141,12.03725 22.225891,12.0585358 22.3376411,12.0798215 C22.4440697,12.1064286 22.545177,12.1330358 22.6409627,12.1649644 C22.7367485,12.196893 22.8112485,12.2288216 22.8644629,12.2607502 C22.9389629,12.3033216 22.9921772,12.3458931 23.0241058,12.393786 C23.0560344,12.4363574 23.0719987,12.4948932 23.0719987,12.5693932 L23.0719987,12.8195005 C23.0719987,12.9312506 23.0294272,12.9897863 22.9496058,12.9897863 C22.9070343,12.9897863 22.8378557,12.9685006 22.7473914,12.9259291 C22.4440697,12.7875719 22.1034981,12.7183933 21.7256765,12.7183933 C21.4223548,12.7183933 21.1828904,12.7662862 21.017926,12.8673934 C20.8529616,12.9685006 20.7678187,13.1228221 20.7678187,13.3410008 C20.7678187,13.4900009 20.821033,13.6177153 20.9274617,13.7188225 C21.0338903,13.8199297 21.2307833,13.9210369 21.5128192,14.0115012 L22.2684625,14.2509657 C22.6516056,14.3733586 22.92832,14.5436444 23.0932844,14.7618231 C23.2582488,14.9800018 23.3380703,15.2301091 23.3380703,15.5068236 C23.3380703,15.7356451 23.2901774,15.943181 23.1997131,16.1241097 C23.1039273,16.3050383 22.9762129,16.4646813 22.8112485,16.5923957 C22.6462842,16.7254315 22.4493912,16.8212172 22.2205696,16.8903959 C21.9811052,16.9648959 21.7309979,17.0021459 21.4596049,17.0021459 Z"/>
  <path fill="#FF9900" d="M8.25181106,18.3165396 C10.5080982,19.6256118 13.291207,20.4185052 16.1701016,20.4185052 C18.1124242,20.4185052 20.2463184,20.0140763 22.2099267,19.183933 C22.5026055,19.0508972 22.7527128,19.3755045 22.4653555,19.5883618 C20.7146044,20.8814697 18.17096,21.5679344 15.9838515,21.5679344 C12.9187068,21.5679344 10.1568837,20.4344694 8.07088238,18.5506826 C7.90591799,18.4016825 8.05491808,18.1994681 8.25181106,18.3165396 Z M23.9393921,18.1835038 C24.1309636,18.4229682 23.8861778,20.0672907 22.9496058,20.8548626 C22.8059271,20.9772555 22.6675699,20.9133983 22.7314271,20.7537554 C22.9442843,20.2269336 23.4178918,19.0402543 23.1943916,18.7582184 C22.9708915,18.4708611 21.7150336,18.6198612 21.1456404,18.6890398 C20.9753546,18.7103255 20.9487474,18.5613254 21.1030689,18.4495754 C22.1034981,17.7471464 23.7478205,17.9493608 23.9393921,18.1835038 Z"/>
</svg>