<svg width="32" height="32" viewBox="0 0 32 32" xmlns="http://www.w3.org/2000/svg">
  <polygon fill="#0F2105" points="2 2 30 2 30 30 2 30"/>
  <path fill="#FFF" opacity="0.2" d="M28,4 L28,28 L4,28 L4,4 L28,4 Z M30,2 L2,2 L2,30 L30,30 L30,2 Z"/>
  <path fill="#2BDE73" d="M14.2121212,13.4242424 L17.1212121,9.18181818 C17.6666667,8.39393939 18.3939394,8 19.2727273,8 C20,8 20.6060606,8.24242424 21.1212121,8.75757576 C21.6363636,9.27272727 21.9090909,9.87878788 21.9090909,10.5757576 C21.9090909,11.0909091 21.7575758,11.5454545 21.4848485,11.969697 L18.8484848,15.7878788 L22.0606061,19.8787879 C22.3939394,20.2727273 22.5454545,20.7575758 22.5454545,21.3030303 C22.5454545,22.030303 22.3030303,22.6363636 21.7878788,23.1515152 C21.2727273,23.6666667 20.6666667,23.9393939 19.9393939,23.9393939 C19.1515152,23.9393939 18.5454545,23.6969697 18.1212121,23.1818182 L14.1818182,18.2727273 L14.1818182,21 C14.1818182,21.7878788 14.0606061,22.3636364 13.7878788,22.8181818 C13.3030303,23.6060606 12.5757576,24 11.6363636,24 C10.7878788,24 10.1212121,23.7272727 9.66666667,23.1515152 C9.24242424,22.6363636 9,21.9090909 9,21.0606061 L9,10.9090909 C9,10.0909091 9.21212121,9.39393939 9.66666667,8.84848485 C10.1818182,8.3030303 10.8181818,8 11.6363636,8 C12.4242424,8 13.0606061,8.27272727 13.6060606,8.84848485 C13.9090909,9.15151515 14.0909091,9.48484848 14.1515152,9.78787879 C14.2121212,10 14.2121212,10.3636364 14.2121212,10.9090909 L14.2121212,13.4242424 Z"/>
</svg>