<svg width="32" height="32" viewBox="0 0 32 32" xmlns="http://www.w3.org/2000/svg">
  <g fill="none" fill-rule="evenodd">
    <path fill="#fff" d="M0 0h32v32H0z"/>
    <path fill="#fbb900" d="M0 0v32h32V0H0zm2 2h28v28H2V2z"/>
    <path fill="#a6a6a6" d="M2 2h28v28H2z"/>
    <path fill="#fff" d="M2 5h28v22H2z"/>
    <path fill="#303030" d="M22.764 23.624l1.384 1.617.758-.783 2.415 2.52L20 27l2.764-3.376zM27.716 21c.71 0 1.284.632 1.284 1.412 0 .78-.575 1.412-1.284 1.412-.71 0-1.284-.632-1.284-1.412 0-.78.575-1.412 1.284-1.412z"/>
    <path fill="#fbb900" d="M14 22v3H6v-3h8zm-1 1H7v1h6v-1zm2-16v2H4V7h11z"/>
    <path fill="#474b51" d="M20 19v1H6v-1h14zm0-2v1H6v-1h14zm0-2v1H6v-1h14zm0-2v1H6v-1h14zm0-2v1H6v-1h14z"/>
  </g>
</svg>
