<svg width="32" height="32" viewBox="0 0 32 32" xmlns="http://www.w3.org/2000/svg">
  <g fill="none" fill-rule="evenodd">
    <path fill="#fff" d="M0 0h32v32H0z"/>
    <path fill="#025081" d="M0 0v32h32V0H0zm2 2h28v28H2V2z"/>
    <path fill="#222543" d="M20.014 15.506c-.157.82-.547 1.597-1.172 2.329-.625.732-1.192 1.26-1.7 1.582-.507.322-.83.483-.966.483-.235 0-.381-.166-.44-.498a6.19 6.19 0 0 0 1.421-1.098c.4-.42.66-.747.777-.982.117-.234.195-.43.234-.586.039-.254-.083-.6-.366-1.04-.283-.44-.396-.796-.337-1.069.078-.352.322-.65.732-.894s.84-.366 1.29-.366c.175 0 .35.03.527.088.195.41.195 1.094 0 2.05zm-3.897-.059c-.156.82-.547 1.597-1.172 2.33-.625.732-1.191 1.26-1.699 1.581-.508.323-.83.484-.967.484-.234 0-.38-.166-.44-.498a6.19 6.19 0 0 0 1.422-1.099c.4-.42.664-.752.79-.996.128-.244.21-.435.25-.571.039-.254-.088-.6-.381-1.04-.293-.44-.41-.796-.352-1.07.078-.351.323-.65.733-.893.41-.244.84-.366 1.289-.366.176 0 .351.029.527.087.196.41.196 1.094 0 2.051z"/>
    <path fill="#979797" d="M22 22v4H11v-4h11zM16 6a3 3 0 1 1 0 6 3 3 0 0 1 0-6z"/>
    <path fill="#979797" d="M27 8v17H5V8h22zm-2 2H7v13h18V10z"/>
  </g>
</svg>
