<svg width="32" height="32" viewBox="0 0 32 32" xmlns="http://www.w3.org/2000/svg">
    <g fill="none" fill-rule="evenodd">
        <polygon fill="#fff" points="0 0 32 0 32 32 0 32"/>
        <path fill="#999" d="M0,0 L0,32 L32,32 L32,0 L0,0 L0,0 Z M2,2 L30,2 L30,30 L2,30 L2,2 L2,2 Z"/>
        <path fill="#59f" d="M22.6,7 L22.6,22.4375 L9.4,22.4375 C8.7373,22.4375 8.2,22.9686094 8.2,23.625 C8.2,24.2813906 8.7373,24.8125 9.4,24.8125 L9.4,24.8125 L23.8,24.8125 L23.8,9.375 L25,9.375 L25,26 L9.4,26 C8.0746,26 7,24.9365938 7,23.625 L7,23.625 L7,9.375 C7,8.06340625 8.0746,7 9.4,7 L9.4,7 L22.6,7 Z M19,13 L10,13 L10,15 L19,15 L19,13 Z M20,10 L10,10 L10,12 L20,12 L20,10 Z"/>
    </g>
</svg>
