<svg width="32" height="32" viewBox="0 0 32 32" xmlns="http://www.w3.org/2000/svg">
    <g fill="none" fill-rule="evenodd">
        <polygon fill="#fff" points="0 0 32 0 32 32 0 32"/>
        <path fill="#999" d="M0,0 L0,32 L32,32 L32,0 L0,0 L0,0 Z M2,2 L30,2 L30,30 L2,30 L2,2 L2,2 Z"/>
        <path fill="#59f" d="M8.93515457,11.0374961 L12.4718798,12.199134 C12.7631042,12.3237523 14.1461699,12.8178272 16.5985596,12.2240577 C19.6964467,11.4734157 26.403615,10.1734759 26.471167,10.1597923 L26.2214746,8.92875911 C26.2189727,8.92924781 26.2004584,8.9326687 26.1769403,8.9375557 L19.7845146,8.05740848 C19.0814729,7.96064604 17.9465984,7.98899059 17.2495613,8.12142807 L8.70347605,9.74048844 C7.5916193,9.68428804 6.53430458,10.3513624 6.1800316,11.4328537 C5.97587428,12.0569225 6.03291824,12.7220421 6.34015498,13.3031054 C6.49727605,13.6002345 6.71144108,13.8568016 6.9671381,14.0649875 C6.5823416,14.358207 6.28010871,14.7618725 6.12048571,15.2486169 C5.91682878,15.8726857 5.97387274,16.5378053 6.2806091,17.1193573 C6.44723749,17.4340796 6.6794164,17.6994432 6.95462847,17.9120274 C6.57583659,18.2042695 6.27810717,18.6059802 6.11998533,19.0873489 C5.9163284,19.7114177 5.97337235,20.3760486 6.28010871,20.9576006 C6.58784584,21.5396414 7.10874722,21.9696966 7.74723921,22.1690859 L13.9084868,24.0930946 C14.2467474,24.1986536 14.8011747,24.2221111 15.1474415,24.1439193 L25.9632757,21.7238809 C25.9632757,21.7238809 25.8987259,21.4502094 25.819665,21.1125183 C25.7406041,20.7748271 25.3958384,20.5632204 25.0495716,20.6409236 L15.2029843,22.8430021 C14.8572178,22.9207052 14.3027906,22.8972477 13.9640296,22.7921773 L8.13904112,20.9737277 C7.82730091,20.8769653 7.57260465,20.6658472 7.42298936,20.3824017 C7.27287369,20.0989562 7.2448521,19.7744599 7.34492921,19.470489 C7.55058768,18.8415332 8.24162016,18.4970003 8.8856164,18.6939461 C8.88711755,18.6880817 12.4498628,19.7998723 13.9089872,20.2538738 C14.2472478,20.3594328 14.801675,20.3828904 15.1479419,20.3046985 L25.9637761,17.8851489 C25.9637761,17.8851489 25.8992263,17.6109887 25.8201654,17.2732975 C25.7411045,16.9356064 25.3963388,16.7239997 25.050072,16.8017028 L15.2034847,19.00427 C14.8577182,19.0814845 14.303291,19.0580269 13.96453,18.9534453 L8.13904112,17.134507 C7.82730091,17.0377445 7.57260465,16.8266265 7.42298936,16.543181 C7.27287369,16.2597355 7.2448521,15.9352392 7.34492921,15.6312683 C7.55058768,15.0023125 8.24162016,14.6572909 8.8856164,14.8547253 C8.88611678,14.8527705 12.4978999,15.9801995 13.9685331,16.4385994 C14.3062933,16.5441584 14.8612209,16.5676159 15.2069874,16.4894241 L26.0228215,14.0693857 C26.0228215,14.0693857 25.9582718,13.7962029 25.8792109,13.4575344 C25.7996496,13.1203319 25.4548839,12.9082365 25.1091175,12.9864284 L15.2625302,15.1880182 C14.9167637,15.26621 14.3623365,15.2427525 14.0235755,15.1371934 L8.19808662,13.3187438 C7.8863464,13.2214927 7.63165015,13.0108633 7.48203486,12.7269291 C7.33191919,12.4434836 7.3038976,12.1189873 7.40397471,11.8150164 C7.60963318,11.187038 8.30016527,10.8371294 8.93515457,11.0374961 L8.93515457,11.0374961 Z"/>
    </g>
</svg>
