<svg width="32" height="32" viewBox="0 0 32 32" xmlns="http://www.w3.org/2000/svg">
    <g fill="none" fill-rule="evenodd">
        <polygon fill="#fff" points="0 0 32 0 32 32 0 32"/>
        <path fill="#999" d="M0,0 L0,32 L32,32 L32,0 L0,0 L0,0 Z M2,2 L30,2 L30,30 L2,30 L2,2 L2,2 Z"/>
        <rect id="Rectangle-13" fill="#DEEBF7" x="2" y="10" width="28" height="20"></rect>
        <path d="M20,23 L20,25 L7,25 L7,23 L20,23 Z M20,19 L20,21 L7,21 L7,19 L20,19 Z M20,15 L20,17 L7,17 L7,15 L20,15 Z" id="text" fill="#B9B9B9"></path>
        <polygon id="Path" fill="#8C8C8C" points="4 5 28 5 28 8 4 8"></polygon>
        <path d="M23,23 L25,24 L23,25 L23,23 Z M23,19 L25,20 L23,21 L23,19 Z M23,15 L25,16 L23,17 L23,15 Z" id="Combined-Shape" fill="#5599FF"></path>
    </g>
</svg>
