<svg width="32" height="32" viewBox="0 0 32 32" xmlns="http://www.w3.org/2000/svg">
    <g fill="none" fill-rule="evenodd">
        <polygon fill="#fff" points="0 0 32 0 32 32 0 32"/>
        <path fill="#999" d="M0,0 L0,32 L32,32 L32,0 L0,0 L0,0 Z M2,2 L30,2 L30,30 L2,30 L2,2 L2,2 Z"/>
        <path fill="#59f" d="M10.5,18 L10.5,21 L6.5,21 L6.5,18 L10.5,18 Z M15.5,18 L15.5,21 L11.5,21 L11.5,18 L15.5,18 Z M20.5,18 L20.5,21 L16.5,21 L16.5,18 L20.5,18 Z M25.5,18 L25.5,21 L21.5,21 L21.5,18 L25.5,18 Z M10.5,14 L10.5,17 L6.5,17 L6.5,14 L10.5,14 Z M15.5,14 L15.5,17 L11.5,17 L11.5,14 L15.5,14 Z M20.5,14 L20.5,17 L16.5,17 L16.5,14 L20.5,14 Z M25.5,14 L25.5,17 L21.5,17 L21.5,14 L25.5,14 Z"/>
        <polygon fill="#b9b9b9" points="4 10.4 28 10.4 28 12 4 12"/>
        <polygon fill="#666" points="4 4.4 28 4.4 28 8 4 8"/>
        <path fill="#ff8700" d="M11,23 L11,28 L7,25.5 L11,23 Z M21,23 L25,25.5 L21,28 L21,23 Z"/>
    </g>
</svg>
