<svg width="32" height="32" viewBox="0 0 32 32" xmlns="http://www.w3.org/2000/svg">
  <g fill="none" fill-rule="evenodd">
    <path fill="#fff" d="M0 0h32v32H0z"/>
    <path fill="#999" d="M0 0v32h32V0H0zm2 2h28v28H2V2z"/>
    <path fill="#59f" d="M4 4h24v24H4z"/>
    <path fill="#fff" d="M13.913 20.794l1.467 1.597.938-.76 2.548 2.467-7.866.003 2.913-3.307zM19.65 18c.746 0 1.35.627 1.35 1.4 0 .774-.604 1.4-1.35 1.4-.746 0-1.35-.626-1.35-1.4 0-.773.604-1.4 1.35-1.4z"/>
    <path stroke="#fff" d="M23 25l3.125-4L23 17M9.125 17L6 21l3.125 4"/>
    <path fill="#fff" d="M14 9h8v5h-8z"/>
    <path fill="#8c8c8c" d="M15 12v1h6v-1h-6zm0-2v1h6v-1h-6z"/>
  </g>
</svg>
