<svg width="32" height="32" viewBox="0 0 32 32" xmlns="http://www.w3.org/2000/svg">
    <g fill="none" fill-rule="evenodd">
        <path fill="#fff" d="M0 0h32v32H0z"/>
        <path fill="#999" d="M0 0v32h32V0H0zm2 2h28v28H2V2z"/>
        <polygon fill="#b9b9b9" points="20.3,10.9 22.7,8.6 24.2,10.1 21.9,12.5"/>
        <polygon fill="#b9b9b9" points="7.8,10.1 9.3,8.6 11.7,10.9 10.1,12.5"/>
        <rect fill="#8c8c8c" x="14" y="5.4" width="3.9" height="1.6"/>
        <rect fill="#b9b9b9" x="15.2" y="7" width="1.6" height="2.3"/>
        <circle fill="#d6d9db" cx="16" cy="17.6" r="9"/>
        <circle fill="#3f75c5" cx="16" cy="17.6" r="7"/>
        <circle fill="#abd7ff" cx="16" cy="17.6" r="6.3"/>
        <path fill="#c83c3c" d="M17.1,17.1l3.1-3.1l-0.6-0.6l-3.1,3.1l0,0c-0.2-0.1-0.3-0.1-0.5-0.1c-0.6,0-1.2,0.5-1.2,1.2 c0,0.2,0,0.4,0.1,0.5l0,0l-1.2,1.2l0.6,0.6l1.2-1.2l0,0c0.2,0.1,0.3,0.1,0.5,0.1c0.6,0,1.2-0.5,1.2-1.2 C17.2,17.4,17.1,17.2,17.1,17.1L17.1,17.1z"/>
        <rect fill="#59f" x="15.6" y="11.7" width="1" height="1.6"/>
        <rect fill="#59f" x="15.6" y="21.9" width="1" height="1.6"/>
        <polygon fill="#59f" points="12.7,12.7 13.4,12.3 14.2,13.6 13.5,14"/>
        <polygon fill="#59f" points="17.8,21.5 18.5,21.1 19.3,22.5 18.6,22.8"/>
        <polygon fill="#59f" points="10.7,15 11.1,14.3 12.5,15.1 12.1,15.8"/>
        <polygon fill="#59f" points="19.5,20.1 19.9,19.4 21.3,20.2 20.9,20.8"/>
        <rect fill="#59f" x="20.3" y="17.2" width="1.6" height="1"/>
        <rect fill="#59f" x="10" y="17.2" width="1.6" height="1"/>
        <polygon fill="#59f" points="10.7,20.2 12.1,19.4 12.5,20.1 11.1,20.8"/>
        <polygon fill="#59f" points="19.5,15.1 20.9,14.3 21.3,15 19.9,15.8"/>
        <polygon fill="#59f" points="12.7,22.5 13.5,21.1 14.2,21.5 13.4,22.8"/>
        <polygon fill="#59f" points="17.8,13.6 18.6,12.3 19.3,12.7 18.5,14"/>
    </g>
</svg>
