<svg width="32" height="32" viewBox="0 0 32 32" xmlns="http://www.w3.org/2000/svg">
    <g fill="none" fill-rule="evenodd">
        <polygon fill="#fff" points="0 0 32 0 32 32 0 32"/>
        <path fill="#76a0c6" d="M0,0 L0,32 L32,32 L32,0 L0,0 L0,0 Z M2,2 L30,2 L30,30 L2,30 L2,2 L2,2 Z"/>
        <path fill="#4d4d4d" d="M26.6666667,23 L26.6666667,24 L19,24 L19,23 L26.6666667,23 Z M11.6666667,23 L11.6666667,24 L4,24 L4,23 L11.6666667,23 Z M28,21 L28,22 L19,22 L19,21 L28,21 Z M13,21 L13,22 L4,22 L4,21 L13,21 Z M26.6666667,19 L26.6666667,20 L19,20 L19,19 L26.6666667,19 Z M11.6666667,19 L11.6666667,20 L4,20 L4,19 L11.6666667,19 Z M28,17 L28,18 L19,18 L19,17 L28,17 Z M13,17 L13,18 L4,18 L4,17 L13,17 Z M26,10 L26,13 L6,13 L6,10 L26,10 Z M21,6 L21,8 L11,8 L11,6 L21,6 Z"/>
    </g>
</svg>
