<svg width="32" height="32" viewBox="0 0 32 32" xmlns="http://www.w3.org/2000/svg">
    <g fill="none" fill-rule="evenodd">
        <polygon fill="#fff" points="0 0 32 0 32 32 0 32"/>
        <path fill="#76a0c6" d="M0,0 L0,32 L32,32 L32,0 L0,0 L0,0 Z M2,2 L30,2 L30,30 L2,30 L2,2 L2,2 Z"/>
        <path fill="#979797" d="M4,28h24V4H4V28z M5,5h22v22H5V5z"/>
        <path fill="#259637" d="M10.7,17.7v6.8h10.5v-6.8c0.1-1.9-0.8-2.4-0.8-2.4c-1-0.3-1.7-0.7-2.5-1c0,0.1,0,0.1,0,0.2 c-0.9,0.9-2.7,0.9-3.6,0c-0.1-0.1-0.1-0.2-0.1-0.3c-0.8,0.3-1.5,0.7-2.6,1C11.7,15.2,10.8,15.7,10.7,17.7z"/>
        <path fill="#ffc857" d="M14.4,14.5c0.9,0.9,2.7,0.9,3.6,0c0.1-0.1,0.1-0.1,0-0.2c-0.1,0-0.2-0.1-0.2-0.1c-0.1-0.2-0.3-0.6-0.3-1.5 c0.5-0.5,0.9-1.3,0.9-1.8V9.3c0-1-0.9-1.8-2-1.8h-0.5c-1,0-2,0.8-2,1.8v1.4c0,0.6,0.4,1.3,0.9,1.8c0,0.9-0.2,1.3-0.3,1.6 c0,0-0.1,0-0.1,0C14.3,14.3,14.3,14.4,14.4,14.5z"/>
    </g>
</svg>
