<svg width="32" height="32" viewBox="0 0 32 32" xmlns="http://www.w3.org/2000/svg">
    <g fill="none" fill-rule="evenodd">
        <path fill="#76a0c6" d="M0,0 L0,32 L32,32 L32,0 L0,0 L0,0 Z M2,2 L30,2 L30,30 L2,30 L2,2 L2,2 Z"/>
        <polygon fill="#919191" points="2 2 30 2 30 30 2 30"/>
        <polygon fill="#ed87B9" points="2 16 11 16 11 25 2 25"/>
        <polygon fill="#fab900" points="11 16 21 16 21 25 11 25"/>
        <polygon fill="#027b72" points="21 16 30 16 30 25 21 25"/>
        <polygon fill="#ed87B9" points="2 7 11 7 11 16 2 16"/>
        <polygon fill="#fab900" points="11 7 21 7 21 16 11 16"/>
        <polygon fill="#027b72" points="21 7 30 7 30 16 21 16"/>
        <polygon fill="#fff" opacity="0.2" points="2 7 11 7 11 16 2 16"/>
        <polygon fill="#fff" opacity="0.2" points="11 7 21 7 21 16 11 16"/>
        <polygon fill="#fff" opacity="0.2" points="21 7 30 7 30 16 21 16"/>
        <path fill="#fff" d="M10,22 L10,23 L3,23 L3,22 L10,22 Z M20,22 L20,23 L12,23 L12,22 L20,22 Z M29,22 L29,23 L22,23 L22,22 L29,22 Z M10,20 L10,21 L3,21 L3,20 L10,20 Z M20,20 L20,21 L12,21 L12,20 L20,20 Z M29,20 L29,21 L22,21 L22,20 L29,20 Z M14.5237235,11.6666667 L16.2879048,13.2629276 L17.2547673,12.4902309 L20.3333333,14.9778985 L11,15 L14.5237235,11.6666667 Z M19.6666667,9 C20.4030463,9 21,9.59695367 21,10.3333333 C21,11.069713 20.4030463,11.6666667 19.6666667,11.6666667 C18.930287,11.6666667 18.3333333,11.069713 18.3333333,10.3333333 C18.3333333,9.59695367 18.930287,9 19.6666667,9 Z"/>
    </g>
</svg>
