<svg width="32" height="32" xmlns="http://www.w3.org/2000/svg">
  <g fill="none" fill-rule="evenodd">
    <path fill="#FFF" d="M0 0h32v32H0z"/>
    <path d="M0 0v32h32V0H0zm2 2h28v28H2V2z" fill="#999"/>
    <path d="M14.5 17.5v6h-8v-6h8zm11 0v6h-8v-6h8zm0-10v6h-8v-6h8zm-11 0v6h-8v-6h8z" stroke="#EA9F39"/>
    <path d="M15 23v2H6v-2h9zm11 0v2h-9v-2h9zm0-10v2h-9v-2h9zm-11 0v2H6v-2h9z" fill="#E79C38" fill-rule="nonzero"/>
    <path d="M25 18v5h-7v-5h7zm-11 0v5H7v-5h7zm0-10v5H7V8h7zm11 0v5h-7V8h7z" fill="#C0BAC9" fill-rule="nonzero"/>
    <path d="M9 22l.92-1.13.46.54.26-.2.8.84H9V22zm11.92-1.13l.46.54.26-.2.8.84H20V22l.92-1.13zM11.57 20c.24 0 .43.2.43.47 0 .26-.2.47-.43.47-.23 0-.43-.2-.43-.47 0-.26.2-.47.43-.47zm11 0c.24 0 .43.2.43.47 0 .26-.2.47-.43.47-.23 0-.43-.2-.43-.47 0-.26.2-.47.43-.47zm-1.65-9.13l.46.54.26-.2.8.84H20V12l.92-1.13zm-11 0l.46.54.26-.2.8.84H9V12l.92-1.13zM22.57 10c.24 0 .43.2.43.47 0 .26-.2.47-.43.47-.23 0-.43-.2-.43-.47 0-.26.2-.47.43-.47zm-11 0c.24 0 .43.2.43.47 0 .26-.2.47-.43.47-.23 0-.43-.2-.43-.47 0-.26.2-.47.43-.47z" fill="#54297D" fill-rule="nonzero"/>
  </g>
</svg>
