<svg width="32" height="32" xmlns="http://www.w3.org/2000/svg">
  <g fill="none" fill-rule="evenodd">
    <path fill="#FFF" d="M0 0h32v32H0z"/>
    <path d="M0 0v32h32V0H0zm2 2h28v28H2V2z" fill="#999"/>
    <path d="M26 23v4H6v-4h20zm0-5v4H6v-4h20zm0-5v4H6v-4h20zm0-5v4H6V8h20z" fill="#C0BAC9" fill-rule="nonzero"/>
    <path d="M10 23v4H6v-4h4zm0-5v4H6v-4h4zm0-5v4H6v-4h4zm0-5v4H6V8h4z" fill="#54297D" fill-rule="nonzero"/>
    <path fill="#F69C00" fill-rule="nonzero" d="M6 5h12v1H6z"/>
  </g>
</svg>
