<svg width="32" height="32" xmlns="http://www.w3.org/2000/svg">
  <g fill="none" fill-rule="evenodd">
    <path fill="#FFF" d="M0 0h32v32H0z"/>
    <path d="M0 0v32h32V0H0zm2 2h28v28H2V2z" fill="#999"/>
    <g>
      <g fill-rule="nonzero">
        <path d="M21.886 20.727s-.114-.782-.436-1.127c-.417-.455-.891-.455-1.1-.473C18.814 19.018 16.5 19 16.5 19s-2.314.018-3.85.127c-.209.018-.683.037-1.1.473-.341.345-.436 1.127-.436 1.127S11 21.655 11 22.582v.854c0 .928.114 1.837.114 1.837s.114.782.436 1.127c.417.455.967.436 1.214.49.872.092 3.736.11 3.736.11s2.314 0 3.85-.127c.209-.018.683-.037 1.1-.473.322-.345.436-1.127.436-1.127s.114-.928.114-1.837v-.854c0-.927-.114-1.855-.114-1.855" fill="#D8362A"/>
        <path fill="#FFF" d="M15 21v4l4-1.954z"/>
      </g>
      <path d="M6.69 10.862c.379 0 .69.31.69.69v1.379c0 .348-.261.637-.597.683l-.093.007c-.38 0-.69-.31-.69-.69v-1.38c0-.379.31-.689.69-.689zm2.758-1.38c.38 0 .69.311.69.69v2.759c0 .348-.26.637-.596.683l-.094.007c-.379 0-.69-.31-.69-.69v-2.759c0-.379.311-.69.69-.69zm2.759-1.379c.38 0 .69.31.69.69v4.138c0 .348-.261.637-.597.683l-.093.007c-.38 0-.69-.31-.69-.69V8.793c0-.38.31-.69.69-.69zm2.759-1.379c.379 0 .69.38.69.862v5.173c0 .442-.262.798-.597.854l-.093.008c-.38 0-.69-.38-.69-.862V7.586c0-.483.31-.862.69-.862zM18.069 5a4.81 4.81 0 0 1 4.724 3.931c.276-.103.517-.138.793-.138A2.399 2.399 0 0 1 26 11.207a2.399 2.399 0 0 1-2.414 2.414h-6.552V5.103c.345-.069.69-.103 1.035-.103z" fill="#FB780B" fill-rule="nonzero"/>
      <path d="M5.5 16.5h21" stroke="#979797" stroke-linecap="square"/>
    </g>
  </g>
</svg>
