<svg width="32" height="32" xmlns="http://www.w3.org/2000/svg">
  <g fill="none" fill-rule="evenodd">
    <path fill="#FFF" d="M0 0h32v32H0z"/>
    <path d="M0 0v32h32V0H0zm2 2h28v28H2V2z" fill="#999"/>
    <g>
      <path d="M9 18v3H4v-3h5zm19 0v3h-5v-3h5zm-12.667 0v3h-5v-3h5zm6.334 0v3h-5v-3h5zM9 10v3H4v-3h5zm19 0v3h-5v-3h5zm-12.667 0v3h-5v-3h5zm6.334 0v3h-5v-3h5z" fill="#59F"/>
      <path d="M9 22v1H4v-1h5zm19 0v1h-5v-1h5zm-12.667 0v1h-5v-1h5zm6.334 0v1h-5v-1h5zM9 14v1H4v-1h5zm19 0v1h-5v-1h5zm-12.667 0v1h-5v-1h5zm6.334 0v1h-5v-1h5z" fill="#515151"/>
    </g>
  </g>
</svg>
