<svg width="32" height="32" viewBox="0 0 32 32" xmlns="http://www.w3.org/2000/svg">
    <g fill="none" fill-rule="evenodd">
        <polygon fill="#fff" points="0 0 32 0 32 32 0 32"/>
        <path fill="#999" d="M0,0 L0,32 L32,32 L32,0 L0,0 L0,0 Z M2,2 L30,2 L30,30 L2,30 L2,2 L2,2 Z"/>
        <rect id="Rectangle-93" fill="#FBDEC0" x="2" y="8" width="28" height="17"/>
        <path d="M4.33180502,20 L4.33180502,19.0178571 C4.64149125,18.8497418 4.87375244,18.5466962 5.02859556,18.1087114 C5.18343868,17.6707266 5.26085907,17.0933916 5.26085907,16.3766892 L5.26085907,16.0714286 L4,16.0714286 L4,13.125 L6.94642857,13.125 L6.94642857,15.3281853 C6.94642857,16.6642602 6.72743945,17.7216016 6.28945463,18.5002413 C5.85146982,19.278881 5.19892647,19.7787955 4.33180502,20 L4.33180502,20 Z M11.8571429,13.125 L11.8571429,15.3281853 C11.8571429,16.6642602 11.6381537,17.7216016 11.2001689,18.5002413 C10.7621841,19.278881 10.1096408,19.7787955 9.24251931,20 L9.24251931,19.0178571 C9.55220554,18.8497418 9.78446673,18.5466962 9.93930985,18.1087114 C10.094153,17.6707266 10.1715734,17.0933916 10.1715734,16.3766892 L10.1715734,16.0714286 L8.91071429,16.0714286 L8.91071429,13.125 L11.8571429,13.125 Z M28,17 L28,19 L15.7075195,19 L15.7075195,17 L28,17 Z M28,14 L28,16 L15.7075195,16 L15.7075195,14 L28,14 Z" id="Combined-Shape" fill="#EF8A1E"/>
    </g>
</svg>
