<svg width="32" height="32" viewBox="0 0 32 32" xmlns="http://www.w3.org/2000/svg">
    <g fill="none" fill-rule="evenodd">
        <polygon fill="#fff" points="0 0 32 0 32 32 0 32"/>
        <path fill="#999" d="M0,0 L0,32 L32,32 L32,0 L0,0 L0,0 Z M2,2 L30,2 L30,30 L2,30 L2,2 L2,2 Z"/>
        <polyline id="Shape" fill="#A3A3A3" transform="translate(20.634500, 16.314000) scale(-1, 1) translate(-20.634500, -16.314000) " points="22.68 10.003 22.69 13.49 18 19.834 22.693 17.914 22.693 22.628 23.249 22.628 23.269 17.002 19.755 18.44 23.269 13.77 23.269 10"/>
        <path d="M10,11 L16,11 L16,12.0002108 L10,12.0002108 L10,11 L10,11 Z M16,15 L16,16 L10,16 L10,15 L16,15 Z M16,17 L16,18 L10,18 L10,17 L16,17 Z M10,19 L16,19 L16,20 L10,20 L10,19 L10,19 Z M10,13.0004215 L16,13.0004215 L16,14.0006323 L10,14.0006323 L10,13.0004215 L10,13.0004215 Z" id="Shape" fill="#FF8700" transform="translate(13.000000, 15.500000) scale(-1, 1) translate(-13.000000, -15.500000) "/>
        <path d="M25,21 L28.125,16 L25,11 M7.125,11 L4,16 L7.125,21" id="Shape" stroke="#B9B9B9"/>
    </g>
</svg>
