<svg width="32" height="32" viewBox="0 0 32 32" xmlns="http://www.w3.org/2000/svg">
    <g fill="none" fill-rule="evenodd">
        <polygon fill="#fff" points="0 0 32 0 32 32 0 32"/>
        <path fill="#999" d="M0,0 L0,32 L32,32 L32,0 L0,0 L0,0 Z M2,2 L30,2 L30,30 L2,30 L2,2 L2,2 Z"/>
        <polygon id="Shape" fill="#ED7B00" points="2 2 30 2 30 30 2 30"/>
        <polygon id="Rectangle-93" fill="#003A75" points="30 2 30 30 2 25.9853516 2 6.01464844"/>
        <polygon id="Rectangle-94" fill="#FDFDFD" points="22.1474609 7.67643673 22.1474609 9.20586204 4.70751953 9.96903875 4.70751953 8.94839791"/>
        <polygon id="Rectangle-94" fill="#FDFDFD" points="22.1474609 10.7352873 22.1474609 12.2647127 4.70751953 12.0103204 4.70751953 10.9896796"/>
        <polygon id="Rectangle-94" fill="#FDFDFD" points="22.1474609 13.794138 22.1474609 15.3235633 4.70751953 14.0516021 4.70751953 13.0309613"/>
    </g>
</svg>
