<svg width="32" height="32" viewBox="0 0 32 32" xmlns="http://www.w3.org/2000/svg">
    <g fill="none" fill-rule="evenodd">
        <polygon fill="#fff" points="0 0 32 0 32 32 0 32"/>
        <path fill="#999" d="M0,0 L0,32 L32,32 L32,0 L0,0 L0,0 Z M2,2 L30,2 L30,30 L2,30 L2,2 L2,2 Z"/>
        <path fill="#683b85" d="M28,16.5 L28,21.75 L22.75,21.75 L22.75,16.5 L28,16.5 Z M15.5,16.5 L15.5,21.75 L10.25,21.75 L10.25,16.5 L15.5,16.5 Z M9.25,10 L9.25,15.25 L4,15.25 L4,10 L9.25,10 Z M21.75,10 L21.75,15.25 L16.5,15.25 L16.5,10 L21.75,10 Z"/>
        <path fill="#f19800" d="M9.25,16.5 L9.25,21.75 L4,21.75 L4,16.5 L9.25,16.5 Z M21.75,16.5 L21.75,21.75 L16.5,21.75 L16.5,16.5 L21.75,16.5 Z M28,10 L28,15.25 L22.75,15.25 L22.75,10 L28,10 Z M15.5,10 L15.5,15.25 L10.25,15.25 L10.25,10 L15.5,10 Z"/>
    </g>
</svg>
