<svg width="32" height="32" viewBox="0 0 32 32" xmlns="http://www.w3.org/2000/svg">
    <g fill="none" fill-rule="evenodd">
        <polygon fill="#fff" points="0 0 32 0 32 32 0 32"/>
        <path fill="#999" d="M0,0 L0,32 L32,32 L32,0 L0,0 L0,0 Z M2,2 L30,2 L30,30 L2,30 L2,2 L2,2 Z"/>
        <path stroke="#ea9f39" d="M14.5,17.5 L14.5,23.5 L6.5,23.5 L6.5,17.5 L14.5,17.5 Z M25.5,17.5 L25.5,23.5 L17.5,23.5 L17.5,17.5 L25.5,17.5 Z M25.5,7.5 L25.5,13.5 L17.5,13.5 L17.5,7.5 L25.5,7.5 Z M14.5,7.5 L14.5,13.5 L6.5,13.5 L6.5,7.5 L14.5,7.5 Z"/>
        <path fill="#e79c38" d="M15,23 L15,25 L6,25 L6,23 L15,23 Z M26,23 L26,25 L17,25 L17,23 L26,23 Z M26,13 L26,15 L17,15 L17,13 L26,13 Z M15,13 L15,15 L6,15 L6,13 L15,13 Z"/>
        <path fill="#c0bac9" d="M25,18 L25,23 L18,23 L18,18 L25,18 Z M14,18 L14,23 L7,23 L7,18 L14,18 Z M14,8 L14,13 L7,13 L7,8 L14,8 Z M25,8 L25,13 L18,13 L18,8 L25,8 Z"/>
        <path fill="#54297d" d="M9,22 L9.92,20.87 L10.38,21.41 L10.64,21.21 L11.44,22.05 L9,22.05 L9,22 Z M20.92,20.87 L21.38,21.41 L21.64,21.21 L22.44,22.05 L20,22.05 L20,22 L20.92,20.87 Z M11.57,20 C11.81,20 12,20.2 12,20.47 C12,20.73 11.8,20.94 11.57,20.94 C11.34,20.94 11.14,20.74 11.14,20.47 C11.14,20.21 11.34,20 11.57,20 Z M22.57,20 C22.81,20 23,20.2 23,20.47 C23,20.73 22.8,20.94 22.57,20.94 C22.34,20.94 22.14,20.74 22.14,20.47 C22.14,20.21 22.34,20 22.57,20 Z M20.92,10.87 L21.38,11.41 L21.64,11.21 L22.44,12.05 L20,12.05 L20,12 L20.92,10.87 Z M9.92,10.87 L10.38,11.41 L10.64,11.21 L11.44,12.05 L9,12.05 L9,12 L9.92,10.87 Z M22.57,10 C22.81,10 23,10.2 23,10.47 C23,10.73 22.8,10.94 22.57,10.94 C22.34,10.94 22.14,10.74 22.14,10.47 C22.14,10.21 22.34,10 22.57,10 Z M11.57,10 C11.81,10 12,10.2 12,10.47 C12,10.73 11.8,10.94 11.57,10.94 C11.34,10.94 11.14,10.74 11.14,10.47 C11.14,10.21 11.34,10 11.57,10 Z"/>
    </g>
</svg>
