<svg width="32" height="32" viewBox="0 0 32 32" xmlns="http://www.w3.org/2000/svg">
    <g fill="none" fill-rule="evenodd">
        <polygon fill="#fff" points="0 0 32 0 32 32 0 32"/>
        <path fill="#999" d="M0,0 L0,32 L32,32 L32,0 L0,0 L0,0 Z M2,2 L30,2 L30,30 L2,30 L2,2 L2,2 Z"/>
        <path fill="#8c8c8c" d="M17.8988615,10.5631055 L13.3195063,15.1409974 C12.8934979,15.5661738 12.8934979,16.2559413 13.3195063,16.6811177 C13.7455147,17.1062941 14.4344502,17.1062941 14.8596266,16.6811177 L19.4634384,12.0765701 C19.9757747,12.339841 20.5567213,12.4884293 21.1723725,12.4884293 C23.2402452,12.4884293 24.9165872,10.8120873 24.9165872,8.74421467 C24.9165872,6.67634201 23.2402452,5 21.1723725,5 C19.1044999,5 17.4281579,6.67634201 17.4281579,8.74421467 C17.4281579,9.40434472 17.5989918,10.0245744 17.8988615,10.5631055 Z M21.1723725,10.8243339 C22.3211907,10.8243339 23.2524918,9.89303281 23.2524918,8.74421467 C23.2524918,7.59539652 22.3211907,6.66409541 21.1723725,6.66409541 C20.0235544,6.66409541 19.0922533,7.59539652 19.0922533,8.74421467 C19.0922533,9.89303281 20.0235544,10.8243339 21.1723725,10.8243339 Z"/>
        <path fill="#8c8c8c" d="M8.58198453,12.9354378 L5,12.9354378 L5,11.2204038 L10.492168,11.2204038 L12.3366556,20.3722654 L23.3568134,20.3722654 L25.16979,11.2204038 L27,13.0766429 L26.8369234,13.890395 C26.2812123,16.6633935 25.16979,22.2093903 25.16979,22.2093903 L10.492168,22.2093903 L8.58198453,12.9354378 Z M12.9214091,28.371521 C14.2637405,28.371521 15.351915,27.2833464 15.351915,25.9410151 C15.351915,24.5986837 14.2637405,23.5105092 12.9214091,23.5105092 C11.5790778,23.5105092 10.4909032,24.5986837 10.4909032,25.9410151 C10.4909032,27.2833464 11.5790778,28.371521 12.9214091,28.371521 Z M22.73515,28.371521 C24.0774813,28.371521 25.1656559,27.2833464 25.1656559,25.9410151 C25.1656559,24.5986837 24.0774813,23.5105092 22.73515,23.5105092 C21.3928186,23.5105092 20.3046441,24.5986837 20.3046441,25.9410151 C20.3046441,27.2833464 21.3928186,28.371521 22.73515,28.371521 Z"/>
    </g>
</svg>
