<svg width="32" height="32" viewBox="0 0 32 32" xmlns="http://www.w3.org/2000/svg">
  <g fill="none" fill-rule="evenodd">
    <path fill="#fff" d="M0 0h32v32H0z"/>
    <path fill="#999" d="M0 0v32h32V0H0zm2 2h28v28H2V2z"/>
    <path fill="#e20d0d" fill-rule="nonzero" d="M4 11h8v-1H4z"/>
    <path fill="#ededed" fill-rule="nonzero" d="M4 15h24v3H4v-3zm0 6h24v3H4v-3z"/>
    <path fill="#787878" fill-rule="nonzero" d="M5 14h5v-1H5v1zm0 3h5v-1H5v1zm0 3h6v-1H5v1zm0 3h6v-1H5v1zm10-9h3v-1h-3v1zm0 3h3v-1h-3v1zm0 3h3v-1h-3v1zm0 3h3v-1h-3v1zm8-9h3v-1h-3v1zm0 3h3v-1h-3v1zm0 3h3v-1h-3v1zm0 3h3v-1h-3v1z"/>
  </g>
</svg>
