<svg width="32" height="32" viewBox="0 0 32 32" xmlns="http://www.w3.org/2000/svg">
  <g fill="none" fill-rule="evenodd">
    <path fill="#fff" d="M0 0h32v32H0z"/>
    <path fill="#999" d="M0 0v32h32V0H0zm2 2h28v28H2V2z"/>
    <path fill="#ebe7e0" d="M2 2h28v28H2z"/>
    <path fill="#e3a118" d="M9.437 15.084c-.638-.164-1.082-.388-1.526-.54-.049-.125-.153-.344-.164-.84.309-.276.529-.667.529-.982v-.742c0-.54-.526-.98-1.126-.98h-.3c-.6 0-1.126.44-1.126.98v.742c0 .315.22.706.526.98-.01.498-.115.717-.163.84-.444.153-.888.378-1.526.542 0 0-.524.27-.561 1.316V20h6v-3.6c-.039-1.046-.563-1.316-.563-1.316z"/>
    <path fill="#0ea000" d="M7.921 14.004c.027.086.031.13-.022.183-.45.483-1.388.446-1.8 0-.054-.054-.044-.098-.011-.187-.444.167-.888.415-1.526.596 0 0-.525.297-.562 1.446V20h6v-3.958c-.04-1.187-.564-1.446-.564-1.446-.633-.18-1.074-.424-1.514-.592z"/>
    <path fill="#083f54" d="M27 18v2H13v-2h14zm0-3v2H13v-2h14zm0-3v2H13v-2h14z"/>
  </g>
</svg>
