<svg width="32" height="32" viewBox="0 0 32 32" xmlns="http://www.w3.org/2000/svg">
  <g fill="none" fill-rule="evenodd">
    <path fill="#fff" d="M0 0h32v32H0z"/>
    <path fill="#999" d="M0 0v32h32V0H0zm2 2h28v28H2V2z"/>
    <path fill="#edeef0" d="M2 2h28v28H2z"/>
    <path fill="#fff" d="M4 14h24v16H4z"/>
    <path fill="#F59C2B" stroke="#f59c2b" d="M6.5 25.5h8v2h-8z"/>
    <path fill="#083f54" d="M26 19v2H6v-2h20zm0-3v2H6v-2h20z"/>
    <path fill="#8aafbf" d="M4 2h24v12H4z"/>
    <path fill="#fff" d="M13.6 7l2.104 1.965 1.059-.955L20 11l-10-.012L13.6 7zm5.9-3a1.5 1.5 0 1 1 0 3 1.5 1.5 0 0 1 0-3z"/>
  </g>
</svg>
