<svg width="36" height="36" viewBox="0 0 36 36" xmlns="http://www.w3.org/2000/svg">
  <g fill="none" fill-rule="nonzero">
    <path fill="#FFF" d="M2 2h32v32H2z"/>
    <path fill="#999" d="M2 2v32h32V2H2zm2 2h28v28H4V4z"/>
    <path fill="#B9B9B9" d="M13 26h11v2H13z"/>
    <path fill="#666" d="M13 22h11v3H13z"/>
    <path fill="#59F" d="M13 9h11v12H13z"/>
    <path fill="#EFEFEF" d="M17.168 14.98l1.036 1.233.592-.58 1.872 1.884-5.616.011 2.116-2.548zM20.995 13c.55 0 .995.478.995 1.067 0 .59-.445 1.067-.995 1.067S20 14.656 20 14.067c0-.59.446-1.067.995-1.067z"/>
  </g>
</svg>
