<svg width="36" height="36" viewBox="0 0 36 36" xmlns="http://www.w3.org/2000/svg">
  <g fill="none" fill-rule="nonzero">
    <path fill="#FFF" d="M2 2h32v32H2z"/>
    <path fill="#999" d="M2 2v32h32V2H2zm2 2h28v28H4V4z"/>
    <path fill="#59F" d="M20 9h10v18H20z"/>
    <path fill="#EFEFEF" d="M23.309 17.325l1.16 1.35.674-.664 2.116 2.053-6.259.015 2.309-2.754zM27.915 15c.6 0 1.085.52 1.085 1.163 0 .642-.486 1.163-1.085 1.163s-1.084-.52-1.084-1.163c0-.642.485-1.163 1.084-1.163z"/>
    <path fill="#B9B9B9" d="M18 25v2H6v-2h12zm0-4v2H6v-2h12zm0-4v2H6v-2h12zm0-4v2H6v-2h12zm0-4v2H6V9h12z"/>
  </g>
</svg>
