<svg width="32" height="32" viewBox="0 0 32 32" xmlns="http://www.w3.org/2000/svg">
  <g fill="none" fill-rule="evenodd">
    <path fill="#fff" d="M0 0h32v32H0z"/>
    <path fill="#999" d="M0 0v32h32V0H0zm2 2h28v28H2V2z"/>
    <path fill="#fff" d="M2 2h28v28H2z"/>
    <path fill="#c2e5ec" d="M4 4h24v18H4z"/>
    <path fill="#ff8700" d="M8 24h9v4H8z"/>
    <path fill="#c76701" d="M4 24h4v4H4z"/>
    <path fill="#fff" d="M26 17v3H6v-3h20zm0-4v3H6v-3h20zM16 9v2H6V9h10zm5-3v2H6V6h15z"/>
    <path fill="#b9b9b9" d="M17 18v1H7v-1h10zm-2-4v1H7v-1h8z"/>
  </g>
</svg>
