<svg width="32" height="32" viewBox="0 0 32 32" xmlns="http://www.w3.org/2000/svg">
  <g fill="none" fill-rule="evenodd">
    <path fill="#fff" d="M0 0h32v32H0z"/>
    <path fill="#999" d="M0 0v32h32V0H0zm2 2h28v28H2V2z"/>
    <path fill="#4eb406" d="M2 2h28v28H2z"/>
    <path fill="#fff" d="M7 21a2 2 0 1 1 0 4 2 2 0 0 1 0-4zm12 0a2 2 0 1 1 0 4 2 2 0 0 1 0-4zm8 1v1h-5v-1h5zm-12 0v1h-5v-1h5zM7 12a2 2 0 1 1 0 4 2 2 0 0 1 0-4zm12 0a2 2 0 1 1 0 4 2 2 0 0 1 0-4zm8 1v1h-5v-1h5zm-12 0v1h-5v-1h5zm3-6v1H6V7h12zm5-2v1H6V5h17z"/>
  </g>
</svg>
