<svg width="32" height="32" viewBox="0 0 32 32" xmlns="http://www.w3.org/2000/svg">
  <g fill="none" fill-rule="evenodd">
    <path fill="#fff" d="M0 0h32v32H0z"/>
    <path fill="#999" d="M0 0v32h32V0H0zm2 2h28v28H2V2z"/>
    <path fill="#59f" d="M4 13h24v12H4z"/>
    <path stroke="#fff" fill="#fff" d="M19.5 16l.5.5h-.5l.001 4.297-.669-.24a.98.98 0 0 0-.332-.057c-.55 0-1 .455-1 1.019 0 .564.45 1.019 1 1.019s1-.455 1-1.02v-.004V16.5H19l.5-.5zm-4.75-.5H14l.5-.5v5.778l-.668-.24a.98.98 0 0 0-.332-.057c-.55 0-1 .455-1 1.019 0 .564.45 1.019 1 1.019s1-.455 1-1.019v-6h.25z"/>
    <path fill="#666" d="M4 8h24v3H4z"/>
  </g>
</svg>
