<svg width="32" height="32" viewBox="0 0 32 32" xmlns="http://www.w3.org/2000/svg">
  <g fill="none" fill-rule="evenodd">
    <path fill="#fff" d="M0 0h32v32H0z"/>
    <path fill="#025081" d="M0 0v32h32V0H0zm2 2h28v28H2V2z"/>
    <path fill="#6694c6" d="M2 2h28v28H2z"/>
    <path fill="#fff" d="M25.352 10.008c-.209 1.094-.73 2.129-1.563 3.105-.833.977-1.588 1.68-2.266 2.11-.677.43-1.106.644-1.289.644-.312 0-.507-.221-.586-.664a8.252 8.252 0 0 0 1.895-1.465c.534-.56.879-.996 1.035-1.308.156-.313.26-.573.313-.782.052-.338-.111-.8-.489-1.386-.377-.586-.527-1.061-.449-1.426.104-.469.43-.866.977-1.191a3.311 3.311 0 0 1 1.718-.489c.235 0 .47.04.704.117.26.547.26 1.459 0 2.735zM21 19v1h-7v-1h7zM19.453 7.078c.235 0 .469.04.703.117.26.547.26 1.459 0 2.735-.208 1.093-.729 2.129-1.562 3.105-.834.977-1.589 1.68-2.266 2.11-.677.43-1.107.644-1.289.644-.312 0-.508-.221-.586-.664a8.252 8.252 0 0 0 1.895-1.465c.534-.56.885-1.002 1.054-1.328.17-.325.28-.58.332-.762.052-.338-.117-.8-.507-1.386-.391-.586-.547-1.062-.47-1.426.105-.469.43-.866.977-1.192a3.311 3.311 0 0 1 1.72-.488z"/>
  </g>
</svg>
