<svg width="32" height="32" viewBox="0 0 32 32" xmlns="http://www.w3.org/2000/svg">
  <defs>
    <linearGradient x1="50%" y1="3.946%" x2="50%" y2="100%" id="gradient">
      <stop stop-color="#0e6199" offset="0%"/>
      <stop stop-color="#074369" offset="100%"/>
    </linearGradient>
  </defs>
  <g fill="none" fill-rule="evenodd">
    <path fill="#fff" d="M0 0h32v32H0z"/>
    <path fill="#025081" d="M0 0v32h32V0H0zm2 2h28v28H2V2z"/>
    <path fill="url(#gradient)" d="M2 2h28v28H2z"/>
    <path fill="#0f649d" stroke="#5997c0" d="M3.5 21.5v7h25v-7h-25z"/>
    <path fill="#fff" d="M23 17v1H9v-1h14zm-1-2v1H10v-1h12zm2-2v1H8v-1h16zm-1-7v3H9V6h14z"/>
    <g fill-rule="nonzero">
      <path fill="#1088fe" d="M22.267 23.875h-.017a.125.125 0 0 1-.106-.141 1.882 1.882 0 0 1 1.589-1.59.126.126 0 0 1 .035.25 1.625 1.625 0 0 0-1.375 1.375.125.125 0 0 1-.125.106z"/>
      <path fill="#7cc3fc" d="M28.839 28.125l-1.886-1.875a.125.125 0 0 0-.177 0l-.132.125-.484-.484a2.875 2.875 0 1 0-.265.265l.48.488-.125.132a.125.125 0 0 0 0 .177l1.875 1.886a.125.125 0 0 0 .176 0l.53-.53a.125.125 0 0 0 .008-.184zM24 26.625a2.625 2.625 0 1 1 0-5.25 2.625 2.625 0 0 1 0 5.25z"/>
    </g>
  </g>
</svg>
