<svg width="32" height="32" xmlns="http://www.w3.org/2000/svg">
  <g fill="none" fill-rule="evenodd">
    <path fill="#FFF" d="M0 0h32v32H0z"/>
    <path d="M0 0v32h32V0H0zm2 2h28v28H2V2z" fill="#999"/>
    <g fill-rule="nonzero">
      <path fill="#59F" d="M4 4v20.571L10.857 28l8.572-3.429L28 28V7.429L19.429 4l-8.572 3.429z"/>
      <path fill="#79A548" d="M4 4v13.6l6.857 3.4 8.572-3.4L28 21V7.4L19.429 4l-8.572 3.4z"/>
      <path fill="#EFEFEF" d="M28 18l-7.167-2.8-6.953-9 5.52-2.213L28 7.392z"/>
      <path fill="#CECECE" d="M28 17l-6.5-2.6-6.495-8.644 4.416-1.764L28 7.448z"/>
      <path d="M19.429 18.5L10.857 22v-3.5L19.43 15v3.5zM4 18.5l6.857 3.5v-3.5L4 15v3.5zm15.429 0L28 22v-3.5L19.429 15v3.5z" fill="#FFC857"/>
      <path fill="#FFC857" d="M25 20l-5.14-2.024-8.64-10.703 2.664-1.07z"/>
      <path fill="#000" opacity=".15" d="M19 24.571L11 28l-.132-20.59 8.561-3.418z"/>
      <path d="M19.429 5.886l6.857 2.743v16.8l-6.172-2.572-.685-.171-.686.171-7.886 3.257-5.143-2.571v-16.8l4.457 2.228.686.343.686-.343 7.886-3.085zm0-1.886l-8.572 3.429L4 4v20.571L10.857 28l8.572-3.429L28 28V7.429L19.429 4z" fill="#000" opacity=".3"/>
    </g>
  </g>
</svg>
