<svg width="32" height="32" viewBox="0 0 32 32" xmlns="http://www.w3.org/2000/svg">
  <g fill="none" fill-rule="evenodd">
    <path fill="#fff" d="M0 0h32v32H0z"/>
    <path fill="#999" d="M0 0v32h32V0H0zm2 2h28v28H2V2z"/>
    <path fill="#ffc857" d="M2 2h28v28H2z"/>
    <path fill="#e8a33d" d="M25.936 12.919a2.91 2.91 0 0 0-.124-.162c-1.498-1.992-4.075-2.796-5.037-3.147.4.652.612 1.456.6 2.19 0 .63-.166 1.21-.525 1.604-.003-.074-3.282-4.268-3.287-4.404-.215.473-.42.95-.613 1.433a1.607 1.607 0 0 0-.49-.06c-.043.005-1.043-1.362-1.043-1.362-.025 1.168-.046 2.925-.577 3.987-.072.02-2.65-3.313-2.603-3.392-5.152 1.5-6.04 4.723-6.2 5.97a4.572 4.572 0 0 0-.037.425c.09 1.487.646 2.603 1.32 3.433l7.726 10.61h14.968V17.976l-3.95-4.891c-.042-.061-.086-.114-.128-.166z"/>
    <path fill="#000" d="M26.903 15.569c-.406-4.136-4.805-5.478-6.13-5.962a4.2 4.2 0 0 1 .6 2.19c.003 1.134-.538 2.113-1.77 2.113-2.053 0-1.966-2.805-2.04-4.91-.216.473-.42.95-.614 1.433-.432-.136-.93 0-.93 0l-.604-1.424c-.04 1.826-.065 5.1-2.055 4.89-1.198-.13-1.755-1.007-1.757-2.083-.013-.7.205-1.487.633-2.213-5.15 1.5-6.04 4.723-6.2 5.97-.018.141-.03.283-.036.425.218 3.597 3.16 5.027 3.93 5.465-.34-.82-.488-1.477-.492-1.977-.056-1.83 1.79-1.627 3.178.145 2.206-4.19 3.87 2.517 3.87 2.517s1.69-6.807 3.858-2.518c2.415-2.49 3.19-1.474 3.186-.124.003.703-.18 1.452-.45 1.915 3.786-2.27 3.854-4.856 3.855-5.38a6.88 6.88 0 0 0-.028-.47l-.004-.002z"/>
  </g>
</svg>
