<svg width="32" height="32" viewBox="0 0 32 32" xmlns="http://www.w3.org/2000/svg">
  <g fill="none" fill-rule="evenodd">
    <path fill="#fff" d="M0 0h32v32H0z"/>
    <path fill="#999" d="M0 0v32h32V0H0zm2 2h28v28H2V2z" />
    <path fill="#96cf64" d="M14 9h14v19H14z"/>
    <path fill="#649ccb" d="M14.875 10.188h2.362l.7 12.468h-3.062z"/>
    <path stroke="#fff" stroke-linecap="square" d="M22.83 23.373l-.458 4.09-.056.496-.994-.112.056-.497.434-3.862.093-.01.204.018.004-.042.037-.004.68-.077zm-5.556-.315l1.004.09.16 4.24.018.5-1 .037-.018-.5-.164-4.367zm4.373.396l.167.015-.002.019-.159.018-.006-.052zm.279-.98l.273.026-.086.954-.208.024-.091-.01.112-.993zm-3.685-.332l3.46.313.19.017-.35.04.106.942-.036-.003-3.333-.302-.037-1.007zm9.543-.336l.113.994-.497.056-4.57.517.116-1.02 4.342-.49.496-.057zm-13.143.01l.498.045 2.097.19.038 1.007-2.225-.2-.498-.046.09-.996zm7.286.652l-.001.007-.035-.003.036-.004zm-3.948-7.312l-.038-1.004-.193-.01-.499-.03-.059.998.5.03.289.016zm5.849-.656l3.983.235.499.03-.06.998-.498-.03-4.035-.238.11-.995zm-1.111.936l1 .059-.771 6.858-.908.103-.111.012.79-7.032zm1.11-.936l-.998-.06.518-4.605.056-.497.993.112-.055.496-.513 4.554zm-1.11.936l-4.738-.28.262 6.986-1.005-.091-.454-12.142-.02-.5 1-.037.019.5.16 4.28 4.888.289-.112.995z"/>
    <path fill="#96cf64" d="M14 9v19h14V9H14zm.875 1.188h12.25v16.624h-12.25V10.188z"/>
    <path fill="#ed7b00" d="M23.333 17c1.289 0 2.334 1.073 2.334 2.396S23.333 25 23.074 25C22.814 25 21 20.719 21 19.396 21 18.073 22.045 17 23.333 17zm0 .8c-.859 0-1.555.716-1.555 1.6 0 .884.696 1.6 1.555 1.6.86 0 1.556-.716 1.556-1.6 0-.884-.697-1.6-1.556-1.6z"/>
    <path fill="#59f" d="M4 9h10v19H4z"/>
    <path fill="#efefef" d="M7.732 18.744l.87 1.013.505-.499 1.587 1.54L6 20.809l1.732-2.065zM11.187 17c.449 0 .813.39.813.872s-.364.873-.813.873c-.45 0-.814-.39-.814-.873 0-.481.364-.872.814-.872z"/>
    <path fill="#d8d8d8" d="M4 4h24v5H4z"/>
    <path fill="#8c8c8c" d="M5 7v1h8V7H5zm0-2v1h6V5H5z"/>
  </g>
</svg>
