<svg width="32" height="32" viewBox="0 0 32 32" xmlns="http://www.w3.org/2000/svg">
  <g fill="none" fill-rule="evenodd">
    <path fill="#fff" d="M0 0h32v32H0z"/>
    <path fill="#999" d="M0 0v32h32V0H0zm2 2h28v28H2V2z"/>
    <path fill="#c3c3c3" d="M20.5 4v7.39H4V4h16.5zM19 6.75H6v1.847h13V6.75z"/>
    <path fill="#c83c3c" d="M28 4v7.39h-7.5V4H28zm-2 2h-3.5l1.75 3.5L26 6z"/>
    <g>
      <path fill="#c3c3c3" d="M20.5 12.5v7.39H4V12.5h16.5zM19 15.25H6v1.847h13V15.25z"/>
      <path fill="#c83c3c" d="M28 12.5v7.39h-7.5V12.5H28zm-2 2h-3.5l1.75 3.5L26 14.5z"/>
    </g>
    <g>
      <path fill="#c3c3c3" d="M20.5 21v7.39H4V21h16.5zM19 23.75H6v1.847h13V23.75z"/>
      <path fill="#c83c3c" d="M28 21v7.39h-7.5V21H28zm-2 2h-3.5l1.75 3.5L26 23z"/>
    </g>
  </g>
</svg>
