<svg width="32" height="32" viewBox="0 0 32 32" xmlns="http://www.w3.org/2000/svg">
  <path fill="#fff" d="M0 0h32v32H0z"/>
  <path fill="#999" d="M0 0v32h32V0H0zm2 2h28v28H2V2z"/>
  <path fill="#b9b9b9" d="M9.5 22v1h-5v-1h5zm6 0v1h-5v-1h5zm6 0v1h-5v-1h5zm6 0v1h-5v-1h5zm-18-2v1h-5v-1h5zm6 0v1h-5v-1h5zm6 0v1h-5v-1h5zm6 0v1h-5v-1h5zm-18-2v1h-5v-1h5zm6 0v1h-5v-1h5zm6 0v1h-5v-1h5zm6 0v1h-5v-1h5z"/>
  <path fill="#666" d="M9.5 15v2h-5v-2h5zm6 0v2h-5v-2h5zm6 0v2h-5v-2h5zm6 0v2h-5v-2h5z"/>
  <path fill="#e8a33d" d="M4.5 9h5v5h-5z"/>
  <path fill="#c83c3c" d="M22.5 9h5v5h-5zM10.5 9h5v5h-5z"/>
  <path fill="#e8a33d" d="M16.5 9h5v5h-5z"/>
</svg>
