<svg width="32" height="32" viewBox="0 0 32 32" xmlns="http://www.w3.org/2000/svg">
  <g fill="none" fill-rule="evenodd">
    <path fill="#fff" d="M0 0h32v32H0z"/>
    <path fill="#999" d="M0 0v32h32V0H0zm2 2h28v28H2V2z"/>
    <path fill="#59f" d="M4 4h24v24H4z"/>
    <path fill="#fff" d="M6 9.79h10v2.477H6V9.79zm0-3.715h13.067v2.477H6V6.075zm3.715 19.251l4.931-7.026 2.51 3.634 1.268-1.358 4.358 4.682-13.067.068zm11.419-7.055c-.902 0-1.633-.79-1.633-1.763 0-.974.73-1.764 1.633-1.764.901 0 1.632.79 1.632 1.764s-.73 1.763-1.632 1.763z"/>
  </g>
</svg>
