<svg width="32" height="32" viewBox="0 0 32 32" xmlns="http://www.w3.org/2000/svg">
  <title>
    ceDummy
  </title>
  <g fill="none" fill-rule="evenodd">
    <path fill="#FFF" d="M0 0h32v32H0z"/>
    <path d="M0 0v32h32V0H0zm2 2h28v28H2V2z" fill="#59F"/>
    <path d="M28 20.8v4.8H13.6V28h-2.4v-4.8h14.4v-2.4H28zm-14.4-2.4v2.4h-2.4v-2.4h2.4zm4.8 0v2.4H16v-2.4h2.4z" fill="#B9B9B9"/>
    <path d="M14.8 5.8v10.8H4V5.8h10.8zm13.2 0v10.8H17.2V5.8H28z" fill="#79A548"/>
    <path d="M13.6 10.288v1.848H5.2v-1.848h8.4zm13.2 0v1.848h-8.4v-1.848h8.4z" fill="#FFF"/>
  </g>
</svg>
