<svg width="32" height="32" viewBox="0 0 32 32" xmlns="http://www.w3.org/2000/svg">
    <g fill="none" fill-rule="evenodd">
        <polygon fill="#fff" points="0 0 32 0 32 32 0 32"/>
        <path fill="#999" d="M0,0 L0,32 L32,32 L32,0 L0,0 L0,0 Z M2,2 L30,2 L30,30 L2,30 L2,2 L2,2 Z"/>
        <rect fill="#5599ff" x="4" y="12" width="24" height="13"/>
        <rect stroke="#fff" fill="#ff8700" x="3.5" y="7.5" width="20" height="9"/>
        <path fill="#fff" d="M14.4558952,19.6666667 L15.807373,21.3904446 L16.4896755,20.746645 L18.8293099,23 L11.8016711,23 L14.4558952,19.6666667 Z M18.7266933,18 C19.3296164,18 19.8183822,18.5241478 19.8183822,19.1707168 C19.8183822,19.8172858 19.3296164,20.3414335 18.7266933,20.3414335 C18.1237702,20.3414335 17.6350044,19.8172858 17.6350044,19.1707168 C17.6350044,18.5241478 18.1237702,18 18.7266933,18 Z M15,12 L15,14 L5,14 L5,12 L15,12 Z M18,9 L18,11 L5,11 L5,9 L18,9 Z"/>
    </g>
</svg>
