<svg width="32" height="32" viewBox="0 0 32 32" xmlns="http://www.w3.org/2000/svg">
    <g fill="none" fill-rule="evenodd">
        <polygon fill="#fff" points="0 0 32 0 32 32 0 32"/>
        <path fill="#999" d="M0,0 L0,32 L32,32 L32,0 L0,0 L0,0 Z M2,2 L30,2 L30,30 L2,30 L2,2 L2,2 Z"/>
        <path fill="#666" d="M25.4272546,23.7137792 L6.57132727,23.7137792 L6.57132727,9.57183376 L25.4272546,9.57183376 L25.4272546,23.7137792 Z M26.9985818,6.42917921 L5,6.42917921 L5,25.2851065 L26.9985818,25.2851065 L26.9985818,6.42917921 Z"/>
        <path fill="#ccc" d="M22.2846,18.9997974 L22.2846,20.5711247 L9.71398182,20.5711247 L9.71398182,18.9997974 L22.2846,18.9997974 Z M22.2846,15.8571429 L22.2846,17.4284701 L9.71398182,17.4284701 L9.71398182,15.8571429 L22.2846,15.8571429 Z M22.2846,12.7144883 L22.2846,14.2858156 L9.71398182,14.2858156 L9.71398182,12.7144883 L22.2846,12.7144883 Z"/>
    </g>
</svg>
