<svg width="32" height="32" viewBox="0 0 32 32" xmlns="http://www.w3.org/2000/svg">
  <g fill="none" fill-rule="evenodd">
    <path fill="#fff" d="M0 0h32v32H0z"/>
    <path fill="#474b51" d="M0 0v32h32V0H0zm2 2h28v28H2V2z"/>
    <path fill="#a6a6a6" d="M2 19h28v11H2z"/>
    <path fill="#fbb900" d="M2 2h28v28H2z"/>
    <path fill="#fff" d="M20 27v1H4v-1h16zm0-6v1H4v-1h16zm0-6v1H4v-1h16zm8-6v3h-6V9h6zm-1 1h-4v1h4v-1zm-7-1v1H4V9h16zm-5-5v3H4V4h11z"/>
    <path fill="#474b51" d="M15 25v1H4v-1h11zm-6-2v1H4v-1h5zm6-4v1H4v-1h11zm-6-2v1H4v-1h5zm6-4v1H4v-1h11zm-6-2v1H4v-1h5z"/>
  </g>
</svg>
