<svg width="32" height="32" viewBox="0 0 32 32" xmlns="http://www.w3.org/2000/svg">
  <g fill="none" fill-rule="evenodd">
    <path fill="#fff" d="M0 0h32v32H0z"/>
    <path fill="#fbb900" d="M0 0v32h32V0H0zm2 2h28v28H2V2z"/>
    <path fill="#474b51" d="M2 2h28v28H2z"/>
    <path fill="#fff" d="M28 26v1H17v-1h11zm-13 0v1H4v-1h11zm6-2v1h-4v-1h4zM8 24v1H4v-1h4zm20-11v1H17v-1h11zm-13 0v1H4v-1h11zm6-2v1h-4v-1h4zM8 11v1H4v-1h4z"/>
    <path fill="#fbb900" d="M28 17v6H17v-6h11zm-13 0v6H4v-6h11zM28 4v6H17V4h11zM15 4v6H4V4h11z"/>
    <path fill="#fff" d="M21.535 20.312l.77.808.42-.39 1.342 1.259L20 22l1.535-1.688zm-13 0l.77.808.42-.39 1.342 1.259L7 22l1.535-1.688zM24.287 19a.71.71 0 0 1 .713.706.71.71 0 0 1-.713.706.71.71 0 0 1-.714-.706c0-.39.32-.706.714-.706zm-13 0a.71.71 0 0 1 .713.706.71.71 0 0 1-.713.706.71.71 0 0 1-.714-.706c0-.39.32-.706.714-.706zM21.535 7.312l.77.808.42-.39 1.342 1.259L20 9l1.535-1.688zm-13 0l.77.808.42-.39 1.342 1.259L7 9l1.535-1.688zM24.287 6a.71.71 0 0 1 .713.706.71.71 0 0 1-.713.706.71.71 0 0 1-.714-.706c0-.39.32-.706.714-.706zm-13 0a.71.71 0 0 1 .713.706.71.71 0 0 1-.713.706.71.71 0 0 1-.714-.706c0-.39.32-.706.714-.706z"/>
  </g>
</svg>
