<svg width="32" height="32" viewBox="0 0 32 32" xmlns="http://www.w3.org/2000/svg">
    <g fill="none" fill-rule="evenodd">
        <polygon fill="#fff" points="0 0 32 0 32 32 0 32"/>
        <path fill="#999" d="M0,0 L0,32 L32,32 L32,0 L0,0 L0,0 Z M2,2 L30,2 L30,30 L2,30 L2,2 L2,2 Z"/>
        <path fill="#59f" d="M7.69000006,5 C9.72793082,5 11.3800001,6.6520693 11.3800001,8.69000006 C11.3800001,10.7279308 9.72793082,12.3800001 7.69000006,12.3800001 C5.6520693,12.3800001 4,10.7279308 4,8.69000006 C4,6.6520693 5.6520693,5 7.69000006,5 Z M16.0000005,5 C18.0379312,5 19.6900005,6.6520693 19.6900005,8.69000006 C19.6900005,10.7279308 18.0379312,12.3800001 16.0000005,12.3800001 C13.9620697,12.3800001 12.3100004,10.7279308 12.3100004,8.69000006 C12.3100004,6.6520693 13.9620697,5 16.0000005,5 Z M24.3100009,5 C26.3479317,5 28.000001,6.6520693 28.000001,8.69000006 C28.000001,10.7279308 26.3479317,12.3800001 24.3100009,12.3800001 C22.2720701,12.3800001 20.6200008,10.7279308 20.6200008,8.69000006 C20.6200008,6.6520693 22.2720701,5 24.3100009,5 Z"/>
        <path fill="#666" d="M11.3800001,15 L11.3800001,17 L4,17 L4,15 L11.3800001,15 Z M19.6946158,15 L19.6946158,17 L12.3100004,17 L12.3100004,15 L19.6946158,15 Z M28.0046162,15 L28.0046162,17 L20.6200008,17 L20.6200008,15 L28.0046162,15 Z"/>
        <path fill="#b9b9b9" d="M11.3846154,18 L11.3846154,20 L4,20 L4,18 L11.3846154,18 Z M19.6923077,18 L19.6923077,20 L12.3076923,20 L12.3076923,18 L19.6923077,18 Z M28,18 L28,20 L20.6153846,20 L20.6153846,18 L28,18 Z"/>
        <path fill="#ff8700" d="M11,23 L11,28 L7,25.5 L11,23 Z M21,23 L25,25.5 L21,28 L21,23 Z"/>
    </g>
</svg>
