<svg width="32" height="32" viewBox="0 0 32 32" xmlns="http://www.w3.org/2000/svg">
    <g fill="none" fill-rule="evenodd">
        <polygon fill="#fff" points="0 0 32 0 32 32 0 32"/>
        <path fill="#999" d="M0,0 L0,32 L32,32 L32,0 L0,0 L0,0 Z M2,2 L30,2 L30,30 L2,30 L2,2 L2,2 Z"/>
        <path fill="#59f" d="M7.69000006,7 C9.72793082,7 11.3800001,8.6520693 11.3800001,10.6900001 C11.3800001,12.7279308 9.72793082,14.3800001 7.69000006,14.3800001 C5.6520693,14.3800001 4,12.7279308 4,10.6900001 C4,8.6520693 5.6520693,7 7.69000006,7 Z M16.0000005,7 C18.0379312,7 19.6900005,8.6520693 19.6900005,10.6900001 C19.6900005,12.7279308 18.0379312,14.3800001 16.0000005,14.3800001 C13.9620697,14.3800001 12.3100004,12.7279308 12.3100004,10.6900001 C12.3100004,8.6520693 13.9620697,7 16.0000005,7 Z M24.3100009,7 C26.3479317,7 28.000001,8.6520693 28.000001,10.6900001 C28.000001,12.7279308 26.3479317,14.3800001 24.3100009,14.3800001 C22.2720701,14.3800001 20.6200008,12.7279308 20.6200008,10.6900001 C20.6200008,8.6520693 22.2720701,7 24.3100009,7 Z"/>
        <path fill="#666" d="M11.3800001,17 L11.3800001,19 L4,19 L4,17 L11.3800001,17 Z M19.6876924,17 L19.6876924,19 L12.3076923,19 L12.3076923,17 L19.6876924,17 Z M28.0046162,17 L28.0046162,19 L20.6200008,19 L20.6200008,17 L28.0046162,17 Z"/>
        <path fill="#b9b9b9" d="M11.3846154,23 L11.3846154,25 L4,25 L4,23 L11.3846154,23 Z M19.6923077,23 L19.6923077,25 L12.3076923,25 L12.3076923,23 L19.6923077,23 Z M28,23 L28,25 L20.6153846,25 L20.6153846,23 L28,23 Z M11.3846154,20 L11.3846154,22 L4,22 L4,20 L11.3846154,20 Z M19.6923077,20 L19.6923077,22 L12.3076923,22 L12.3076923,20 L19.6923077,20 Z M28,20 L28,22 L20.6153846,22 L20.6153846,20 L28,20 Z"/>
    </g>
</svg>
