<svg width="32" height="32" viewBox="0 0 32 32" xmlns="http://www.w3.org/2000/svg">
  <path fill="#fff" d="M0 0h32v32H0z"/>
  <path fill="#999" d="M0 0v32h32V0H0zm2 2h28v28H2V2z"/>
  <path fill="#b9b9b9" d="M11 24h11v2H11z"/>
  <path fill="#666" d="M11 20h11v3H11z"/>
  <path fill="#59f" d="M11 7h11v12H11z"/>
  <path fill="#efefef" d="M15.168 12.98l1.036 1.233.592-.58 1.872 1.884-5.616.011 2.116-2.548zM18.995 11c.55 0 .995.478.995 1.067 0 .59-.445 1.067-.995 1.067S18 12.656 18 12.067c0-.59.446-1.067.995-1.067z"/>
</svg>
