<svg width="32" height="32" viewBox="0 0 32 32" xmlns="http://www.w3.org/2000/svg">
  <path fill="#fff" d="M0 0h32v32H0z"/>
  <path fill="#999" d="M0 0v32h32V0H0zm2 2h28v28H2V2z"/>
  <path fill="#ff8700" d="M7.518 10.125v1.883c0 1.141-.187 2.045-.562 2.71A2.575 2.575 0 0 1 5.284 16v-.84c.264-.143.463-.402.595-.776.132-.374.198-.868.198-1.48v-.261H5v-2.518h2.518zm4.196 0v1.883c0 1.141-.187 2.045-.561 2.71A2.575 2.575 0 0 1 9.48 16v-.84c.265-.143.463-.402.595-.776.133-.374.199-.868.199-1.48v-.261H9.196v-2.518h2.518z"/>
  <path fill="#b9b9b9" d="M28 20v2H13v-2h15zm0-3v2H13v-2h15zm0-3v2H13v-2h15zm0-3v2H13v-2h15z"/>
</svg>
