<svg width="32" height="32" viewBox="0 0 32 32" xmlns="http://www.w3.org/2000/svg">
  <path fill="#fff" d="M0 0h32v32H0z"/>
  <path fill="#999" d="M0 0v32h32V0H0zm2 2h28v28H2V2z"/>
  <path fill="#ff8700" d="M14.143 10v3.846c0 2.332-.382 4.177-1.147 5.536-.764 1.36-1.903 2.232-3.417 2.618v-1.714c.54-.294.946-.823 1.216-1.587.27-.765.406-1.772.406-3.023v-.533H9V10h5.143zm8.571 0v3.846c0 2.332-.382 4.177-1.146 5.536-.765 1.36-1.904 2.232-3.417 2.618v-1.714c.54-.294.946-.823 1.216-1.587.27-.765.405-1.772.405-3.023v-.533h-2.2V10h5.142z"/>
</svg>
