<svg width="36" height="36" viewBox="0 0 36 36" xmlns="http://www.w3.org/2000/svg">
  <g fill="none" fill-rule="nonzero">
    <path fill="#FFF" d="M2 2h32v32H2z"/>
    <path fill="#999" d="M2 2v32h32V2H2zm2 2h28v28H4V4z"/>
    <path fill="#FF8700" d="M16.143 12v3.846c0 2.332-.382 4.177-1.147 5.536-.764 1.36-1.903 2.232-3.417 2.618v-1.714c.54-.294.946-.823 1.216-1.587.27-.765.406-1.772.406-3.023v-.533H11V12h5.143zm8.571 0v3.846c0 2.332-.382 4.177-1.146 5.536-.765 1.36-1.904 2.232-3.417 2.618v-1.714c.54-.294.946-.823 1.216-1.587.27-.765.405-1.772.405-3.023v-.533h-2.2V12h5.142z"/>
  </g>
</svg>
