<svg width="32" height="32" viewBox="0 0 32 32" xmlns="http://www.w3.org/2000/svg">
  <path fill="#fff" d="M0 0h32v32H0z"/>
  <path fill="#999" d="M0 0v32h32V0H0zm2 2h28v28H2V2z"/>
  <path fill="#ff8700" d="M13.68 10.022l.01 3.487L9 19.853l4.693-1.92v4.714h.556l.02-5.626-3.514 1.438 3.514-4.67v-3.77"/>
  <path fill="#b9b9b9" d="M15.325 11.58h6.325v1.055h-6.325V11.58zm0 4.218h6.325v1.054h-6.325v-1.054zm0 2.108h6.325v1.054h-6.325v-1.054zm0 2.108h6.325v1.054h-6.325v-1.054zm0-6.324h6.325v1.053h-6.325V13.69z"/>
  <path stroke="#b9b9b9" d="M25 21l3.125-5L25 11M7.125 11L4 16l3.125 5"/>
</svg>
