<svg width="36" height="36" viewBox="0 0 36 36" xmlns="http://www.w3.org/2000/svg">
  <g fill="none" fill-rule="nonzero">
    <path fill="#FFF" d="M2 2h32v32H2z"/>
    <path fill="#999" d="M2 2v32h32V2H2zm2 2h28v28H4V4z"/>
    <path fill="#B9B9B9" d="M17 27v2H6v-2h11zm13 0v2H19v-2h11zm-13-3v2H6v-2h11zm13 0v2H19v-2h11zm-13-3v2H6v-2h11zm13 0v2H19v-2h11z"/>
    <path fill="#59F" d="M6 7h24v12H6z"/>
    <path fill="#EFEFEF" d="M15.525 12.975l1.768 1.984 1.191-.96 3.072 3.025-9.521.015 3.49-4.064zm6.995-3.381c.907 0 1.642.762 1.642 1.703 0 .94-.735 1.703-1.642 1.703-.907 0-1.642-.762-1.642-1.703 0-.94.735-1.703 1.642-1.703z"/>
  </g>
</svg>
