<svg width="32" height="32" viewBox="0 0 32 32" xmlns="http://www.w3.org/2000/svg">
  <g fill="none" fill-rule="evenodd">
    <path fill="#fff" d="M0 0h32v32H0z"/>
    <path fill="#999" d="M0 0v32h32V0H0zm2 2h28v28H2V2z"/>
    <path stroke="#b9b9b9" d="M25 21l3.125-5L25 11M7.125 11L4 16l3.125 5"/>
    <path fill="#b9b9b9" d="M15 11H9v1.111h6V11zm-6 4.444v1.112h6v-1.112H9zm0 2.223v1.11h6v-1.11H9zm6 2.222H9V21h6v-1.111zm0-6.666H9v1.111h6v-1.111z"/>
    <path fill="#59f" d="M17 11h6v10h-6z"/>
    <path fill="#efefef" d="M18.985 15.704l.697.75.404-.37 1.27 1.141-3.756.008 1.385-1.53zm2.764-1.292c.36 0 .651.29.651.646a.648.648 0 0 1-.65.646c-.36 0-.652-.29-.652-.646 0-.357.292-.646.651-.646z"/>
  </g>
</svg>
