<svg width="36" height="36" viewBox="0 0 36 36" xmlns="http://www.w3.org/2000/svg">
  <g fill="none" fill-rule="nonzero">
    <path fill="#FFF" d="M2 2h32v32H2z"/>
    <path fill="#999" d="M2 2v32h32V2H2zm2 2h28v28H4V4z"/>
    <path fill="#B9B9B9" d="M30 21v2H19v-2h11zm0-4v2H19v-2h11zm-13 0v2H6v-2h11zm13-4v2H19v-2h11zm-13 0v2H6v-2h11zm13-4v2H19V9h11zM17 9v2H6V9h11z"/>
    <path fill="#FF8700" d="M30 25v3H19v-3h11zm-13-4v3H6v-3h11z"/>
    <path fill-opacity=".3" fill="#000" d="M22 25v3h-3v-3h3zM9 21v3H6v-3h3z"/>
  </g>
</svg>
