<svg width="32" height="32" viewBox="0 0 32 32" xmlns="http://www.w3.org/2000/svg">
  <path fill="#fff" d="M0 0h32v32H0z"/>
  <path fill="#999" d="M0 0v32h32V0H0zm2 2h28v28H2V2z"/>
  <path fill="#59f" d="M18 7h10v18H18z"/>
  <path fill="#efefef" d="M21.309 15.325l1.16 1.35.674-.664 2.116 2.053-6.259.015 2.309-2.754zM25.915 13c.6 0 1.085.52 1.085 1.163 0 .642-.486 1.163-1.085 1.163s-1.084-.52-1.084-1.163c0-.642.485-1.163 1.084-1.163z"/>
  <path fill="#b9b9b9" d="M16 23v2H4v-2h12zm0-4v2H4v-2h12zm0-4v2H4v-2h12zm0-4v2H4v-2h12zm0-4v2H4V7h12z"/>
</svg>
