<svg width="32" height="32" viewBox="0 0 32 32" xmlns="http://www.w3.org/2000/svg">
  <path fill="#fff" d="M0 0h32v32H0z"/>
  <path fill="#999" d="M0 0v32h32V0H0zm2 2h28v28H2V2z"/>
  <path fill="#b9b9b9" d="M4 25.4h24V27H4z"/>
  <path fill="#666" d="M4 19.4h24V23H4z"/>
  <path fill="#59f" d="M4 5h24v12H4z"/>
  <path fill="#efefef" d="M13.549 10.986l1.746 1.961.978-.963 3.12 3.029-9.37.019 3.526-4.046zm6.971-3.392c.907 0 1.642.762 1.642 1.703 0 .94-.735 1.703-1.642 1.703-.907 0-1.642-.762-1.642-1.703 0-.94.735-1.703 1.642-1.703z"/>
</svg>
