<svg width="32" height="32" viewBox="0 0 32 32" xmlns="http://www.w3.org/2000/svg">
  <g fill="none" fill-rule="evenodd">
    <path fill="#fff" d="M0 0h32v32H0z"/>
    <path fill="#999" d="M0 0v32h32V0H0zm2 2h28v28H2V2z"/>
    <path fill="#b9b9b9" d="M15 25v2H4v-2h11zm13 0v2H17v-2h11zm-13-3v2H4v-2h11zm13 0v2H17v-2h11zm-13-3v2H4v-2h11zm13 0v2H17v-2h11z"/>
    <path fill="#59f" d="M4 5h24v12H4z"/>
    <path fill="#efefef" d="M13.525 10.975l1.768 1.984 1.191-.96 3.072 3.025-9.521.015 3.49-4.064zm6.995-3.381c.907 0 1.642.762 1.642 1.703 0 .94-.735 1.703-1.642 1.703-.907 0-1.642-.762-1.642-1.703 0-.94.735-1.703 1.642-1.703z"/>
  </g>
</svg>
