<svg width="36" height="36" viewBox="0 0 36 36" xmlns="http://www.w3.org/2000/svg">
  <g fill="none" fill-rule="nonzero">
    <path fill="#FFF" d="M2 2h32v32H2z"/>
    <path fill="#999" d="M2 2v32h32V2H2zm2 2h28v28H4V4z"/>
    <path fill="#B9B9B9" d="M23 28v2H12v-2h11zm0-3v2H12v-2h11zm0-3v2H12v-2h11zm0-3v2H12v-2h11z"/>
    <path fill="#FF8700" d="M11 22v5l-5-2.5 5-2.5zm13 0l5 2.5-5 2.5v-5z"/>
    <path fill="#59F" d="M12 6h11v12H12z"/>
    <path fill="#EFEFEF" d="M16.168 11.98l1.036 1.233.592-.58 1.872 1.884-5.616.011 2.116-2.548zM19.995 10c.55 0 .995.478.995 1.067 0 .59-.445 1.067-.995 1.067S19 11.656 19 11.067c0-.59.446-1.067.995-1.067z"/>
  </g>
</svg>
