<svg width="32" height="32" viewBox="0 0 32 32" xmlns="http://www.w3.org/2000/svg">
  <path fill="#fff" d="M0 0h32v32H0z"/>
  <path fill="#999" d="M0 0v32h32V0H0zm2 2h28v28H2V2z"/>
  <path fill="#b9b9b9" d="M21 26v2H10v-2h11zm0-3v2H10v-2h11zm0-3v2H10v-2h11zm0-3v2H10v-2h11z"/>
  <path fill="#ff8700" d="M9 20v5l-5-2.5L9 20zm13 0l5 2.5-5 2.5v-5z"/>
  <path fill="#59f" d="M10 4h11v12H10z"/>
  <path fill="#efefef" d="M14.168 9.98l1.036 1.233.592-.58 1.872 1.884-5.616.011 2.116-2.548zM17.995 8c.55 0 .995.478.995 1.067 0 .59-.445 1.067-.995 1.067S17 9.656 17 9.067c0-.59.446-1.067.995-1.067z"/>
</svg>
