<svg width="32" height="32" viewBox="0 0 32 32" xmlns="http://www.w3.org/2000/svg">
  <path fill="#fff" d="M0 0h32v32H0z"/>
  <path fill="#999" d="M0 0v32h32V0H0zm2 2h28v28H2V2z"/>
  <path fill="#ffc857" d="M12.7,21.5C12.7,21.4,12.7,21.4,12.7,21.5c-0.1-0.3-0.3-0.9-0.3-2c0.7-0.7,1.1-1.6,1.1-2.3v-1.8 c0-1.3-1.1-2.4-2.4-2.4h-0.7C9.1,13,8,14.1,8,15.4v1.8c0,0.8,0.5,1.7,1.1,2.4c0,1.1-0.2,1.6-0.3,2c0,0,0,0,0,0 C9.7,22.5,11.7,22.6,12.7,21.5z"/>
  <path fill="#59f" d="M16,22.8c-1.4-0.4-2.3-0.9-3.3-1.3c0,0,0-0.1,0-0.1c0,0,0,0,0,0c-1,1.2-3,1.1-3.9,0c0,0,0,0,0,0c0,0,0,0,0,0.1 c-1,0.4-1.9,0.9-3.3,1.3c0,0-1.1,0.7-1.2,3.2h13C17.2,23.4,16,22.8,16,22.8z"/>
  <path fill="#999" d="M16.8,17.5L15.6,16l1.2-1.5v-1v-6h10v10H16.8z M27.8,6.5h-12v7.9L14.5,16l1.8,2.5h11.4V6.5z"/>
  <path fill="#b6b6b6" d="M25.5,14.5v1.4H18v-1.4H25.5z M25.5,11.7v1.4H18v-1.4H25.5z M25.5,9v1.4H18V9H25.5z"/>
</svg>
