<svg width="32" height="32" viewBox="0 0 32 32" xmlns="http://www.w3.org/2000/svg">
  <path fill="#999" d="M2 2v28h28V2z"/>
  <path fill="#FFF" d="M4 4h24v24H4z"/>
  <path fill="#EFEFEF" d="M26 20v6H6v-6h20zm0-7v6H6v-6h20zm0-7v6H6V6h20z"/>
  <path fill="#B9B9B9" d="M18 22v2H8v-2h10zm0-7v2H8v-2h10zm0-7v2H8V8h10z"/>
  <path fill="#FF8700" d="M22.45 21.5v1.05h1.05v.9h-1.05v1.05h-.9v-1.05H20.5v-.9h1.05V21.5h.9zm0-7v1.05h1.05v.9h-1.05v1.05h-.9v-1.05H20.5v-.9h1.05V14.5h.9zm0-7v1.05h1.05v.9h-1.05v1.05h-.9V9.45H20.5v-.9h1.05V7.5h.9z"/>
</svg>
