<svg width="36" height="36" viewBox="0 0 36 36" xmlns="http://www.w3.org/2000/svg">
  <g fill="none" fill-rule="nonzero">
    <path fill="#FFF" d="M2 2h32v32H2z"/>
    <path fill="#999" d="M2 2v32h32V2H2zm2 2h28v28H4V4z"/>
    <path fill="#8C8C8C" d="M27 8v21H12V8h15zM10.5 26v3H9v-3h1.5zm0-4.5v3H9v-3h1.5zm0-4.5v3H9v-3h1.5zm0-4.5v3H9v-3h1.5zm0-4.5v3H9V8h1.5z"/>
    <path fill="#FFF" d="M23.156 20.806c-.949-.271-1.612-.642-2.272-.896-.063-.207-.214-.574-.25-1.418.454-.457.779-1.103.779-1.623v-1.238c0-.9-.731-1.631-1.688-1.631h-.45c-.9 0-1.688.731-1.688 1.631v1.237c0 .525.329 1.177.789 1.635-.015.829-.171 1.194-.245 1.401-.666.254-1.331.629-2.287.902 0 0-.787.45-.844 2.194h9c-.056-1.8-.844-2.194-.844-2.194z"/>
  </g>
</svg>
