<svg width="32" height="32" viewBox="0 0 32 32" xmlns="http://www.w3.org/2000/svg">
  <path fill="#999" d="M2 2v28h28V2z"/>
  <path fill="#FFF" d="M4 4h24v24H4z"/>
  <path fill="#59F" d="M6 13h20v10H6z"/>
  <path fill="#666" d="M6 9h20v2H6z"/>
  <path fill="#FFF" d="M18.333 15h-4.166v3.417c-.167-.084-.25-.084-.417-.084-.667 0-1.25.584-1.25 1.25 0 .667.583 1.25 1.25 1.25S15 20.25 15 19.583v-3.75h3.333v2.584c-.166-.084-.25-.084-.416-.084-.667 0-1.25.584-1.25 1.25 0 .667.583 1.25 1.25 1.25.666 0 1.25-.583 1.25-1.25V15h-.834z"/>
</svg>
