<svg width="32" height="32" viewBox="0 0 32 32" xmlns="http://www.w3.org/2000/svg">
  <path fill="#999" d="M2 2v28h28V2z"/>
  <path fill="#FFF" d="M4 4h24v24H4z"/>
  <path fill="#8C8C8C" d="M24.5 6v20h-14V6h14zm-15 17v3h-2v-3h2zm0-4.25v3h-2v-3h2zm0-4.25v3h-2v-3h2zm0-4.25v3h-2v-3h2zM9.5 6v3h-2V6h2z"/>
  <path fill="#FFF" d="M20.75 18.05c-.844-.241-1.433-.57-2.02-.797-.056-.184-.19-.51-.222-1.26.404-.406.692-.98.692-1.443v-1.1c0-.8-.65-1.45-1.5-1.45h-.4c-.8 0-1.5.65-1.5 1.45v1.1c0 .466.292 1.046.7 1.453-.012.737-.151 1.061-.217 1.245-.592.226-1.183.56-2.033.802 0 0-.7.4-.75 1.95h8c-.05-1.6-.75-1.95-.75-1.95z"/>
</svg>
