<svg width="32" height="32" viewBox="0 0 32 32" xmlns="http://www.w3.org/2000/svg">
  <path fill="#999" d="M2 2v28h28V2z"/>
  <path fill="#FFF" d="M4 4h24v24H4z"/>
  <path fill="#59F" d="M9.58 11.67l3.11 1.022c.257.11 1.473.544 3.63.022 2.723-.66 8.62-1.803 8.68-1.815l-.22-1.082-.039.007-5.62-.774a8.258 8.258 0 00-2.23.057L9.378 10.53c-.978-.049-1.907.538-2.219 1.488-.18.55-.13 1.134.141 1.645.138.261.327.487.551.67a2.147 2.147 0 00-.744 1.04 2.102 2.102 0 00.14 1.646c.147.276.351.51.593.697-.333.256-.594.61-.733 1.033a2.1 2.1 0 00.14 1.644c.27.512.729.89 1.29 1.066l5.418 1.691a2.48 2.48 0 001.09.045l9.51-2.128-.127-.537a.565.565 0 00-.677-.415l-8.658 1.936a2.494 2.494 0 01-1.09-.044l-5.121-1.6a1.063 1.063 0 01-.63-.52 1.02 1.02 0 01-.068-.801c.18-.553.788-.856 1.354-.683.002-.005 3.134.972 4.417 1.372a2.48 2.48 0 001.09.044l9.51-2.127-.126-.538a.565.565 0 00-.678-.415l-8.658 1.937a2.507 2.507 0 01-1.089-.045l-5.122-1.6a1.063 1.063 0 01-.63-.52 1.02 1.02 0 01-.068-.8c.18-.554.788-.857 1.354-.684l4.47 1.393c.297.093.785.113 1.089.045l9.51-2.128-.126-.538a.566.566 0 00-.678-.415l-8.658 1.936a2.481 2.481 0 01-1.089-.044l-5.122-1.6a1.064 1.064 0 01-.63-.52 1.02 1.02 0 01-.069-.802 1.08 1.08 0 011.347-.683z"/>
</svg>
