<svg width="32" height="32" viewBox="0 0 32 32" xmlns="http://www.w3.org/2000/svg">
  <path fill="#999" d="M2 2v28h28V2z"/>
  <path fill="#FFF" d="M4 4h24v24H4z"/>
  <path fill="#B9B9B9" d="M10 24h11v2H10z"/>
  <path fill="#666" d="M10 20h11v3H10z"/>
  <path fill="#59F" d="M10 7h11v12H10z"/>
  <path fill="#EFEFEF" d="M14.168 12.98l1.036 1.233.592-.58 1.872 1.884-5.616.011 2.116-2.548zM17.995 11c.55 0 .995.478.995 1.067 0 .59-.445 1.067-.995 1.067S17 12.656 17 12.067c0-.59.446-1.067.995-1.067z"/>
</svg>
