<svg width="36" height="36" viewBox="0 0 36 36" xmlns="http://www.w3.org/2000/svg">
  <g fill="none" fill-rule="nonzero">
    <path fill="#FFF" d="M2 2h32v32H2z"/>
    <path fill="#999" d="M2 2v32h32V2H2zm2 2h28v28H4V4z"/>
    <path fill="#59F" d="M10.935 13.037l3.537 1.162c.291.125 1.674.619 4.127.025 3.097-.75 9.805-2.05 9.872-2.064l-.25-1.231-.044.009-6.392-.88c-.704-.097-1.838-.069-2.535.063l-8.547 1.62c-1.111-.057-2.169.61-2.523 1.692a2.385 2.385 0 00.16 1.87c.157.297.371.554.627.762a2.442 2.442 0 00-.847 1.184 2.39 2.39 0 00.16 1.87c.167.315.4.58.675.793a2.447 2.447 0 00-.835 1.175 2.39 2.39 0 00.16 1.87 2.481 2.481 0 001.467 1.212l6.161 1.924c.339.106.893.13 1.24.05l10.815-2.42-.143-.61a.643.643 0 00-.77-.472l-9.847 2.202c-.346.078-.9.054-1.239-.05l-5.825-1.82a1.21 1.21 0 01-.716-.59 1.16 1.16 0 01-.078-.913c.206-.628.897-.973 1.54-.776.002-.006 3.565 1.106 5.024 1.56.338.105.893.129 1.239.05l10.816-2.419-.144-.612a.643.643 0 00-.77-.471l-9.847 2.202c-.345.077-.9.054-1.238-.05l-5.826-1.82a1.21 1.21 0 01-.716-.59 1.16 1.16 0 01-.078-.913c.206-.629.897-.974 1.54-.776.001-.002 3.613 1.125 5.084 1.584.337.105.892.129 1.238.05l10.816-2.42-.144-.611a.643.643 0 00-.77-.472l-9.846 2.202c-.346.078-.9.055-1.24-.05l-5.825-1.82a1.21 1.21 0 01-.716-.591 1.16 1.16 0 01-.078-.912 1.229 1.229 0 011.531-.778z"/>
  </g>
</svg>
