<svg width="32" height="32" viewBox="0 0 32 32" xmlns="http://www.w3.org/2000/svg">
  <path fill="#999" d="M2 2v28h28V2z"/>
  <path fill="#FFF" d="M4 4h24v24H4z"/>
  <path fill="#FF8700" d="M8.572 9v1.923c0 1.165-.191 2.089-.574 2.768A2.63 2.63 0 016.29 15v-.858c.27-.146.473-.41.608-.792.135-.382.202-.887.202-1.512v-.266H6V9h2.572zm4.285 0v1.923c0 1.165-.191 2.089-.573 2.768A2.63 2.63 0 0110.575 15v-.858c.271-.146.473-.41.608-.792.136-.382.203-.887.203-1.512v-.266h-1.1V9h2.57z"/>
  <path fill="#B9B9B9" d="M26 21v2H15v-2h11zm0-4v2H15v-2h11zm0-4v2H15v-2h11zm0-4v2H15V9h11z"/>
</svg>
