<svg width="36" height="36" viewBox="0 0 36 36" xmlns="http://www.w3.org/2000/svg">
  <g fill="none" fill-rule="nonzero">
    <path fill="#FFF" d="M2 2h32v32H2z"/>
    <path fill="#999" d="M2 2v32h32V2H2zm2 2h28v28H4V4z"/>
    <path fill="#FF8700" d="M9.518 12.125v1.883c0 1.141-.187 2.045-.562 2.71A2.575 2.575 0 017.284 18v-.84c.264-.143.463-.402.595-.776.132-.374.198-.868.198-1.48v-.261H7v-2.518h2.518zm4.196 0v1.883c0 1.141-.187 2.045-.561 2.71A2.575 2.575 0 0111.48 18v-.84c.265-.143.463-.402.595-.776.133-.374.199-.868.199-1.48v-.261h-1.078v-2.518h2.518z"/>
    <path fill="#B9B9B9" d="M30 22v2H15v-2h15zm0-3v2H15v-2h15zm0-3v2H15v-2h15zm0-3v2H15v-2h15z"/>
  </g>
</svg>
