<svg width="32" height="32" viewBox="0 0 32 32" xmlns="http://www.w3.org/2000/svg">
  <path fill="#B9B9B9" d="M24.626 6.204l1.971 1.97-3.022 3.154-2.102-2.102 3.153-3.022zm-17.604 0l3.153 3.022-2.102 2.102L5.05 8.175l1.97-1.97zm9.853-2.102v3.022h-2.102V4.102h2.102z"/>
  <path fill="#8C8C8C" d="M13.196 2h5.124v2.102h-5.124z"/>
  <circle fill="#D6D9DB" cx="15.824" cy="18.028" r="11.824"/>
  <circle fill="#3F75C5" cx="15.824" cy="18.028" r="9.196"/>
  <circle fill="#ABD7FF" cx="15.824" cy="18.028" r="8.277"/>
  <path fill="#C83C3C" d="M17.27 17.371l4.072-4.072-.788-.789-4.073 4.073c-.263-.131-.394-.131-.657-.131-.788 0-1.576.657-1.576 1.576 0 .263 0 .526.13.657l-1.576 1.577.789.788 1.576-1.577c.263.132.394.132.657.132.788 0 1.577-.657 1.577-1.577 0-.263-.132-.525-.132-.657z"/>
  <path fill="#59F" d="M16.612 23.677v2.102H15.3v-2.102h1.313zm2.497-1.05l1.05 1.839-.92.394-1.05-1.708.92-.526zm-6.57 0l.92.525-1.05 1.708-.92-.394 1.05-1.84zm8.409-2.234l1.84 1.051-.526.788-1.84-.92.526-.919zm-10.248 0l.526.92-1.84.92-.525-.789 1.84-1.051zm12.875-2.89v1.313h-2.102v-1.313h2.102zm-13.532 0v1.313H7.941v-1.313h2.102zm-.656-3.81l1.839 1.05-.526.92-1.839-1.05.526-.92zm12.875 0l.525.92-1.84 1.05-.525-.92 1.84-1.05zm-9.854-2.628l1.051 1.708-.92.526-1.05-1.708.92-.526zm6.832 0l.92.526-1.051 1.708-.92-.526 1.05-1.708zm-2.628-.788v2.102H15.3v-2.102h1.313z"/>
</svg>
