<svg width="32" height="32" viewBox="0 0 32 32" xmlns="http://www.w3.org/2000/svg">
  <path fill="#999" d="M2 2v28h28V2z"/>
  <path fill="#FFF" d="M4 4h24v24H4z"/>
  <path fill="#B9B9B9" d="M26 24v2H6v-2h20zm0-4v2H6v-2h20zm0-4v2H6v-2h20z"/>
  <path fill="#FFC857" d="M10.8 11.3c-.1 0-.1 0 0 0-.1-.2-.3-.6-.3-1.3.4-.4.6-1 .6-1.4V7.4c0-.8-.6-1.4-1.3-1.4h-.4c-.7 0-1.3.6-1.3 1.4v1.1c0 .5.3 1 .6 1.5 0 .7-.1 1.1-.2 1.2 0 0-.1 0-.1.1.6.6 1.8.7 2.4 0z"/>
  <path fill="#59F" d="M12.4 12c-.7-.2-1.2-.5-1.7-.8-.6.7-1.8.6-2.3 0-.5.2-1 .5-1.7.8 0 0-.6.4-.7 2h7c.1-1.6-.6-2-.6-2z"/>
</svg>
