<svg width="36" height="36" viewBox="0 0 36 36" xmlns="http://www.w3.org/2000/svg">
  <g fill="none" fill-rule="nonzero">
    <path fill="#FFF" d="M2 2h32v32H2z"/>
    <path fill="#999" d="M2 2v32h32V2H2zm2 2h28v28H4V4z"/>
    <path fill="#B9B9B9" d="M10.96 15.46l2.5 3.536-2.5 3.535-2.5-3.535z"/>
    <path fill="#B9B9B9" d="M6.5 9.5h17v10h-17z"/>
    <path fill="#B9B9B9" d="M14.5 16.5h16v10h-16z"/>
    <path fill="#B9B9B9" d="M26 22.5l2.5 3.536L26 29.57l-2.5-3.535z"/>
    <path fill="#C76701" d="M10.464 14.964l2.5 3.536-2.5 3.536-2.5-3.536z"/>
    <path fill="#C76701" d="M6 9h17v10H6z"/>
    <path fill="#FF8700" d="M14 16h16v10H14z"/>
    <path fill="#FF8700" d="M25.5 22l2.5 3.536-2.5 3.535-2.5-3.535z"/>
  </g>
</svg>
