<svg width="36" height="36" viewBox="0 0 36 36" xmlns="http://www.w3.org/2000/svg">
  <g fill="none" fill-rule="nonzero">
    <path fill="#FFF" d="M2 2h32v32H2z"/>
    <path fill="#999" d="M2 2v32h32V2H2zm2 2h28v28H4V4z"/>
    <path fill="#59F" d="M6 9h10v18H6z"/>
    <path fill="#B9B9B9" d="M30 25v2H18v-2h12zm0-4v2H18v-2h12zm0-4v2H18v-2h12zm0-4v2H18v-2h12zm0-4v2H18V9h12z"/>
    <path fill="#EFEFEF" d="M12.312 19.75c1.487 0 2.688 1.119 2.688 2.5H7c0-1.381 1.205-2.5 2.688-2.5h2.624zm-1.312-5a2 2 0 110 4 2 2 0 010-4z"/>
  </g>
</svg>
