<svg width="36" height="36" xmlns="http://www.w3.org/2000/svg">
  <g fill="none" fill-rule="nonzero">
    <path d="M27.573 6.805l2.252 2.252-3.453 3.603-2.402-2.402 3.603-3.453zm-20.12 0l3.604 3.453-2.402 2.402L5.2 9.057l2.252-2.252zm11.261-2.403v3.454h-2.402V4.402h2.402z" fill="#B9B9B9"/>
    <path fill="#8C8C8C" d="M14.51 2h5.856v2.402H14.51z"/>
    <circle fill="#D6D9DB" cx="17.513" cy="20.318" r="13.513"/>
    <circle fill="#3F75C5" cx="17.513" cy="20.318" r="10.51"/>
    <circle fill="#ABD7FF" cx="17.513" cy="20.318" r="9.459"/>
    <path d="M19.165 19.567l4.654-4.654-.9-.901-4.655 4.654c-.3-.15-.45-.15-.75-.15-.902 0-1.803.75-1.803 1.802 0 .3 0 .6.15.75L14.06 22.87l.9.901 1.802-1.801c.3.15.45.15.751.15.901 0 1.802-.751 1.802-1.802 0-.3-.15-.6-.15-.75z" fill="#C83C3C"/>
    <path d="M18.414 26.774v2.403h-1.501v-2.403h1.501zm2.853-1.201l1.201 2.102-1.051.45-1.201-1.951 1.05-.601zm-7.507 0l1.05.6-1.2 1.953-1.052-.45 1.202-2.103zm9.609-2.552l2.102 1.2-.6.902-2.103-1.051.6-1.051zm-11.712 0l.601 1.05-2.102 1.052-.6-.901 2.101-1.201zm14.715-3.304v1.502H23.97v-1.502h2.402zm-15.465 0v1.502H8.504v-1.502h2.403zm-.751-4.354l2.102 1.201-.6 1.051-2.103-1.2.601-1.052zm14.714 0l.601 1.051-2.102 1.201-.6-1.05 2.101-1.202zM13.61 12.36l1.2 1.952-1.05.6-1.202-1.951 1.051-.6zm7.807 0l1.051.6-1.201 1.953-1.051-.601 1.201-1.952zm-3.003-.9v2.402h-1.501v-2.403h1.501z" fill="#59F"/>
  </g>
</svg>
