<svg width="32" height="32" viewBox="0 0 32 32" xmlns="http://www.w3.org/2000/svg">
  <path fill="#999" d="M2 2v28h28V2z"/>
  <path fill="#FFF" d="M4 4h24v24H4z"/>
  <path fill="#FF8700" d="M6 10h20v16H6zM8 6h4v4H8zM20 6h4v4h-4z"/>
  <path fill="#FFF" d="M8 10h4v2H8zM20 10h4v2h-4zM8 14h16v10H8z"/>
  <path fill="#515151" d="M19.307 16.092v.852H17.22l-.183 1.116c.155-.1.276-.168.363-.2.145-.055.322-.082.531-.082.423 0 .791.142 1.106.426.315.285.472.698.472 1.24 0 .472-.151.893-.454 1.264-.303.371-.756.557-1.36.557-.486 0-.885-.13-1.197-.391-.312-.26-.486-.63-.521-1.11h1c.04.219.116.387.229.506.113.118.277.178.493.178.249 0 .438-.088.569-.263.13-.175.195-.395.195-.66 0-.26-.061-.48-.183-.66-.122-.18-.312-.27-.57-.27a.982.982 0 00-.318.046.63.63 0 00-.355.314l-.902-.043.36-2.82h2.813zM13.72 16c.54 0 .97.15 1.288.449.32.3.48.695.48 1.189 0 .377-.113.713-.339 1.007-.148.195-.39.412-.729.651l-.401.285a8.117 8.117 0 00-.516.388c-.093.08-.17.172-.234.278h2.229v.884H12a2.4 2.4 0 01.236-1.004c.143-.34.481-.7 1.014-1.08.463-.332.762-.569.898-.712.21-.223.314-.467.314-.733a.811.811 0 00-.18-.538c-.12-.144-.291-.215-.514-.215-.305 0-.513.114-.623.341-.064.132-.101.34-.113.627h-.976c.017-.434.095-.785.236-1.053.268-.51.743-.764 1.427-.764z"/>
</svg>
