<svg width="36" height="36" viewBox="0 0 36 36" xmlns="http://www.w3.org/2000/svg">
  <g fill="none" fill-rule="nonzero">
    <path fill="#FFF" d="M2 2h32v32H2z"/>
    <path fill="#999" d="M2 2v32h32V2H2zm2 2h28v28H4V4z"/>
    <path fill="#FF8700" d="M14.013 7.5v4.01h8.012v-.001h.003V7.5h4.003v4.008h-4.003v.002h-.003v2.002h4.007v-2.003h-.001 2.004v16.028H8V11.51h2.005v-.001h.002V7.5h4.006zm12.02 8.015H10.004v10.017h16.027V15.515zm-12.02-4.006h-4.008v2.003h4.007v-2.003z"/>
    <path fill="#515151" d="M21.544 17.99v.853h-2.088l-.183 1.116c.155-.1.276-.168.363-.2.145-.055.323-.082.531-.082.423 0 .792.142 1.106.427.315.284.472.697.472 1.24 0 .471-.151.892-.454 1.263-.303.371-.756.557-1.36.557-.485 0-.885-.13-1.197-.391-.312-.26-.486-.63-.521-1.11h1c.04.219.116.387.229.506.113.118.277.178.493.178.249 0 .438-.088.569-.263.13-.175.195-.395.195-.66 0-.26-.06-.48-.183-.66-.122-.18-.312-.27-.57-.27a.982.982 0 00-.317.046.63.63 0 00-.356.314l-.902-.043.36-2.82h2.813zm-5.588-.091c.54 0 .97.15 1.289.449.319.3.479.696.479 1.189 0 .378-.113.713-.339 1.007-.147.195-.39.412-.729.651l-.401.285a8.117 8.117 0 00-.516.388c-.093.08-.17.172-.234.278h2.23v.884h-3.498a2.4 2.4 0 01.236-1.004c.143-.34.481-.7 1.014-1.08.463-.332.762-.569.898-.712.21-.223.314-.467.314-.733a.811.811 0 00-.18-.538c-.12-.144-.291-.215-.514-.215-.305 0-.513.114-.623.341-.064.132-.101.34-.113.627h-.975c.016-.434.095-.785.235-1.053.268-.51.744-.764 1.427-.764z"/>
  </g>
</svg>
