<svg width="32" height="32" viewBox="0 0 32 32" xmlns="http://www.w3.org/2000/svg">
  <path fill="#999" d="M2 2v28h28V2z"/>
  <path fill="#FFF" d="M4 4h24v24H4z"/>
  <path fill="#FFC857" d="M11.328 17.305c.844.875 2.8.782 3.763-.21.06-.059.003-.264-.057-.322-.06 0-.076-.188-.137-.188-.06-.291-.225-.7-.285-1.808.603-.584 1.024-1.46 1.024-2.101v-1.575c0-1.167-.964-2.101-2.29-2.101h-.602c-1.205 0-2.29.934-2.29 2.1v1.576c0 .7.422 1.517 1.085 2.1 0 1.05-.24 1.576-.301 1.81-.06 0-.067.187-.127.187-.154.207.157.474.217.532z"/>
  <path fill="#557A2B" d="M17.942 17.98c-1.209-.382-2.055-.826-2.902-1.207 0 .127 0 .19-.06.254-.967 1.08-2.962.952-3.809 0-.06-.064-.12-.19-.06-.254-.846.38-1.693.825-2.962 1.206 0 0-1.028 3.226-1.149 5.703h12.09c-.06-2.54-1.148-5.703-1.148-5.703z"/>
  <path fill="#FFC857" d="M18.237 19.032c.844.875 2.8.782 3.763-.21.06-.059.003-.264-.057-.322-.06 0-.076-.187-.137-.187-.06-.292-.225-.7-.285-1.81.603-.583 1.024-1.458 1.024-2.1v-1.575c0-1.167-.964-2.1-2.29-2.1h-.602c-1.205 0-2.29.933-2.29 2.1v1.575c0 .7.422 1.517 1.085 2.1 0 1.051-.24 1.576-.301 1.81-.06 0-.067.187-.127.187-.154.208.157.474.217.532z"/>
  <path fill="#79A548" d="M24.851 19.707c-1.209-.381-2.055-.826-2.901-1.207 0 .127 0 .19-.06.254-.968 1.08-2.963.953-3.81 0-.06-.063-.12-.19-.06-.254-.846.381-1.693.826-2.962 1.207 0 0-1.028 1.498-1.149 3.975H26c-.06-2.54-1.149-3.975-1.149-3.975z"/>
</svg>
