<svg width="36" height="36" viewBox="0 0 36 36" xmlns="http://www.w3.org/2000/svg">
  <g fill="none" fill-rule="nonzero">
    <path fill="#FFF" d="M2 2h32v32H2z"/>
    <path fill="#999" d="M2 2v32h32V2H2zm2 2h28v28H4V4z"/>
    <path fill="#EFEFEF" d="M12 19v11H4V19h8zm10 0v11h-8V19h8zm10 0v11h-8V19h8z"/>
    <path fill="#083F54" d="M5 21h6v1H5z"/>
    <path fill="#666" d="M11 23v1H5v-1h6zm10 0v1h-6v-1h6zm10 0v1h-6v-1h6zm-10-2v1h-6v-1h6zm-10 0v1H5v-1h6zm20 0v1h-6v-1h6zM29 6v3H7V6h22z"/>
    <path fill="#59F" d="M11 26v3H5v-3h6zm10 0v3h-6v-3h6zm10 0v3h-6v-3h6z"/>
    <path fill="#D8D8D8" d="M7.004 19.005v-5.988h10v-2.02h1.988v2.02h10.012l-.03 5.988H27.03v-4.004L18.992 15v4.005h-1.989V15H9.007v4.005z"/>
  </g>
</svg>
