<svg width="32" height="32" viewBox="0 0 32 32" xmlns="http://www.w3.org/2000/svg">
  <path fill="#999" d="M2 2v28h28V2z"/>
  <path fill="#FFF" d="M4 4h24v24H4z"/>
  <path fill="#C3C3C3" d="M24 17h-2v-3h-5v3h-2v-3h-5v3H8v-5h7V9h2v3h7v5z"/>
  <path fill="#EFEFEF" d="M12 18v8H6v-8h6zm7 0v8h-6v-8h6zm7 0v8h-6v-8h6z"/>
  <path fill="#59F" d="M11 23v2H7v-2h4zm7 0v2h-4v-2h4zm7 0v2h-4v-2h4z"/>
  <path fill="#666" d="M11 21v1H7v-1h4zm7 0v1h-4v-1h4zm7 0v1h-4v-1h4zm-14-2v1H7v-1h4zm7 0v1h-4v-1h4zm7 0v1h-4v-1h4zM24 6v2H8V6h16z"/>
</svg>
