<svg width="32" height="32" viewBox="0 0 32 32" xmlns="http://www.w3.org/2000/svg">
  <path fill="#999" d="M2 2v28h28V2z"/>
  <path fill="#FFF" d="M4 4h24v24H4z"/>
  <path fill="#59F" d="M23 20H13v3H8a2 2 0 01-2-2V9a2 2 0 012-2h16a2 2 0 012 2v12a2 2 0 01-2 2h-1v-3z"/>
  <path fill="#666" d="M14 21h8v4h-8z"/>
  <path fill="#FFF" d="M14.185 13l1.622 2.069.819-.773L19.433 17H11l3.185-4zm5.125-2c.724 0 1.31.629 1.31 1.405s-.586 1.405-1.31 1.405c-.723 0-1.31-.63-1.31-1.405 0-.776.587-1.405 1.31-1.405z"/>
</svg>
