<svg width="36" height="36" viewBox="0 0 36 36" xmlns="http://www.w3.org/2000/svg">
  <g fill="none" fill-rule="nonzero">
    <path fill="#FFF" d="M2 2h32v32H2z"/>
    <path fill="#999" d="M2 2v32h32V2H2zm2 2h28v28H4V4z"/>
    <path fill="#59F" d="M6 9h24v16H6z"/>
    <path fill="#FFF" d="M16.185 16l1.622 2.069.819-.773L21.433 20H13l3.185-4zm5.125-2c.724 0 1.31.629 1.31 1.405s-.586 1.405-1.31 1.405c-.723 0-1.31-.63-1.31-1.405 0-.776.587-1.405 1.31-1.405z"/>
    <path stroke="#FFF" fill="#666" d="M15.5 22.5h12v5h-12z"/>
  </g>
</svg>
