<svg width="32" height="32" viewBox="0 0 32 32" xmlns="http://www.w3.org/2000/svg">
  <path fill="#999" d="M2 2v28h28V2z"/>
  <path fill="#FFF" d="M4 4h24v24H4z"/>
  <path fill="#59F" d="M6 6h20v20H6z"/>
  <path fill="#FFF" d="M11 20v5l-4-2.5 4-2.5zm10 0l4 2.5-4 2.5v-5zM14.33 17.235l1.174 1.278.75-.608 2.039 1.973-6.293.003 2.33-2.646zM18.92 15c.597 0 1.08.502 1.08 1.12 0 .62-.483 1.12-1.08 1.12-.597 0-1.08-.5-1.08-1.12 0-.618.483-1.12 1.08-1.12zM16 8h8v5h-8z"/>
  <path fill="#8C8C8C" d="M17 11v1h6v-1h-6zm0-2v1h6V9h-6z"/>
</svg>
