<svg width="32" height="32" viewBox="0 0 32 32" xmlns="http://www.w3.org/2000/svg">
  <path fill="#999" d="M2 2v28h28V2z"/>
  <path fill="#FFF" d="M4 4h24v24H4z"/>
  <path fill="#FF8700" d="M8.518 13v1.883c0 1.141-.187 2.045-.562 2.71a2.575 2.575 0 01-1.672 1.282v-.84c.264-.143.463-.402.595-.776.132-.374.198-.868.198-1.48v-.261H6V13h2.518zm4.196 0v1.883c0 1.141-.187 2.045-.561 2.71a2.575 2.575 0 01-1.673 1.282v-.84c.265-.143.463-.402.595-.776.133-.374.199-.868.199-1.48v-.261h-1.078V13h2.518z"/>
  <path fill="#B9B9B9" d="M14 16.875h12v2H14z"/>
</svg>
