<svg width="32" height="32" viewBox="0 0 32 32" xmlns="http://www.w3.org/2000/svg">
  <path fill="#999" d="M2 2v28h28V2z"/>
  <path fill="#FFF" d="M4 4h24v24H4z"/>
  <path fill="#B9B9B9" d="M10 21v1H6v-1h4zm5 0v1h-4v-1h4zm6 0v1h-4v-1h4zm5 0v1h-4v-1h4zm-16-2v1H6v-1h4zm5 0v1h-4v-1h4zm6 0v1h-4v-1h4zm5 0v1h-4v-1h4zm-16-2v1H6v-1h4zm5 0v1h-4v-1h4zm6 0v1h-4v-1h4zm5 0v1h-4v-1h4z"/>
  <path fill="#59F" d="M10 10v4H6v-4h4zm5 0v4h-4v-4h4zm6 0v4h-4v-4h4zm5 0v4h-4v-4h4z"/>
  <path fill="#666" d="M10 15v1H6v-1h4zm5 0v1h-4v-1h4zm6 0v1h-4v-1h4zm5 0v1h-4v-1h4z"/>
</svg>
