<svg width="36" height="36" viewBox="0 0 36 36" xmlns="http://www.w3.org/2000/svg">
  <g fill="none" fill-rule="nonzero">
    <path fill="#FFF" d="M2 2h32v32H2z"/>
    <path fill="#999" d="M2 2v32h32V2H2zm2 2h28v28H4V4z"/>
    <path fill="#59F" d="M6 6h24v24H6z"/>
    <path fill="#FFF" d="M8 11.79h10v2.477H8V11.79zm0-3.715h13.067v2.477H8V8.075zm3.715 19.251l4.931-7.026 2.51 3.634 1.268-1.358 4.358 4.682-13.067.068zm11.419-7.055c-.902 0-1.633-.79-1.633-1.763 0-.974.73-1.764 1.633-1.764.901 0 1.632.79 1.632 1.764s-.73 1.763-1.632 1.763z"/>
  </g>
</svg>
