<svg width="36" height="36" viewBox="0 0 36 36" xmlns="http://www.w3.org/2000/svg">
  <g fill="none" fill-rule="nonzero">
    <path fill="#FFF" d="M2 2h32v32H2z"/>
    <path fill="#999" d="M2 2v32h32V2H2zm2 2h28v28H4V4z"/>
    <path fill="#B9B9B9" d="M11.5 24v1h-5v-1h5zm6 0v1h-5v-1h5zm6 0v1h-5v-1h5zm6 0v1h-5v-1h5zm-18-2v1h-5v-1h5zm6 0v1h-5v-1h5zm6 0v1h-5v-1h5zm6 0v1h-5v-1h5zm-18-2v1h-5v-1h5zm6 0v1h-5v-1h5zm6 0v1h-5v-1h5zm6 0v1h-5v-1h5z"/>
    <path fill="#666" d="M11.5 17v2h-5v-2h5zm6 0v2h-5v-2h5zm6 0v2h-5v-2h5zm6 0v2h-5v-2h5z"/>
    <path fill="#59F" d="M11.5 11v5h-5v-5h5zm18 0v5h-5v-5h5zm-12 0v5h-5v-5h5zm6 0v5h-5v-5h5z"/>
  </g>
</svg>
