<svg width="32" height="32" viewBox="0 0 32 32" xmlns="http://www.w3.org/2000/svg">
  <path fill="#59F" d="M2 4h28v24H2z"/>
  <path fill="#000" opacity=".2" d="M28 6v20H4V6h24zm2-2H2v24h28V4z"/>
  <path fill="#E9F2FF" d="M22 17.4L14 26h14v-2.8z"/>
  <path fill="#ACF" d="M4 19.6V26h18L10 13z"/>
  <path fill="#FFF" d="M22 14a2 2 0 100-4 2 2 0 000 4zM16 16h14v12H16z"/>
  <path fill="#666" d="M18 18h14v14H18z"/>
  <path fill="#FFF" d="M20 20h10v10H20z"/>
  <path fill="#212121" d="M27.625 24.25h-1.5V22h-2.25v2.25h-1.5L25 26.875zM22.375 28h5.25v-.75h-5.25z"/>
</svg>
