<svg width="32" height="32" viewBox="0 0 32 32" xmlns="http://www.w3.org/2000/svg">
  <path fill="#999" d="M2 2v28h28V2z"/>
  <path fill="#FFF" d="M4 4h24v24H4z"/>
  <path fill="#FF8700" d="M6 23h12v3H6z"/>
  <path fill-opacity=".3" fill="#000" d="M6 23h3v3H6z"/>
  <path fill="#59F" d="M6 6h20v15H6z"/>
  <path fill="#FFF" d="M13.978 12.846l1.437 1.652.821-.826 2.592 2.518-7.828.023 2.978-3.367zM19.78 10c.758 0 1.372.637 1.372 1.423 0 .785-.614 1.422-1.372 1.422-.757 0-1.371-.636-1.371-1.422 0-.786.614-1.423 1.371-1.423z"/>
</svg>
