<svg width="32" height="32" viewBox="0 0 32 32" xmlns="http://www.w3.org/2000/svg">
  <path fill="#999" d="M2 2v28h28V2z"/>
  <path fill="#FFF" d="M4 4h24v24H4z"/>
  <path fill="#FF8700" d="M20 18l2-2-2-2m-8 0l-2 2 2 2"/>
  <path fill="#979797" d="M26 10h-2v1h2v-1zm-3 0h-2v1h2v-1zm-4 0h-2v1h2v-1zm-3 0h-2v1h2v-1zm-3 0h-2v1h2v-1zm-4 0H7v1h2v-1zm-2 0H6v2h1v-2zm0 4H6v2h1v-2zm0 4H6v2h1v-2zm1 3H6v1h2v-1zm3 0H9v1h2v-1zm3 0h-2v1h2v-1zm4 0h-2v1h2v-1zm3 0h-2v1h2v-1zm3 0h-2v1h2v-1zm2-1h-1v2h1v-2zm0-4h-1v2h1v-2zm0-4h-1v2h1v-2z"/>
</svg>
