<svg width="36" height="36" viewBox="0 0 36 36" xmlns="http://www.w3.org/2000/svg">
  <g fill="none" fill-rule="nonzero">
    <path fill="#FFF" d="M2 2h32v32H2z"/>
    <path fill="#999" d="M2 2v32h32V2H2zm2 2h28v28H4V4z"/>
    <path fill="#666" d="M6 18h7.385v2H6v-2zm8.308 0h7.384v2h-7.384v-2zm8.307 0H30v2h-7.385v-2z"/>
    <path fill="#B9B9B9" d="M6 21h7.385v2H6v-2zm8.308 0h7.384v2h-7.384v-2zm8.307 0H30v2h-7.385v-2zM6 24h7.385v2H6v-2zm8.308 0h7.384v2h-7.384v-2zm8.307 0H30v2h-7.385v-2z"/>
    <path fill="#666" d="M6 11h12v2H6z"/>
  </g>
</svg>
