<svg width="36" height="36" viewBox="0 0 36 36" xmlns="http://www.w3.org/2000/svg">
  <g fill="none" fill-rule="nonzero">
    <path fill="#639" d="M22 6a7.989 7.989 0 015.655 2.34A8.01 8.01 0 0130 14c0 .36-.06.703-.105 1.051C32.333 16.423 34 19.004 34 22c0 4.421-3.58 8-8 8H9a6.99 6.99 0 01-4.948-2.048A7.009 7.009 0 012 23c0-3.177 2.131-5.83 5.03-6.684-.003-.108-.03-.206-.03-.315 0-1.859.739-3.64 2.052-4.953A6.99 6.99 0 0114 9c.55.005 1.096.076 1.63.211C17.088 7.271 19.386 6 22 6zm-3.5 8a5.493 5.493 0 00-3.887 1.61A5.508 5.508 0 0013 19.5a5.507 5.507 0 001.613 3.891A5.492 5.492 0 0018.5 25a5.492 5.492 0 003.887-1.61A5.5 5.5 0 0018.5 14zM17 17l4.5 2.5L17 22v-5z"/>
    <path stroke="#000" stroke-width="2" opacity=".2" d="M22.001 7a6.989 6.989 0 014.947 2.048A7.01 7.01 0 0129 14c0 .242-.035.475-.068.709-.027.195-.052.392-.099.588.166.113.33.23.493.352 1.105.822 2.062 1.738 2.72 2.851A6.852 6.852 0 0133 22a6.978 6.978 0 01-2.05 4.95A6.978 6.978 0 0126 29h0H9a5.99 5.99 0 01-4.24-1.755A6.008 6.008 0 013 23c0-1.339.442-2.57 1.188-3.56a6.059 6.059 0 013.895-2.338 7.697 7.697 0 01-.052-.8c-.026-1.871.595-3.414 1.728-4.547A5.984 5.984 0 0113.991 10a5.906 5.906 0 012.048.387c.12-.198.251-.39.39-.575C17.706 8.115 19.715 7 22.002 7z"/>
  </g>
</svg>
