<svg width="36" height="36" viewBox="0 0 36 36" xmlns="http://www.w3.org/2000/svg">
  <g fill="none" fill-rule="nonzero">
    <path fill="#FFF" d="M2 2h32v32H2z"/>
    <path fill="#999" d="M2 2v32h32V2H2zm2 2h28v28H4V4z"/>
    <path fill="#B9B9B9" d="M23.982 9.076c.11.005.544.286.513.333-.056.087.044.295-.18.263a.155.155 0 00-.145.057c-.107.042-.222.034-.333.048-.095-.108.063-.226-.015-.335-.01-.056-.079-.116.014-.164.11-.01.14-.078.128-.177a2.42 2.42 0 01.018-.025zm-12.507 1.31l-.403.096c-.114-.078-.096-.165-.018-.257.067-.048.139-.075.223-.056.101.04.32-.026.198.218zm.077-.372c.267-.14.362-.12.42.084.006.102-.085.084-.139.113-.074.059-.14.044-.202-.02v.001c-.05-.048-.136-.08-.079-.178zm2.405-2.374c.114-.015.245-.134.324.053.032.017.03.03-.004.04-.028.141-.108.194-.254.162-.198-.044-.036-.173-.066-.255zm-3.192 2.785c.014.007.023.004.03-.009.08-.038.14-.004.158.063.02.072.024.155-.05.214-.074.06-.139.03-.2-.02l-.132-.129c-.021-.159.12-.091.194-.119zm1.554-.324l-.066-.005c-.057.038-.127.056-.161-.012-.038-.075-.054-.168.059-.212.094-.006.16-.143.274-.058a.14.14 0 01.037.061c.03.125-.095.151-.143.226zm.93-1.186c-.123.061-.215-.027-.317-.04-.098-.013-.111-.103-.074-.18.047-.097.111-.046.167-.002.082.065.166.128.223.222zm1.344-.834c-.1-.018-.16-.067-.133-.18.056-.102.135-.15.252-.108.112.205.087.266-.119.288zm-1.85 1.688c.051.062.128.02.189.046.016.02.021.041.017.066-.02.095-.07.155-.174.154a.18.18 0 01-.107-.043c-.072-.18-.056-.228.075-.223zm.438.025c.14-.017.184.083.226.185a.127.127 0 01-.061.049c-.093.007-.193.033-.247-.081-.008-.07-.018-.141.082-.153zm.831-3.16c.019.1-.08.114-.124.168-.064-.023-.097 0-.103.067a.263.263 0 01-.022.121.097.097 0 01-.075.052c-.02.001-.044.027-.063.028a.314.314 0 00.038.18c.1-.005.086.096.127.145.006.045.016.076-.058.08-.103.003-.116-.06-.137-.13-.005-.034.005-.06.027-.077-.089-.071-.078-.146-.024-.224a.16.16 0 01-.006-.022c-.072-.355.05-.732.347-1.022.041.104.04.192-.022.279-.061.143-.026.26.095.354zm12.192 10.611c.244.454-.017.85-.14 1.263-.013.044-.035.087-.047.132-.062.229-.25.288-.442.141-.034-.026-.066-.038-.023-.082.028-.029.052-.095.027-.102-.183-.054-.225-.308-.447-.304-.061 0-.123-.018-.196.017.058.117.22.175.192.339-.01.061 0 .147-.075.152-.365.022-.634.23-.918.46-.303-.077-.47.103-.614.325-.367-.04-.536.293-.81.43-.042.006-.085.008-.102.057-.013.137-.097.206-.221.24-.111.005-.223-.13-.334 0-.154.107-.36.029-.512.141-.143 0-.111.1-.106.185-.12.096-.057.28-.178.375-.035.061-.093.083-.158.156.06.084.086.198.207.225.086.066.178.125.255.2.106.104.192.215.111.387-.156.335-.148.346.136.678-.078.034-.052.092-.033.148.025.146.206.16.247.308.084.303.237.4.553.398.162.072.236.224.3.367a.391.391 0 00.261.233c.208.05.296.185.344.368.04.152.123.197.29.22.19.026.37.149.546.244.142.076.053.228.088.341-.015.16.093.32-.001.48-.065.056-.136.105-.191.168-.067.078-.12.067-.2.016-.168-.106-.36-.02-.35.176.02.443-.274.584-.607.722-.19.08-.407.129-.532.321-.03.002-.044.02-.046.049-.08.084-.07.168.001.252.029.115.08.225.195.265.104.037.1.127.139.196.115.15-.044.236-.087.344-.04.098-.087.148.06.202.182.068.289.212.187.419-.035.07-.012.138-.03.205-.016.064.008.153-.083.175a.188.188 0 01-.19-.066c-.118-.134-.352-.182-.288-.451.026-.108-.228-.182-.374-.087-.145.096-.25.153-.392-.016-.08-.096-.276.05-.374-.107-.005-.009-.091.087-.07.147.03.08 0 .138-.064.135-.31-.015-.573.186-.879.18a.202.202 0 00-.1-.03c-.091-.02-.16.004-.182.184-.08.026-.184-.012-.24.083-.156.157-.287.363-.608.277-.396.257-.496-.045-.61-.322-.007-.018-.03-.047-.04-.045-.183.05-.357-.06-.527-.04-.121.015-.217.027-.294-.082-.074.114.016.154.035.215.071.219-.173.659-.399.725-.051.015-.1.047-.15-.007-.046-.049.002-.085.01-.127.024-.113.145-.285-.133-.207-.05.014-.078-.017-.085-.079-.029-.246-.182-.38-.414-.44-.04-.011-.08-.008-.091-.079-.02-.138-.09-.108-.129-.01-.046.116-.102.097-.195.056-.302-.134-.605-.263-.882-.446-.026-.1-.095-.159-.186-.195-.094-.038-.206-.195-.27-.093-.06.095.13.102.203.156.06.085.2.125.151.27a.756.756 0 01-.2-.12c-.081-.072-.184-.168-.213.05-.012.09-.084.088-.14.046-.18-.139-.178-.142-.312.035-.017-.029-.039-.051-.045-.078-.082-.318-.205-.392-.503-.298-.095.03-.148.094-.132.192.014.095.093.09.166.083.023-.002.049-.011.07-.005.074.023.204-.041.215.075.013.125-.106.135-.203.123-.073-.009-.112.033-.162.073-.15.118-.304.188-.466.015-.044-.047-.106-.048-.148-.004-.15.156-.34.081-.512.082-.071 0-.133-.035-.218-.001-.19.076-.167-.143-.256-.206-.082-.057-.205.117-.31-.09-.184-.357.011-.653.06-.974.005-.036.06-.084.05-.099-.18-.271.04-.472.117-.698.119-.35.254-.693.325-1.062a.953.953 0 01.523-.671c.172-.088.18-.302.314-.42.028-.025-.018-.073-.036-.073-.166.006-.268-.148-.47-.128-.259.025-.58.045-.768-.257-.039-.061-.11-.15-.23-.056-.075.058-.194.07-.293.045-.12-.03-.213-.143-.356.002-.07.07-.175-.02-.192-.152-.017-.137-.024-.126-.151-.066-.084.04-.216.047-.247-.047-.084-.262-.3-.452-.368-.723-.024-.1-.075-.203-.207-.231-.189-.04-.263-.196-.146-.344.096-.12.116-.267.205-.39.109-.15.1-.292-.115-.39-.27-.123-.418-.392-.48-.65-.042-.18.072-.405.2-.581.111-.153.286-.257.299-.486.007-.118-.012-.17-.108-.218-.15-.075-.266-.163-.077-.321.033-.028.055-.093.033-.099-.19-.05-.19-.282-.355-.353-.153-.067-.194-.234-.1-.376.162-.24.154-.3-.08-.496-.077-.064-.114-.122.007-.161.233-.075.334-.28.491-.447-.086-.053-.2.06-.229-.065-.021-.094.047-.161.111-.218.297-.265.3-.512.117-.876-.109-.217-.284-.404-.326-.663-.019-.116-.026-.134.094-.165.115-.029.276-.002.325-.181.023-.086.1-.02.128.01.223.248.452.085.673.006.058-.02.091-.068.16-.02.094.064.194.039.233-.062.035-.091.051-.233-.052-.277-.271-.116-.032-.243.015-.253.22-.041.316-.247.5-.333.148-.068.085-.633-.066-.687-.041-.014-.099.017-.15.026-.11.02-.2-.033-.28-.094-.102-.079-.093-.163.003-.25.018-.016 0-.074-.002-.112-.007-.182.076-.222.233-.153.265.118.344.076.385-.202.036-.252.036-.506.287-.685.132-.094.062-.29.026-.423-.05-.187.017-.347.046-.516.028-.165.118-.226.28-.091.008-.148-.093-.144-.163-.164-.06-.017-.127-.006-.185-.027-.11-.04-.292.048-.323-.065-.033-.124.045-.279.076-.42.008-.037.018-.088.065-.082.046.007.096.083.124-.012.015-.05-.051-.075-.064-.106-.056-.135.112-.15.149-.241a.321.321 0 01.166-.12c.145-.009.3.043.427-.075a.449.449 0 01.096-.042.541.541 0 01.28-.03c.071.019.14-.002.21-.012.128.001.262-.038.373.06.057.082.099.175.184.235.104.14.125.281.001.423a.143.143 0 00-.04.106c.006.075.035.151.115.156.1.006.095-.082.09-.153-.003-.055-.024-.107-.03-.162.021-.098-.057-.26.153-.235.128-.009.19.194.297.13.073-.043-.015-.195.028-.303.068-.172.068-.363.151-.536.1-.207.133-.226.297-.056.05.052.085.083.153.07a.706.706 0 00.402-.028c.19-.076.378-.026.535.113.03.02.052.049.072.082.002-.04-.024-.061-.052-.08-.11-.079-.23-.146-.332-.235-.206-.003-.421.013-.517-.234-.058-.068-.088-.148-.069-.235.02-.092.073-.048.117-.015.203-.1.03-.196-.023-.246-.163-.156-.156-.293.061-.424-.198-.077-.415.063-.594-.072-.092-.02-.15-.065-.124-.171a.15.15 0 01.08-.056c.05-.024.116.02.16-.035.023-.048.08-.031.114-.06.031-.002.046-.02.049-.049.099-.057.23.014.32-.081.169-.156.169-.19.002-.317-.035-.023-.067-.052-.11-.06-.117-.021-.197-.07-.213-.207-.016-.133-.118-.233-.18-.349-.045-.083-.101-.165-.003-.247.021-.058.008-.119.015-.178.008-.072.036-.115.115-.065.099.021.2.07.296.058.265-.03.485.026.675.226.098.103.222.074.34-.009.223-.155.51-.1.673.12.02.027.035.092.077.052.197-.19.212.056.23.12.062.216.171.448-.033.655.028.034-.18.07 0 .102.113-.01.229-.055.328.038.04.053.02.114.02.172.003.111.052 0 .074.015.065-.133.175-.108.278-.068.07.027.134.077.198.12.3.199.37.204.655-.011.11-.084.187.063.281.01.03-.05.046-.127-.015-.133-.209-.02-.128-.15-.074-.22.063-.08.136-.231.287-.1.047.04.096.082.15.108.082.038.129.094.115.181-.016.096-.105.084-.17.086-.18.004-.194.109-.21.261-.015.146.11.326-.077.443-.042.115-.17.138-.24.223-.097.097-.201.186-.081.341.03.039.027.115-.02.166-.008.033-.038.074.012.094.034.013.079.008.1-.03.027-.046 0-.104.026-.153l.244-.188c.025-.026.039-.077.092-.043l.057.04c.062.06.159.086.182.185.11.1.175-.087.3-.027.029.024.028.086.088.07.037-.06.02-.14.074-.19.02-.043.209-.076.006-.13-.07-.018-.057-.06-.012-.095.097-.074.19-.197.294-.207.238-.024.457-.152.701-.118.02.012.032.032.05.047.013-.032.026-.065.003-.099l.47-.51c.029-.104.098-.193.154-.273.108-.155.27-.056.41-.014.11-.032.227.015.34-.042.051-.026.095.029.088.096-.12.086-.255.027-.382.041.006.02-.12.03-.124.035-.154.044-.24.21-.398.252.012.037.008.077.025.114.164-.22.349-.393.656-.316.028.007.059-.016.088-.027.056-.03.122-.03.179-.057.058-.033.108-.082.18-.083.081.07.086.178.13.266-.012.174.04.302.226.353a.28.28 0 01.165.124c.064.091.23.108.191.277-.01.046.05.045.087.046.058 0 .05-.033.048-.076-.01-.192.2-.137.282-.239.044-.055.041.08.098.086.006.004-.009.075.06.251.043.108.148.294.217.41.038.095-.05.187-.004.281.03.034.078.051.103.091.167.131.328.275.565.161.05-.023.056.017.076.053.225.392.327.815.35 1.263.009.171-.137.31-.104.474.05.247-.06.394-.237.545-.244.208-.211.445.079.594.328.17.55.442.773.719l.003.28c-.175.263-.155.413.087.589.109.079.169.166.155.311-.01.098-.018.193.077.296.114.122.024.359-.044.429-.234.242-.068.434.042.607.088.14.126.272.092.414-.03.12 0 .158.108.172.23.029.402.113.363.394a.2.2 0 00.021.114zM13.883 7.198c.039-.044.117-.022.145-.085.137-.01.261-.001.28.176-.088.107-.205.104-.326.087l-.1-.178zm9.59 1.514c.2-.124.302-.056.423.279l.005-.003c-.098.208-.104.21-.316.078-.087-.104.016-.269-.115-.359l.003.005zm.076-.335c.01.045-.021.068-.067.07-.051.004-.084-.017-.118-.056-.045-.05.01-.15-.09-.167-.052.04-.098-.042-.15-.006-.056.085-.307.081-.124.28.015.015-.016.106-.093.098-.19-.12-.472-.149-.473-.463.19-.013.217-.048.147-.095-.124-.086-.033-.194-.068-.283.012-.042.015-.081-.036-.1.023-.058.08-.102.121-.059.14.147.155-.023.217-.074-.02-.055-.066-.06-.111-.052-.154.027-.196-.054-.19-.187.113-.108.225-.223.396-.097.043.076.015.162.033.241.034.063.091.022.137.03.087-.064.178-.143.28-.034.112.12.025.223-.056.31-.038.04-.129.045-.038.12.057.014.095.063.15.081.166.11.098.293.133.443z"/>
  </g>
</svg>
