<svg width="32" height="32" viewBox="0 0 32 32" xmlns="http://www.w3.org/2000/svg">
  <path fill="#639" d="M26.408 13.92c.04-.304.092-.605.092-.92a7.01 7.01 0 00-2.052-4.952A6.99 6.99 0 0019.5 6c-2.286 0-4.298 1.112-5.574 2.81a6.043 6.043 0 00-1.425-.185 6.115 6.115 0 00-4.33 1.792 6.132 6.132 0 00-1.796 4.334c0 .096.023.181.027.276C3.865 15.774 2 18.095 2 20.875c0 1.626.647 3.184 1.795 4.333A6.116 6.116 0 008.125 27H23c3.868 0 7-3.131 7-7 0-2.621-1.458-4.88-3.592-6.08z"/>
  <path fill="#FFF" d="M16.438 13a4.813 4.813 0 11-.002 9.626A4.813 4.813 0 0116.438 13z"/>
  <path fill="#639" d="M15.125 15.625V20l3.938-2.188z"/>
  <path stroke="#000" stroke-width="2" fill="#639" opacity=".2" d="M19.501 7a5.99 5.99 0 014.24 1.755A6.01 6.01 0 0125.5 13c0 .206-.032.404-.06.603-.026.195-.05.39-.105.585.168.114.334.232.5.355.953.709 1.779 1.498 2.346 2.458.52.879.818 1.902.818 2.999 0 1.658-.67 3.158-1.756 4.244A5.981 5.981 0 0123 26h0H8.124a5.116 5.116 0 01-3.622-1.5A5.132 5.132 0 013 20.876c0-1.143.378-2.194 1.015-3.04a5.176 5.176 0 013.447-2.015 6.53 6.53 0 01-.06-.807c-.022-1.6.506-2.92 1.476-3.89a5.11 5.11 0 013.613-1.498 5.043 5.043 0 011.846.369c.118-.202.248-.396.389-.584C15.819 7.956 17.54 7 19.5 7z"/>
</svg>
