<svg width="32" height="32" viewBox="0 0 32 32" xmlns="http://www.w3.org/2000/svg">
  <path fill="#999" d="M2 2v28h28V2z"/>
  <path fill="#FFF" d="M4 4h24v24H4z"/>
  <path fill="#96CF64" d="M16 12h10v14H16z"/>
  <path fill="#618640" d="M18.603 16.875l4.452.375-.99 6.543-3.252-.561z"/>
  <path fill="#649CCB" d="M16 12h2.456l.443 10.482L16 22.105z"/>
  <path stroke="#FFF" stroke-width="1.5" d="M18.228 11l.75 15.571M23.5 11.5l-1.752 15.903M15.659 22.828l6.636.702 4.352-1.168M18.37 16.875h8.42"/>
  <path fill="#ED7B00" d="M22.914 18.75c.967 0 1.75.805 1.75 1.797 0 .992-1.75 4.203-1.944 4.203-.195 0-1.555-3.21-1.555-4.203 0-.992.783-1.797 1.75-1.797zm0 .6c-.644 0-1.166.537-1.166 1.2 0 .663.522 1.2 1.166 1.2.645 0 1.167-.537 1.167-1.2 0-.663-.522-1.2-1.167-1.2z"/>
  <path fill="#59F" d="M6 12h9v14H6z"/>
  <path fill="#FFF" d="M9.232 20.744l.87 1.013.505-.499 1.587 1.54-4.694.011 1.732-2.065zM12.687 19c.449 0 .813.39.813.872s-.364.873-.813.873c-.45 0-.814-.39-.814-.873 0-.481.364-.872.814-.872z"/>
  <path fill="#D8D8D8" d="M6 6h20v5H6z"/>
  <path fill="#8C8C8C" d="M7 9v1h8V9H7zm0-2v1h6V7H7z"/>
</svg>
