<svg width="32" height="32" viewBox="0 0 32 32" xmlns="http://www.w3.org/2000/svg">
  <path fill="#FFF" d="M2 2h28v28H2z"/>
  <path fill="#96CF64" d="M3.75 3.75h24.5v24.5H3.75z"/>
  <path fill="#649CCB" d="M3.75 3.75h4.723l1.402 18.375H3.75z"/>
  <path fill="#618640" d="M9.438 10.302l11.394.662-1.96 11.805-8.997-.644z"/>
  <path stroke="#FFF" stroke-width="2" d="M22.125 2.875l-4.375 26.25M9.095 10.302l20.03 1.323M2.847 21.63l16.498.94 9.752-.733M9 2.875l.875 26.25"/>
  <path fill="#ED7B00" d="M21.25 7.25c2.9 0 5.25 2.346 5.25 5.241 0 2.893-5.25 12.259-5.834 12.259-.582 0-4.666-9.365-4.666-12.259a5.246 5.246 0 015.25-5.241zm0 1.75a3.5 3.5 0 100 7 3.5 3.5 0 000-7z"/>
  <path fill="#999" d="M30 2v28H2V2h28zm-2 2H4v24h24V4z"/>
</svg>
