<svg width="32" height="32" viewBox="0 0 32 32" xmlns="http://www.w3.org/2000/svg">
  <path fill="#999" d="M2 2v28h28V2z"/>
  <path fill="#FFF" d="M4 4h24v24H4z"/>
  <path fill="#B9B9B9" d="M21.485 8.564c.092.003.453.238.428.277-.047.072.037.245-.15.219a.129.129 0 00-.121.048c-.09.034-.185.028-.278.04-.079-.09.053-.189-.012-.28-.01-.046-.066-.097.011-.136.092-.008.117-.065.107-.148l.015-.02zM11.063 9.656l-.336.08c-.095-.066-.08-.139-.015-.215.055-.04.115-.063.185-.047.085.034.267-.022.166.182zm.064-.31c.222-.117.301-.101.349.069.005.085-.07.07-.115.094-.062.049-.117.037-.169-.017l.001.001c-.042-.04-.114-.067-.066-.148zm2.004-1.98c.095-.012.204-.111.27.045.026.014.025.025-.004.032-.023.119-.09.163-.21.136-.166-.036-.03-.144-.056-.212zm-2.66 2.322c.011.006.02.003.024-.008.067-.032.118-.004.133.052.016.06.02.13-.042.179-.062.05-.116.024-.167-.017l-.11-.107c-.017-.133.1-.076.162-.1zm1.295-.27l-.055-.005c-.048.032-.106.047-.135-.01-.03-.062-.044-.14.05-.176.078-.005.134-.12.229-.049a.116.116 0 01.03.051c.026.104-.08.126-.119.189zm.774-.988c-.101.05-.178-.023-.263-.034-.082-.011-.093-.086-.062-.15.04-.081.093-.039.139-.002.068.054.139.107.186.186zm1.12-.696c-.083-.015-.133-.056-.11-.15.047-.085.112-.125.21-.09.093.171.072.222-.1.24zM12.12 9.14c.043.052.107.017.157.04a.065.065 0 01.015.054c-.017.08-.059.129-.145.128a.15.15 0 01-.09-.035c-.06-.15-.046-.19.063-.187zm.365.022c.117-.014.153.07.189.154a.106.106 0 01-.052.04c-.077.006-.16.028-.205-.067-.007-.058-.016-.118.068-.127zm.693-2.634c.015.084-.067.095-.104.14-.053-.019-.08 0-.085.056a.22.22 0 01-.02.101.081.081 0 01-.061.043c-.017.001-.037.023-.053.024a.262.262 0 00.032.15c.083-.005.072.08.106.12.005.038.013.064-.049.066-.085.004-.097-.05-.114-.107-.004-.028.004-.05.023-.064-.074-.06-.065-.122-.02-.187a.134.134 0 01-.005-.018c-.06-.296.042-.61.289-.852.034.086.032.16-.018.232-.052.12-.022.217.079.296zm10.16 8.843c.203.378-.015.709-.117 1.052-.011.037-.03.073-.04.11-.051.191-.207.24-.367.118-.029-.022-.055-.032-.02-.069.024-.024.044-.079.023-.085-.153-.045-.188-.256-.372-.253-.052 0-.103-.015-.164.015.048.097.184.145.16.282-.009.05 0 .122-.062.126-.305.019-.529.192-.766.384-.252-.064-.39.086-.511.27-.306-.032-.447.245-.675.359-.035.005-.07.007-.085.048-.01.113-.081.171-.185.199-.092.005-.185-.109-.277 0-.129.09-.3.024-.427.118-.12 0-.093.083-.088.154-.1.08-.048.233-.15.313-.028.05-.077.069-.13.13.049.07.07.165.172.187.071.055.148.104.212.167.089.087.16.179.093.322-.13.28-.124.289.113.565-.065.029-.044.077-.027.123.02.123.171.134.206.258.07.252.197.333.46.331.135.06.197.187.25.306a.326.326 0 00.218.194c.173.041.246.154.286.306.034.128.103.165.242.184.158.021.308.124.456.203.117.064.044.19.072.285-.012.133.078.267 0 .4-.054.046-.114.087-.16.14-.056.065-.1.055-.166.013-.14-.088-.3-.018-.293.147.018.369-.227.486-.504.601-.159.066-.34.107-.444.268-.025.001-.036.016-.038.04-.067.07-.06.14 0 .21.024.097.067.188.163.222.086.03.083.105.115.163.097.124-.036.196-.072.286-.032.082-.072.124.05.169.152.056.24.176.156.348-.029.059-.01.116-.024.172-.014.053.006.127-.07.146a.156.156 0 01-.159-.055c-.098-.112-.293-.152-.24-.377.022-.09-.19-.151-.31-.072-.122.08-.21.128-.327-.013-.068-.08-.231.042-.313-.09-.004-.006-.076.073-.057.123.024.067 0 .115-.054.112-.258-.012-.478.155-.732.151a.168.168 0 00-.085-.026c-.075-.015-.132.004-.15.154-.068.022-.153-.01-.2.07-.13.13-.24.302-.507.23-.33.214-.413-.037-.508-.268-.006-.015-.026-.04-.034-.038-.152.041-.297-.05-.439-.033-.101.012-.181.022-.245-.068-.062.095.013.128.03.178.059.183-.145.55-.333.604-.043.013-.083.04-.125-.005-.039-.04.001-.071.008-.106.02-.094.121-.237-.11-.172-.043.012-.066-.015-.072-.066-.024-.205-.152-.317-.344-.367-.035-.01-.068-.007-.077-.066-.016-.115-.074-.09-.107-.008-.038.097-.085.08-.162.047-.252-.112-.505-.22-.735-.372-.022-.083-.08-.132-.156-.163-.078-.032-.171-.162-.224-.077-.05.08.107.085.169.13.05.07.166.104.125.225a.63.63 0 01-.166-.1c-.068-.06-.154-.14-.178.041-.01.076-.07.074-.116.039-.15-.116-.149-.118-.26.029-.014-.024-.033-.042-.038-.065-.068-.265-.17-.326-.419-.248-.079.025-.123.078-.11.16.012.08.078.074.138.069.02-.002.041-.01.058-.004.063.02.17-.034.18.063.01.104-.088.112-.17.102-.06-.007-.093.028-.134.06-.125.099-.254.158-.389.013-.037-.039-.088-.04-.123-.004-.126.13-.283.069-.426.07-.06 0-.111-.03-.182-.002-.158.063-.14-.119-.214-.17-.068-.049-.17.096-.259-.076-.152-.298.01-.545.05-.812.005-.03.051-.07.043-.082-.15-.226.033-.394.097-.582.1-.292.212-.577.27-.885a.794.794 0 01.437-.56c.143-.072.15-.25.262-.35.023-.02-.016-.06-.03-.06-.139.004-.224-.124-.392-.107-.216.021-.484.038-.64-.214-.032-.051-.092-.124-.191-.047-.063.049-.162.059-.245.038-.1-.025-.178-.119-.296.001-.059.06-.147-.016-.16-.126-.014-.114-.02-.105-.127-.055-.07.033-.18.04-.205-.04-.07-.218-.25-.376-.307-.602-.02-.083-.062-.169-.173-.193-.157-.033-.218-.163-.12-.286.078-.1.095-.223.17-.325.09-.125.083-.244-.096-.325-.225-.102-.349-.327-.4-.542-.035-.15.06-.337.167-.484.092-.127.238-.214.249-.405.005-.098-.01-.142-.09-.182-.125-.062-.222-.135-.064-.267.027-.023.045-.078.027-.083-.158-.04-.158-.234-.295-.294-.129-.056-.163-.195-.084-.313.135-.2.128-.25-.067-.413-.064-.054-.095-.102.006-.135.194-.062.278-.232.41-.372-.072-.044-.167.05-.191-.054-.019-.079.039-.135.092-.182.248-.22.25-.427.097-.73-.09-.18-.236-.336-.271-.552-.016-.097-.022-.112.078-.138.096-.024.23-.001.27-.15.02-.073.084-.017.107.008.187.206.378.07.562.005.048-.018.075-.057.132-.018.08.054.162.033.195-.05.029-.076.043-.195-.044-.231-.225-.097-.027-.203.013-.211.183-.035.263-.206.417-.278.123-.057.07-.527-.055-.572-.035-.012-.083.014-.125.021-.092.016-.167-.027-.234-.078-.085-.066-.077-.136.003-.208.015-.014 0-.062-.002-.094-.006-.151.064-.185.195-.127.22.098.286.063.32-.169.03-.21.03-.421.239-.57.11-.079.052-.242.022-.353-.042-.156.014-.289.038-.43.023-.137.098-.188.234-.076.006-.123-.078-.12-.137-.136-.049-.014-.105-.006-.153-.023-.092-.033-.244.04-.27-.054-.027-.103.038-.232.064-.35.006-.03.015-.073.054-.068.038.005.08.069.104-.01.012-.041-.043-.063-.054-.089-.046-.112.093-.125.124-.2a.268.268 0 01.139-.1c.12-.008.25.035.355-.063a.374.374 0 01.08-.035.451.451 0 01.233-.024c.06.014.118-.003.176-.01.106 0 .218-.032.31.05.048.068.083.145.154.195.086.117.104.234 0 .352a.12.12 0 00-.033.089c.006.062.03.126.096.13.084.004.08-.069.076-.128-.003-.045-.02-.089-.026-.135.018-.081-.047-.217.128-.196.106-.007.159.162.247.11.061-.037-.012-.164.023-.254.057-.143.057-.302.126-.446.083-.173.111-.19.248-.047.041.043.07.069.127.058a.588.588 0 00.335-.023c.158-.063.315-.022.446.094.025.017.044.04.06.068.002-.034-.02-.05-.043-.067-.092-.065-.191-.12-.277-.196-.172-.002-.35.012-.43-.195-.049-.056-.074-.122-.058-.195.017-.077.06-.04.097-.013.17-.082.025-.163-.019-.205-.136-.13-.13-.244.051-.353-.165-.064-.345.053-.495-.06-.076-.017-.126-.054-.104-.142a.124.124 0 01.068-.047c.042-.02.096.017.132-.029.02-.04.068-.026.096-.05.026-.001.038-.017.04-.04.083-.049.193.011.266-.069.142-.13.142-.158.003-.264-.03-.019-.056-.043-.092-.049-.098-.018-.164-.058-.177-.173-.013-.111-.098-.195-.15-.29-.038-.07-.085-.139-.003-.207.018-.048.007-.099.012-.148.007-.06.03-.096.097-.054.082.017.167.057.246.048.221-.025.404.022.563.188.082.086.185.062.283-.007a.4.4 0 01.56.1c.018.022.03.077.065.043.164-.158.177.047.192.1.051.18.142.373-.028.546.023.028-.15.058 0 .085.094-.009.19-.046.274.032.033.044.016.095.017.143.002.092.042 0 .06.013.055-.112.146-.09.232-.057.06.023.112.064.166.1.25.165.308.17.545-.01.092-.069.156.053.235.009.024-.042.037-.106-.013-.11-.174-.017-.106-.126-.061-.184.052-.067.112-.193.239-.083.039.033.08.068.125.09.067.031.107.078.095.15-.013.08-.087.07-.14.072-.152.003-.163.09-.176.218-.013.122.09.271-.064.368-.036.097-.142.116-.201.186-.08.081-.167.156-.067.285.024.032.023.096-.017.138-.006.028-.031.062.01.078.03.012.066.007.084-.024.022-.04 0-.088.021-.128l.203-.157c.022-.021.033-.064.077-.035l.047.032c.052.05.133.072.152.155.092.082.146-.073.25-.023.025.02.024.072.074.059.031-.05.017-.116.062-.16.016-.034.174-.062.004-.107-.058-.015-.047-.05-.01-.08.081-.06.159-.163.246-.172.198-.02.38-.126.584-.098.016.01.027.027.041.04.012-.028.022-.055.003-.083l.392-.426c.024-.086.08-.16.128-.227.09-.13.224-.046.34-.012.093-.026.19.013.284-.034.043-.022.08.024.074.08-.1.071-.212.022-.318.034.005.016-.1.025-.104.029-.128.037-.2.175-.33.21.01.03.006.064.02.095.136-.183.29-.328.546-.264.023.006.05-.013.074-.022.047-.024.1-.026.149-.048.048-.027.09-.068.15-.069.067.06.071.149.109.222-.011.145.033.252.187.294.056.016.106.051.138.104.053.076.191.09.16.23-.01.038.04.038.072.039.048 0 .041-.028.04-.063-.008-.16.166-.115.234-.2.037-.046.035.067.082.072.006.003-.007.063.05.21.036.089.124.244.181.341.031.079-.04.156-.003.234.026.028.065.042.086.076.138.109.273.229.47.134.042-.02.047.014.064.044a2.3 2.3 0 01.291 1.052c.008.143-.114.259-.086.395.042.206-.05.329-.197.455-.204.173-.176.37.065.495.274.14.458.368.644.599l.003.233c-.146.219-.13.345.072.491.09.066.14.138.13.26-.008.08-.016.16.064.245.095.103.02.3-.037.358-.195.202-.057.362.035.506.074.117.105.227.076.345-.024.1.001.132.091.143.192.025.335.095.303.329a.167.167 0 00.017.095zM13.069 6.999c.032-.038.098-.019.121-.071.114-.01.218-.002.233.146-.073.09-.17.087-.271.072L13.069 7zm7.992 1.26c.166-.102.251-.046.352.233l.004-.002c-.081.173-.086.174-.263.065-.073-.087.014-.224-.095-.3l.002.005zm.063-.278c.01.037-.017.057-.056.059-.042.003-.07-.015-.098-.047-.037-.042.008-.126-.075-.14-.043.034-.082-.035-.125-.005-.046.07-.255.068-.103.233.012.013-.014.089-.078.083-.159-.101-.393-.125-.394-.387.159-.01.18-.04.122-.079-.103-.071-.027-.161-.057-.236.01-.035.014-.067-.03-.083.02-.049.067-.085.102-.049.116.122.129-.019.18-.062-.016-.045-.055-.05-.092-.043-.128.023-.164-.045-.159-.156.095-.09.188-.186.33-.08.037.063.013.134.028.2.029.052.076.018.114.025.073-.053.148-.12.233-.028.094.1.021.185-.046.258-.031.033-.107.038-.031.1.047.012.079.053.124.068.139.092.082.244.111.369z"/>
</svg>
