<svg width="36" height="36" viewBox="0 0 36 36" xmlns="http://www.w3.org/2000/svg">
  <g fill="none" fill-rule="nonzero">
    <path fill="#FFF" d="M2 2h32v32H2z"/>
    <path fill="#999" d="M2 2v32h32V2H2zm2 2h28v28H4V4z"/>
    <path fill="#8C8C8C" d="M26.2 12.6V10H7v14.4S7 27 9.7 27h17.2s2.1 0 2.1-2.6V12.6h-2.8zM9.7 25.7c-1.4 0-1.4-1.3-1.4-1.3V11.3h16.5v13.1c0 .6.2 1 .5 1.3H9.7z"/>
    <path fill="#B9B9B9" d="M21.7 21.7V23h-4.6v-1.3h4.6zm1.3-2.6v1.3h-5.8v-1.3H23zm0-2.5v1.3h-5.8v-1.3H23z"/>
    <path fill="#515151" d="M10 15.3h13V14H10z"/>
    <path fill="#59F" d="M10 23h5.8v-6.4H10z"/>
  </g>
</svg>
