<svg width="32" height="32" viewBox="0 0 32 32" xmlns="http://www.w3.org/2000/svg">
  <path fill="#8C8C8C" d="M26.436 8.31V5H2v18.327s0 3.31 3.436 3.31h21.891s2.673 0 2.673-3.31V8.31h-3.564z"/>
  <path fill="#FFF" d="M5.436 24.982c-1.781 0-1.781-1.655-1.781-1.655V6.655h21v16.672c0 .764.254 1.273.636 1.655H5.436z"/>
  <path fill="#B9B9B9" d="M20.71 19.89v1.655h-5.855v-1.654h5.854zm1.654-3.308v1.654h-7.382v-1.654h7.382zm0-3.182v1.655h-7.382V13.4h7.382z"/>
  <path fill="#515151" d="M5.818 11.745h16.546v-1.654H5.818z"/>
  <path fill="#59F" d="M5.818 21.545H13.2V13.4H5.818z"/>
</svg>
