<svg width="36" height="36" viewBox="0 0 36 36" xmlns="http://www.w3.org/2000/svg">
  <g fill="none" fill-rule="nonzero">
    <path fill="#FFF" d="M2 2h32v32H2z"/>
    <path fill="#999" d="M2 2v32h32V2H2zm2 2h28v28H4V4z"/>
    <path fill="#FF8700" d="M6 16h1v5H6v-5zm23 0h1v5h-1v-5zM8 14h1v9H8v-9zm2-1h1v9h-1v-9zm2 2h1v9h-1v-9zm2-4h1v15h-1V11zm3 0h1v14h-1V11zm2-1h1v16h-1V10zm2 1h1v13h-1V11zm2 0h1v14h-1V11zm2 1h1v12h-1V12zm2 2h1v8h-1v-8z"/>
    <path fill="#B9B9B9" d="M18 24a6 6 0 100-12 6 6 0 000 12z"/>
    <path fill="#FFF" d="M20 18l-3 2v-4z"/>
  </g>
</svg>
