<svg width="32" height="32" viewBox="0 0 32 32" xmlns="http://www.w3.org/2000/svg">
  <path fill="#999" d="M2 2v28h28V2z"/>
  <path fill="#FFF" d="M4 4h24v24H4z"/>
  <path fill="#FF8700" d="M6 13.714h.952v4.762H6v-4.762zm19.048 0H26v4.762h-.952v-4.762zM7.905 11.81h.952v8.571h-.952V11.81zm1.905-.953h.952v8.572H9.81v-8.572zm1.904-1.905h.953v14.286h-.953V8.952zm1.905 0h.952v13.334h-.952V8.952zM15.524 8h.952v15.238h-.952V8zm1.905.952h.952v12.381h-.952V8.953zm1.904 0h.953v13.334h-.953V8.952zm1.905.953h.952v11.428h-.952V9.905zm1.905 1.905h.952v7.619h-.952v-7.62z"/>
  <path fill="#B9B9B9" d="M16 21a5 5 0 100-10 5 5 0 000 10z"/>
  <path fill="#FFF" d="M18 16l-3 2v-4z"/>
</svg>
