<svg width="36" height="36" viewBox="0 0 36 36" xmlns="http://www.w3.org/2000/svg">
  <g fill="none" fill-rule="nonzero">
    <path fill="#FFF" d="M2 2h32v32H2z"/>
    <path fill="#999" d="M2 2v32h32V2H2zm2 2h28v28H4V4z"/>
    <path fill="#E8E8E8" d="M4 10h28v17H4z"/>
    <path fill="#EF8A1E" d="M6.332 22v-.982c.31-.168.542-.471.697-.91.154-.437.232-1.015.232-1.731v-.306H6v-2.946h2.946v2.203c0 1.336-.219 2.394-.657 3.172A3.014 3.014 0 016.332 22zm7.525-6.875v2.203c0 1.336-.219 2.394-.657 3.172a3.014 3.014 0 01-1.957 1.5v-.982c.31-.168.541-.471.696-.91.155-.437.233-1.015.233-1.731v-.306H10.91v-2.946h2.946z"/>
    <path fill="#B9B9B9" d="M30 19v2H17.708v-2H30zm0-3v2H17.708v-2H30z"/>
  </g>
</svg>
