<svg width="32" height="32" viewBox="0 0 32 32" xmlns="http://www.w3.org/2000/svg">
  <path fill="#999" d="M2 2v28h28V2z"/>
  <path fill="#FFF" d="M4 4h24v24H4z"/>
  <path fill="#E8E8E8" d="M4 8h24v17H4z"/>
  <path fill="#EF8A1E" d="M6.332 19.875v-.982c.31-.168.542-.471.697-.91.154-.437.232-1.015.232-1.731v-.306H6V13h2.946v2.203c0 1.336-.219 2.394-.657 3.172a3.014 3.014 0 01-1.957 1.5zM13.857 13v2.203c0 1.336-.219 2.394-.657 3.172a3.014 3.014 0 01-1.957 1.5v-.982c.31-.168.541-.471.696-.91.155-.437.233-1.015.233-1.731v-.306H10.91V13h2.946z"/>
  <path fill="#B9B9B9" d="M26 17v2H16v-2h10zm0-4v2H16v-2h10z"/>
</svg>
