<svg width="32" height="32" viewBox="0 0 32 32" xmlns="http://www.w3.org/2000/svg">
  <path fill="#999" d="M2 2v28h28V2z"/>
  <path fill="#FFF" d="M4 4h24v24H4z"/>
  <path fill="#8C8C8C" d="M13.444 22.045a1.977 1.977 0 110 3.955 1.977 1.977 0 010-3.955zm7.984 0a1.977 1.977 0 110 3.955 1.977 1.977 0 010-3.955zm-9.96-9.998l1.5 7.445h8.966l1.475-7.445 1.488 1.51-.132.662-1.356 6.768H11.468l-1.554-7.545H7v-1.395h4.468zM20.108 6a3.235 3.235 0 11-1.476 6.114l-3.978 3.977a.941.941 0 01-1.33-1.33l3.955-3.956A3.235 3.235 0 0120.107 6zm0 1.438a1.797 1.797 0 100 3.594 1.797 1.797 0 000-3.594z"/>
</svg>
