<svg width="36" height="36" viewBox="0 0 36 36" xmlns="http://www.w3.org/2000/svg">
  <g fill="none" fill-rule="nonzero">
    <path fill="#FFF" d="M2 2h32v32H2z"/>
    <path fill="#999" d="M2 2v32h32V2H2zm2 2h28v28H4V4z"/>
    <path fill="#C83C3C" d="M17.599 7a3.41 3.41 0 00-3.1 1.964A3.408 3.408 0 0011.403 7C9.526 7 8 8.5 8 10.342c0 .389.068.761.193 1.109.202.562.55 1.06 1.011 1.44l5.189 5.062a.166.166 0 00.232 0l5.38-5.252c.349-.344.623-.76.794-1.226.13-.354.201-.735.201-1.133C21 8.499 19.474 7 17.599 7z"/>
    <path fill="#C76701" d="M12.5 29h5v-7h-5z"/>
    <path fill="#FF8700" d="M27.595 23.441l-.254.027c1.072.32.718 1.758-.051 1.843l-.192.003c1.03.274.692 1.775-.113 1.867l-.229-.009c.842.145.827 1.825-.445 1.825L19.97 29c-.446 0-.853-.537-1.183-.537H18.5v-5.18c.356-.235.796-.536 1.041-.753.462-.415 2.258-2.821 2.354-4.026.042-.53-.118-1.902-.017-2.166.102-.263.938-.543 1.366-.123.428.419.58 1.595.58 2.481 0 .886-.315 2.25-.483 2.957h4.392c1.08.003 1.005 1.771-.138 1.788"/>
  </g>
</svg>
