<svg width="32" height="32" viewBox="0 0 32 32" xmlns="http://www.w3.org/2000/svg">
  <path fill="#999" d="M2 2v28h28V2z"/>
  <path fill="#FFF" d="M4 4h24v24H4z"/>
  <path fill="#C83C3C" d="M15.854 7a2.79 2.79 0 00-2.537 1.607A2.788 2.788 0 0010.784 7C9.25 7 8 8.227 8 9.734a2.723 2.723 0 00.985 2.086l4.246 4.142a.136.136 0 00.19 0l4.401-4.298a2.682 2.682 0 00.814-1.93C18.636 8.226 17.388 7 15.854 7z"/>
  <path fill="#C76701" d="M11.682 25h4.09v-5.727h-4.09z"/>
  <path fill="#FF8700" d="M24.032 20.452l-.208.022c.878.262.588 1.438-.041 1.508l-.157.002c.842.224.566 1.452-.093 1.528l-.187-.008c.689.119.676 1.494-.364 1.494L17.794 25c-.365 0-.698-.44-.968-.44h-.235v-4.238c.291-.192.651-.438.852-.616.378-.34 1.847-2.308 1.926-3.294.034-.433-.097-1.556-.014-1.772.083-.215.767-.444 1.117-.1.35.342.475 1.305.475 2.03 0 .724-.258 1.84-.395 2.419h3.593c.884.002.822 1.449-.113 1.463"/>
</svg>
