<svg width="36" height="36" viewBox="0 0 36 36" xmlns="http://www.w3.org/2000/svg">
  <g fill="none" fill-rule="nonzero">
    <path fill="#FFF" d="M2 2h32v32H2z"/>
    <path fill="#999" d="M2 2v32h32V2H2zm2 2h28v28H4V4z"/>
    <path fill="#8C8C8C" d="M14.46 25.574a2.289 2.289 0 110 4.577 2.289 2.289 0 010-4.577zm9.241 0a2.289 2.289 0 110 4.577 2.289 2.289 0 010-4.577zM12.171 14l1.738 8.618h10.378L25.994 14l1.723 1.748-.153.766-1.57 7.834H12.172l-1.799-8.733H7V14h5.172zm10.001-7a3.744 3.744 0 11-1.708 7.077l-4.604 4.604a1.09 1.09 0 01-1.54-1.54l4.578-4.579A3.744 3.744 0 0122.172 7zm0 1.664a2.08 2.08 0 100 4.16 2.08 2.08 0 000-4.16z"/>
  </g>
</svg>
