<svg width="32" height="32" viewBox="0 0 32 32" xmlns="http://www.w3.org/2000/svg">
  <path fill="#666" d="M16 5.667c1 0 1.667.666 1.667 1.666V9h-10V7.333c0-1 .666-1.666 1.666-1.666H16zM16 4H9.333A3.343 3.343 0 006 7.333V9c0 1 .667 1.667 1.667 1.667h10c1 0 1.666-.667 1.666-1.667V7.333C19.333 5.5 17.833 4 16 4z"/>
  <path fill="#9F6358" d="M1 7.333h23.333V24H1z"/>
  <path fill="#6F453D" d="M22.667 9v13.333h-20V9h20zm1.666-1.667H1V24h23.333V7.333z"/>
  <path fill="#BC928A" d="M17.667 15.667h-10L1 7.333h23.333z"/>
  <path fill="#6F453D" d="M20.833 9l-4 5H8.5l-4-5h16.333zm3.5-1.667H1l6.667 8.334h10l6.666-8.334z"/>
  <path fill="#402823" d="M9.333 14H11v3.333H9.333V14zm5 0H16v3.333h-1.667V14z"/>
  <path fill="#59F" d="M29.406 24.856c-1.793-.512-3.045-1.213-4.292-1.693.076.246.088.373-.064.524-1.275 1.382-3.931 1.275-5.1 0-.154-.154-.125-.281-.033-.536-1.258.48-2.516 1.189-4.323 1.705 0 0-1.488.85-1.594 4.144h17c-.106-3.4-1.594-4.144-1.594-4.144z"/>
  <path fill="#212121" opacity=".15" d="M15.166 27.938c.227-1.375.743-1.959.906-2.115 1.17-.35 2.116-.77 2.956-1.142l.286-.127c.776.75 1.958 1.192 3.205 1.192 1.256 0 2.41-.442 3.17-1.191l.283.125c.843.374 1.794.796 2.971 1.146.171.152.678.708.898 2.11L29.937 29H31c-.106-3.4-1.594-4.144-1.594-4.144-1.793-.512-3.045-1.213-4.292-1.693.076.246.088.373-.064.524-.625.677-1.581.997-2.532.997-.99 0-1.972-.346-2.568-.997-.154-.154-.125-.281-.033-.536-1.258.48-2.516 1.189-4.323 1.705 0 0-1.488.85-1.594 4.144h1.063l.103-1.063z"/>
  <path fill="#FFC857" d="M22.5 21.563c-.753 0-1.5-.437-2.122-1.057-.048 2.574-.818 2.792-.428 3.181 1.169 1.275 3.825 1.382 5.1 0 .391-.39-.295-.608-.408-3.202-.627.631-1.38 1.078-2.142 1.078z"/>
  <path fill="#212121" opacity=".15" d="M19.58 23.291c.11-.046.226-.098.337-.14-.092.255-.121.383.033.537.14.152.303.285.48.404l.32-.122.165-.46.03-.082c.136-.37.367-1.017.459-2.167a4.053 4.053 0 01-1.026-.755c-.03 1.566-.324 2.254-.464 2.645-.11.043-.223.095-.335.14zm4.52.183l.15.495.317.122c.174-.118.34-.248.483-.404.15-.151.14-.278.064-.524h.002c-.12-.39-.404-1.083-.473-2.678-.296.303-.637.56-1.011.759.104 1.096.307 1.732.426 2.098l.041.132z"/>
  <path fill="#FFC857" d="M22.5 21.563c-1.806 0-3.613-2.444-3.613-4.144V15.08c0-1.7 1.488-3.081 3.188-3.081h.85c1.806 0 3.188 1.381 3.188 3.081v2.338c0 1.7-1.807 4.143-3.613 4.143z"/>
  <path fill="#212121" opacity=".15" d="M22.925 13.063c1.192 0 2.125.887 2.125 2.018v2.338c0 1.189-1.392 3.081-2.55 3.081s-2.55-1.892-2.55-3.081V15.08c0-1.075.993-2.018 2.125-2.018h.85zm0-1.063h-.85c-1.7 0-3.188 1.381-3.188 3.081v2.338c0 1.7 1.807 4.143 3.613 4.143s3.613-2.443 3.613-4.143V15.08c0-1.7-1.382-3.081-3.188-3.081z"/>
</svg>
