<svg width="32" height="32" viewBox="0 0 32 32" xmlns="http://www.w3.org/2000/svg">
  <path fill="#999" d="M2 2v28h28V2z"/>
  <path fill="#FFF" d="M4 4h24v24H4z"/>
  <path fill="#8C8C8C" d="M22.064 7.34c.216.085-.107 1.04-.107 1.04l-1.292.538-1.572.567-.559 1.549.408 1.914 1.907.43 1.777-.559.487-1.539.447-1.272s.984-.385 1.07-.19a4.57 4.57 0 01-1.01 5.076c-1.396 1.37-3.453 1.699-5.167.985l-8.439 8.29a1.788 1.788 0 01-2.496 0 1.71 1.71 0 010-2.452l8.439-8.286a4.562 4.562 0 011.006-5.077 4.771 4.771 0 015.101-1.015z"/>
</svg>
