<svg width="36" height="36" viewBox="0 0 36 36" xmlns="http://www.w3.org/2000/svg">
  <g fill="none" fill-rule="nonzero">
    <path fill="#FFF" d="M2 2h32v32H2z"/>
    <path fill="#999" d="M2 2v32h32V2H2zm2 2h28v28H4V4z"/>
    <path fill="#FFC857" d="M14.7 23.5c0-.1 0-.1 0 0-.1-.3-.3-.9-.3-2 .7-.7 1.1-1.6 1.1-2.3v-1.8c0-1.3-1.1-2.4-2.4-2.4h-.7c-1.3 0-2.4 1.1-2.4 2.4v1.8c0 .8.5 1.7 1.1 2.4 0 1.1-.2 1.6-.3 2 .9.9 2.9 1 3.9-.1z"/>
    <path fill="#59F" d="M18 24.8c-1.4-.4-2.3-.9-3.3-1.3v-.1c-1 1.2-3 1.1-3.9 0v.1c-1 .4-1.9.9-3.3 1.3 0 0-1.1.7-1.2 3.2h13c-.1-2.6-1.3-3.2-1.3-3.2z"/>
    <path fill="#999" d="M18.8 19.5L17.6 18l1.2-1.5v-7h10v10h-10zm11-11h-12v7.9L16.5 18l1.8 2.5h11.4v-12h.1z"/>
    <path fill="#B6B6B6" d="M27.5 16.5v1.4H20v-1.4h7.5zm0-2.8v1.4H20v-1.4h7.5zm0-2.7v1.4H20V11h7.5z"/>
  </g>
</svg>
