<svg width="32" height="32" viewBox="0 0 32 32" xmlns="http://www.w3.org/2000/svg">
  <path fill="#999" d="M2 2v28h28V2z"/>
  <path fill="#FFF" d="M4 4h24v24H4z"/>
  <path fill="#59F" d="M17 6h9v20h-9z"/>
  <path fill="#FFF" d="M20.02 16.034l1.015 1.182.59-.581 1.852 1.796-5.477.013 2.02-2.41zM24.05 14c.526 0 .95.455.95 1.018 0 .561-.425 1.017-.95 1.017-.524 0-.948-.455-.948-1.017 0-.562.424-1.018.949-1.018z"/>
  <path fill="#B9B9B9" d="M15 23v2H6v-2h9zm0-4v2H6v-2h9zm0-4v2H6v-2h9zm0-4v2H6v-2h9zm0-4v2H6V7h9z"/>
</svg>
