<svg width="32" height="32" viewBox="0 0 32 32" xmlns="http://www.w3.org/2000/svg">
  <path fill="#666" d="M19.9 3h-.71c-2.77 0-5.022 2.215-5.022 4.935v1.95c0 1.026.38 2.151 1.036 3.144-.67.312-1.361.575-2.069.787l-.276.078-.248.142c-.4.23-2.392 1.638-2.518 5.51l-.002 7.09H29v-7.09c-.125-3.872-2.12-5.28-2.52-5.51l-.248-.142-.276-.078a15.197 15.197 0 01-2.069-.787c.655-.993 1.036-2.12 1.036-3.144v-1.95C24.925 5.215 22.67 3 19.9 3z"/>
  <path fill="#FFC857" d="M25.308 16.09c-1.506-.43-2.555-1.021-3.605-1.42-.115-.327-.361-.901-.387-2.209.726-.72 1.245-1.749 1.245-2.576v-1.95c0-1.418-1.243-2.571-2.661-2.571h-.71c-1.417 0-2.658 1.153-2.658 2.571v1.95c0 .827.52 1.856 1.245 2.576-.023 1.308-.269 1.882-.387 2.208-1.05.4-2.1.99-3.605 1.42 0 0-1.24.71-1.328 3.456v2.364h14.182v-2.364c-.092-2.746-1.331-3.455-1.331-3.455z"/>
  <path fill="#AAD400" d="M25.308 16.09c-1.496-.428-2.54-1.012-3.58-1.414.063.206.072.31-.053.438-1.064 1.153-3.28 1.063-4.254 0-.13-.13-.104-.234-.026-.447-1.05.4-2.1.99-3.607 1.423 0 0-1.241.709-1.329 3.456v4.727h14.182v-4.727c-.094-2.837-1.333-3.456-1.333-3.456z"/>
  <path fill="#666" d="M12.81 7.727h-.71c-2.77 0-5.025 2.215-5.025 4.936v1.95c0 1.025.38 2.15 1.035 3.143-.67.313-1.36.576-2.068.787l-.277.078-.248.142c-.397.23-2.39 1.638-2.515 5.51L3 29h18.91v-4.727c-.126-3.872-2.121-5.28-2.52-5.51l-.249-.142-.276-.078a15.216 15.216 0 01-2.068-.787c.654-.992 1.035-2.12 1.035-3.143v-1.95c.002-2.72-2.253-4.936-5.023-4.936z"/>
  <path fill="#FFC857" d="M18.217 20.817c-1.505-.43-2.555-1.021-3.604-1.42-.116-.327-.362-.901-.388-2.208.726-.721 1.246-1.75 1.246-2.576v-1.95c0-1.419-1.244-2.572-2.662-2.572H12.1c-1.418 0-2.659 1.153-2.659 2.572v1.95c0 .827.52 1.855 1.246 2.576-.024 1.307-.27 1.881-.388 2.207-1.05.4-2.099.99-3.605 1.421 0 0-1.24.71-1.328 3.456v2.363h14.182v-2.363c-.092-2.747-1.33-3.456-1.33-3.456z"/>
  <path fill="#79A548" d="M18.217 20.817c-1.496-.428-2.54-1.012-3.58-1.413.063.205.072.31-.053.437-1.063 1.153-3.28 1.064-4.254 0-.13-.13-.104-.234-.026-.447-1.05.4-2.1.99-3.607 1.423 0 0-1.241.71-1.329 3.456v2.363H19.55v-2.363c-.094-2.837-1.333-3.456-1.333-3.456z"/>
</svg>
