<svg width="32" height="32" viewBox="0 0 32 32" xmlns="http://www.w3.org/2000/svg">
  <path fill="#999" d="M2 2v28h28V2z"/>
  <path fill="#FFF" d="M4 4h24v24H4z"/>
  <path fill="#EAEAEA" d="M23 6H6v17h17z"/>
  <path fill="#8C8C8C" d="M11 21v2H9v-2h2zm-3 0v2H6v-2h2zm0-3v2H6v-2h2zm0-3v2H6v-2h2zm0-3v2H6v-2h2zm15-3v2h-2V9h2zM8 9v2H6V9h2zm0-3v2H6V6h2zm3 0v2H9V6h2zm3 0v2h-2V6h2zm3 0v2h-2V6h2zm3 0v2h-2V6h2zm3 0v2h-2V6h2z"/>
  <path fill="#666" d="M20.75 11h-.41c-1.597 0-2.897 1.278-2.897 2.847v1.125c0 .592.22 1.241.598 1.814-.387.18-.786.332-1.194.454l-.16.045-.143.082c-.23.132-1.38.945-1.452 3.178l-.001 4.091H26v-4.09c-.072-2.234-1.223-3.047-1.454-3.18l-.143-.081-.16-.045a8.764 8.764 0 01-1.192-.454c.377-.573.597-1.223.597-1.814v-1.125c.001-1.57-1.3-2.847-2.898-2.847z"/>
  <path fill="#FFC857" d="M23.87 18.552c-.869-.248-1.474-.59-2.08-.82-.066-.188-.208-.52-.223-1.273.418-.416.718-1.01.718-1.487v-1.125c0-.818-.717-1.483-1.535-1.483h-.41c-.817 0-1.533.665-1.533 1.483v1.125c0 .478.3 1.07.719 1.487-.014.754-.156 1.085-.224 1.273-.606.23-1.211.572-2.08.82 0 0-.716.409-.766 1.994v1.363h8.182v-1.363c-.053-1.585-.768-1.994-.768-1.994z"/>
  <path fill="#AAD400" d="M23.87 18.552c-.863-.247-1.466-.584-2.066-.816.037.119.042.179-.03.253-.614.665-1.893.613-2.454 0-.075-.075-.06-.135-.015-.258-.606.23-1.211.571-2.081.82 0 0-.716.41-.767 1.995v2.727h8.182v-2.727c-.054-1.637-.769-1.994-.769-1.994z"/>
  <path fill="#666" d="M16.66 13.727h-.41c-1.598 0-2.9 1.278-2.9 2.848V17.7c0 .591.22 1.24.598 1.813-.386.18-.785.332-1.193.454l-.16.045-.143.082c-.229.132-1.378.945-1.45 3.179L11 26h10.91v-2.727c-.073-2.234-1.224-3.047-1.454-3.179l-.144-.082-.16-.045a8.783 8.783 0 01-1.193-.454c.378-.573.598-1.223.598-1.814v-1.125c.001-1.569-1.3-2.847-2.898-2.847z"/>
  <path fill="#FFC857" d="M19.78 21.28c-.87-.25-1.475-.59-2.08-.82-.067-.189-.21-.52-.224-1.274.419-.416.719-1.01.719-1.486v-1.125c0-.819-.718-1.484-1.536-1.484h-.409c-.818 0-1.534.665-1.534 1.484V17.7c0 .477.3 1.07.719 1.486-.014.754-.156 1.085-.224 1.273-.606.231-1.211.572-2.08.82 0 0-.716.41-.766 1.994v1.363h8.182v-1.363c-.053-1.585-.768-1.994-.768-1.994z"/>
  <path fill="#79A548" d="M19.78 21.28c-.864-.248-1.467-.585-2.067-.816.037.118.043.178-.03.252-.613.665-1.893.614-2.454 0-.075-.075-.06-.135-.015-.258-.606.23-1.211.572-2.081.821 0 0-.716.41-.767 1.994v1.363h8.182v-1.363c-.054-1.637-.769-1.994-.769-1.994z"/>
</svg>
