<svg width="32" height="32" viewBox="0 0 32 32" xmlns="http://www.w3.org/2000/svg">
  <path fill="#999" d="M2 2v28h28V2z"/>
  <path fill="#FFF" d="M4 4h24v24H4z"/>
  <path fill="#59F" d="M18 9h8v8h-8z"/>
  <path fill="#FFF" d="M18 10h7v7h-7z"/>
  <path fill="#59F" d="M17 11h7v7h-7z"/>
  <path fill="#EFEFEF" d="M19.443 14.453l.725.844.421-.415 1.323 1.283-3.912.01 1.443-1.722zM22.322 13c.375 0 .678.326.678.727 0 .402-.304.727-.678.727-.374 0-.678-.325-.678-.727 0-.401.304-.727.678-.727z"/>
  <path fill="#B9B9B9" d="M15 22v2H6v-2h9zm0-4v2H6v-2h9zm0-4v2H6v-2h9z"/>
  <path fill="#666" d="M15 9v3H6V9z"/>
</svg>
