<svg width="36" height="36" viewBox="0 0 36 36" xmlns="http://www.w3.org/2000/svg">
  <g fill="none" fill-rule="nonzero">
    <path fill="#FFF" d="M2 2h32v32H2z"/>
    <path fill="#999" d="M2 2v32h32V2H2zm2 2h28v28H4V4z"/>
    <path fill="#639" d="M18 6h12v24H18z"/>
    <path fill="#B9B9B9" d="M6 9h10v2H6V9zm0 8h10v2H6v-2zm0 4h10v2H6v-2zm0 4h10v2H6v-2zm0-12h10v2H6v-2z"/>
    <path fill="#FFF" d="M20.5 18.5c0-1.9 1.6-3.5 3.5-3.5s3.5 1.6 3.5 3.5S25.9 22 24 22s-3.5-1.6-3.5-3.5zm5.3 0l-3-2v4l3-2z"/>
  </g>
</svg>
