<svg width="32" height="32" viewBox="0 0 32 32" xmlns="http://www.w3.org/2000/svg">
  <path fill="#999" d="M2 2v28h28V2z"/>
  <path fill="#FFF" d="M4 4h24v24H4z"/>
  <path fill="#FFC857" d="M13 20.5c0-.083 0-.083 0 0-.083-.25-.25-.75-.25-1.667.583-.583.917-1.333.917-1.916v-1.5c0-1.084-.917-2-2-2h-.584c-1.083 0-2 .916-2 2v1.5c0 .666.417 1.416.917 2 0 .916-.167 1.333-.25 1.666.75.75 2.417.834 3.25-.083z"/>
  <path fill="#59F" d="M15.75 21.583c-1.167-.333-1.917-.75-2.75-1.083v-.083c-.833 1-2.5.916-3.25 0v.083c-.833.333-1.583.75-2.75 1.083 0 0-.917.584-1 2.667h10.833c-.083-2.167-1.083-2.667-1.083-2.667z"/>
  <path fill="#999" d="M16.417 17.167l-1-1.25 1-1.25V8.833h8.333v8.334h-8.333zM25.583 8h-10v6.583L14.5 15.917 16 18h9.5V8h.083z"/>
  <path fill="#B6B6B6" d="M23.667 14.667v1.166h-6.25v-1.166h6.25zm0-2.334V13.5h-6.25v-1.167h6.25zm0-2.25v1.167h-6.25v-1.167h6.25z"/>
</svg>
