<svg width="32" height="32" viewBox="0 0 32 32" xmlns="http://www.w3.org/2000/svg">
  <path fill="#999" d="M2 2v28h28V2z"/>
  <path fill="#FFF" d="M4 4h24v24H4z"/>
  <path fill="#FF8700" d="M10 23h12v3H10z"/>
  <path fill-opacity=".3" fill="#000" d="M10 23h3v3h-3z"/>
  <path fill="#B9B9B9" d="M26 19v2H6v-2h20zm0-4v2H6v-2h20z"/>
  <path fill="#59F" d="M6 6h20v7H6z"/>
  <path fill="#FFF" d="M14.648 9.325l.794.913.455-.456 1.433 1.392-4.33.013 1.648-1.863zm3.209-1.575c.419 0 .759.352.759.787 0 .434-.34.787-.76.787-.418 0-.758-.352-.758-.787 0-.434.34-.787.759-.787z"/>
</svg>
