<svg width="32" height="32" viewBox="0 0 32 32" xmlns="http://www.w3.org/2000/svg">
  <path fill="#999" d="M2 2v28h28V2z"/>
  <path fill="#FFF" d="M4 4h24v24H4z"/>
  <path fill="#59F" d="M6 9h9v9H6z"/>
  <path fill="#EFEFEF" d="M9.232 13.494l.87 1.012.505-.498 1.587 1.54-4.694.011 1.732-2.065zm3.454-1.744c.45 0 .814.39.814.872s-.364.873-.814.873c-.449 0-.813-.39-.813-.873 0-.481.364-.872.813-.872z"/>
  <path fill="#B9B9B9" d="M26 22v2h-9v-2h9zm0-4v2h-9v-2h9zm0-4v2h-9v-2h9z"/>
  <path fill="#666" d="M26 9v3h-9V9z"/>
</svg>
