<svg width="36" height="36" viewBox="0 0 36 36" xmlns="http://www.w3.org/2000/svg">
  <g fill="none" fill-rule="nonzero">
    <path fill="#FFF" d="M2 2h32v32H2z"/>
    <path fill="#999" d="M2 2v32h32V2H2zm2 2h28v28H4V4z"/>
    <path fill="#59F" d="M6 10h10v10H6z"/>
    <path fill="#EFEFEF" d="M9.309 14.466l1.16 1.35.674-.664 2.116 2.053L7 17.22l2.309-2.754zm4.606-2.325c.6 0 1.085.521 1.085 1.163 0 .643-.486 1.163-1.085 1.163s-1.084-.52-1.084-1.163c0-.642.485-1.163 1.084-1.163z"/>
    <path fill="#B9B9B9" d="M30 24v2H18v-2h12zm0-4v2H18v-2h12zm0-4v2H18v-2h12z"/>
    <path fill="#666" d="M30 10v3H18v-3z"/>
  </g>
</svg>
