<svg width="32" height="32" viewBox="0 0 32 32" xmlns="http://www.w3.org/2000/svg">
  <path fill="#999" d="M2 2v28h28V2z"/>
  <path fill="#FFF" d="M4 4h24v24H4z"/>
  <path fill="#979797" d="M11 14v1H9v-1h2zm4 0v1h-2v-1h2zm4 0v1h-2v-1h2zm4 0v1h-2v-1h2zM7 14v1H6v-1h1zm19 0v1h-1v-1h1zM7 10v2H6v-2h1zm19 0v2h-1v-2h1zM8 6v1H7v1H6V6h2zm18 0v2h-1V6h1zM12 6v1h-2V6h2zm4 0v1h-2V6h2zm4 0v1h-2V6h2zm4 0v1h-2V6h2zM11 18v-1H9v1h2zm4 0v-1h-2v1h2zm4 0v-1h-2v1h2zm4 0v-1h-2v1h2zM7 18v-1H6v1h1zm19 0v-1h-1v1h1zM7 22v-2H6v2h1zm19 0v-2h-1v2h1zM8 26v-1H7v-1H6v2h2zm18 0v-2h-1v2h1zm-14 0v-1h-2v1h2zm4 0v-1h-2v1h2zm4 0v-1h-2v1h2zm4 0v-1h-2v1h2z"/>
</svg>
