<svg width="32" height="32" viewBox="0 0 32 32" xmlns="http://www.w3.org/2000/svg">
  <path fill="#999" d="M2 2v28h28V2z"/>
  <path fill="#FFF" d="M4 4h24v24H4z"/>
  <path fill="#B9B9B9" d="M21 24v2H11v-2h10zm0-4v2H11v-2h10zm0-4v2H11v-2h10z"/>
  <path fill="#FF8700" d="M9 19.5v3L6 21l3-1.5zm14 0l3 1.5-3 1.5v-3z"/>
  <path fill="#59F" d="M11 6h10v8H11z"/>
  <path fill="#EFEFEF" d="M14.616 9.98l1.036 1.233.592-.58 1.872 1.884-5.616.011 2.116-2.548zM18.443 8c.55 0 .995.478.995 1.067 0 .59-.445 1.067-.995 1.067s-.995-.478-.995-1.067c0-.59.446-1.067.995-1.067z"/>
</svg>
