<svg width="32" height="32" viewBox="0 0 32 32" xmlns="http://www.w3.org/2000/svg">
  <path fill="#999" d="M2 2v28h28V2z"/>
  <path fill="#FFF" d="M4 4h24v24H4z"/>
  <path fill="#FF8700" d="M13 22v4l-4-2 4-2zm6 0l4 2-4 2v-4z"/>
  <path fill="#B9B9B9" d="M15 6H6v2h9zM15 10H6v2h9zM15 14H6v2h9zM15 18H6v2h9z"/>
  <path fill="#59F" d="M17 6h9v14h-9z"/>
  <path fill="#EFEFEF" d="M20.443 13.346l.726.781.42-.385 1.324 1.188L19 14.94l1.443-1.594zM23.322 12c.375 0 .678.302.678.673a.675.675 0 01-.677.673.677.677 0 01-.68-.673c0-.372.305-.673.679-.673z"/>
</svg>
