<?xml version="1.0" encoding="UTF-8"?>
<svg width="36px" height="36px" viewBox="0 0 36 36" version="1.1" xmlns="http://www.w3.org/2000/svg" xmlns:xlink="http://www.w3.org/1999/xlink">
    <title>ce-tiles</title>
    <g id="ce-tiles" stroke="none" stroke-width="1" fill="none" fill-rule="evenodd">
        <polygon id="Path" fill="#FFFFFF" fill-rule="nonzero" points="2 2 34 2 34 34 2 34"></polygon>
        <path d="M2,2 L2,34 L34,34 L34,2 L2,2 L2,2 Z M4,4 L32,4 L32,32 L4,32 L4,4 L4,4 Z" id="Shape" fill="#999999" fill-rule="nonzero"></path>
        <polygon id="Path" fill="#666666" fill-rule="nonzero" points="6 7 30 7 30 10 6 10"></polygon>
        <path d="M17,22 L17,30 L6,30 L6,22 L17,22 Z M17,12 L17,20 L6,20 L6,12 L17,12 Z M30,12 L30,20 L19,20 L19,12 L30,12 Z" id="Shape" fill="#999999" fill-rule="nonzero"></path>
        <rect id="Rectangle" fill="#FF8700" fill-rule="nonzero" x="19" y="22" width="11" height="8"></rect>
    </g>
</svg>