<svg width="32" height="32" viewBox="0 0 32 32" xmlns="http://www.w3.org/2000/svg">
  <path fill="#999" d="M2 3v28h28V3z"/>
  <path fill="#FFF" d="M4 5h24v24H4z"/>
  <path fill="#B9B9B9" d="M15 25v2H6v-2h9zm11 0v2h-9v-2h9zm-11-4v2H6v-2h9zm11 0v2h-9v-2h9zm-11-4v2H6v-2h9zm11 0v2h-9v-2h9z"/>
  <path fill="#59F" d="M6 7h20v8H6z"/>
  <path fill="#FFF" d="M14.084 10.769l1.055 1.184.711-.573 1.834 1.806-5.684.009 2.084-2.426zM18.26 8.75c.542 0 .98.455.98 1.017 0 .561-.438 1.017-.98 1.017s-.98-.455-.98-1.017c0-.561.438-1.017.98-1.017z"/>
</svg>
