<svg width="32" height="32" viewBox="0 0 32 32" xmlns="http://www.w3.org/2000/svg">
  <path fill="#999" d="M2 2v28h28V2z"/>
  <path fill="#FFF" d="M4 4h24v24H4z"/>
  <path fill="#EAEAEA" d="M23 6H6v17h17z"/>
  <path fill="#8C8C8C" d="M11 21v2H9v-2h2zm-3 0v2H6v-2h2zm0-3v2H6v-2h2zm0-3v2H6v-2h2zm15-3v2h-2v-2h2zM8 12v2H6v-2h2zm15-3v2h-2V9h2zM8 9v2H6V9h2zm0-3v2H6V6h2zm3 0v2H9V6h2zm3 0v2h-2V6h2zm3 0v2h-2V6h2zm3 0v2h-2V6h2zm3 0v2h-2V6h2z"/>
  <path fill="#FFF" d="M11 14h15v12H11z"/>
  <path fill="#666" d="M25 25H12v-9h13v9zm1-11H11v12h15V14z"/>
  <path fill="#CCC" d="M20 18h3v1h-3v-1zm0 2h3v1h-3v-1zm0 2h3v1h-3v-1z"/>
  <path fill="#59F" d="M18.531 21.781c-.527-.15-.895-.357-1.262-.498.022.073.026.11-.019.154-.375.407-1.156.375-1.5 0-.045-.045-.037-.082-.01-.157-.37.14-.74.35-1.271.501 0 0-.438.25-.469 1.219h5c-.031-1-.469-1.219-.469-1.219z"/>
  <path fill="#212121" opacity=".15" d="M14.343 22.688c.067-.405.219-.576.266-.622a6.93 6.93 0 00.87-.336l.084-.038c.228.22.576.35.943.35.369 0 .708-.13.932-.35l.083.037c.248.11.528.234.874.338.05.044.2.208.264.62l.029.313H19c-.031-1-.469-1.219-.469-1.219-.527-.15-.895-.357-1.262-.498.022.073.026.11-.019.154-.184.2-.465.294-.745.294-.29 0-.58-.102-.755-.294-.045-.045-.037-.082-.01-.157-.37.14-.74.35-1.271.501 0 0-.438.25-.469 1.219h.313l.03-.313z"/>
  <path fill="#FFC857" d="M16.5 20.813c-.222 0-.44-.129-.624-.311-.014.757-.24.82-.126.936.344.375 1.125.406 1.5 0 .115-.115-.087-.18-.12-.942-.184.185-.406.317-.63.317z"/>
  <path fill="#212121" opacity=".15" d="M15.64 21.32c.034-.012.067-.028.1-.04-.027.075-.035.112.01.157a.79.79 0 00.141.12l.094-.036.049-.136.009-.024c.04-.109.108-.299.134-.637a1.195 1.195 0 01-.301-.222c-.009.46-.095.663-.137.778l-.098.04zm1.33.055l.045.145.093.036a.808.808 0 00.142-.119c.044-.044.04-.081.019-.154-.035-.115-.118-.318-.139-.787-.087.089-.187.164-.297.223.03.322.09.51.125.617l.012.039z"/>
  <path fill="#FFC857" d="M16.5 20.813c-.531 0-1.063-.72-1.063-1.22v-.687c0-.5.438-.906.938-.906h.25c.531 0 .938.406.938.906v.688c0 .5-.532 1.218-1.063 1.218z"/>
  <path fill="#212121" opacity=".15" d="M16.625 18.313c.35 0 .625.26.625.593v.688c0 .35-.41.906-.75.906s-.75-.557-.75-.906v-.688c0-.316.292-.593.625-.593h.25zm0-.313h-.25c-.5 0-.938.406-.938.906v.688c0 .5.532 1.218 1.063 1.218.531 0 1.063-.718 1.063-1.218v-.688c0-.5-.407-.906-.938-.906z"/>
</svg>
