<svg width="32" height="32" viewBox="0 0 32 32" xmlns="http://www.w3.org/2000/svg">
  <path fill="#FFF" d="M2 4h28v24H2z"/>
  <path fill="#666" d="M28 26H4V8h24v18zm2-22H2v24h28V4z"/>
  <path fill="#CCC" d="M17 12h8v2h-8v-2zm0 4h8v2h-8v-2zm0 4h8v2h-8v-2z"/>
  <path fill="#59F" d="M13.552 19.302c-.88-.25-1.493-.595-2.104-.83.037.12.043.183-.031.257-.625.677-1.927.625-2.5 0-.076-.075-.062-.138-.016-.263-.617.235-1.234.583-2.12.836 0 0-.729.417-.781 2.031h8.333c-.052-1.666-.78-2.03-.78-2.03z"/>
  <path fill="#212121" opacity=".15" d="M6.571 20.813c.112-.674.365-.96.445-1.037a11.545 11.545 0 001.449-.56l.14-.062c.38.367.96.584 1.571.584.616 0 1.181-.216 1.554-.584l.139.062c.413.183.879.39 1.456.562.084.074.332.347.44 1.034l.047.521h.521c-.052-1.666-.78-2.03-.78-2.03-.88-.252-1.494-.596-2.105-.831.037.12.043.183-.031.257-.307.332-.775.489-1.242.489-.484 0-.966-.17-1.258-.489-.076-.075-.062-.138-.016-.263-.617.235-1.234.583-2.12.836 0 0-.729.417-.781 2.031h.52l.051-.52z"/>
  <path fill="#FFC857" d="M10.167 17.688c-.37 0-.735-.215-1.04-.518-.024 1.261-.402 1.368-.21 1.56.573.624 1.875.676 2.5 0 .191-.192-.145-.3-.2-1.57-.308.309-.677.527-1.05.527z"/>
  <path fill="#212121" opacity=".15" d="M8.735 18.535c.055-.023.11-.048.166-.069-.046.125-.06.188.016.263.068.075.148.14.235.199l.157-.06.08-.226.015-.04c.067-.182.18-.498.225-1.062a1.99 1.99 0 01-.502-.37c-.015.767-.16 1.104-.228 1.296-.054.021-.11.046-.164.069zm2.216.09l.073.242.156.06c.085-.058.166-.122.237-.198.074-.074.068-.136.03-.257h.002c-.058-.191-.198-.53-.232-1.313a2.021 2.021 0 01-.496.372c.051.538.15.85.21 1.029l.02.065z"/>
  <path fill="#FFC857" d="M10.167 17.688c-.886 0-1.771-1.198-1.771-2.032V14.51c0-.833.729-1.51 1.562-1.51h.417c.885 0 1.563.677 1.563 1.51v1.146c0 .834-.886 2.031-1.771 2.031z"/>
  <path fill="#212121" opacity=".15" d="M10.375 13.52c.584 0 1.042.436 1.042.99v1.146c0 .583-.683 1.51-1.25 1.51-.568 0-1.25-.927-1.25-1.51V14.51c0-.527.487-.99 1.041-.99h.417zm0-.52h-.417c-.833 0-1.562.677-1.562 1.51v1.146c0 .834.885 2.031 1.77 2.031.886 0 1.771-1.197 1.771-2.03V14.51c0-.833-.677-1.51-1.562-1.51z"/>
</svg>
