<svg width="32" height="32" viewBox="0 0 32 32" xmlns="http://www.w3.org/2000/svg">
    <g fill="none" fill-rule="evenodd">
        <path fill="#76a0c6" d="M0,0 L0,32 L32,32 L32,0 L0,0 L0,0 Z M2,2 L30,2 L30,30 L2,30 L2,2 L2,2 Z"/>
        <polygon fill="#6d97b9" points="2 2 30 2 30 30 2 30"/>
        <path fill="#fff" d="M14,21 L14,25 L4,25 L4,21 L14,21 Z M18,14 L18,18 L4,18 L4,14 L18,14 Z M28,14 L28,18 L20,18 L20,14 L28,14 Z M17,15 L5,15 L5,17 L17,17 L17,15 Z M27,15 L21,15 L21,17 L27,17 L27,15 Z M28,8 L28,12 L4,12 L4,8 L28,8 Z M27,9 L5,9 L5,11 L27,11 L27,9 Z"/>
    </g>
</svg>
