<svg width="32" height="32" viewBox="0 0 32 32" xmlns="http://www.w3.org/2000/svg">
    <g fill="none" fill-rule="evenodd">
        <path fill="#76a0c6" d="M0,0 L0,32 L32,32 L32,0 L0,0 L0,0 Z M2,2 L30,2 L30,30 L2,30 L2,2 L2,2 Z"/>
        <polygon fill="#919191" points="2 2 30 2 30 30 2 30"/>
        <polygon fill="#027b72" points="2 10 30 10 30 24 2 24"/>
        <path fill="#fff" d="M14.5808405,16.5555556 L16.8742762,18.6839035 L18.1311975,17.6536412 L22.1333333,20.9705314 L10,21 L14.5808405,16.5555556 Z M21.2666667,13 C22.2239602,13 23,13.7959382 23,14.7777778 C23,15.7596173 22.2239602,16.5555556 21.2666667,16.5555556 C20.3093731,16.5555556 19.5333333,15.7596173 19.5333333,14.7777778 C19.5333333,13.7959382 20.3093731,13 21.2666667,13 Z"/>
    </g>
</svg>
