<svg width="32" height="32" viewBox="0 0 32 32" xmlns="http://www.w3.org/2000/svg">
  <g fill="none" fill-rule="evenodd">
    <path fill="#fff" d="M0 0h32v32H0z"/>
    <path fill="#999" d="M0 0v32h32V0H0zm2 2h28v28H2V2z"/>
    <g>
      <path fill="#b9b9b9" d="M9.5 21v1h-5v-1h5zm6 0v1h-5v-1h5zm6 0v1h-5v-1h5zm6 0v1h-5v-1h5zm-18-2v1h-5v-1h5zm6 0v1h-5v-1h5zm6 0v1h-5v-1h5zm6 0v1h-5v-1h5zm-18-2v1h-5v-1h5zm6 0v1h-5v-1h5zm6 0v1h-5v-1h5zm6 0v1h-5v-1h5z"/>
      <path fill="#e8a33d" d="M9.5 11v5h-5v-5h5zm12 0v5h-5v-5h5z"/>
      <path fill="#c83c3c" d="M27.5 11v5h-5v-5h5zm-12 0v5h-5v-5h5z"/>
    </g>
  </g>
</svg>
