<svg width="32" height="32" xmlns="http://www.w3.org/2000/svg">
  <g fill="none" fill-rule="evenodd">
    <path fill="#FFF" d="M0 0h32v32H0z"/>
    <path d="M0 0v32h32V0H0zm2 2h28v28H2V2z" fill="#76A0C6"/>
    <path fill="#919191" d="M2 2h28v28H2z"/>
    <path fill="#ED87B9" d="M2 16h9v9H2z"/>
    <path fill="#FAB900" d="M11 16h10v9H11z"/>
    <path fill="#027B72" d="M21 16h9v9h-9z"/>
    <path fill="#ED87B9" style="mix-blend-mode:multiply" d="M2 7h9v9H2z"/>
    <path fill="#FAB900" style="mix-blend-mode:multiply" d="M11 7h10v9H11z"/>
    <path fill="#027B72" style="mix-blend-mode:multiply" d="M21 7h9v9h-9z"/>
    <path d="M10 22v1H3v-1h7zm10 0v1h-8v-1h8zm9 0v1h-7v-1h7zm-19-2v1H3v-1h7zm10 0v1h-8v-1h8zm9 0v1h-7v-1h7zm-14.476-8.333l1.764 1.596.967-.773 3.078 2.488L11 15l3.524-3.333zM19.667 9a1.333 1.333 0 1 1 0 2.667 1.333 1.333 0 0 1 0-2.667z" fill="#FFF"/>
  </g>
</svg>
