<svg width="32" height="32" xmlns="http://www.w3.org/2000/svg">
  <g fill="none" fill-rule="evenodd">
    <path fill="#FFF" d="M0 0h32v32H0z"/>
    <path d="M0 0v32h32V0H0zm2 2h28v28H2V2z" fill="#76A0C6"/>
    <path stroke="#979797" d="M4.5 4.5h23v23h-23z"/>
    <g>
      <path d="M20.267 16.064c-1.115-.308-1.892-.73-2.67-1.017-.085-.233-.267-.645-.286-1.58.54-.517.925-1.253.925-1.845v-1.396c0-1.016-.92-1.84-1.97-1.84h-.526c-1.05 0-1.97.824-1.97 1.84v1.396c0 .592.385 1.328.92 1.845-.016.935-.2 1.347-.285 1.58-.777.286-1.554.71-2.67 1.017 0 0-.918.508-.982 2.474v6.77h10.5v-6.77c-.07-1.966-.986-2.474-.986-2.474z" fill="#FFC857"/>
      <path d="M20.267 16.064c-1.108-.306-1.882-.724-2.652-1.012.048.148.055.222-.038.313-.788.826-2.43.762-3.15 0-.097-.093-.077-.167-.02-.32-.777.287-1.554.71-2.67 1.02 0 0-.92.507-.984 2.473v6.77h10.5v-6.77c-.07-2.03-.987-2.474-.987-2.474h.001z" fill="#259637"/>
    </g>
  </g>
</svg>
