<svg width="32" height="32" viewBox="0 0 32 32" xmlns="http://www.w3.org/2000/svg">
    <g fill="none" fill-rule="evenodd">
        <polygon fill="#fff" points="0 0 32 0 32 32 0 32"/>
        <path fill="#999" d="M0,0 L0,32 L32,32 L32,0 L0,0 L0,0 Z M2,2 L30,2 L30,30 L2,30 L2,2 L2,2 Z"/>
        <path fill="#d8362a" d="M21.9,20.7c0,0-0.1-0.8-0.4-1.1c-0.4-0.5-0.9-0.5-1.1-0.5C18.8,19,16.5,19,16.5,19s-2.3,0-3.8,0.1 c-0.2,0-0.7,0-1.1,0.5c-0.3,0.3-0.4,1.1-0.4,1.1S11,21.7,11,22.6v0.9c0,0.9,0.1,1.8,0.1,1.8s0.1,0.8,0.4,1.1c0.4,0.5,1,0.4,1.2,0.5 c0.9,0.1,3.7,0.1,3.7,0.1s2.3,0,3.8-0.1c0.2,0,0.7,0,1.1-0.5c0.3-0.3,0.4-1.1,0.4-1.1s0.1-0.9,0.1-1.8v-0.9 C22,21.7,21.9,20.7,21.9,20.7z M15,25v-4l4,2L15,25z"/>
        <path fill="#fb780b" d="M6.7,10.9c0.4,0,0.7,0.3,0.7,0.7v1.4c0,0.3-0.3,0.6-0.6,0.7l-0.1,0 c-0.4,0-0.7-0.3-0.7-0.7v-1.4C6,11.2,6.3,10.9,6.7,10.9z M9.4,9.5c0.4,0,0.7,0.3,0.7,0.7v2.8c0,0.3-0.3,0.6-0.6,0.7l-0.1,0 c-0.4,0-0.7-0.3-0.7-0.7v-2.8C8.8,9.8,9.1,9.5,9.4,9.5z M12.2,8.1c0.4,0,0.7,0.3,0.7,0.7v4.1c0,0.3-0.3,0.6-0.6,0.7l-0.1,0 c-0.4,0-0.7-0.3-0.7-0.7V8.8C11.5,8.4,11.8,8.1,12.2,8.1z M15,6.7c0.4,0,0.7,0.4,0.7,0.9v5.2c0,0.4-0.3,0.8-0.6,0.9l-0.1,0 c-0.4,0-0.7-0.4-0.7-0.9V7.6C14.3,7.1,14.6,6.7,15,6.7z M18.1,5c2.3,0,4.3,1.7,4.7,3.9c0.3-0.1,0.5-0.1,0.8-0.1 c1.3,0,2.4,1.1,2.4,2.4s-1.1,2.4-2.4,2.4l0,0H17V5.1C17.4,5,17.7,5,18.1,5z"/>
        <rect fill="#979797" x="5" y="16" width="22" height="1"/>
    </g>
</svg>
