<svg width="32" height="32" viewBox="0 0 32 32" xmlns="http://www.w3.org/2000/svg">
    <g fill="none" fill-rule="evenodd">
        <polygon fill="#fff" points="0 0 32 0 32 32 0 32"/>
        <path fill="#999" d="M0,0 L0,32 L32,32 L32,0 L0,0 L0,0 Z M2,2 L30,2 L30,30 L2,30 L2,2 L2,2 Z"/>
        <path fill="#c0bac9" d="M26,23 L26,27 L6,27 L6,23 L26,23 Z M26,18 L26,22 L6,22 L6,18 L26,18 Z M26,13 L26,17 L6,17 L6,13 L26,13 Z M26,8 L26,12 L6,12 L6,8 L26,8 Z"/>
        <path fill="#54297d" d="M10,23 L10,27 L6,27 L6,23 L10,23 Z M10,18 L10,22 L6,22 L6,18 L10,18 Z M10,13 L10,17 L6,17 L6,13 L10,13 Z M10,8 L10,12 L6,12 L6,8 L10,8 Z"/>
        <polygon fill="#f69c00" points="6 5 18 5 18 6 6 6"/>
    </g>
</svg>
