<svg width="32" height="32" viewBox="0 0 32 32" xmlns="http://www.w3.org/2000/svg">
    <g fill="none" fill-rule="evenodd">
        <polygon fill="#fff" points="0 0 32 0 32 32 0 32"/>
        <path fill="#999" d="M0,0 L0,32 L32,32 L32,0 L0,0 L0,0 Z M2,2 L30,2 L30,30 L2,30 L2,2 L2,2 Z"/>
        <polygon fill="#c0bac9" points="6 13 26 13 26 18 6 18"/>
        <path fill="#e79c38" d="M6,19 L15,19 L15,22 L6,22 L6,19 Z M6,9 L23,9 L23,10 L6,10 L6,9 Z"/>
        <polygon fill="#54297d" points="6 13 7 13 7 18 6 18"/>
    </g>
</svg>
