<svg width="32" height="32" viewBox="0 0 32 32" xmlns="http://www.w3.org/2000/svg">
    <g fill="none" fill-rule="evenodd">
        <polygon fill="#fff" points="0 0 32 0 32 32 0 32"/>
        <path fill="#999" d="M0,0 L0,32 L32,32 L32,0 L0,0 L0,0 Z M2,2 L30,2 L30,30 L2,30 L2,2 L2,2 Z"/>
        <polygon fill="#59f" points="7 7.00987516 28 11.0098752 28 17 4 20"/>
        <rect stroke="#fff" fill="#8C8C8C" x="8.5" y="15.5" width="12" height="5"/>
        <path fill="#d8d8d8" d="M12.125,23 L12.125,26 L8.875,26 L8.875,23 L12.125,23 Z M17,23 L17,26 L13.75,26 L13.75,23 L17,23 Z M7.25,23 L7.25,26 L4,26 L4,23 L7.25,23 Z"/>
        <rect fill="#59f" x="4" y="23" width="3.25" height="3"/>
    </g>
</svg>
