<svg width="32" height="32" xmlns="http://www.w3.org/2000/svg">
  <g fill="none" fill-rule="evenodd">
    <path fill="#FFF" d="M0 0h32v32H0z"/>
    <path d="M0 0v32h32V0H0zm2 2h28v28H2V2z" fill="#999"/>
    <g fill-rule="nonzero">
      <path d="M16.03 22.83c-1.37-.39-2.328-.926-3.28-1.293-.092-.3-.31-.83-.362-2.049.656-.66 1.125-1.593 1.125-2.344v-1.788c0-1.3-1.056-2.356-2.438-2.356h-.65c-1.3 0-2.438 1.056-2.438 2.356v1.787c0 .758.475 1.7 1.14 2.361-.022 1.198-.248 1.725-.354 2.024-.962.367-1.923.909-3.304 1.303 0 0-1.137.65-1.219 3.169h13c-.08-2.6-1.22-3.17-1.22-3.17z" fill="#FFC857"/>
      <path d="M16.031 22.458c-1.372-.438-2.328-1.037-3.283-1.448.058.211.068.318-.049.449-.975 1.18-3.005 1.09-3.9 0-.118-.133-.095-.241-.024-.459-.962.41-1.924 1.015-3.306 1.458 0 0-1.137.726-1.219 3.542h13c-.08-2.906-1.219-3.542-1.219-3.542z" fill="#59F"/>
      <g>
        <path d="M16.75 17.5l-1.2-1.5 1.2-1.5v-7h10v10h-10zm11-11h-12v7.931l-1.243 1.576 1.841 2.493H27.75v-12z" fill="#999"/>
        <path d="M25.5 14.455v1.363H18v-1.363h7.5zm0-2.728v1.364H18v-1.364h7.5zM25.5 9v1.364H18V9h7.5z" fill="#B6B6B6"/>
      </g>
    </g>
  </g>
</svg>
