<svg width="32" height="32" viewBox="0 0 32 32" xmlns="http://www.w3.org/2000/svg">
  <g fill="none" fill-rule="evenodd">
    <path fill="#fff" d="M0 0h32v32H0z"/>
    <path fill="#fbb900" d="M0 0v32h32V0H0zm2 2h28v28H2V2z"/>
    <path fill="#474b51" d="M2 2h28v28H2z"/>
    <path fill="#fbb900" d="M20 19v5h-8v-5h8zm8 0v5h-7v-5h7zm-17 0v5H4v-5h7zm17-7v5h-7v-5h7zm-17 0v5H4v-5h7zm9-7v5h-8V5h8zm8 0v5h-7V5h7zM11 5v5H4V5h7z"/>
    <path  fill="#fff" d="M15.535 21.312l.77.808.42-.39 1.342 1.259L14 23l1.535-1.688zm8 0l.77.808.42-.39 1.342 1.259L22 23l1.535-1.688zm-17 0l.77.808.42-.39 1.342 1.259L5 23l1.535-1.688zM18.287 20a.71.71 0 0 1 .713.706.71.71 0 0 1-.713.706.71.71 0 0 1-.714-.706c0-.39.32-.706.714-.706zm8 0a.71.71 0 0 1 .713.706.71.71 0 0 1-.713.706.71.71 0 0 1-.714-.706c0-.39.32-.706.714-.706zm-17 0a.71.71 0 0 1 .713.706.71.71 0 0 1-.713.706.71.71 0 0 1-.714-.706c0-.39.32-.706.714-.706zm14.248-5.688l.77.808.42-.39 1.342 1.259L22 16l1.535-1.688zm-17 0l.77.808.42-.39 1.342 1.259L5 16l1.535-1.688zM26.287 13a.71.71 0 0 1 .713.706.71.71 0 0 1-.713.706.71.71 0 0 1-.714-.706c0-.39.32-.706.714-.706zm-17 0a.71.71 0 0 1 .713.706.71.71 0 0 1-.713.706.71.71 0 0 1-.714-.706c0-.39.32-.706.714-.706zm6.248-5.688l.77.808.42-.39 1.342 1.259L14 9l1.535-1.688zm8 0l.77.808.42-.39 1.342 1.259L22 9l1.535-1.688zm-17 0l.77.808.42-.39 1.342 1.259L5 9l1.535-1.688zM18.287 6a.71.71 0 0 1 .713.706.71.71 0 0 1-.713.706.71.71 0 0 1-.714-.706c0-.39.32-.706.714-.706zm8 0a.71.71 0 0 1 .713.706.71.71 0 0 1-.713.706.71.71 0 0 1-.714-.706c0-.39.32-.706.714-.706zm-17 0a.71.71 0 0 1 .713.706.71.71 0 0 1-.713.706.71.71 0 0 1-.714-.706c0-.39.32-.706.714-.706z"/>
    <path fill="#dbdbdb" d="M12 12h8v5h-8z"/>
    <path fill="#474b51" d="M19 15v1h-6v-1h6zm0-2v1h-6v-1h6z"/>
  </g>
</svg>
