<svg width="32" height="32" viewBox="0 0 32 32" xmlns="http://www.w3.org/2000/svg">
  <g fill="none" fill-rule="evenodd">
    <path fill="#fff" d="M0 0h32v32H0z"/>
    <path fill="#fbb900" d="M0 0v32h32V0H0zm2 2h28v28H2V2z"/>
    <path fill="#5d5d5d" d="M2 2h28v16H2z"/>
    <path fill="#989898" d="M21.764 10.624l1.384 1.617.758-.783 2.415 2.52L19 14l2.764-3.376zM26.716 8C27.426 8 28 8.632 28 9.412c0 .78-.575 1.412-1.284 1.412-.71 0-1.284-.632-1.284-1.412 0-.78.575-1.412 1.284-1.412z"/>
    <path fill="#fbb900" d="M4 5h12v2H4z"/>
    <path fill="#fff" d="M16 13v1H5v-1h11zm0-2v1H5v-1h11zm0-2v1H5V9h11z"/>
    <path fill="#a6a6a6" d="M2 18h28v12H2z"/>
    <path fill="#b10000" d="M16 19l3 5h-6l3-5zm14-1v1H2v-1h28z"/>
  </g>
</svg>
