<svg width="32" height="32" xmlns="http://www.w3.org/2000/svg">
  <g fill="none" fill-rule="evenodd">
    <path fill="#FFF" d="M0 0h32v32H0z"/>
    <path d="M0 0v32h32V0H0zm2 2h28v28H2V2z" fill="#999"/>
    <path d="M10.5 18v3h-4v-3h4zm5 0v3h-4v-3h4zm5 0v3h-4v-3h4zm5 0v3h-4v-3h4zm-15-4v3h-4v-3h4zm5 0v3h-4v-3h4zm5 0v3h-4v-3h4zm5 0v3h-4v-3h4z" fill="#59F"/>
    <path fill="#B9B9B9" d="M4 10.4h24V12H4z"/>
    <path fill="#666" d="M4 4.4h24V8H4z"/>
    <path d="M11 23v5l-4-2.5 4-2.5zm10 0l4 2.5-4 2.5v-5z" fill="#FF8700"/>
  </g>
</svg>
