<svg width="16" height="16" xmlns="http://www.w3.org/2000/svg">
  <g fill="none" fill-rule="nonzero">
    <path fill="#5BA34F" d="M2 0v16h12V4l-4-4z"/>
    <path fill="#333" opacity=".5" d="M5 14v-1h8v1z"/>
    <path fill="#FFF" d="M5 13V3h5v1h3v9z"/>
    <path fill="#333" d="M13 5H7v2h6z"/>
    <path fill="#B9B9B9" d="M13 8H7v1h6zM13 10H7v1h6z"/>
    <path fill="#FFF" opacity=".25" d="M10 4V0l4 4z"/>
    <path fill="#000" opacity=".2" d="M13 5v5L9 5z"/>
    <path d="M2 0v16h12V4l-4-4H2zm1 1h6v4h4v10H3V1zm7 .4L12.6 4H10V1.4z" fill="#4A8741"/>
  </g>
</svg>
