<svg width="32" height="32" viewBox="0 0 32 32" xmlns="http://www.w3.org/2000/svg">
  <path fill="#fff" d="M0 0h32v32H0z"/>
  <path fill="#999" d="M0 0v32h32V0H0zm2 2h28v28H2V2z"/>
  <path fill="#efefef" d="M6,6 L26,6 L26,12 L6,12 L6,6 Z M6,20 L26,20 L26,26 L6,26 L6,20 Z M6,13 L26,13 L26,19 L6,19 L6,13 Z"/>
  <path fill="#ff8700" d="M23.4500066,10.4999669 L22.5500597,10.5 L22.5500265,9.44999503 L21.5,9.44999503 L21.5000663,8.55000497 L22.5500265,8.55000497 L22.5500597,7.5 L23.4499735,7.5 L23.4500066,8.55000497 L24.5,8.55 L24.5,9.44996188 L23.4500066,9.44999503 L23.4500066,10.4999669 Z M23.4500066,24.4999669 L22.5500597,24.5 L22.5500265,23.449995 L21.5,23.449995 L21.5000663,22.550005 L22.5500265,22.550005 L22.5500597,21.5 L23.4499735,21.5 L23.4500066,22.550005 L24.5,22.55 L24.5,23.4499619 L23.4500066,23.449995 L23.4500066,24.4999669 Z M23.4500066,17.4999669 L22.5500597,17.5 L22.5500265,16.449995 L21.5,16.449995 L21.5000663,15.550005 L22.5500265,15.550005 L22.5500597,14.5 L23.4499735,14.5 L23.4500066,15.550005 L24.5,15.55 L24.5,16.4499619 L23.4500066,16.449995 L23.4500066,17.4999669 Z" />
  <path fill="#b9b9b9" d="M8,8 L19,8 L19,10 L8,10 L8,8 Z M8,22 L19,22 L19,24 L8,24 L8,22 Z M8,15 L19,15 L19,17 L8,17 L8,15 Z"/>
</svg>
