<svg width="32" height="32" viewBox="0 0 32 32" xmlns="http://www.w3.org/2000/svg">
  <path fill="#fff" d="M0 0h32v32H0z"/>
  <path fill="#999" d="M0 0v32h32V0H0zm2 2h28v28H2V2z"/>
  <path fill="#8c8c8c" d="M25,6 L25,27 L10,27 L10,6 L25,6 Z M8.5,24 L8.5,27 L7,27 L7,24 L8.5,24 Z M8.5,19.5 L8.5,22.5 L7,22.5 L7,19.5 L8.5,19.5 Z M8.5,15 L8.5,18 L7,18 L7,15 L8.5,15 Z M8.5,10.5 L8.5,13.5 L7,13.5 L7,10.5 L8.5,10.5 Z M8.5,6 L8.5,9 L7,9 L7,6 L8.5,6 Z"/>
  <path fill="#fff" d="M21.156,18.806 C20.207,18.535 19.544,18.164 18.884,17.91 C18.821,17.703 18.67,17.336 18.634,16.492 C19.088,16.035 19.413,15.389 19.413,14.869 L19.413,13.631 C19.413,12.731 18.682,12 17.725,12 L17.275,12 C16.375,12 15.587,12.731 15.587,13.631 L15.587,14.868 C15.587,15.393 15.916,16.045 16.376,16.503 C16.361,17.332 16.205,17.697 16.131,17.904 C15.465,18.158 14.8,18.533 13.844,18.806 C13.844,18.806 13.057,19.256 13,21 L22,21 C21.944,19.2 21.156,18.806 21.156,18.806 L21.156,18.806 Z"/>
</svg>
