<svg width="32" height="32" viewBox="0 0 32 32" xmlns="http://www.w3.org/2000/svg">
  <path fill="#fff" d="M0 0h32v32H0z"/>
  <path fill="#999" d="M0 0v32h32V0H0zm2 2h28v28H2V2z"/>
  <path fill="#b9b9b9" d="M8.96 13.46l2.5 3.536-2.5 3.535-2.5-3.535z"/>
  <path fill="#b9b9b9" d="M4.5 7.5h17v10h-17z"/>
  <path fill="#b9b9b9" d="M12.5 14.5h16v10h-16z"/>
  <path fill="#b9b9b9" d="M24 20.5l2.5 3.536L24 27.57l-2.5-3.535z"/>
  <path fill="#c76701" d="M8.464 12.964l2.5 3.536-2.5 3.536-2.5-3.536z"/>
  <path fill="#c76701" d="M4 7h17v10H4z"/>
  <path fill="#ff8700" d="M12 14h16v10H12z"/>
  <path fill="#ff8700" d="M23.5 20l2.5 3.536-2.5 3.535-2.5-3.535z"/>
</svg>
