<svg width="32" height="32" viewBox="0 0 32 32" xmlns="http://www.w3.org/2000/svg">
  <path fill="#fff" d="M0 0h32v32H0z"/>
  <path fill="#999" d="M0 0v32h32V0H0zm2 2h28v28H2V2z"/>
  <path fill="#ff8700" d="M12.0132014,5.50005159 L12.0132015,9.5097779 L20.025,9.50905159 L20.0255872,9.50855951 L20.028,9.50805159 L20.0286103,5.50005159 L24.0313932,5.50005159 L24.031,9.50805159 L20.028,9.50805159 L20.0286103,9.5097779 L20.025,9.50905159 L20.0255872,11.5119265 L24.0323212,11.5119265 L24.032,9.50905159 L24.0313932,9.5097779 L24.031,9.50805159 L24.0323212,9.50855951 L24.032,9.50905159 L26.0353624,9.5097779 L26.0353624,25.5374812 L6,25.5374812 L6,9.5097779 L8.005,9.50905159 L8.00538517,9.50855951 L8.007,9.50805159 L8.00741223,5.50005159 L12.0132014,5.50005159 Z M24.0323212,13.5152935 L8.00538517,13.5152935 L8.00538517,23.5321285 L24.0323212,23.5321285 L24.0323212,13.5152935 Z M12.0121192,9.50855951 L8.007,9.50805159 L8.00741223,9.5097779 L8.005,9.50905159 L8.00538517,11.5119265 L12.0121192,11.5119265 L12.0121192,9.50855951 Z"/>
  <path fill="#515151" d="M19.5443751,15.9905766 L19.5443751,16.8427901 L17.4560998,16.8427901 L17.2729795,17.9591194 C17.4279282,17.858168 17.5488333,17.7912594 17.6356985,17.7583915 C17.7812564,17.7043942 17.9585056,17.677396 18.1674516,17.677396 C18.5900389,17.677396 18.9586235,17.8194301 19.2732163,18.1035027 C19.587809,18.3875753 19.7451031,18.8007656 19.7451031,19.3430861 C19.7451031,19.8149752 19.5936782,20.2363824 19.290824,20.6073202 C18.9879697,20.978258 18.534869,21.1637241 17.9315082,21.1637241 C17.4455327,21.1637241 17.0464284,21.0334283 16.7341833,20.7728327 C16.4219383,20.5122372 16.2482105,20.1424788 16.2129949,19.6635465 L17.2131133,19.6635465 C17.2530243,19.8818833 17.3293236,20.0503288 17.4420136,20.168888 C17.5547036,20.2874472 17.7190406,20.346726 17.9350297,20.346726 C18.1838867,20.346726 18.3734612,20.2592752 18.503759,20.084371 C18.6340567,19.9094668 18.6992047,19.6893725 18.6992047,19.4240816 C18.6992047,19.163486 18.6381652,18.9433918 18.5160844,18.7637921 C18.3940036,18.5841925 18.2038421,18.4943941 17.9455943,18.4943941 C17.8235135,18.4943941 17.7178683,18.5096539 17.6286554,18.5401741 C17.471359,18.5965191 17.3528016,18.7009905 17.2729795,18.8535915 L16.3714644,18.811333 L16.7306618,15.9905766 L19.5443751,15.9905766 Z M13.9556855,15.8990165 C14.4956582,15.8990165 14.9252822,16.0486806 15.2445704,16.3480133 C15.5638586,16.647346 15.7235004,17.0435156 15.7235004,17.5365342 C15.7235004,17.9145151 15.6108121,18.2502322 15.3854322,18.5436957 C15.2375266,18.7385554 14.9945425,18.9557151 14.6564727,19.1951812 L14.2550167,19.4804263 C14.003812,19.658852 13.831845,19.787974 13.7391106,19.867796 C13.6463761,19.9476181 13.568316,20.0403511 13.5049279,20.145998 L15.734065,20.145998 L15.734065,21.0299054 L12.2371722,21.0299054 C12.2465631,20.6636631 12.3252101,20.3291198 12.4731157,20.0262655 C12.6163258,19.6858479 12.9543906,19.3254802 13.4873202,18.9451516 C13.9498186,18.6141249 14.2491468,18.37701 14.3853138,18.2337998 C14.5942598,18.0107676 14.6987312,17.7666097 14.6987312,17.5013188 C14.6987312,17.2853297 14.6388655,17.1057328 14.5191325,16.9625226 C14.3993994,16.8193125 14.2280193,16.7477085 14.0049871,16.7477085 C13.6997851,16.7477085 13.4920161,16.8615706 13.3816739,17.0892982 C13.3182858,17.2207698 13.280723,17.4297126 13.2689845,17.7161329 L12.2935169,17.7161329 C12.3099509,17.2818071 12.3885979,16.9308301 12.5294604,16.6631914 C12.797099,16.1537389 13.2725026,15.8990165 13.9556855,15.8990165 Z"/>
</svg>
