<svg width="32" height="32" viewBox="0 0 32 32" xmlns="http://www.w3.org/2000/svg">
  <path fill="#fff" d="M0 0h32v32H0z"/>
  <path fill="#999" d="M0 0v32h32V0H0zm2 2h28v28H2V2z"/>
  <polygon fill="#8c8c8c" points="6 25.9999841 6 21.9993937 7.00200228 21.9993937 7.00200228 14.9988095 15.001013 14.9988095 15.001013 9.99984996 14.0007316 9.99984996 14.0007316 6 18.0002703 6 18.0002703 9.99985002 17.0009288 9.99985002 17.0009288 14.9988092 24.9984737 14.9988092 24.9984737 21.9993942 26 21.9993942 26 25.9999841 21.9997473 25.9999841 21.9997473 21.9993942 22.9983122 21.9993942 22.9983122 16.9999151 17.0009288 16.9999151 17.0009288 21.9993942 18.0002703 21.9993942 18.0002703 25.9999841 14.0007316 25.9999841 14.0007316 21.9993942 15.001013 21.9993942 15.001013 16.9999151 8.99893994 16.9999151 8.99893994 21.9993942 10.0008813 21.9993942 10.0008813 25.9999841"/>
</svg>
