<svg width="32" height="32" viewBox="0 0 32 32" xmlns="http://www.w3.org/2000/svg">
  <path fill="#fff" d="M0 0h32v32H0z"/>
  <path fill="#999" d="M0 0v32h32V0H0zm2 2h28v28H2V2z"/>
  <path fill="#ffc857" d="M12.8,19.6c1.4,1.5,4.7,1.7,6.3,0c0.1-0.1,0.2-0.3,0.1-0.4c-0.1,0-0.1-0.1-0.2-0.1c-0.1-0.5-0.5-1.3-0.6-3.2 c1-1,1.7-2.5,1.7-3.6V9.6c0-2-1.6-3.6-3.8-3.6h-1c-2,0-3.8,1.6-3.8,3.6v2.7c0,1.2,0.7,2.6,1.8,3.6c0,1.8-0.4,2.7-0.5,3.1 c-0.1,0-0.1,0.1-0.2,0.1C12.7,19.4,12.7,19.5,12.8,19.6z"/>
  <path fill="#59f" d="M24.1,21.1c-2-0.6-3.4-1.3-4.8-1.9c0,0.2,0,0.3-0.1,0.4c-1.6,1.7-4.9,1.5-6.3,0c-0.1-0.1-0.2-0.3-0.1-0.4 c-1.4,0.6-2.8,1.3-4.9,1.9c0,0-1.7,1-1.9,4.9h20C25.9,22,24.1,21.1,24.1,21.1z"/>
</svg>
