<svg width="32" height="32" viewBox="0 0 32 32" xmlns="http://www.w3.org/2000/svg">
  <path fill="#fff" d="M0 0h32v32H0z"/>
  <path fill="#999" d="M0 0v32h32V0H0zm2 2h28v28H2V2z"/>
  <path fill="#ffc857" d="M17.9280432,15.2364903 C17.6402965,14.578245 17.268,14.372 17.268,14.372 L17.267,14.372 C16.152,14.064 15.375,13.642 14.597,13.355 C14.512,13.121 14.33,12.71 14.311,11.775 C14.851,11.258 15.236,10.522 15.236,9.93 L15.236,8.534 C15.236,7.518 14.316,6.692 13.266,6.692 L12.74,6.692 C11.69,6.692 10.77,7.518 10.77,8.534 L10.77,9.93 C10.77,10.522 11.155,11.258 11.69,11.774 C11.674,12.71 11.49,13.121 11.405,13.354 C10.628,13.641 9.851,14.064 8.735,14.372 C8.735,14.372 7.818,14.88 7.753,16.846 L7.753,23.616 L14.753,23.616 L14.753,25.308 L25.253,25.308 L25.253,18.538 C25.183,16.572 24.267,16.064 24.267,16.064 L24.267,16.064 C23.152,15.756 22.375,15.334 21.597,15.047 C21.512,14.814 21.33,14.402 21.311,13.467 C21.851,12.95 22.236,12.214 22.236,11.622 L22.236,10.226 C22.236,9.21 21.316,8.386 20.266,8.386 L19.74,8.386 C18.69,8.386 17.77,9.21 17.77,10.226 L17.77,11.622 C17.77,12.214 18.155,12.95 18.69,13.467 C18.674,14.402 18.49,14.814 18.405,15.047 C18.2469652,15.1051698 18.0889303,15.1690484 17.9280432,15.2364903 Z"></path>
  <path fill="#7f0010" d="M24.267,16.064 C23.159,15.758 22.385,15.34 21.615,15.052 C21.663,15.2 21.67,15.274 21.577,15.365 C20.789,16.191 19.147,16.127 18.427,15.365 C18.33,15.272 18.35,15.198 18.407,15.045 C17.63,15.332 16.853,15.755 15.737,16.065 C15.737,16.065 14.817,16.572 14.753,18.538 L14.753,25.308 L25.253,25.308 L25.253,18.538 C25.183,16.508 24.266,16.064 24.266,16.064 L24.267,16.064 Z"></path>
  <path fill="#d0021b" d="M14.615,13.36 C14.662,13.507 14.669,13.582 14.577,13.673 C13.789,14.499 12.147,14.435 11.427,13.673 C11.331,13.58 11.35,13.506 11.407,13.353 C10.63,13.639 9.853,14.063 8.737,14.373 C8.737,14.373 7.817,14.88 7.753,16.846 L7.753,23.616 L18.253,23.616 L18.253,16.846 C18.183,14.816 17.266,14.372 17.266,14.372 C16.159,14.066 15.386,13.648 14.616,13.36 L14.615,13.36 Z"></path>
</svg>
