<svg width="32" height="32" viewBox="0 0 32 32" xmlns="http://www.w3.org/2000/svg">
  <path fill="#fff" d="M0 0h32v32H0z"/>
  <path fill="#999" d="M0 0v32h32V0H0zm2 2h28v28H2V2z"/>
  <path fill="#b9b9b9" d="M28,20.8 L28,25.6 L13.6,25.6 L13.6,28 L11.2,28 L11.2,23.2 L25.6,23.2 L25.6,20.8 L28,20.8 Z M13.6,18.4 L13.6,20.8 L11.2,20.8 L11.2,18.4 L13.6,18.4 Z M18.4,18.4 L18.4,20.8 L16,20.8 L16,18.4 L18.4,18.4 Z"></path>
  <path fill="#79a548" d="M14.8,5.8 L14.8,16.6 L4,16.6 L4,5.8 L14.8,5.8 Z M28,5.8 L28,16.6 L17.2,16.6 L17.2,5.8 L28,5.8 Z"/>
  <path fill="#fff" d="M13.6,10.2879997 L13.6,12.1359997 L5.2,12.1359997 L5.2,10.2879997 L13.6,10.2879997 Z M26.8,10.2879997 L26.8,12.1359997 L18.4,12.1359997 L18.4,10.2879997 L26.8,10.2879997 Z"/>
</svg>
