<svg width="32" height="32" viewBox="0 0 32 32" xmlns="http://www.w3.org/2000/svg">
  <path fill="#fff" d="M0 0h32v32H0z"/>
  <path fill="#999" d="M0 0v32h32V0H0zm2 2h28v28H2V2z"/>
  <path fill="#8c8c8c" d="M24.6698506,6 L24.6698506,25.763074 L8.8641284,25.763074 L8.8641284,19.854977 L10.838484,21.810385 L10.838484,23.7968112 L22.6875675,23.7968112 L22.6875675,7.97020459 L10.838484,7.97020459 L10.838484,9.95629272 L8.8641284,11.9271114 L8.8641284,6.00000003 L24.6698506,6 Z M12.9327658,9.93245054 L18.8629137,15.8625984 L12.9301479,21.7953642 L11.4468338,20.3120502 L14.4132167,17.3456673 L8.47965373,17.3448701 L7,15.8652163 L8.48199858,14.3832178 L14.4151981,14.3799534 L11.4502305,11.4149858 L12.9327658,9.93245054 Z"/>
</svg>
