<svg width="32" height="32" viewBox="0 0 32 32" xmlns="http://www.w3.org/2000/svg">
  <path fill="#fff" d="M0 0h32v32H0z"/>
  <path fill="#999" d="M0 0v32h32V0H0zm2 2h28v28H2V2z"/>
  <circle fill="#59f" fill-rule="nonzero" cx="16.5" cy="16.5" r="11.5"/>
  <path fill="#aad400" fill-rule="nonzero" d="M26.5 15.563a10.158 10.158 0 0 0-5.074-7.91c-.131.14-.167.059-.167.199-.397.14-.925-.14-1.321-.28a4.587 4.587 0 0 0-3.037-.14c-.397.14-1.32.28-.925 1.12.264.421.923.84 1.585.281.263-.28.53-.7.923-.28.133.141.133.281.133.421-.133.419-.53.56-.925.56-.53.14-1.059 0-1.586.14-.53.14-1.32.28-1.32.982 0 .837-.265.978-.927 1.118-.53 0-.791.28-.53.84.134.419.53.419.795.28 1.056-.56 1.981-1.96 3.169-.28l.263-.14c.265-1.12.53-.418.793 0l.397.419c1.584-1.539 1.188.701 1.717 1.12-1.059-.28-2.247.84-3.17.14-1.584-1.259-2.64-.699-4.093.56-1.188.981-1.453 2.24-1.188 3.36.395 1.4 1.846 1.54 3.037 1.26.395-.142 1.188-.142 1.188.138-.265 1.26 1.188 2.1.658 3.499-.395 1.12.266 2.52 1.188 2.94.926.418 1.717-.7 2.115-1.68.132-.14 0-.419.132-.56 1.056-1.4.925-3.499 2.244-4.899.397-.418 1.718-1.958.659-3.218 2.51-.7 1.588 1.818 2.115 2.94.395-.84.658-1.68.923-2.382.132-.418.229-.548.229-.548zM12.152 8.104c.415-.442.434-.514.85-1.104a9.623 9.623 0 0 0-2.752 1.586l.24.256h1.25s.139 0 .139-.145l.138-.148s.14 0 .14-.148l.137-.147.138-.148c-.415.295-.415.148-.277 0 0 .148 0 .148 0 0 0 .148 0 0 0 0l-.003-.002zM10.317 21.73s-.137-.133 0 0c-.137-.133-.137-.133 0 0v-.399l-.137-.133c-.136 0-.136-.134-.272-.134s-.272-.134-.41-.134h-.273s-.136 0-.136-.133c-.956-.534-1.364-1.465-1.637-2.528 0-.267-.136-.534-.136-.8-.135-.134-.135-.267-.272-.401-.272-.266-.135-.798.137-1.33v-.266c0-.135 0-.135.136-.267 0-.13 0-.13.138-.265.272-.534.818-.932 1.09-1.332.136-.132.136-.132.136-.265v-.133c.136-.133.136-.4.272-.534 0-.13.138-.398.138-.531 0-.267 0-.4-.138-.664-.137-.401-.22-.748-.492-1.015C7.233 12.197 6.5 14.14 6.5 16.401c0 3.065 1.292 5.782 3.455 7.684 0 0 .087.038.087-.092v-.136c0-.132.136-.132.136-.265.138-.534.138-1.33.138-1.862l.001-.001z"/>
  <path fill="#000" fill-rule="nonzero" opacity=".2" d="M16.5 28C10.16 28 5 22.84 5 16.5S10.16 5 16.5 5 28 10.16 28 16.5 22.84 28 16.5 28zm0-21.563c-5.549 0-10.063 4.514-10.063 10.063 0 5.547 4.514 10.063 10.063 10.063 5.547 0 10.063-4.516 10.063-10.063 0-5.549-4.516-10.063-10.063-10.063z"/>
</svg>
