<svg width="32" height="32" viewBox="0 0 32 32" xmlns="http://www.w3.org/2000/svg">
  <path fill="#fff" d="M0,0h32v32H0V0z"/>
  <path fill="#999" d="M0,0v32h32V0H0z M2,2h28v28H2V2z"/>
  <path fill="#8c8c8c" d="M23.9552,5.52485714 C24.2112,5.627 23.8288,6.76 23.8288,6.76 L22.296,7.398 L20.4304,8.07057143 L19.768,9.90757143 L20.2512,12.1782857 L22.5136,12.689 L24.6224,12.0258571 L25.2,10.1998571 L25.7296,8.69128571 C25.7296,8.69128571 26.8976,8.234 26.9984,8.465 C27.8576,10.4622857 27.4576,12.8571429 25.8,14.4867143 C24.1448287,16.112329 21.7048604,16.5023307 19.6710194,15.6560294 L19.672,15.6558571 L9.6608,25.4898571 L9.6608,25.4898571 C8.8432,26.2928571 7.5184,26.2928571 6.6992,25.4898571 C5.88,24.6868571 5.88,23.3841429 6.6992,22.5811429 L16.7104504,12.751335 C15.8471034,10.7542014 16.2449533,8.35679769 17.904,6.72857143 C19.5408,5.12257143 21.9376,4.72028571 23.9552,5.52485714 Z"/>
</svg>
