<svg width="32" height="32" viewBox="0 0 32 32" xmlns="http://www.w3.org/2000/svg">
  <path fill="#fff" d="M0 0h32v32H0z"/>
  <path fill="#999" d="M0 0v32h32V0H0zm2 2h28v28H2V2z"/>
  <path fill="#c83c3c" d="M15.599 5a3.41 3.41 0 0 0-3.1 1.964A3.408 3.408 0 0 0 9.403 5C7.526 5 6 6.5 6 8.342c0 .389.068.761.193 1.109a3.328 3.328 0 0 0 1.011 1.44l5.189 5.062a.166.166 0 0 0 .232 0l5.38-5.252c.349-.344.623-.76.794-1.226.13-.354.201-.735.201-1.133C19 6.499 17.474 5 15.599 5z"/>
  <path fill="#c76701" d="M10.5 27h5v-7h-5z"/>
  <path fill="#ff8700" d="M25.595 21.441l-.254.027c1.072.32.718 1.758-.051 1.843l-.192.003c1.03.274.692 1.775-.113 1.867l-.229-.009c.842.145.827 1.825-.445 1.825L17.97 27c-.446 0-.853-.537-1.183-.537H16.5v-5.18c.356-.235.796-.536 1.041-.753.462-.415 2.258-2.821 2.354-4.026.042-.53-.118-1.902-.017-2.166.102-.263.938-.543 1.366-.123.428.419.58 1.595.58 2.481 0 .886-.315 2.25-.483 2.957h4.392c1.08.003 1.005 1.771-.138 1.788"/>
</svg>
