<svg width="32" height="32" viewBox="0 0 32 32" xmlns="http://www.w3.org/2000/svg">
  <path fill="#fff" d="M0,0h32v32H0V0z"/>
  <path fill="#999" d="M0,0v32h32V0H0z M2,2h28v28H2V2z"/>
  <path fill="#e8a33d" d="M25.4,23.4L21.2,19c-0.6,0.9-1.3,1.7-2.2,2.3l4.2,4.2c0.3,0.3,0.7,0.5,1.2,0.5c0.9,0,1.6-0.8,1.6-1.7 C25.9,24,25.7,23.7,25.4,23.4z"/>
  <circle fill="#abd7ff" cx="14.5" cy="14.5" r="8.5"/>
  <path fill="#59f" d="M14.5,8.1c3.5,0,6.4,2.8,6.4,6.4s-2.8,6.4-6.4,6.4S8.1,18,8.1,14.5S11,8.1,14.5,8.1L14.5,8.1z M14.5,6 C9.8,6,6,9.8,6,14.5S9.8,23,14.5,23s8.5-3.8,8.5-8.5S19.2,6,14.5,6L14.5,6z"/>
  <circle fill="#fff" cx="17.5" cy="13.5" r="2.5"/>
</svg>
