<svg width="32" height="32" viewBox="0 0 32 32" xmlns="http://www.w3.org/2000/svg">
  <path fill="#fff" d="M0,0h32v32H0V0z"/>
  <path fill="#999" d="M0,0v32h32V0H0z M2,2h28v28H2V2z"/>
  <path fill="#979797" d="M24,4h-2v1h2V4L24,4z M20,4h-2v1h2V4L20,4z M16,4h-2v1h2V4L16,4z M12,4h-2v1h2V4L12,4z M8,4H6v1h2V4L8,4z M5,4 H4v2h1V4L5,4z M5,8H4v2h1V8L5,8z M5,12H4v2h1V12L5,12z M7,14H5v1h2V14L7,14z M11,14H9v1h2V14L11,14z M15,14h-2v1h2V14L15,14z M19,14 h-2v1h2V14L19,14z M23,14h-2v1h2V14L23,14z M27,14h-2v1h2V14L27,14z M28,12h-1v2h1V12L28,12z M28,8h-1v2h1V8L28,8z M28,4h-2v1h1v1h1 V4L28,4z M26,17h-2v1h2V17L26,17z M22,17h-2v1h2V17L22,17z M18,17h-2v1h2V17L18,17z M14,17h-2v1h2V17L14,17z M10,17H8v1h2V17L10,17z M6,17H4v1h2V17L6,17z M5,19H4v2h1V19L5,19z M5,23H4v2h1V23L5,23z M5,27H4l0,0l0,0l0,0l0,0l0,0v1h1l0,0l0,0l0,0l0,0l0,0V27L5,27z M9,27H7v1h2V27L9,27z M13,27h-2v1h2V27L13,27z M17,27h-2v1h2V27L17,27z M21,27h-2v1h2V27L21,27z M25,27h-2v1h2V27L25,27z M28,27h-1 l0,0l0,0v1h1V27L28,27z M28,23h-1v2h1V23L28,23z M28,19h-1v2h1V19L28,19z"/>
</svg>
