<svg xmlns="http://www.w3.org/2000/svg" viewBox="0 0 541.7 147" width="541.7" height="147">
  <path fill="#000" d="M221.1 42.8c0 2.3-.1 4.5-.3 6.6-.2 2.1-.6 3.9-1.2 5.6-.6 1.6-1.5 2.9-2.7 3.8-1.2.9-2.7 1.4-4.7 1.4-.5 0-1-.1-1.6-.2-.6-.2-1.2-.4-1.7-.8-.5-.3-1-.8-1.5-1.4-.4-.6-.7-1.3-.9-2.2-.6.8-1.5 1.5-2.7 2-1.3.5-2.7.8-4.5.8-1 0-1.9-.1-2.9-.4-1-.3-1.8-.8-2.6-1.7-.8-.8-1.4-2-1.9-3.5s-.7-3.5-.7-6c0-2.6.3-4.8 1-6.4s1.6-2.9 2.7-3.9c1.1-.9 2.5-1.6 4.1-1.9 1.6-.3 3.2-.5 5-.5.9 0 2 .1 3.1.3 1.1.2 2.2.4 3.1.6v18.8c0 .6.2 1.2.6 1.7.4.5.9.8 1.7.8.8 0 1.5-.3 1.9-.9.5-.6.8-1.5 1.1-2.7.3-1.2.4-2.6.5-4.2.1-1.6.1-3.5.1-5.6 0-3-.2-5.4-.5-7.3-.3-1.9-1-3.3-2.1-4.4-1-1-2.5-1.7-4.4-2.1-1.9-.4-4.4-.5-7.6-.5-3 0-5.5.3-7.4.8-1.9.5-3.4 1.5-4.5 2.8-1.1 1.3-1.8 3.2-2.2 5.4-.4 2.3-.6 5.2-.6 8.7 0 3.1.2 5.8.5 8s1 3.9 2 5.3 2.5 2.3 4.4 3c1.9.6 4.4.9 7.5.9.7 0 1.6 0 2.5-.1s1.9-.1 2.8-.2c.9-.1 1.8-.2 2.5-.2.8-.1 1.4-.1 1.8-.2V67c-.5.1-1.2.2-2 .2s-1.6.2-2.5.2c-.9.1-1.8.1-2.7.2-.9 0-1.7.1-2.4.1-3.9 0-7.1-.4-9.6-1.2-2.5-.8-4.5-2-6-3.7-1.5-1.7-2.5-3.9-3-6.6-.5-2.7-.8-6-.8-9.9 0-4.3.3-7.9 1-10.7.7-2.8 1.8-5.1 3.4-6.8 1.6-1.7 3.6-2.9 6.1-3.6 2.5-.7 5.6-1 9.2-1 3.6 0 6.6.2 9.1.7s4.5 1.4 6.1 2.8c1.5 1.4 2.7 3.3 3.4 5.7.6 2.4 1 5.5 1 9.4zm-15.8-4.3c-.2-.1-.6-.2-1-.2-.4-.1-.8-.1-1.3-.1-.9 0-1.8.1-2.7.3-.9.2-1.6.6-2.3 1.2-.7.6-1.2 1.5-1.6 2.6-.4 1.1-.6 2.5-.6 4.3 0 1.6.1 2.9.3 4 .2 1 .5 1.8.9 2.3.4.5.9.9 1.4 1.1s1.2.3 1.9.3c.9 0 1.6-.1 2.3-.4.6-.3 1.1-.6 1.5-1 .4-.4.6-.8.8-1.3.2-.5.2-1 .2-1.4V38.5zM252.7 50.1c0 3.3-.2 6.1-.7 8.4s-1.2 4.1-2.2 5.4c-1 1.4-2.3 2.3-4 2.9-1.6.6-3.7.9-6.1.9-1.1 0-2.1 0-2.9-.1-.8 0-1.6-.1-2.2-.2-.7-.1-1.3-.2-1.8-.2s-1.1-.2-1.7-.2V24.6h5.2V39c1.9-1.8 4.2-2.7 6.8-2.7 3.6 0 6.1 1.1 7.5 3.4 1.4 2.4 2.1 5.8 2.1 10.4zm-10.6-9.4c-.9 0-1.6.2-2.3.5-.7.3-1.3.8-1.8 1.3s-.9 1.1-1.2 1.7c-.3.6-.4 1.2-.4 1.7V63c.4.1 1 .1 1.6.2.7 0 1.4.1 2.4.1 1.5 0 2.7-.3 3.6-.8.9-.5 1.6-1.3 2.1-2.4.5-1.1.9-2.4 1.1-3.9.2-1.6.3-3.4.3-5.5 0-2-.1-3.6-.3-4.8-.2-1.3-.5-2.3-.9-3-.4-.8-1-1.3-1.6-1.6-.8-.4-1.6-.6-2.6-.6zM277.5 67.3l-.4-2.5c-.9.9-1.9 1.7-3 2.2-1.1.5-2.5.8-4 .8-1.7 0-3.1-.2-4.2-.7-1.1-.4-2-1.1-2.7-2s-1.1-2.1-1.4-3.4c-.3-1.4-.4-3-.4-4.9v-20h5.2v20.5c0 1 .1 1.8.2 2.6s.3 1.4.6 1.9.8.9 1.3 1.2c.6.3 1.3.4 2.3.4.9 0 1.6-.2 2.3-.5.7-.3 1.3-.7 1.8-1.2s.9-1 1.2-1.6c.3-.6.4-1.1.5-1.7V36.8h5.2v30.5h-4.5zM308.2 67.3l-.4-2.6c-.9.9-2 1.7-3.2 2.2-1.2.5-2.5.8-4.1.8-2 0-3.6-.3-4.8-.9-1.3-.6-2.3-1.5-3-2.7-.8-1.2-1.3-2.7-1.6-4.5-.3-1.8-.5-3.9-.5-6.3 0-6 1-10.4 3.1-13 2.1-2.7 5.5-4 10.2-4 .7 0 1.3 0 1.9.1.6 0 1.1.1 1.5.2v-12h5.2v42.7h-4.3zm-6.7-4c.9 0 1.8-.2 2.5-.5s1.3-.8 1.8-1.3.9-1.1 1.1-1.7c.2-.6.4-1.2.4-1.7V41c-.4-.1-1-.1-1.6-.2-.7 0-1.4-.1-2.4-.1-1.5 0-2.7.3-3.6.9-.9.6-1.7 1.4-2.3 2.6-.6 1.1-1 2.5-1.2 4.1-.2 1.6-.3 3.5-.3 5.6 0 1.8.1 3.3.3 4.5.2 1.2.6 2.2 1 2.9.4.7 1 1.2 1.7 1.5.8.4 1.6.5 2.6.5zM339 67.3l-.4-2.6c-.9.9-2 1.7-3.2 2.2-1.2.5-2.5.8-4.1.8-2 0-3.6-.3-4.8-.9-1.3-.6-2.3-1.5-3-2.7-.8-1.2-1.3-2.7-1.6-4.5-.3-1.8-.5-3.9-.5-6.3 0-6 1-10.4 3.1-13 2.1-2.7 5.5-4 10.2-4 .7 0 1.3 0 1.9.1.6 0 1.1.1 1.5.2v-12h5.2v42.7H339zm-6.7-4c.9 0 1.8-.2 2.5-.5s1.3-.8 1.8-1.3.9-1.1 1.1-1.7c.2-.6.4-1.2.4-1.7V41c-.4-.1-1-.1-1.6-.2-.7 0-1.4-.1-2.4-.1-1.5 0-2.7.3-3.6.9-.9.6-1.7 1.4-2.3 2.6-.6 1.1-1 2.5-1.2 4.1-.2 1.6-.3 3.5-.3 5.6 0 1.8.1 3.3.3 4.5.2 1.2.6 2.2 1 2.9.4.7 1 1.2 1.7 1.5.7.4 1.6.5 2.6.5zM357.3 53.9c0 2 .2 3.6.5 4.8.3 1.2.6 2.2 1.1 2.9.4.7 1 1.1 1.6 1.4.6.2 1.3.3 2.1.3 1.7 0 3.3-.1 4.7-.3 1.4-.2 2.6-.4 3.5-.6v4.4c-1 .3-2.2.5-3.7.7-1.5.2-2.8.3-3.9.3-1.7 0-3.3-.2-4.7-.5-1.4-.4-2.5-1.1-3.4-2.2-.9-1.1-1.6-2.7-2.1-4.7-.5-2.1-.7-4.8-.7-8.2 0-2.8.2-5.2.7-7.2.5-2 1.2-3.6 2.1-4.9.9-1.3 2.1-2.2 3.5-2.7 1.4-.6 3-.9 4.8-.9 3.5 0 6 1.1 7.5 3.4s2.3 5.5 2.3 9.5V54h-15.9zm5.8-13.2c-1 0-1.8.1-2.5.4-.7.3-1.3.8-1.7 1.5-.4.7-.8 1.6-1 2.8-.2 1.2-.4 2.6-.5 4.4H368v-1.6c0-2.3-.4-4.1-1.1-5.4-.7-1.5-2-2.1-3.8-2.1zM381.6 67.3V36.8h4.3l.4 2.7c2-2.1 4.5-3.2 7.5-3.2 1.7 0 3.2.2 4.4.6 1.2.4 2.1 1.1 2.8 2 .7.9 1.2 2 1.5 3.4.3 1.4.5 3 .5 4.8v20.1h-5.2V46.5c0-1.9-.3-3.4-.9-4.3-.6-1-2-1.5-4-1.5-.9 0-1.7.2-2.4.5-.8.3-1.4.8-2 1.3-.5.5-1 1.1-1.3 1.7-.3.6-.5 1.2-.5 1.7v21.4h-5.1zM434 50.1c0 3.3-.2 6.1-.7 8.4s-1.2 4.1-2.2 5.4c-1 1.4-2.3 2.3-4 2.9-1.6.6-3.7.9-6.1.9-1.1 0-2.1 0-2.9-.1-.8 0-1.6-.1-2.2-.2-.7-.1-1.3-.2-1.8-.2s-1.1-.2-1.7-.2V24.6h5.2V39c1.9-1.8 4.2-2.7 6.8-2.7 3.6 0 6.1 1.1 7.5 3.4 1.4 2.4 2.1 5.8 2.1 10.4zm-10.6-9.4c-.9 0-1.6.2-2.3.5-.7.3-1.3.8-1.8 1.3s-.9 1.1-1.2 1.7c-.3.6-.4 1.2-.4 1.7V63c.4.1 1 .1 1.6.2.7 0 1.4.1 2.4.1 1.5 0 2.7-.3 3.6-.8.9-.5 1.6-1.3 2.1-2.4.5-1.1.9-2.4 1.1-3.9.2-1.6.3-3.4.3-5.5 0-2-.1-3.6-.3-4.8-.2-1.3-.5-2.3-.9-3-.4-.8-1-1.3-1.6-1.6-.8-.4-1.6-.6-2.6-.6zM442.9 67.3V36.8h4.3l.4 3.1c.7-1.1 1.5-1.9 2.6-2.6 1-.6 2.3-1 3.8-1 .7 0 1.4 0 1.9.1s1 .1 1.3.2V42c-.5-.1-1.1-.2-1.8-.4-.7-.1-1.3-.2-1.9-.2-1 0-1.9.2-2.5.6-.7.4-1.2.9-1.6 1.6-.4.7-.7 1.4-.9 2.3-.2.8-.3 1.7-.3 2.5v18.8h-5.3zM484.8 51.4c0 3.2-.2 5.9-.7 8-.5 2.1-1.2 3.8-2.2 5-1 1.2-2.2 2.1-3.6 2.6s-3.1.7-5 .7-3.5-.2-5-.7c-1.4-.5-2.7-1.4-3.6-2.6-1-1.2-1.7-2.9-2.2-5-.5-2.1-.8-4.7-.8-8 0-5.2.9-9 2.8-11.4 1.9-2.4 4.8-3.6 8.8-3.6s6.9 1.2 8.8 3.6c1.8 2.4 2.7 6.2 2.7 11.4zm-5.3.9c0-2.2-.1-4-.3-5.5-.2-1.5-.5-2.7-1-3.6-.5-.9-1.1-1.6-1.9-2-.8-.4-1.8-.6-3.1-.6-1.2 0-2.2.2-3 .6-.8.4-1.5 1.1-1.9 2-.5.9-.8 2.1-1 3.6-.2 1.5-.3 3.3-.3 5.5 0 4 .5 6.8 1.4 8.5s2.6 2.6 4.9 2.6c2.3 0 3.9-.9 4.9-2.6s1.3-4.5 1.3-8.5zM510.1 66.7c-1 .3-2.1.5-3.2.7-1.2.2-2.3.3-3.4.3-1.7 0-3.3-.2-4.6-.6-1.3-.4-2.5-1.2-3.4-2.3-.9-1.2-1.6-2.8-2-4.9-.4-2.1-.7-5-.7-8.4 0-2.7.2-5 .6-7 .4-1.9 1.1-3.5 1.9-4.7.9-1.2 2-2.1 3.3-2.6 1.3-.5 2.9-.8 4.8-.8 1 0 2.2.1 3.4.3 1.3.2 2.4.4 3.3.6v4.5c-1.1-.2-2.2-.4-3.2-.6-1-.2-2.3-.2-3.8-.2-.9 0-1.6.2-2.3.5-.6.4-1.1 1-1.5 1.9s-.7 2.1-.9 3.6c-.2 1.5-.3 3.4-.3 5.6 0 2.3.1 4.1.3 5.5.2 1.4.5 2.4 1 3.2.4.7.9 1.2 1.6 1.5.6.2 1.3.4 2.1.4 1.7 0 3-.1 4.1-.3 1.1-.2 2.1-.4 3-.6v4.4zM533.6 67.3l-8.2-15.2-1.8 2.1v13.1h-5.2V24.6h5.2v23.2l9.3-11h6.3l-10.3 11.8 10.7 18.7h-6zM194.3 97v35.3h-8.4V97h-8.8v-7.4H203V97h-8.7zM224.1 113.5v18.8h-8.5v-18.8l-11.2-23.9h9l6.8 16.5 6.8-16.5h8.6l-11.5 23.9zM265.7 103.2c0 2.7-.3 4.9-.9 6.8-.6 1.8-1.4 3.3-2.6 4.5-1.1 1.1-2.6 2-4.2 2.4-1.7.5-3.6.7-5.8.7h-3.5v14.7h-8.4V89.6c1.2-.1 2.4-.2 3.7-.3 1.1-.1 2.3-.2 3.6-.2s2.6-.1 3.9-.1c2.8 0 5.1.3 6.9.9s3.3 1.5 4.3 2.7c1.1 1.2 1.8 2.7 2.3 4.5.4 1.8.7 3.8.7 6.1zm-8.5.4c0-2.4-.3-4.2-.9-5.5-.6-1.2-1.8-1.9-3.6-1.9-1.3 0-2.3.1-3 .2-.4.1-.7.1-1 .2v13.7h3.8c1.4 0 2.6-.6 3.4-1.8.9-1.2 1.3-2.8 1.3-4.9zM299.4 110.4c0 3.7-.2 7-.5 9.8-.3 2.8-1 5.1-2.1 7-1 1.9-2.5 3.3-4.4 4.2-1.9.9-4.3 1.4-7.3 1.4s-5.5-.5-7.3-1.4c-1.9-.9-3.3-2.3-4.4-4.2-1-1.9-1.7-4.2-2.1-7-.3-2.8-.5-6.1-.5-9.8 0-3.6.2-6.7.6-9.4.4-2.7 1.1-4.9 2.2-6.7 1.1-1.8 2.5-3.1 4.4-4s4.2-1.3 7.2-1.3 5.3.4 7.2 1.3 3.3 2.2 4.4 4c1.1 1.8 1.8 4 2.2 6.7.2 2.7.4 5.9.4 9.4zm-8.5.3c0-3.1-.1-5.7-.3-7.7-.2-2-.5-3.5-1-4.6-.4-1.1-1-1.9-1.8-2.3-.7-.4-1.6-.6-2.7-.6s-2 .2-2.7.6c-.7.4-1.3 1.2-1.8 2.3-.4 1.1-.8 2.7-1 4.6-.2 2-.3 4.5-.3 7.7 0 3.1.1 5.6.3 7.6.2 2 .5 3.6 1 4.8.4 1.2 1 2 1.8 2.5.7.5 1.6.7 2.7.7s2-.2 2.7-.7c.7-.5 1.3-1.3 1.8-2.5.4-1.2.8-2.8 1-4.8.2-1.9.3-4.5.3-7.6zM326.7 119.6c0 2.6-.3 4.7-.9 6.4-.6 1.7-1.5 3.1-2.5 4.1-1.1 1-2.3 1.7-3.8 2.1-1.5.4-3 .6-4.8.6-.7 0-1.6-.1-2.5-.2l-2.7-.3c-.9-.1-1.6-.2-2.3-.3-.7-.1-1-.2-1.2-.2V125c.4.1.8.2 1.4.3.6.1 1.2.2 1.9.3.7.1 1.4.2 2.2.3.8.1 1.5.1 2.1.1 1.5 0 2.6-.5 3.5-1.5.9-1 1.3-2.4 1.3-4.4 0-2.4-.4-4.1-1.1-5.2-.7-1.1-2-1.6-3.9-1.6h-4.7v-6.6h4.1c1.7 0 3-.5 3.8-1.5.8-1 1.1-2.4 1.1-4.3 0-1.7-.3-3-1-3.9-.7-.9-1.7-1.3-3.3-1.3-1.3 0-2.7.1-3.9.4s-2.4.5-3.3.7V90c.2 0 .5-.1 1.1-.2.6-.1 1.2-.2 2-.3l2.4-.3c.9-.1 1.7-.2 2.5-.2 2 0 3.6.2 5.1.6 1.4.4 2.7 1 3.6 2 1 .9 1.7 2.2 2.2 3.8.5 1.6.7 3.5.7 5.8 0 .9-.1 1.8-.2 2.7-.2.9-.4 1.8-.8 2.5-.4.8-.8 1.5-1.4 2-.6.6-1.3 1-2.1 1.3 1.7.3 3 1.3 3.9 2.9s1.5 3.9 1.5 7zM350.3 132.3v-6.5h4.3V96h-4.3v-6.5h16.9V96h-4.3v29.8h4.3v6.5h-16.9zM391.7 131.9c-1 .3-2.1.5-3.4.7-1.3.2-2.5.2-3.6.2-2 0-3.8-.2-5.3-.6-1.5-.4-2.8-1.2-3.8-2.4s-1.8-2.8-2.4-5c-.5-2.1-.8-5-.8-8.4 0-5.4 1.1-9.3 3.2-11.7 2.1-2.3 5.2-3.5 9.2-3.5 1 0 2.2.1 3.6.3 1.4.2 2.5.4 3.4.6v7.1c-.6-.1-1.1-.2-1.6-.3s-.9-.2-1.4-.3c-.5-.1-1-.1-1.6-.2-.6 0-1.2-.1-2-.1-.7 0-1.3.1-1.9.4s-1 .7-1.4 1.4c-.4.7-.7 1.6-.9 2.8-.2 1.2-.3 2.8-.3 4.7 0 3.1.4 5.2 1.1 6.3.7 1.2 1.8 1.7 3.2 1.7 1.5 0 2.8-.1 3.8-.3 1-.2 2-.4 2.9-.5v7.1zM422.8 116.4c0 3.2-.3 5.9-.9 8s-1.4 3.8-2.5 5c-1.1 1.2-2.5 2.1-4.1 2.6-1.6.5-3.5.7-5.7.7s-4-.2-5.7-.7c-1.6-.5-3-1.4-4.1-2.6-1.1-1.2-1.9-2.9-2.5-5-.5-2.1-.8-4.7-.8-8 0-5.2 1-9 3.1-11.4 2.1-2.4 5.4-3.6 10-3.6s7.9 1.2 10 3.6c2.2 2.4 3.2 6.2 3.2 11.4zm-8.2.9c0-1.8-.1-3.3-.2-4.5-.2-1.2-.4-2.2-.8-2.9-.4-.7-.9-1.3-1.5-1.6s-1.4-.5-2.3-.5c-.9 0-1.6.2-2.3.5-.6.3-1.1.8-1.5 1.6-.4.7-.6 1.7-.8 2.9-.2 1.2-.2 2.7-.2 4.5 0 1.7.1 3.1.2 4.2s.4 2 .8 2.7.9 1.1 1.5 1.4 1.4.4 2.3.4 1.7-.1 2.3-.4c.6-.3 1.1-.8 1.5-1.4s.6-1.6.8-2.7c.1-1 .2-2.5.2-4.2zM429.9 132.3v-30.5h6.6l.5 2.4c.9-.9 2-1.6 3.2-2.1s2.6-.8 4.1-.8c2.1 0 3.8.2 5.1.7s2.3 1.2 3 2.3c.7 1 1.2 2.3 1.4 3.8.2 1.5.4 3.3.4 5.4v18.9h-8.1v-19.1c0-2-.3-3.4-.9-4-.6-.6-1.4-.9-2.5-.9-1.5 0-2.7.4-3.4 1.3-.8.9-1.2 1.9-1.2 2.9v19.8h-8.2zM481.3 123.1c0 1.9-.3 3.4-.9 4.7-.6 1.2-1.4 2.2-2.5 3-1.1.8-2.4 1.3-3.9 1.6s-3.2.5-5 .5c-.8 0-1.6 0-2.4-.1-.8-.1-1.6-.1-2.3-.2-.8-.1-1.4-.2-2.1-.3-.6-.1-1.1-.2-1.6-.3v-7c.8.2 1.9.4 3.2.7 1.3.3 2.7.4 4.1.4 1.4 0 2.6-.2 3.6-.5s1.4-1 1.4-2.1c0-.9-.3-1.6-.8-2.1s-1.5-.9-3.1-1.2c-3.1-.6-5.3-1.6-6.6-3.2-1.3-1.5-1.9-3.6-1.9-6.2 0-3.4 1-5.9 3.1-7.3 2.1-1.5 5.3-2.2 9.6-2.2.6 0 1.3 0 2 .1s1.4.2 2 .3l1.8.3c.6.1 1 .2 1.3.3v7c-.9-.3-2-.5-3.1-.8-1.1-.2-2.5-.4-4.2-.4-1.5 0-2.6.2-3.2.5-.7.4-1 1-1 2 0 .7.3 1.3 1 1.7.7.4 1.6.7 3 .9 3.2.5 5.4 1.6 6.6 3.3 1.3 1.5 1.9 3.8 1.9 6.6z"/>
  <path fill="#ff8700" d="M112.5 22.9c10.7 6.8 23 10.3 27.6 18.2 4.6 8 1.5 20.3.6 32.2-.9 11.8.4 23.1-2.9 33.5-3.2 10.3-10.9 19.6-20.7 24.7-9.8 5.1-21.7 5.9-35 8.4-13.3 2.4-28 6.4-36.4.5-8.4-5.9-10.5-21.7-19.4-34.5C17.4 93.2 1.6 83.5.1 72.9s11.2-22 20.5-34C30 27 36 14.5 46 7.3 55.9 0 69.7-2 81.2 2c11.5 4 20.6 14.1 31.3 20.9z"/>
  <path fill="#fff" d="M35.9 93.1v-7.2h4.8V52.7h-4.8v-7.2h18.8v7.2H50v33.2h4.8v7.2H35.9zM83.8 92.5c-.4.1-.9.2-1.6.3-.7.1-1.5.2-2.2.3l-2.4.3c-.8.1-1.5.1-2 .1-2.6 0-4.8-.3-6.7-1s-3.5-1.9-4.7-3.8c-1.2-1.8-2.2-4.4-2.8-7.6-.6-3.2-.9-7.4-.9-12.6s.3-9.3 1-12.4c.7-3.1 1.7-5.5 3.1-7.1 1.4-1.6 3-2.7 5-3.2s4.3-.8 6.9-.8c.5 0 1 0 1.8.1.7.1 1.5.1 2.2.2.7.1 1.4.2 2 .3.6.1 1.1.2 1.3.3v8.2c-1.1-.3-2.5-.5-4-.7-1.6-.2-3-.3-4.2-.3-1 0-1.8.2-2.5.5s-1.3 1.1-1.7 2.1c-.5 1.1-.8 2.7-1 4.8-.3 2.2-.4 5-.4 8.5s.1 6.4.3 8.5c.2 2.1.5 3.8 1 5 .4 1.2 1 2 1.7 2.3.7.4 1.6.6 2.7.6 1.4 0 2.9-.1 4.5-.3 1.6-.2 2.8-.5 3.7-.7v8.1zM120.4 68.7c0 4.2-.2 7.8-.6 10.9-.4 3.1-1.2 5.7-2.3 7.8-1.2 2.1-2.8 3.6-4.9 4.7-2.1 1-4.8 1.6-8.2 1.6-3.4 0-6.1-.5-8.2-1.6-2.1-1-3.7-2.6-4.9-4.7s-1.9-4.7-2.3-7.8c-.4-3.1-.6-6.8-.6-10.9 0-4 .2-7.5.6-10.5.4-3 1.2-5.5 2.4-7.5s2.8-3.5 4.9-4.5c2.1-1 4.7-1.5 8-1.5s5.9.5 8 1.5c2.1 1 3.7 2.5 4.9 4.5 1.2 2 2 4.5 2.4 7.5.6 3.1.8 6.5.8 10.5zm-9.5.4c0-3.5-.1-6.3-.3-8.5-.2-2.2-.6-3.9-1.1-5.2-.5-1.2-1.2-2.1-2-2.5-.8-.5-1.8-.7-3.1-.7s-2.2.2-3.1.7c-.8.5-1.5 1.3-2 2.5s-.9 3-1.1 5.2c-.2 2.2-.3 5-.3 8.5 0 3.4.1 6.3.3 8.5.2 2.2.6 4 1.1 5.3.5 1.3 1.2 2.2 2 2.8.8.5 1.8.8 3.1.8s2.2-.3 3.1-.8c.8-.5 1.5-1.4 2-2.8.5-1.3.9-3.1 1.1-5.3.2-2.3.3-5.1.3-8.5z"/>
</svg>
