<svg width="250" height="67" viewBox="0 0 250 67" xmlns="http://www.w3.org/2000/svg">
  <path fill="#000" d="M102.442888,19.8410866 C102.442888,20.9066481 102.396559,21.9258809 102.303902,22.8987849 C102.211244,23.871689 102.025929,24.7056067 101.747957,25.4931957 C101.469984,26.2344559 101.053025,26.8367298 100.49708,27.2536887 C99.9411349,27.6706476 99.2462035,27.9022914 98.3196282,27.9022914 C98.0879844,27.9022914 97.8563406,27.8559626 97.578368,27.8096339 C97.3003954,27.7169764 97.0224228,27.6243188 96.790779,27.4390038 C96.5591352,27.3000175 96.3274914,27.0683737 96.0958475,26.7904011 C95.9105325,26.5124285 95.7715462,26.1881272 95.6788887,25.7711683 C95.4009161,26.1417984 94.9839572,26.4660997 94.4280121,26.6977436 C93.8257381,26.9293874 93.1771354,27.0683737 92.3432177,27.0683737 C91.8799301,27.0683737 91.4629712,27.0220449 90.9996836,26.8830586 C90.5363959,26.7440723 90.1657658,26.5124285 89.7951357,26.0954696 C89.4245056,25.7248395 89.146533,25.1688944 88.9148892,24.4739629 C88.6832454,23.7790315 88.5905879,22.8524562 88.5905879,21.6942371 C88.5905879,20.4896892 88.7295741,19.4704564 89.0538755,18.7291962 C89.3781768,17.987936 89.7951357,17.3856621 90.3047521,16.9223745 C90.8143685,16.5054156 91.4629712,16.1811142 92.2042314,16.0421279 C92.9454916,15.9031417 93.6867518,15.8104841 94.5206696,15.8104841 C94.9376285,15.8104841 95.4472449,15.8568129 95.9568613,15.9494704 C96.4664777,16.0421279 96.9760941,16.1347855 97.3930529,16.227443 L97.3930529,24.9372505 C97.3930529,25.2152231 97.4857105,25.4931957 97.6710255,25.7248395 C97.8563406,25.9564833 98.0879844,26.0954696 98.4586145,26.0954696 C98.8292446,26.0954696 99.1535459,25.9564833 99.338861,25.6785108 C99.5705048,25.4005382 99.7094911,24.9835793 99.8484774,24.4276341 C99.9874637,23.871689 100.033792,23.2230863 100.080121,22.4818261 C100.12645,21.7405659 100.12645,20.8603194 100.12645,19.8874153 C100.12645,18.4975524 100.033792,17.3856621 99.8948062,16.5054156 C99.7558199,15.6251691 99.4315185,14.9765664 98.9219021,14.46695 C98.4586145,14.0036623 97.763683,13.679361 96.8834365,13.4940459 C96.00319,13.3087309 94.8449709,13.2624021 93.3624505,13.2624021 C91.9725876,13.2624021 90.8143685,13.4013884 89.934122,13.6330322 C89.0538755,13.8646761 88.358944,14.3279637 87.8493276,14.9302376 C87.3397112,15.5325115 87.0154099,16.4127581 86.8300948,17.4319908 C86.6447798,18.4975524 86.5521223,19.8410866 86.5521223,21.4625933 C86.5521223,22.8987849 86.6447798,24.1496616 86.7837661,25.1688944 C86.9227524,26.1881272 87.2470537,26.9757161 87.7103413,27.6243188 C88.173629,28.2729215 88.8685604,28.6898804 89.7488069,29.0141817 C90.6290534,29.2921543 91.7872725,29.4311406 93.2234642,29.4311406 C93.5477656,29.4311406 93.9647244,29.4311406 94.3816833,29.3848118 C94.7986422,29.3384831 95.2619298,29.3384831 95.6788887,29.2921543 C96.0958475,29.2458255 96.5128064,29.1994968 96.8371078,29.1994968 C97.2077379,29.153168 97.4857105,29.153168 97.6710255,29.1068393 L97.6710255,31.0526473 C97.4393817,31.0989761 97.1150803,31.1453049 96.7444502,31.1453049 C96.3738201,31.1453049 96.00319,31.2379624 95.5862311,31.2379624 C95.1692723,31.2842911 94.7523134,31.2842911 94.3353545,31.3306199 C93.9183957,31.3306199 93.5477656,31.3769487 93.2234642,31.3769487 C91.4166424,31.3769487 89.934122,31.1916336 88.7759029,30.8210035 C87.6176838,30.4503734 86.6911085,29.8944282 85.9961771,29.1068393 C85.3012456,28.3192503 84.837958,27.3000175 84.6063142,26.0491409 C84.3746704,24.7982643 84.2356841,23.2694151 84.2356841,21.4625933 C84.2356841,19.4704564 84.3746704,17.802621 84.6989717,16.5054156 C85.0232731,15.2082102 85.5328895,14.1426486 86.2741497,13.3550597 C87.0154099,12.5674707 87.9419852,12.0115255 89.1002043,11.6872242 C90.2584233,11.3629228 91.694615,11.2239365 93.3624505,11.2239365 C95.030286,11.2239365 96.4201489,11.3165941 97.578368,11.5482379 C98.7365871,11.7798817 99.6631623,12.1968406 100.404423,12.8454433 C101.099354,13.4940459 101.655299,14.3742925 101.979601,15.4861828 C102.257573,16.5980731 102.442888,18.0342648 102.442888,19.8410866 L102.442888,19.8410866 Z M95.1229435,17.8489497 C95.030286,17.802621 94.8449709,17.7562922 94.6596559,17.7562922 C94.4743408,17.7099634 94.2890258,17.7099634 94.0573819,17.7099634 C93.6404231,17.7099634 93.2234642,17.7562922 92.8065053,17.8489497 C92.3895465,17.9416072 92.0652451,18.1269223 91.7409438,18.4048949 C91.4166424,18.6828675 91.1849986,19.0998263 90.9996836,19.6094427 C90.8143685,20.1190591 90.721711,20.7676618 90.721711,21.6015796 C90.721711,22.3428398 90.7680397,22.9451137 90.8606973,23.4547301 C90.9533548,23.9180177 91.0923411,24.2886479 91.2776561,24.5202917 C91.4629712,24.7519355 91.694615,24.9372505 91.9262588,25.0299081 C92.1579026,25.1225656 92.482204,25.1688944 92.8065053,25.1688944 C93.2234642,25.1688944 93.5477656,25.1225656 93.8720669,24.9835793 C94.1500395,24.844593 94.3816833,24.7056067 94.5669983,24.5202917 C94.7523134,24.3349766 94.8449709,24.1496616 94.9376285,23.9180177 C95.030286,23.6863739 95.030286,23.4547301 95.030286,23.2694151 L95.030286,17.8489497 L95.1229435,17.8489497 Z M117.082777,23.2230863 C117.082777,24.7519355 116.99012,26.0491409 116.758476,27.1147024 C116.526832,28.180264 116.202531,29.0141817 115.739243,29.6164557 C115.275956,30.2650583 114.673682,30.6820172 113.886093,30.9599898 C113.144833,31.2379624 112.171928,31.3769487 111.060038,31.3769487 C110.550422,31.3769487 110.087134,31.3769487 109.716504,31.3306199 C109.345874,31.3306199 108.975244,31.2842911 108.697271,31.2379624 C108.37297,31.1916336 108.094997,31.1453049 107.863353,31.1453049 C107.63171,31.1453049 107.353737,31.0526473 107.075765,31.0526473 L107.075765,11.4092516 L109.48486,11.4092516 L109.48486,18.0805935 C110.365107,17.2466758 111.430668,16.8297169 112.635216,16.8297169 C114.303052,16.8297169 115.461271,17.3393333 116.109873,18.4048949 C116.758476,19.5167852 117.082777,21.0919632 117.082777,23.2230863 L117.082777,23.2230863 Z M112.171928,18.8681825 C111.75497,18.8681825 111.430668,18.96084 111.106367,19.0998263 C110.782066,19.2388126 110.504093,19.4704564 110.272449,19.7021003 C110.040805,19.9337441 109.85549,20.2117167 109.716504,20.4896892 C109.577518,20.7676618 109.531189,21.0456344 109.531189,21.2772782 L109.531189,29.1994968 C109.716504,29.2458255 109.994477,29.2458255 110.272449,29.2921543 C110.596751,29.2921543 110.921052,29.3384831 111.38434,29.3384831 C112.079271,29.3384831 112.635216,29.1994968 113.052175,28.967853 C113.469134,28.7362092 113.793435,28.365579 114.025079,27.8559626 C114.256723,27.3463462 114.442038,26.7440723 114.534695,26.0491409 C114.627353,25.3078806 114.673682,24.4739629 114.673682,23.5010589 C114.673682,22.5744836 114.627353,21.8332234 114.534695,21.2772782 C114.442038,20.6750043 114.303052,20.2117167 114.117737,19.8874153 C113.932422,19.5167852 113.654449,19.2851414 113.376476,19.1461551 C113.005846,18.96084 112.635216,18.8681825 112.171928,18.8681825 L112.171928,18.8681825 Z M128.572311,31.1916336 L128.386996,30.0334145 C127.970037,30.4503734 127.506749,30.8210035 126.997133,31.0526473 C126.487516,31.2842911 125.838914,31.4232774 125.143982,31.4232774 C124.356393,31.4232774 123.707791,31.3306199 123.198174,31.0989761 C122.688558,30.913661 122.271599,30.5893597 121.947298,30.1724008 C121.622996,29.7554419 121.437681,29.1994968 121.298695,28.5972229 C121.159709,27.9486202 121.11338,27.20736 121.11338,26.3271134 L121.11338,17.0613607 L123.522476,17.0613607 L123.522476,26.5587573 C123.522476,27.0220449 123.568804,27.392675 123.615133,27.7633051 C123.661462,28.1339352 123.754119,28.4119078 123.893106,28.6435516 C124.032092,28.8751954 124.263736,29.0605105 124.49538,29.1994968 C124.773352,29.3384831 125.097654,29.3848118 125.560941,29.3848118 C125.9779,29.3848118 126.302201,29.2921543 126.626503,29.153168 C126.950804,29.0141817 127.228777,28.8288667 127.46042,28.5972229 C127.692064,28.365579 127.877379,28.1339352 128.016366,27.8559626 C128.155352,27.5779901 128.201681,27.3463462 128.248009,27.0683737 L128.248009,17.0613607 L130.657105,17.0613607 L130.657105,31.1916336 L128.572311,31.1916336 L128.572311,31.1916336 Z M142.795241,31.1916336 L142.609926,29.9870858 C142.192967,30.4040446 141.683351,30.7746747 141.127406,31.0063186 C140.571461,31.2379624 139.969187,31.3769487 139.227926,31.3769487 C138.301351,31.3769487 137.560091,31.2379624 137.004146,30.9599898 C136.401872,30.6820172 135.938584,30.2650583 135.614283,29.7091132 C135.243653,29.153168 135.012009,28.4582366 134.873023,27.6243188 C134.734036,26.7904011 134.641379,25.817497 134.641379,24.7056067 C134.641379,21.9258809 135.104666,19.8874153 136.07757,18.6828675 C137.050475,17.4319908 138.625652,16.8297169 140.803104,16.8297169 C141.127406,16.8297169 141.405378,16.8297169 141.683351,16.8760457 C141.961323,16.8760457 142.192967,16.9223745 142.378282,16.9687032 L142.378282,11.4092516 L144.787378,11.4092516 L144.787378,31.1916336 L142.795241,31.1916336 L142.795241,31.1916336 Z M139.691214,29.3384831 C140.108173,29.3384831 140.525132,29.2458255 140.849433,29.1068393 C141.173734,28.967853 141.451707,28.7362092 141.683351,28.5045653 C141.914995,28.2729215 142.10031,27.9949489 142.192967,27.7169764 C142.285625,27.4390038 142.378282,27.1610312 142.378282,26.9293874 L142.378282,19.0071688 C142.192967,18.96084 141.914995,18.96084 141.637022,18.9145113 C141.312721,18.9145113 140.988419,18.8681825 140.525132,18.8681825 C139.8302,18.8681825 139.274255,19.0071688 138.857296,19.2851414 C138.440337,19.563114 138.069707,19.9337441 137.791735,20.4896892 C137.513762,20.9993056 137.328447,21.6479083 137.23579,22.3891685 C137.143132,23.1304288 137.096803,24.0106753 137.096803,24.9835793 C137.096803,25.817497 137.143132,26.5124285 137.23579,27.0683737 C137.328447,27.6243188 137.513762,28.0876065 137.699077,28.4119078 C137.884392,28.7362092 138.162365,28.967853 138.486666,29.1068393 C138.857296,29.2921543 139.227926,29.3384831 139.691214,29.3384831 Z M157.0645,31.1916336 L156.879185,29.9870858 C156.462226,30.4040446 155.95261,30.7746747 155.396665,31.0063186 C154.84072,31.2379624 154.238446,31.3769487 153.497186,31.3769487 C152.57061,31.3769487 151.82935,31.2379624 151.273405,30.9599898 C150.671131,30.6820172 150.207843,30.2650583 149.883542,29.7091132 C149.512912,29.153168 149.281268,28.4582366 149.142282,27.6243188 C149.003295,26.7904011 148.910638,25.817497 148.910638,24.7056067 C148.910638,21.9258809 149.373926,19.8874153 150.34683,18.6828675 C151.319734,17.4319908 152.894912,16.8297169 155.072364,16.8297169 C155.396665,16.8297169 155.674637,16.8297169 155.95261,16.8760457 C156.230583,16.8760457 156.462226,16.9223745 156.647541,16.9687032 L156.647541,11.4092516 L159.056637,11.4092516 L159.056637,31.1916336 L157.0645,31.1916336 L157.0645,31.1916336 Z M153.960473,29.3384831 C154.377432,29.3384831 154.794391,29.2458255 155.118692,29.1068393 C155.442994,28.967853 155.720966,28.7362092 155.95261,28.5045653 C156.184254,28.2729215 156.369569,27.9949489 156.462226,27.7169764 C156.554884,27.4390038 156.647541,27.1610312 156.647541,26.9293874 L156.647541,19.0071688 C156.462226,18.96084 156.184254,18.96084 155.906281,18.9145113 C155.58198,18.9145113 155.257679,18.8681825 154.794391,18.8681825 C154.099459,18.8681825 153.543514,19.0071688 153.126555,19.2851414 C152.709597,19.563114 152.338966,19.9337441 152.060994,20.4896892 C151.783021,20.9993056 151.597706,21.6479083 151.505049,22.3891685 C151.412391,23.1304288 151.366062,24.0106753 151.366062,24.9835793 C151.366062,25.817497 151.412391,26.5124285 151.505049,27.0683737 C151.597706,27.6243188 151.783021,28.0876065 151.968336,28.4119078 C152.153651,28.7362092 152.431624,28.967853 152.755925,29.1068393 C153.080227,29.2921543 153.497186,29.3384831 153.960473,29.3384831 Z M165.542664,24.9835793 C165.542664,25.9101546 165.635322,26.6514148 165.774308,27.20736 C165.913294,27.7633051 166.05228,28.2265928 166.283924,28.5508941 C166.469239,28.8751954 166.747212,29.0605105 167.025185,29.1994968 C167.303157,29.2921543 167.627458,29.3384831 167.998089,29.3384831 C168.785678,29.3384831 169.526938,29.2921543 170.17554,29.1994968 C170.824143,29.1068393 171.380088,29.0141817 171.797047,28.9215242 L171.797047,30.9599898 C171.33376,31.0989761 170.777814,31.1916336 170.082883,31.2842911 C169.387951,31.3769487 168.785678,31.4232774 168.276061,31.4232774 C167.488472,31.4232774 166.747212,31.3306199 166.098609,31.1916336 C165.450007,31.0063186 164.94039,30.6820172 164.523431,30.1724008 C164.106472,29.6627844 163.782171,28.9215242 163.550527,27.9949489 C163.318883,27.0220449 163.226226,25.7711683 163.226226,24.1959903 C163.226226,22.8987849 163.318883,21.7868946 163.550527,20.8603194 C163.782171,19.9337441 164.106472,19.1924839 164.523431,18.5902099 C164.94039,17.987936 165.496335,17.5709771 166.144938,17.3393333 C166.793541,17.0613607 167.534801,16.9223745 168.368719,16.9223745 C169.990225,16.9223745 171.148444,17.4319908 171.843376,18.4975524 C172.538307,19.563114 172.908937,21.0456344 172.908937,22.8987849 L172.908937,25.0299081 L165.542664,25.0299081 L165.542664,24.9835793 Z M168.229732,18.8681825 C167.766445,18.8681825 167.395815,18.9145113 167.071513,19.0534976 C166.747212,19.1924839 166.469239,19.4241277 166.283924,19.748429 C166.098609,20.0727304 165.913294,20.4896892 165.820637,21.0456344 C165.727979,21.6015796 165.635322,22.2501823 165.588993,23.0841 L170.499842,23.0841 L170.499842,22.3428398 C170.499842,21.2772782 170.314527,20.4433605 169.990225,19.8410866 C169.665924,19.1461551 169.06365,18.8681825 168.229732,18.8681825 L168.229732,18.8681825 Z M176.800554,31.1916336 L176.800554,17.0613607 L178.79269,17.0613607 L178.978006,18.3122374 C179.904581,17.3393333 181.0628,16.8297169 182.452663,16.8297169 C183.240252,16.8297169 183.935183,16.9223745 184.491128,17.1076895 C185.047074,17.2930046 185.464032,17.6173059 185.788334,18.0342648 C186.112635,18.4512236 186.344279,18.96084 186.483265,19.6094427 C186.622251,20.2580454 186.714909,20.9993056 186.714909,21.8332234 L186.714909,31.1453049 L184.305813,31.1453049 L184.305813,21.5552508 C184.305813,20.6750043 184.166827,19.9800728 183.888854,19.563114 C183.610882,19.0998263 182.962279,18.8681825 182.035704,18.8681825 C181.618745,18.8681825 181.248115,18.96084 180.923814,19.0998263 C180.553183,19.2388126 180.275211,19.4704564 179.997238,19.7021003 C179.765594,19.9337441 179.533951,20.2117167 179.394964,20.4896892 C179.255978,20.7676618 179.163321,21.0456344 179.163321,21.2772782 L179.163321,31.1916336 L176.800554,31.1916336 L176.800554,31.1916336 Z M201.076826,23.2230863 C201.076826,24.7519355 200.984168,26.0491409 200.752524,27.1147024 C200.520881,28.180264 200.196579,29.0141817 199.733292,29.6164557 C199.270004,30.2650583 198.66773,30.6820172 197.880141,30.9599898 C197.138881,31.2379624 196.165977,31.3769487 195.054086,31.3769487 C194.54447,31.3769487 194.081182,31.3769487 193.710552,31.3306199 C193.339922,31.3306199 192.969292,31.2842911 192.69132,31.2379624 C192.367018,31.1916336 192.089046,31.1453049 191.857402,31.1453049 C191.625758,31.1453049 191.347785,31.0526473 191.069813,31.0526473 L191.069813,11.4092516 L193.478908,11.4092516 L193.478908,18.0805935 C194.359155,17.2466758 195.424717,16.8297169 196.629264,16.8297169 C198.2971,16.8297169 199.455319,17.3393333 200.103922,18.4048949 C200.752524,19.5167852 201.076826,21.0919632 201.076826,23.2230863 L201.076826,23.2230863 Z M196.165977,18.8681825 C195.749018,18.8681825 195.424717,18.96084 195.100415,19.0998263 C194.776114,19.2388126 194.498141,19.4704564 194.266497,19.7021003 C194.034854,19.9337441 193.849539,20.2117167 193.710552,20.4896892 C193.571566,20.7676618 193.525237,21.0456344 193.525237,21.2772782 L193.525237,29.1994968 C193.710552,29.2458255 193.988525,29.2458255 194.266497,29.2921543 C194.590799,29.2921543 194.9151,29.3384831 195.378388,29.3384831 C196.073319,29.3384831 196.629264,29.1994968 197.046223,28.967853 C197.463182,28.7362092 197.787483,28.365579 198.019127,27.8559626 C198.250771,27.3463462 198.436086,26.7440723 198.528744,26.0491409 C198.621401,25.3078806 198.66773,24.4739629 198.66773,23.5010589 C198.66773,22.5744836 198.621401,21.8332234 198.528744,21.2772782 C198.436086,20.6750043 198.2971,20.2117167 198.111785,19.8874153 C197.92647,19.5167852 197.648497,19.2851414 197.370525,19.1461551 C196.999895,18.96084 196.629264,18.8681825 196.165977,18.8681825 L196.165977,18.8681825 Z M205.200086,31.1916336 L205.200086,17.0613607 L207.192222,17.0613607 L207.377538,18.4975524 C207.701839,17.987936 208.072469,17.6173059 208.582085,17.2930046 C209.045373,17.015032 209.647647,16.8297169 210.342578,16.8297169 C210.66688,16.8297169 210.991181,16.8297169 211.222825,16.8760457 C211.454469,16.9223745 211.686113,16.9223745 211.825099,16.9687032 L211.825099,19.4704564 C211.593455,19.4241277 211.315482,19.3777989 210.991181,19.2851414 C210.66688,19.2388126 210.388907,19.1924839 210.110935,19.1924839 C209.647647,19.1924839 209.230688,19.2851414 208.952716,19.4704564 C208.628414,19.6557715 208.39677,19.8874153 208.211455,20.2117167 C208.02614,20.536018 207.887154,20.8603194 207.794496,21.2772782 C207.701839,21.6479083 207.65551,22.0648672 207.65551,22.4354973 L207.65551,31.1453049 L205.200086,31.1453049 L205.200086,31.1916336 Z M224.611838,23.8253602 C224.611838,25.3078806 224.51918,26.5587573 224.287536,27.5316613 C224.055892,28.5045653 223.731591,29.2921543 223.268303,29.8480995 C222.805016,30.4040446 222.249071,30.8210035 221.600468,31.0526473 C220.951865,31.2842911 220.164276,31.3769487 219.28403,31.3769487 C218.403783,31.3769487 217.662523,31.2842911 216.967592,31.0526473 C216.318989,30.8210035 215.716715,30.4040446 215.299756,29.8480995 C214.836468,29.2921543 214.512167,28.5045653 214.280523,27.5316613 C214.048879,26.5587573 213.909893,25.3542094 213.909893,23.8253602 C213.909893,21.4162645 214.326852,19.6557715 215.207099,18.5438812 C216.087345,17.4319908 217.430879,16.8760457 219.28403,16.8760457 C221.13718,16.8760457 222.480714,17.4319908 223.360961,18.5438812 C224.194879,19.6557715 224.611838,21.4162645 224.611838,23.8253602 L224.611838,23.8253602 Z M222.156413,24.2423191 C222.156413,23.2230863 222.110084,22.3891685 222.017427,21.6942371 C221.924769,20.9993056 221.785783,20.4433605 221.554139,20.0264016 C221.322495,19.6094427 221.044523,19.2851414 220.673893,19.0998263 C220.303263,18.9145113 219.839975,18.8218538 219.237701,18.8218538 C218.681756,18.8218538 218.218468,18.9145113 217.847838,19.0998263 C217.477208,19.2851414 217.152907,19.6094427 216.967592,20.0264016 C216.735948,20.4433605 216.596961,20.9993056 216.504304,21.6942371 C216.411646,22.3891685 216.365318,23.2230863 216.365318,24.2423191 C216.365318,26.0954696 216.596961,27.392675 217.01392,28.180264 C217.430879,28.967853 218.218468,29.3848118 219.28403,29.3848118 C220.349591,29.3848118 221.090852,28.967853 221.554139,28.180264 C222.017427,27.392675 222.156413,26.0954696 222.156413,24.2423191 Z M236.333015,30.913661 C235.869727,31.0526473 235.360111,31.1453049 234.850494,31.2379624 C234.294549,31.3306199 233.784933,31.3769487 233.275316,31.3769487 C232.487727,31.3769487 231.746467,31.2842911 231.144193,31.0989761 C230.541919,30.913661 229.985974,30.5430309 229.569015,30.0334145 C229.152056,29.4774694 228.827755,28.7362092 228.64244,27.7633051 C228.457125,26.7904011 228.318139,25.4468669 228.318139,23.871689 C228.318139,22.6208124 228.410796,21.5552508 228.596111,20.6286755 C228.781426,19.748429 229.105728,19.0071688 229.476358,18.4512236 C229.893317,17.8952785 230.402933,17.4783196 231.005207,17.2466758 C231.607481,17.015032 232.348741,16.8760457 233.228988,16.8760457 C233.692275,16.8760457 234.24822,16.9223745 234.804166,17.015032 C235.406439,17.1076895 235.916056,17.200347 236.333015,17.2930046 L236.333015,19.3777989 C235.823398,19.2851414 235.313782,19.1924839 234.850494,19.0998263 C234.387207,19.0071688 233.784933,19.0071688 233.090001,19.0071688 C232.673042,19.0071688 232.348741,19.0998263 232.02444,19.2388126 C231.746467,19.4241277 231.514823,19.7021003 231.329508,20.1190591 C231.144193,20.536018 231.005207,21.0919632 230.912549,21.7868946 C230.819892,22.4818261 230.773563,23.3620726 230.773563,24.3813054 C230.773563,25.4468669 230.819892,26.2807847 230.912549,26.9293874 C231.005207,27.5779901 231.144193,28.0412777 231.375837,28.4119078 C231.561152,28.7362092 231.792796,28.967853 232.117097,29.1068393 C232.39507,29.1994968 232.719371,29.2921543 233.090001,29.2921543 C233.87759,29.2921543 234.479864,29.2458255 234.989481,29.153168 C235.499097,29.0605105 235.962385,28.967853 236.379344,28.8751954 L236.379344,30.913661 L236.333015,30.913661 Z M247.220274,31.1916336 L243.421316,24.1496616 L242.587398,25.1225656 L242.587398,31.1916336 L240.178302,31.1916336 L240.178302,11.4092516 L242.587398,11.4092516 L242.587398,22.1575247 L246.895973,17.0613607 L249.814685,17.0613607 L245.042822,22.5281548 L250,31.1916336 L247.220274,31.1916336 Z M90.0267795,44.9512764 L90.0267795,61.3053299 L86.1351634,61.3053299 L86.1351634,44.9512764 L82.0582322,44.9512764 L82.0582322,41.5229479 L94.0573819,41.5229479 L94.0573819,44.9512764 L90.0267795,44.9512764 Z M103.832751,52.5955224 L103.832751,61.3053299 L99.8948062,61.3053299 L99.8948062,52.5955224 L94.7059846,41.5229479 L98.8755734,41.5229479 L102.025929,49.1671939 L105.176285,41.5229479 L109.160559,41.5229479 L103.832751,52.5955224 L103.832751,52.5955224 Z M123.105517,47.8236597 C123.105517,49.0745363 122.96653,50.0937691 122.688558,50.9740156 C122.410585,51.8079334 122.039955,52.5028648 121.48401,53.05881 C120.974394,53.5684264 120.279462,53.9853853 119.538202,54.1707003 C118.750613,54.4023441 117.870366,54.4950017 116.851134,54.4950017 L115.229627,54.4950017 L115.229627,61.3053299 L111.338011,61.3053299 L111.338011,41.5229479 C111.893956,41.4766191 112.449901,41.4302904 113.052175,41.3839616 C113.561791,41.3376328 114.117737,41.2913041 114.72001,41.2913041 C115.322284,41.2913041 115.924558,41.2449753 116.526832,41.2449753 C117.824038,41.2449753 118.889599,41.3839616 119.723517,41.6619342 C120.557435,41.9399068 121.252366,42.3568656 121.715654,42.9128108 C122.22527,43.468756 122.549572,44.1636874 122.781215,44.9976052 C122.96653,45.8315229 123.105517,46.7580982 123.105517,47.8236597 Z M119.167572,48.0089748 C119.167572,46.8970845 119.028585,46.0631667 118.750613,45.4608928 C118.47264,44.9049476 117.916695,44.5806463 117.082777,44.5806463 C116.480503,44.5806463 116.017216,44.626975 115.692915,44.6733038 C115.507599,44.7196326 115.368613,44.7196326 115.229627,44.7659613 L115.229627,51.1130019 L116.99012,51.1130019 C117.638723,51.1130019 118.194668,50.8350294 118.565298,50.2790842 C118.982257,49.723139 119.167572,48.9818788 119.167572,48.0089748 L119.167572,48.0089748 Z M138.71831,51.1593307 C138.71831,52.873495 138.625652,54.4023441 138.486666,55.6995495 C138.34768,56.9967549 138.023379,58.0623165 137.513762,58.942563 C137.050475,59.8228095 136.355543,60.4714122 135.475297,60.888371 C134.59505,61.3053299 133.48316,61.5369737 132.093297,61.5369737 C130.703434,61.5369737 129.545215,61.3053299 128.711297,60.888371 C127.831051,60.4714122 127.182448,59.8228095 126.672831,58.942563 C126.209544,58.0623165 125.885242,56.9967549 125.699927,55.6995495 C125.560941,54.4023441 125.468284,52.873495 125.468284,51.1593307 C125.468284,49.4914952 125.560941,48.0553035 125.746256,46.8044269 C125.931571,45.5535503 126.255873,44.5343175 126.765489,43.7003998 C127.275105,42.866482 127.923708,42.2642081 128.803955,41.8472492 C129.684201,41.4302904 130.749763,41.2449753 132.139626,41.2449753 C133.529488,41.2449753 134.59505,41.4302904 135.475297,41.8472492 C136.355543,42.2642081 137.004146,42.866482 137.513762,43.7003998 C138.023379,44.5343175 138.34768,45.5535503 138.532995,46.8044269 C138.625652,48.0553035 138.71831,49.537824 138.71831,51.1593307 L138.71831,51.1593307 Z M134.780365,51.298317 C134.780365,49.8621253 134.734036,48.6575775 134.641379,47.7310022 C134.548721,46.8044269 134.409735,46.1094955 134.178091,45.5998791 C133.992776,45.0902627 133.714804,44.7196326 133.344173,44.5343175 C133.019872,44.3490025 132.602913,44.2563449 132.093297,44.2563449 C131.58368,44.2563449 131.166722,44.3490025 130.84242,44.5343175 C130.518119,44.7196326 130.240146,45.0902627 130.008502,45.5998791 C129.823187,46.1094955 129.637872,46.8507557 129.545215,47.7310022 C129.452557,48.6575775 129.406229,49.8157966 129.406229,51.298317 C129.406229,52.7345087 129.452557,53.8927277 129.545215,54.819303 C129.637872,55.7458783 129.776859,56.4871385 130.008502,57.0430837 C130.193818,57.5990288 130.47179,57.9696589 130.84242,58.2013028 C131.166722,58.4329466 131.58368,58.5256041 132.093297,58.5256041 C132.602913,58.5256041 133.019872,58.4329466 133.344173,58.2013028 C133.668475,57.9696589 133.946447,57.5990288 134.178091,57.0430837 C134.363406,56.4871385 134.548721,55.7458783 134.641379,54.819303 C134.734036,53.9390565 134.780365,52.7345087 134.780365,51.298317 Z M151.366062,55.4215769 C151.366062,56.6261248 151.227076,57.5990288 150.949104,58.3866178 C150.671131,59.1742068 150.254172,59.8228095 149.790884,60.2860971 C149.281268,60.7493848 148.725323,61.0736861 148.030391,61.2590012 C147.33546,61.4443162 146.640529,61.5369737 145.806611,61.5369737 C145.482309,61.5369737 145.065351,61.490645 144.648392,61.4443162 L143.397515,61.3053299 C142.980556,61.2590012 142.656255,61.2126724 142.331954,61.1663436 C142.007652,61.1200149 141.868666,61.0736861 141.776008,61.0736861 L141.776008,57.9233302 C141.961323,57.9696589 142.146638,58.0159877 142.424611,58.0623165 C142.702584,58.1086452 142.980556,58.154974 143.304858,58.2013028 C143.629159,58.2476315 143.95346,58.2939603 144.32409,58.340289 C144.69472,58.3866178 145.019022,58.3866178 145.296994,58.3866178 C145.991926,58.3866178 146.501542,58.154974 146.918501,57.6916864 C147.33546,57.2283987 147.520775,56.579796 147.520775,55.6532208 C147.520775,54.5413304 147.33546,53.7537415 147.011159,53.2441251 C146.686857,52.7345087 146.084583,52.5028648 145.204337,52.5028648 L143.026885,52.5028648 L143.026885,49.4451665 L144.926364,49.4451665 C145.713953,49.4451665 146.316227,49.2135226 146.686857,48.750235 C147.057487,48.2869474 147.196474,47.6383447 147.196474,46.7580982 C147.196474,45.9705092 147.057487,45.3682353 146.733186,44.9512764 C146.408885,44.5343175 145.945597,44.3490025 145.204337,44.3490025 C144.602063,44.3490025 143.95346,44.3953312 143.397515,44.5343175 C142.84157,44.6733038 142.285625,44.7659613 141.868666,44.8586189 L141.868666,41.7082629 C141.961323,41.7082629 142.10031,41.6619342 142.378282,41.6156054 C142.656255,41.5692766 142.934227,41.5229479 143.304858,41.4766191 L144.416748,41.3376328 C144.833707,41.2913041 145.204337,41.2449753 145.574967,41.2449753 C146.501542,41.2449753 147.242802,41.3376328 147.937734,41.5229479 C148.586337,41.7082629 149.188611,41.9862355 149.605569,42.4495232 C150.068857,42.866482 150.393158,43.468756 150.624802,44.2100162 C150.856446,44.9512764 150.949104,45.8315229 150.949104,46.8970845 C150.949104,47.3140433 150.902775,47.7310022 150.856446,48.1479611 C150.763789,48.5649199 150.671131,48.9818788 150.485816,49.3061802 C150.300501,49.6768103 150.115186,50.0011116 149.837213,50.2327554 C149.559241,50.510728 149.234939,50.6960431 148.864309,50.8350294 C149.651898,50.9740156 150.254172,51.4373033 150.671131,52.1785635 C151.08809,52.9198237 151.366062,53.9853853 151.366062,55.4215769 L151.366062,55.4215769 Z M162.299651,61.3053299 L162.299651,58.2939603 L164.291787,58.2939603 L164.291787,44.4879888 L162.299651,44.4879888 L162.299651,41.4766191 L170.129212,41.4766191 L170.129212,44.4879888 L168.137075,44.4879888 L168.137075,58.2939603 L170.129212,58.2939603 L170.129212,61.3053299 L162.299651,61.3053299 Z M181.479759,61.1200149 C181.016471,61.2590012 180.506855,61.3516587 179.904581,61.4443162 C179.302307,61.5369737 178.746362,61.5369737 178.236745,61.5369737 C177.31017,61.5369737 176.476252,61.4443162 175.781321,61.2590012 C175.086389,61.0736861 174.484115,60.703056 174.020828,60.1471108 C173.55754,59.5911657 173.18691,58.8499054 172.908937,57.8306726 C172.677294,56.8577686 172.538307,55.5142345 172.538307,53.9390565 C172.538307,51.4373033 173.047924,49.6304815 174.020828,48.5185912 C174.993732,47.4530296 176.429924,46.8970845 178.283074,46.8970845 C178.746362,46.8970845 179.302307,46.9434132 179.95091,47.0360707 C180.599512,47.1287283 181.109129,47.2213858 181.526087,47.3140433 L181.526087,50.6033855 C181.248115,50.5570568 181.016471,50.510728 180.784827,50.4643992 C180.553183,50.4180705 180.367868,50.3717417 180.136225,50.325413 C179.904581,50.2790842 179.672937,50.2790842 179.394964,50.2327554 C179.116992,50.2327554 178.839019,50.1864267 178.468389,50.1864267 C178.144088,50.1864267 177.866115,50.2327554 177.588143,50.3717417 C177.31017,50.510728 177.124855,50.6960431 176.93954,51.0203444 C176.754225,51.3446458 176.615239,51.7616046 176.522581,52.3175498 C176.429924,52.873495 176.383595,53.6147552 176.383595,54.4950017 C176.383595,55.9311933 176.56891,56.9040974 176.893211,57.4137138 C177.217512,57.9696589 177.727129,58.2013028 178.375732,58.2013028 C179.070663,58.2013028 179.672937,58.154974 180.136225,58.0623165 C180.599512,57.9696589 181.0628,57.8770014 181.479759,57.8306726 L181.479759,61.1200149 L181.479759,61.1200149 Z M195.888004,53.9390565 C195.888004,55.4215769 195.749018,56.6724536 195.471045,57.6453576 C195.193073,58.6182616 194.822443,59.4058506 194.312826,59.9617958 C193.80321,60.5177409 193.154607,60.9346998 192.413347,61.1663436 C191.672087,61.3979874 190.79184,61.490645 189.772607,61.490645 C188.753375,61.490645 187.919457,61.3979874 187.131868,61.1663436 C186.390608,60.9346998 185.742005,60.5177409 185.232389,59.9617958 C184.722772,59.4058506 184.352142,58.6182616 184.074169,57.6453576 C183.842526,56.6724536 183.703539,55.4679057 183.703539,53.9390565 C183.703539,51.5299608 184.166827,49.7694678 185.139731,48.6575775 C186.112635,47.5456871 187.641484,46.989742 189.772607,46.989742 C191.903731,46.989742 193.43258,47.5456871 194.405484,48.6575775 C195.424717,49.7694678 195.888004,51.5299608 195.888004,53.9390565 Z M192.089046,54.3560154 C192.089046,53.5220976 192.042717,52.8271662 191.996388,52.271221 C191.903731,51.7152759 191.811073,51.2519882 191.625758,50.9276869 C191.440443,50.6033855 191.208799,50.325413 190.930826,50.1864267 C190.652854,50.0474404 190.282224,49.9547828 189.865265,49.9547828 C189.448306,49.9547828 189.124005,50.0474404 188.799703,50.1864267 C188.521731,50.325413 188.290087,50.5570568 188.104772,50.9276869 C187.919457,51.2519882 187.826799,51.7152759 187.734142,52.271221 C187.641484,52.8271662 187.641484,53.5220976 187.641484,54.3560154 C187.641484,55.1436044 187.687813,55.7922071 187.734142,56.3018235 C187.780471,56.8114399 187.919457,57.2283987 188.104772,57.5527001 C188.290087,57.8770014 188.521731,58.0623165 188.799703,58.2013028 C189.077676,58.340289 189.448306,58.3866178 189.865265,58.3866178 C190.282224,58.3866178 190.652854,58.340289 190.930826,58.2013028 C191.208799,58.0623165 191.440443,57.8306726 191.625758,57.5527001 C191.811073,57.2747275 191.903731,56.8114399 191.996388,56.3018235 C192.042717,55.8385358 192.089046,55.1436044 192.089046,54.3560154 Z M199.177346,61.3053299 L199.177346,47.175057 L202.235045,47.175057 L202.466689,48.2869474 C202.883647,47.8699885 203.393264,47.5456871 203.949209,47.3140433 C204.505154,47.0823995 205.153757,46.9434132 205.848688,46.9434132 C206.821592,46.9434132 207.609181,47.0360707 208.211455,47.2677146 C208.813729,47.4993584 209.277017,47.8236597 209.601318,48.3332761 C209.92562,48.7965638 210.157263,49.3988377 210.249921,50.0937691 C210.342578,50.7887006 210.435236,51.6226183 210.435236,52.5955224 L210.435236,61.3516587 L206.682606,61.3516587 L206.682606,52.5028648 C206.682606,51.5762896 206.54362,50.9276869 206.265647,50.6497143 C205.987675,50.3717417 205.617045,50.2327554 205.107428,50.2327554 C204.412497,50.2327554 203.856552,50.4180705 203.53225,50.8350294 C203.16162,51.2519882 202.976305,51.7152759 202.976305,52.1785635 L202.976305,61.3516587 L199.177346,61.3516587 L199.177346,61.3053299 Z M222.990331,57.0430837 C222.990331,57.9233302 222.851345,58.6182616 222.573372,59.2205356 C222.295399,59.7764807 221.924769,60.2397684 221.415153,60.6103985 C220.905537,60.9810286 220.303263,61.2126724 219.608331,61.3516587 C218.9134,61.490645 218.125811,61.5833025 217.291893,61.5833025 C216.921263,61.5833025 216.550633,61.5833025 216.180003,61.5369737 C215.809373,61.490645 215.438742,61.490645 215.114441,61.4443162 C214.743811,61.3979874 214.465838,61.3516587 214.141537,61.3053299 C213.863564,61.2590012 213.631921,61.2126724 213.400277,61.1663436 L213.400277,57.9233302 C213.770907,58.0159877 214.280523,58.1086452 214.882797,58.2476315 C215.485071,58.3866178 216.133674,58.4329466 216.782277,58.4329466 C217.430879,58.4329466 217.986824,58.340289 218.450112,58.2013028 C218.9134,58.0623165 219.098715,57.7380151 219.098715,57.2283987 C219.098715,56.8114399 218.959728,56.4871385 218.728085,56.2554947 C218.496441,56.0238509 218.033153,55.8385358 217.291893,55.6995495 C215.855701,55.4215769 214.836468,54.9582893 214.234195,54.2170291 C213.631921,53.5220976 213.353948,52.5491936 213.353948,51.3446458 C213.353948,49.7694678 213.817236,48.6112487 214.79014,47.962646 C215.763044,47.2677146 217.245564,46.9434132 219.237701,46.9434132 C219.515674,46.9434132 219.839975,46.9434132 220.164276,46.989742 C220.488578,47.0360707 220.812879,47.0823995 221.090852,47.1287283 L221.924769,47.2677146 C222.202742,47.3140433 222.388057,47.3603721 222.527043,47.4067009 L222.527043,50.6497143 C222.110084,50.510728 221.600468,50.4180705 221.090852,50.2790842 C220.581235,50.1864267 219.932632,50.0937691 219.145043,50.0937691 C218.450112,50.0937691 217.940496,50.1864267 217.662523,50.325413 C217.338222,50.510728 217.199235,50.7887006 217.199235,51.2519882 C217.199235,51.5762896 217.338222,51.8542622 217.662523,52.0395772 C217.986824,52.2248923 218.403783,52.3638786 219.052386,52.4565361 C220.534906,52.6881799 221.554139,53.1977963 222.110084,53.9853853 C222.712358,54.6803167 222.990331,55.7458783 222.990331,57.0430837 Z"/>
  <path fill="#FF8700" d="M52.129851,10.6216626 C57.0870287,13.7720185 62.7854666,15.3935253 64.9165897,19.0534976 C67.0477128,22.7597987 65.6115211,28.4582366 65.1945623,33.9713594 C64.7776034,39.4381535 65.3798773,44.6733038 63.8510281,49.4914952 C62.3685077,54.2633579 58.8011929,58.5719329 54.2609741,60.9346998 C49.7207552,63.2974667 44.2076324,63.6680969 38.0459068,64.8263159 C31.8841813,65.9382063 25.073853,67.7913568 21.1822369,65.0579598 C17.2906208,62.3245627 16.3177167,55.0046181 12.1944568,49.0745363 C8.07119683,43.1907834 0.751252195,38.6968933 0.0563207423,33.7860444 C-0.638610711,28.8751954 5.24514226,23.5937164 9.55371727,18.0342648 C13.908621,12.5211419 16.6883469,6.73004647 21.3212232,3.3943755 C25.9077708,0.012375761 32.3011402,-0.91419951 37.628948,0.938951032 C42.9567558,2.79210157 47.1726733,7.47130669 52.129851,10.6216626 Z"/>
  <path fill="#FFF" d="M16.6420181,43.1444546 L16.6420181,39.8087836 L18.8657987,39.8087836 L18.8657987,24.4276341 L16.6420181,24.4276341 L16.6420181,21.0919632 L25.3518256,21.0919632 L25.3518256,24.4276341 L23.1743737,24.4276341 L23.1743737,39.8087836 L25.3981544,39.8087836 L25.3981544,43.1444546 L16.6420181,43.1444546 L16.6420181,43.1444546 Z M38.8334958,42.866482 C38.6481808,42.9128108 38.4165369,42.9591396 38.0922356,43.0054683 C37.7679343,43.0517971 37.3973041,43.0981258 37.0730028,43.1444546 L35.9611125,43.2834409 C35.5904824,43.3297697 35.266181,43.3297697 35.0345372,43.3297697 C33.8299894,43.3297697 32.8107566,43.1907834 31.9305101,42.866482 C31.0502635,42.5421807 30.3090033,41.9862355 29.7530582,41.105989 C29.197113,40.2720713 28.7338254,39.0675234 28.4558528,37.585003 C28.1778802,36.1024826 28.0388939,34.1566745 28.0388939,31.7475788 C28.0388939,29.3384831 28.1778802,27.4390038 28.5021816,26.0028121 C28.8264829,24.5666204 29.2897705,23.4547301 29.9383732,22.7134699 C30.5869759,21.9722097 31.3282361,21.4625933 32.2548114,21.2309495 C33.1813867,20.9993056 34.2469482,20.8603194 35.4514961,20.8603194 C35.6831399,20.8603194 35.9147837,20.8603194 36.2854138,20.9066481 C36.6097152,20.9529769 36.9803453,20.9529769 37.3046466,20.9993056 C37.628948,21.0456344 37.9532493,21.0919632 38.2312219,21.1382919 C38.5091945,21.1846207 38.7408383,21.2309495 38.8334958,21.2772782 L38.8334958,25.0762368 C38.3238794,24.9372505 37.6752767,24.844593 36.9803453,24.7519355 C36.2390851,24.659278 35.5904824,24.6129492 35.0345372,24.6129492 C34.5712496,24.6129492 34.2006195,24.7056067 33.8763181,24.844593 C33.5520168,24.9835793 33.2740442,25.3542094 33.0887291,25.817497 C32.8570853,26.3271134 32.718099,27.0683737 32.6254415,28.0412777 C32.4864552,29.0605105 32.4401265,30.3577159 32.4401265,31.9792226 C32.4401265,33.6007293 32.4864552,34.9442635 32.5791127,35.9171675 C32.6717703,36.8900715 32.8107566,37.6776605 33.0424004,38.2336057 C33.2277154,38.7895508 33.505688,39.1601809 33.8299894,39.2991672 C34.1542907,39.4844823 34.5712496,39.5771398 35.080866,39.5771398 C35.7294687,39.5771398 36.4244001,39.5308111 37.1656603,39.4381535 C37.9069205,39.345496 38.4628657,39.2065097 38.8798246,39.1138522 L38.8798246,42.866482 L38.8334958,42.866482 Z M55.7898233,31.8402363 C55.7898233,33.7860444 55.6971657,35.4538799 55.5118507,36.8900715 C55.3265356,38.3262632 54.9559055,39.5308111 54.4462891,40.5037151 C53.890344,41.4766191 53.1490838,42.1715506 52.1761797,42.681167 C51.2032757,43.1444546 49.9523991,43.4224272 48.3772211,43.4224272 C46.8020431,43.4224272 45.5511665,43.1907834 44.5782625,42.681167 C43.6053585,42.2178793 42.8640982,41.4766191 42.3081531,40.5037151 C41.7522079,39.5308111 41.4279066,38.3262632 41.2425915,36.8900715 C41.0572765,35.4538799 40.9646189,33.7397156 40.9646189,31.8402363 C40.9646189,29.9870858 41.0572765,28.365579 41.2425915,26.9757161 C41.4279066,25.5858532 41.7985367,24.4276341 42.3544818,23.5010589 C42.910427,22.5744836 43.6516872,21.8795521 44.6245913,21.4162645 C45.5974953,20.9529769 46.8020431,20.7213331 48.3308923,20.7213331 C49.8597415,20.7213331 51.0642894,20.9529769 52.0371934,21.4162645 C53.0100975,21.8795521 53.7513577,22.5744836 54.3073028,23.5010589 C54.863248,24.4276341 55.2338781,25.5858532 55.4191932,26.9757161 C55.6971657,28.4119078 55.7898233,29.9870858 55.7898233,31.8402363 L55.7898233,31.8402363 Z M51.3885907,32.0255514 C51.3885907,30.4040446 51.342262,29.1068393 51.2496044,28.0876065 C51.1569469,27.0683737 50.9716319,26.2807847 50.739988,25.6785108 C50.5083442,25.1225656 50.1840429,24.7056067 49.8134128,24.5202917 C49.4427827,24.2886479 48.979495,24.1959903 48.3772211,24.1959903 C47.7749472,24.1959903 47.3579883,24.2886479 46.9410294,24.5202917 C46.5703993,24.7519355 46.246098,25.1225656 46.0144542,25.6785108 C45.7828103,26.2344559 45.5974953,27.0683737 45.5048378,28.0876065 C45.4121802,29.1068393 45.3658515,30.4040446 45.3658515,32.0255514 C45.3658515,33.6007293 45.4121802,34.9442635 45.5048378,35.9634963 C45.5974953,36.9827291 45.7828103,37.8166468 46.0144542,38.4189207 C46.246098,39.0211947 46.5703993,39.4381535 46.9410294,39.7161261 C47.3116595,39.9477699 47.7749472,40.0867562 48.3772211,40.0867562 C48.979495,40.0867562 49.3964539,39.9477699 49.8134128,39.7161261 C50.1840429,39.4844823 50.5083442,39.0675234 50.739988,38.4189207 C50.9716319,37.8166468 51.1569469,36.9827291 51.2496044,35.9634963 C51.342262,34.8979347 51.3885907,33.6007293 51.3885907,32.0255514 Z"/>
</svg>