<?xml version="1.0" encoding="UTF-8"?>
<svg width="32px" height="32px" viewBox="0 0 32 32" version="1.1" xmlns="http://www.w3.org/2000/svg" xmlns:xlink="http://www.w3.org/1999/xlink">
    <!-- Generator: Sketch 57.1 (83088) - https://sketch.com -->
    <title>Newsletter-Kachel (AMD/FRES)</title>
    <desc>Created with Sketch.</desc>
    <g id="Newsletter-Kachel-(AMD/FRES)" stroke="none" stroke-width="1" fill="none" fill-rule="evenodd">
        <g id="bg">
            <polygon fill="#FFFFFF" points="0 0 32 0 32 32 0 32"></polygon>
            <path d="M0,0 L0,32 L32,32 L32,0 L0,0 L0,0 Z M2,2 L30,2 L30,30 L2,30 L2,2 L2,2 Z" id="border" fill="#999999"></path>
        </g>
        <rect id="Rectangle" fill="#FFFFFF" x="2" y="2" width="28" height="28"></rect>
        <rect id="Rectangle-31" fill="#C2E5EC" x="4" y="4" width="24" height="18"></rect>
        <rect id="button" fill="#FF8700" x="8" y="24" width="9" height="4"></rect>
        <rect id="icon" fill="#C76701" x="4" y="24" width="4" height="4"></rect>
        <path d="M26,17 L26,20 L6,20 L6,17 L26,17 Z M26,13 L26,16 L6,16 L6,13 L26,13 Z M16,9 L16,11 L6,11 L6,9 L16,9 Z M21,6 L21,8 L6,8 L6,6 L21,6 Z" id="Combined-Shape" fill="#FFFFFF"></path>
        <path d="M17,18 L17,19 L7,19 L7,18 L17,18 Z M15,14 L15,15 L7,15 L7,14 L15,14 Z" id="Combined-Shape" fill="#B9B9B9"></path>
    </g>
</svg>