<svg width="32" height="32" viewBox="0 0 32 32" xmlns="http://www.w3.org/2000/svg">
  <g fill="none" fill-rule="evenodd">
    <path fill="#fff" d="M0 0h32v32H0z"/>
    <path fill="#999" d="M0 0v32h32V0H0zm2 2h28v28H2V2z"/>
    <path fill="#ffc857" d="M13.266 6.692c1.05 0 1.97.826 1.97 1.842V9.93c0 .592-.385 1.328-.925 1.845.019.935.201 1.346.286 1.58.778.287 1.555.709 2.67 1.017.001 0 .373.206.661.865l.218-.09.259-.1c.085-.233.269-.645.285-1.58-.535-.517-.92-1.253-.92-1.845v-1.396c0-1.016.92-1.84 1.97-1.84h.526c1.05 0 1.97.824 1.97 1.84v1.396c0 .592-.385 1.328-.925 1.845.019.935.201 1.347.286 1.58.778.287 1.555.709 2.67 1.017 0 0 .916.508.986 2.474v6.77h-10.5v-1.692h-7v-6.77c.065-1.966.982-2.474.982-2.474 1.116-.308 1.893-.731 2.67-1.018.085-.233.269-.644.285-1.58-.535-.516-.92-1.252-.92-1.844V8.534c0-1.016.92-1.842 1.97-1.842z"/>
    <path fill="#367e04" d="M24.267 16.064c-1.108-.306-1.882-.724-2.652-1.012.048.148.055.222-.038.313-.788.826-2.43.762-3.15 0-.097-.093-.077-.167-.02-.32-.777.287-1.554.71-2.67 1.02 0 0-.92.507-.984 2.473v6.77h10.5v-6.77c-.07-2.03-.987-2.474-.987-2.474h.001z"/>
    <path fill="#4eb406" d="M14.615 13.36c.047.147.054.222-.038.313-.788.826-2.43.762-3.15 0-.096-.093-.077-.167-.02-.32-.777.286-1.554.71-2.67 1.02 0 0-.92.507-.984 2.473v6.77h10.5v-6.77c-.07-2.03-.987-2.474-.987-2.474-1.107-.306-1.88-.724-2.65-1.012h-.001z"/>
  </g>
</svg>
