<svg width="32" height="32" viewBox="0 0 32 32" xmlns="http://www.w3.org/2000/svg">
  <g fill="none" fill-rule="evenodd">
    <path fill="#fff" d="M0 0h32v32H0z"/>
    <path fill="#999" d="M0 0v32h32V0H0zm2 2h28v28H2V2z"/>
    <path fill="#edeef0" d="M2 2h28v28H2z"/>
    <path fill="#d9dade" d="M2 6h28v20H2z"/>
    <path fill="#083f54" d="M16 15v2H4.154v-2H16zm0-3v2H4.154v-2H16zm0-3v2H4.154V9H16z"/>
    <path fill="#bd10e0" d="M20 11h7v11h-7z"/>
    <path fill="#f59c2b" stroke="#f59c2b" d="M4.5 20.5h8v2h-8z"/>
    <path fill="#8e8e8e" d="M19 21h9v2h-9z"/>
    <circle fill="#cbae51" cx="26.5" cy="10.5" r="2.5"/>
  </g>
</svg>
