<svg width="32" height="32" viewBox="0 0 32 32" xmlns="http://www.w3.org/2000/svg">
  <g fill="none" fill-rule="evenodd">
    <path fill="#fff" d="M0 0h32v32H0z"/>
    <path fill="#999" d="M0 0v32h32V0H0zm2 2h28v28H2V2z"/>
    <path fill="#96cf64" d="M2 2h28v28H2z"/>
    <path fill="#649ccb" d="M2 2h5.398L9 23H2z"/>
    <path stroke="#fff" stroke-linecap="square" d="M19.587 23.91l-1.093 7.165-.075.495-.989-.151.076-.494 1.056-6.93 1.025-.085zM8.11 23.374l1.005.067.383 7.534.026.499-.999.05-.025-.499-.39-7.65zm10.606-.395l-.155 1.016-.02.003-.499.042-.043-.523.032-.48.426-.035.259-.023zm-9.652-.544l8.468.566.5.033-.001.002-.072.007.04.474-.034.515-.5-.033-8.35-.558-.051-1.006zm21.892-.475l.083.997-.498.041-10.955.912.155-1.016 10.716-.892.499-.042zm-28.923.008l.5.033 5.526.367.05 1.006L2.468 23l-.5-.033.067-.998zm6.398-11.97L8.38 8.993l-.36-.014-.04 1 .45.017zM21.78 9.53l11.74.47.5.02-.04 1-.5-.02-11.851-.475.15-.995zm-1.157.955l1.006.04-1.887 12.37-1.025.084 1.906-12.494zm1.157-.955l-1.005-.04 1.23-8.065.076-.495.989.151-.076.494L21.78 9.53zm-1.157.955L8.432 9.997l.633 12.438-1.005-.067L7 1.525l-.025-.499.999-.05.025.499.382 7.52 12.394.495-.152.995z"/>
    <path fill="#ed7b00" d="M22 6c3.314 0 6 2.681 6 5.99C28 15.296 22 26 21.333 26 20.667 26 16 15.297 16 11.99A5.995 5.995 0 0 1 22 6zm0 2a4 4 0 1 0 0 8 4 4 0 0 0 0-8z"/>
  </g>
</svg>
