<svg width="32" height="32" viewBox="0 0 32 32" xmlns="http://www.w3.org/2000/svg">
  <g fill="none" fill-rule="evenodd">
    <path fill="#fff" d="M0 0h32v32H0z"/>
    <path fill="#999" d="M0 0v32h32V0H0zm2 2h28v28H2V2z"/>
    <path fill="#ebe7e0" d="M2 2h28v28H2z"/>
    <path fill="#fff" d="M10 17v11H2V17h8zm10 0v11h-8V17h8zm10 0v11h-8V17h8zM10 4v11H2V4h8zm10 0v11h-8V4h8zm10 0v11h-8V4h8z"/>
    <path fill="#f59c2b" d="M9 24v3H3v-3h6zm10 0v3h-6v-3h6zm10 0v3h-6v-3h6zM9 11v3H3v-3h6zm10 0v3h-6v-3h6zm10 0v3h-6v-3h6z"/>
    <path fill="#083f54" d="M19 22v1h-6v-1h6zM9 22v1H3v-1h6zm20 0v1h-6v-1h6zM19 9v1h-6V9h6zM9 9v1H3V9h6zm20 0v1h-6V9h6z"/>
    <path fill="#8aafbf" d="M10 17v4H2v-4h8zm10 0v4h-8v-4h8zm10 0v4h-8v-4h8zM10 4v4H2V4h8zm10 0v4h-8V4h8zm10 0v4h-8V4h8z"/>
  </g>
</svg>
