<svg width="32" height="32" viewBox="0 0 32 32" xmlns="http://www.w3.org/2000/svg">
  <g fill="none" fill-rule="evenodd">
    <path fill="#fff" d="M0 0h32v32H0z"/>
    <path fill="#999" d="M0 0v32h32V0H0zm2 2h28v28H2V2z"/>
    <path fill="#ebe7e0" d="M2 2h28v28H2z"/>
    <path fill="#083f54" d="M12.732 11.336l-6.444 8.916H5.256l6.456-8.916h1.02zm-.756 3.996c.376 0 .686.064.93.192s.44.3.588.516c.148.216.252.47.312.762.06.292.09.602.09.93 0 .312-.034.614-.102.906-.068.292-.18.548-.336.768-.156.22-.354.396-.594.528s-.536.198-.888.198c-.36 0-.664-.062-.912-.186a1.609 1.609 0 0 1-.6-.504 2.1 2.1 0 0 1-.33-.75 4.013 4.013 0 0 1-.102-.924c0-.328.032-.638.096-.93.064-.292.172-.55.324-.774.152-.224.352-.402.6-.534s.556-.198.924-.198zM27 18v2H17v-2h10zm-15.024-2.008c-.224 0-.404.058-.54.174-.136.116-.242.26-.318.432-.076.172-.126.36-.15.564a4.99 4.99 0 0 0-.006 1.152c.02.204.066.392.138.564.072.172.174.316.306.432.132.116.31.174.534.174.232 0 .416-.056.552-.168.136-.112.242-.254.318-.426.076-.172.126-.362.15-.57a5.143 5.143 0 0 0 .006-1.158 1.944 1.944 0 0 0-.138-.564 1.164 1.164 0 0 0-.306-.432c-.132-.116-.314-.174-.546-.174zM27 15v2H17v-2h10zM6.048 11.492c.376 0 .686.064.93.192s.44.3.588.516c.148.216.252.47.312.762.06.292.09.602.09.93 0 .312-.034.614-.102.906-.068.292-.18.548-.336.768-.156.22-.354.398-.594.534s-.536.204-.888.204c-.36 0-.664-.062-.912-.186a1.587 1.587 0 0 1-.6-.51 2.162 2.162 0 0 1-.33-.756 4.013 4.013 0 0 1-.102-.924c0-.328.032-.638.096-.93.064-.292.172-.55.324-.774.152-.224.352-.402.6-.534s.556-.198.924-.198zm0 .66c-.224 0-.404.058-.54.174-.136.116-.242.26-.318.432-.076.172-.126.36-.15.564a4.99 4.99 0 0 0-.006 1.152c.02.204.066.392.138.564.072.172.174.316.306.432.132.116.31.174.534.174.232 0 .416-.056.552-.168.136-.112.242-.254.318-.426.076-.172.126-.362.15-.57a5.143 5.143 0 0 0 .006-1.158 1.944 1.944 0 0 0-.138-.564 1.164 1.164 0 0 0-.306-.432c-.132-.116-.314-.174-.546-.174zM27 12v2H17v-2h10z"/>
  </g>
</svg>
