<svg width="32" height="32" viewBox="0 0 32 32" xmlns="http://www.w3.org/2000/svg">
  <g fill="none" fill-rule="evenodd">
    <path fill="#fff" d="M0 0h32v32H0z"/>
    <path fill="#999" d="M0 0v32h32V0H0zm2 2h28v28H2V2z"/>
    <path fill="#004995" d="M28 4v7.39H4V4h24zm-2 2h-3.5l1.75 3.5L26 6zm-7 .75H6v1.847h13V6.75zM28 12.5v7.39H4V12.5h24zm-2 2h-3.5l1.75 3.5L26 14.5zm-7 .75H6v1.847h13V15.25z"/>
    <g fill="#004995">
      <path d="M28 21v7.39H4V21h24zm-2 2h-3.5l1.75 3.5L26 23zm-7 .75H6v1.847h13V23.75z"/>
    </g>
  </g>
</svg>
