<svg width="32" height="32" viewBox="0 0 32 32" xmlns="http://www.w3.org/2000/svg">
  <g fill="none" fill-rule="evenodd">
    <path fill="#fff" d="M0 0h32v32H0z"/>
    <path fill="#999" d="M0 0v32h32V0H0zm2 2h28v28H2V2z"/>
    <path fill="#ffc857" d="M4 19h24v9H4z"/>
    <path fill="#b9b9b9" d="M26.03 24v2h-20v-2h20zm0-3v2h-20v-2h20z"/>
    <path fill="#59f" d="M4 8h24v11H4z"/>
    <path fill="#efefef" d="M14.082 12.777l1.532 1.71.84-.828 2.673 2.666-8.104.023 3.06-3.571zM19.564 10c.785 0 1.422.669 1.422 1.494s-.637 1.494-1.422 1.494c-.785 0-1.421-.669-1.421-1.494S18.779 10 19.564 10z"/>
    <path fill="#515151" d="M4 4h24v3H4z"/>
  </g>
</svg>
