<svg width="36" height="36" viewBox="0 0 36 36" xmlns="http://www.w3.org/2000/svg">
  <g fill="none" fill-rule="nonzero">
    <path fill="#FFF" d="M2 2h32v32H2z"/>
    <path fill="#999" d="M2 2v32h32V2H2zm2 2h28v28H4V4z"/>
    <path fill="#59F" d="M6 15h24v12H6z"/>
    <path fill="#666" d="M6 10h24v3H6z"/>
    <path fill="#FFF" d="M21 18h-5v4.1c-.2-.1-.3-.1-.5-.1-.8 0-1.5.7-1.5 1.5s.7 1.5 1.5 1.5 1.5-.7 1.5-1.5V19h4v3.1c-.2-.1-.3-.1-.5-.1-.8 0-1.5.7-1.5 1.5s.7 1.5 1.5 1.5 1.5-.7 1.5-1.5V18h-1z"/>
  </g>
</svg>
