<svg width="32" height="32" viewBox="0 0 32 32" xmlns="http://www.w3.org/2000/svg">
  <g fill="none" fill-rule="evenodd">
    <path fill="#fff" d="M0 0h32v32H0z"/>
    <path fill="#999" d="M0 0v32h32V0H0zm2 2h28v28H2V2z"/>
    <path fill="#59f" d="M4 7h10v18H4z"/>
    <path fill="#efefef" d="M10.312 17.75c1.487 0 2.688 1.119 2.688 2.5H5c0-1.381 1.205-2.5 2.688-2.5zM9 12.75a2 2 0 1 1 0 4 2 2 0 0 1 0-4z"/>
    <path fill="#b9b9b9" d="M28 23v2H16v-2h12zm0-4v2H16v-2h12zm0-4v2H16v-2h12zm0-4v2H16v-2h12zm0-4v2H16V7h12z"/>
  </g>
</svg>
