<svg width="32" height="32" viewBox="0 0 32 32" xmlns="http://www.w3.org/2000/svg">
  <g fill="none" fill-rule="evenodd">
    <path fill="#fff" d="M0 0h32v32H0z"/>
    <path fill="#999" d="M0 0v32h32V0H0zm2 2h28v28H2V2z"/>
    <path fill="#639" d="M24.887 13.8c.034-.26.079-.517.079-.786a5.986 5.986 0 0 0-5.99-5.982c-1.957 0-3.678.95-4.77 2.401a5.178 5.178 0 0 0-1.22-.158 5.237 5.237 0 0 0-5.242 5.235c0 .082.02.155.023.236C5.596 15.385 4 17.368 4 19.744a5.237 5.237 0 0 0 5.241 5.234h12.73c3.31 0 5.99-2.676 5.99-5.982 0-2.24-1.248-4.17-3.074-5.196zm-8.906-.786a4.49 4.49 0 0 1 4.492 4.487 4.489 4.489 0 0 1-4.492 4.486 4.489 4.489 0 0 1-4.493-4.486 4.49 4.49 0 0 1 4.493-4.487zm-1.498 2.244v4.486l3.744-2.243-3.744-2.243z"/>
  </g>
</svg>
