<svg width="32" height="32" viewBox="0 0 32 32" xmlns="http://www.w3.org/2000/svg">
  <defs>
    <linearGradient x1="50%" y1="0%" x2="50%" y2="100%" id="gradian">
      <stop stop-color="#e6e6e6" offset="0%"/>
      <stop stop-color="#080808" offset="100%"/>
    </linearGradient>
  </defs>
  <g fill="none" fill-rule="evenodd">
    <path fill="#fff" d="M0 0h32v32H0z"/>
    <path fill="#025081" d="M0 0v32h32V0H0zm2 2h28v28H2V2z"/>
    <path fill="url(#gradian)" d="M2 2h28v28H2z"/>
    <path stroke="#fff" d="M16 28c2.209139 0 4-1.790861 4-4s-1.790861-4-4-4-4 1.790861-4 4 1.790861 4 4 4z"/>
    <path fill="#d8d8d8" d="M18 24l-3 2v-4z"/>
    <path fill="#af2228" d="M2 2h12v5H2z"/>
    <path fill="#fff" d="M7 10h18v2H7v-2zm3 7h12v1H10v-1zm0-2h12v1H10v-1z"/>
  </g>
</svg>
