<svg width="36" height="36" viewBox="0 0 36 36" xmlns="http://www.w3.org/2000/svg">
  <g fill="none" fill-rule="nonzero">
    <path fill="#FFF" d="M2 2h32v32H2z"/>
    <path fill="#999" d="M2 2v32h32V2H2zm2 2h28v28H4V4z"/>
    <path fill="#B9B9B9" d="M30 25v2H6v-2h24zm0-3v2H6v-2h24zm0-3v2H6v-2h24z"/>
    <path fill="#FFC857" d="M11.7 14.3c-.1 0-.1 0 0 0-.1-.2-.3-.6-.3-1.3.4-.4.6-1 .6-1.4v-1.2c0-.8-.6-1.4-1.3-1.4h-.4C9.6 9 9 9.6 9 10.4v1.1c0 .5.3 1 .6 1.5 0 .7-.1 1.1-.2 1.2 0 0-.1 0-.1.1.6.6 1.8.7 2.4 0z"/>
    <path fill="#59F" d="M13.3 15c-.7-.2-1.2-.5-1.7-.8-.6.7-1.8.6-2.3 0-.5.2-1 .5-1.7.8 0 0-.6.4-.7 2h7c.1-1.6-.6-2-.6-2z"/>
  </g>
</svg>
