<svg width="32" height="32" viewBox="0 0 32 32" xmlns="http://www.w3.org/2000/svg">
  <path fill="#fff" d="M0 0h32v32H0z"/>
  <path fill="#999" d="M0 0v32h32V0H0zm2 2h28v28H2V2z"/>
  <path fill="#b9b9b9" d="M28,23v2H4v-2H28z M28,20v2H4v-2H28z M28,17v2H4v-2H28z"/>
  <path fill="#ffc857" d="M9.7,12.3C9.6,12.3,9.6,12.3,9.7,12.3c-0.1-0.2-0.3-0.6-0.3-1.3c0.4-0.4,0.6-1,0.6-1.4V8.4C10,7.6,9.4,7,8.7,7 H8.3C7.6,7,7,7.6,7,8.4v1.1c0,0.5,0.3,1,0.6,1.5c0,0.7-0.1,1.1-0.2,1.2c0,0-0.1,0-0.1,0.1C7.9,12.9,9.1,13,9.7,12.3z"/>
  <path fill="#59f" d="M11.3,13c-0.7-0.2-1.2-0.5-1.7-0.8c-0.6,0.7-1.8,0.6-2.3,0c-0.5,0.2-1,0.5-1.7,0.8c0,0-0.6,0.4-0.7,2h7 C12,13.4,11.3,13,11.3,13z"/>
</svg>
