<svg width="36" height="36" viewBox="0 0 36 36" xmlns="http://www.w3.org/2000/svg">
  <g fill="none" fill-rule="nonzero">
    <path fill="#FFF" d="M2 2h32v32H2z"/>
    <path fill="#999" d="M2 2v32h32V2H2zm2 2h28v28H4V4z"/>
    <path fill="#FFC857" d="M12.011 19.616c.977 1.014 3.241.905 4.358-.243.07-.068.003-.305-.067-.373-.07 0-.088-.217-.158-.217-.07-.338-.26-.81-.33-2.094.698-.676 1.186-1.69 1.186-2.433v-1.824C17 11.081 15.884 10 14.349 10h-.698C12.256 10 11 11.081 11 12.432v1.824c0 .811.488 1.757 1.256 2.433 0 1.216-.28 1.824-.349 2.094-.07 0-.077.217-.147.217-.178.24.182.549.251.616z"/>
    <path fill="#995810" d="M19.67 20.397c-1.4-.441-2.38-.956-3.36-1.397 0 .147 0 .22-.07.294-1.12 1.25-3.43 1.103-4.41 0-.07-.073-.14-.22-.07-.294-.98.441-1.96.956-3.43 1.397 0 0-1.19 3.735-1.33 6.603h14c-.07-2.941-1.33-6.603-1.33-6.603z"/>
    <path fill="#FFC857" d="M20.011 21.616c.977 1.014 3.241.905 4.358-.243.07-.068.003-.305-.067-.373-.07 0-.088-.217-.158-.217-.07-.338-.26-.81-.33-2.094.698-.676 1.186-1.69 1.186-2.433v-1.824C25 13.081 23.884 12 22.349 12h-.698C20.256 12 19 13.081 19 14.432v1.824c0 .811.488 1.757 1.256 2.433 0 1.216-.28 1.824-.349 2.094-.07 0-.077.217-.147.217-.178.24.182.549.251.616z"/>
    <path fill="#FF8700" d="M27.67 22.397c-1.4-.441-2.38-.956-3.36-1.397 0 .147 0 .22-.07.294-1.12 1.25-3.43 1.103-4.41 0-.07-.073-.14-.22-.07-.294-.98.441-1.96.956-3.43 1.397 0 0-1.19 1.735-1.33 4.603h14c-.07-2.941-1.33-4.603-1.33-4.603z"/>
  </g>
</svg>
