<svg width="32" height="32" viewBox="0 0 32 32" xmlns="http://www.w3.org/2000/svg">
  <path fill="#fff" d="M0 0h32v32H0z"/>
  <path fill="#999" d="M0 0v32h32V0H0zm2 2h28v28H2V2z"/>
  <path fill="#b9b9b9" d="M21.9816336,7.07622411 C22.092199,7.0807754 22.525786,7.3619456 22.4951418,7.40927213 C22.439072,7.49581499 22.5394227,7.70356577 22.3159478,7.671741 C22.2599464,7.66376769 22.2079831,7.68289678 22.1699302,7.72909404 C22.0625472,7.77050047 21.9482518,7.76297203 21.8370362,7.77664299 C21.7424174,7.66932847 21.9002067,7.55077262 21.8224926,7.44248282 C21.8113882,7.38643015 21.7432215,7.32572353 21.8355818,7.27803769 C21.9460617,7.26831916 21.9761755,7.20018676 21.963514,7.10098242 C21.9695025,7.09266692 21.9755766,7.08443696 21.9816507,7.07622411 L21.9816336,7.07622411 Z M9.47511178,8.38668635 L9.07230591,8.48226334 C8.95835267,8.40424131 8.97633538,8.3169456 9.05410077,8.2250986 C9.12091569,8.17748121 9.19284653,8.14977996 9.27656623,8.16908015 C9.37813176,8.20928887 9.59696988,8.14264505 9.47509467,8.38666924 L9.47511178,8.38668635 Z M9.55244941,8.01442199 C9.81880227,7.87452985 9.91367776,7.89345362 9.97109924,8.09786793 C9.97777217,8.2000152 9.88660958,8.18235758 9.83310631,8.21074323 C9.75905382,8.26956774 9.69229023,8.25507549 9.63062544,8.19039933 L9.6317376,8.19202479 C9.58121149,8.14360322 9.49465151,8.11123092 9.55246652,8.01442199 L9.55244941,8.01442199 Z M11.9567943,5.64022511 C12.0707646,5.62472336 12.20152,5.50596219 12.2811675,5.69326641 C12.3128212,5.71006852 12.3113155,5.72303797 12.2766162,5.73215765 C12.2485214,5.87405168 12.1690621,5.92711008 12.023421,5.89497732 C11.825423,5.85132947 11.9872674,5.72249045 11.9567943,5.640208 L11.9567943,5.64022511 Z M8.76538501,8.42523539 C8.77881644,8.43242163 8.78848364,8.42941026 8.79438662,8.41614993 C8.87480407,8.37804575 8.93515138,8.41175264 8.95311698,8.47890976 C8.97251983,8.55142235 8.97691712,8.63392723 8.90339504,8.69311105 C8.82937677,8.75270552 8.76420441,8.72235221 8.70221454,8.67273293 L8.57142496,8.54442432 C8.54986624,8.38512933 8.69182871,8.45262866 8.76540212,8.4252525 L8.76538501,8.42523539 Z M10.3191528,8.10144394 L10.2529367,8.09571206 C10.1956008,8.13409 10.1256034,8.15244914 10.0917596,8.0844194 C10.0541859,8.00892965 10.0378115,7.91644959 10.1506868,7.8718949 C10.2450319,7.86585503 10.3118639,7.72883739 10.4254407,7.81418254 C10.4426069,7.83106618 10.4551145,7.8521027 10.4617483,7.87524848 C10.4926321,8.00001529 10.3666847,8.02597131 10.3191528,8.10144394 L10.3191528,8.10144394 Z M11.2481112,6.91549187 C11.1264071,6.97623271 11.0340639,6.88820127 10.9318653,6.87478696 C10.8337903,6.86192016 10.8209919,6.77183551 10.858463,6.69434389 C10.9050196,6.59801405 10.9691311,6.64859149 11.0247047,6.69275265 C11.1067305,6.75794211 11.191357,6.82099282 11.2481283,6.91549187 L11.2481112,6.91549187 Z M12.5930332,6.08122072 C12.492135,6.06279314 12.4322838,6.01418336 12.4604984,5.90084609 C12.5161062,5.7990068 12.5945047,5.75031146 12.7122563,5.79289849 C12.8240537,5.99806565 12.7987479,6.0591658 12.5930332,6.08122072 Z M10.7427303,7.7685157 C10.7942146,7.83079645 10.8713469,7.78882538 10.9317113,7.8149525 C10.9475895,7.83438957 10.9531845,7.85644448 10.9488214,7.8812199 C10.9292988,7.97583873 10.8789267,8.03565562 10.7747947,8.0347659 C10.7348939,8.03142943 10.6987574,8.01892195 10.6679934,7.99233286 C10.5956177,7.8115647 10.6115301,7.7641184 10.7427303,7.7685157 Z M11.1813134,7.79433483 C11.3208805,7.77722474 11.3646823,7.87738724 11.407372,7.97893566 C11.3925225,8.00128493 11.3709601,8.01834194 11.3457928,8.0276481 C11.2525599,8.03468035 11.1529791,8.06109834 11.0994416,7.94683712 C11.0907155,7.87671994 11.0805521,7.80569594 11.1813134,7.79433483 L11.1813134,7.79433483 Z M12.0120599,4.6331762 C12.0308981,4.73393756 11.9317451,4.74788229 11.8876353,4.80232661 C11.8239857,4.77888578 11.7908606,4.80266881 11.7852314,4.86876511 C11.7869937,4.91102705 11.7801326,4.95157797 11.7626118,4.99024679 C11.7458781,5.01921418 11.721924,5.03786419 11.6880118,5.04217593 C11.6679417,5.04332231 11.6443811,5.06938098 11.6245847,5.07020227 C11.6160638,5.12827393 11.6325238,5.18723532 11.6627915,5.25069667 C11.7632278,5.24453703 11.7493344,5.34552082 11.7902617,5.39515721 C11.7961305,5.44015676 11.8057464,5.47146823 11.731557,5.47418874 C11.6292215,5.47795296 11.6157216,5.4143034 11.5949671,5.34577747 C11.5902276,5.31116375 11.6001001,5.28585792 11.6224288,5.26843984 C11.5334563,5.19691964 11.5438935,5.12153256 11.5979614,5.04445157 C11.5953833,5.03706999 11.5933475,5.02951005 11.5918702,5.02183203 C11.5199393,4.66662644 11.642516,4.290153 11.938726,4 C11.9804062,4.10368718 11.9781306,4.19200949 11.9170646,4.2786208 C11.855571,4.42178097 11.8913995,4.53884825 12.012077,4.6331762 L12.0120599,4.6331762 Z M24.2039955,15.2449945 C24.4479512,15.6987884 24.1868341,16.0955715 24.0641205,16.5077709 C24.0508259,16.5524624 24.0290277,16.5947244 24.0168453,16.6396555 C23.9546159,16.8690334 23.7676025,16.9280975 23.5750113,16.7811046 C23.5412188,16.7553026 23.5092743,16.7429662 23.5521864,16.6988051 C23.580247,16.6699575 23.6039273,16.6039809 23.5786386,16.596538 C23.3961937,16.5427952 23.3536751,16.2888643 23.1323731,16.2927141 C23.0707254,16.293792 23.008958,16.2748169 22.9355557,16.3103717 C22.9935589,16.4266006 23.1568063,16.4853224 23.1281811,16.6487581 C23.1174189,16.710132 23.1285404,16.7961102 23.0534784,16.8007128 C22.6877673,16.8231613 22.4193099,17.0307238 22.1345979,17.2606664 C21.8317149,17.1839105 21.6653877,17.3640114 21.5211667,17.5859293 C21.1543776,17.5467985 20.9846625,17.8794017 20.7107812,18.0155638 C20.6694946,18.0216892 20.626206,18.0243071 20.6093013,18.0732762 C20.5964345,18.2095581 20.5119448,18.2793502 20.38764,18.3122358 C20.2765441,18.3184467 20.1653456,18.1821991 20.0543353,18.3124753 C19.9002076,18.419653 19.6947838,18.3415625 19.542213,18.454318 C19.3991384,18.4538218 19.4309803,18.5538303 19.4363358,18.6385937 C19.3161887,18.7350091 19.3789998,18.9183609 19.2577577,19.0142459 C19.2226478,19.0749867 19.1649354,19.0967508 19.1000711,19.1703755 C19.1592891,19.2542834 19.1857584,19.3684249 19.3071888,19.3949284 C19.3925339,19.4609734 19.4849284,19.5198663 19.5615474,19.5948257 C19.6684,19.6994026 19.7539163,19.8099509 19.6734988,19.9821811 C19.517027,20.3171284 19.5248805,20.3280788 19.8089081,20.6597409 C19.7306465,20.6941151 19.7565683,20.7515537 19.7761936,20.8075893 C19.8013968,20.9543254 19.982182,20.9680991 20.0231778,21.1162896 C20.1068291,21.418625 20.2597078,21.5164605 20.5762959,21.5144929 C20.7381061,21.585688 20.8119875,21.7378309 20.8766978,21.881282 C20.9333665,22.0068701 21.0276944,22.0882799 21.1372333,22.1142873 C21.3450012,22.1635986 21.4329813,22.2988196 21.4809238,22.4816581 C21.5209443,22.6344 21.6035518,22.6786467 21.7704779,22.7015913 C21.960708,22.7277526 22.1406548,22.8506716 22.3174021,22.9458037 C22.4589882,23.0219436 22.3704605,23.1740524 22.4045952,23.2873212 C22.3900687,23.4473006 22.4980163,23.6075195 22.4036883,23.7673278 C22.3393886,23.8228501 22.2676631,23.8718876 22.2127054,23.9354859 C22.1455997,24.0131144 22.0933112,24.0017875 22.0135268,23.9514325 C21.8449924,23.8450761 21.652846,23.9300791 21.6621881,24.1273585 C21.683148,24.5703046 21.3890083,24.7111549 21.0563538,24.8491307 C20.8660383,24.9280767 20.6493047,24.977542 20.5243325,25.1703899 C20.4936712,25.1718272 20.4804622,25.1899639 20.4781524,25.2185719 C20.3976152,25.3029247 20.4074535,25.3869182 20.4792303,25.4706379 C20.5075989,25.5863363 20.5585014,25.6960634 20.6737208,25.7364603 C20.7775791,25.7728877 20.773062,25.8631092 20.8125521,25.9324051 C20.9283703,26.0815025 20.7686134,26.1679085 20.7257012,26.2759245 C20.6867587,26.3739312 20.6392953,26.4238242 20.7858432,26.478029 C20.9684935,26.5455796 21.074713,26.6895611 20.9726342,26.8965419 C20.9379691,26.9668302 20.9606229,27.0350139 20.9434101,27.1018631 C20.9268818,27.1660773 20.9514005,27.2546562 20.8595877,27.2774126 C20.7866132,27.2954809 20.7190625,27.2680705 20.6693406,27.2114532 C20.5515034,27.0773101 20.3177281,27.0294189 20.3819252,26.7596783 C20.4076588,26.6515938 20.1535568,26.5777466 20.0083092,26.6730327 C19.8628049,26.7685071 19.7581424,26.8260997 19.6162484,26.6574625 C19.5351123,26.5610472 19.339544,26.7075951 19.2416229,26.5497545 C19.236507,26.5414903 19.1505116,26.6370844 19.1723783,26.6967815 C19.2018248,26.7772332 19.1728061,26.8346376 19.1075482,26.831592 C18.7978041,26.8171169 18.5349246,27.017613 18.2293725,27.0124799 C18.1889413,26.989963 18.1558675,26.9809118 18.1281492,26.9816304 C18.0375341,26.9628093 17.969761,26.9857882 17.9470559,27.1657351 C17.8665187,27.1924952 17.7634817,27.1542028 17.7065393,27.249027 C17.5505637,27.4057041 17.419757,27.6123941 17.0990454,27.5255261 C16.7028098,27.7829818 16.6033146,27.4814676 16.4895495,27.2042157 C16.4820211,27.1859079 16.4580669,27.1568207 16.4488275,27.1592845 C16.2658521,27.2081852 16.0920991,27.0982699 15.9221103,27.1189389 C15.8005944,27.1337221 15.7046581,27.1455451 15.6282102,27.0370158 C15.5541577,27.1514139 15.6436948,27.1907842 15.6633372,27.2515764 C15.7342243,27.4709621 15.4899777,27.9106402 15.2641416,27.9765996 C15.2128968,27.9915709 15.1648859,28.0238748 15.1143769,27.9702689 C15.0679914,27.921026 15.1157115,27.8847184 15.1244719,27.8433462 C15.1483918,27.7302142 15.2693259,27.5584118 14.9911671,27.6362285 C14.9409319,27.6502587 14.9133675,27.6185366 14.9061128,27.5573167 C14.8769743,27.3114104 14.7235139,27.1766342 14.4924934,27.1165093 C14.4512923,27.1057984 14.4111349,27.1085018 14.4009372,27.0381451 C14.3809013,26.899981 14.3114857,26.9299408 14.2724746,27.0277421 C14.2260721,27.1441421 14.1696772,27.1251328 14.0771287,27.0840001 C13.7754606,26.9499767 13.4716708,26.8214115 13.1952743,26.6378715 C13.169421,26.538017 13.1004502,26.4793465 13.0086374,26.4425084 C12.9153532,26.4045753 12.8030596,26.2475902 12.7391363,26.3500455 C12.6795761,26.4454685 12.8684715,26.4524152 12.9418738,26.5063633 C13.0027173,26.5905107 13.1413604,26.6310617 13.0929902,26.7763264 C13.0220346,26.7441423 12.9545011,26.7106236 12.8937945,26.6566413 C12.8115291,26.5835127 12.7086974,26.4878331 12.6799525,26.7053537 C12.6678385,26.7969269 12.5958906,26.7944118 12.5401288,26.7515167 C12.3599595,26.6130276 12.3620298,26.6103071 12.2280749,26.7867122 C12.2110161,26.7584806 12.1893034,26.7358097 12.182562,26.7093746 C12.101443,26.3913492 11.9780964,26.3174165 11.6799529,26.4110087 C11.5854881,26.4406605 11.5319164,26.5045154 11.5475208,26.6034118 C11.5624408,26.6980819 11.6412499,26.6921789 11.7137967,26.6857969 C11.7371862,26.6837437 11.7627658,26.6747095 11.7835717,26.6811258 C11.8583428,26.7041218 11.9879689,26.6400274 11.99933,26.7562391 C12.0115637,26.8812797 11.8934527,26.8910667 11.7959936,26.8791752 C11.7227111,26.8702779 11.6839738,26.9124885 11.6338926,26.9521155 C11.4848636,27.0700554 11.3298804,27.140241 11.167574,26.9672408 C11.1236524,26.9204105 11.0619534,26.9188877 11.0198112,26.9625527 C10.8690884,27.1186481 10.6802785,27.0443389 10.5083049,27.0451602 C10.4369387,27.0455024 10.3750857,27.0100161 10.2904934,27.0437401 C10.100212,27.1195378 10.1227973,26.9012985 10.0337393,26.8384703 C9.95224391,26.7809461 9.82899989,26.955144 9.7232595,26.7484711 C9.54036969,26.3910412 9.73508258,26.0945917 9.78355548,25.7735379 C9.78891094,25.7380173 9.84448453,25.6896984 9.83485154,25.6752746 C9.65396361,25.403994 9.87396522,25.2030873 9.95072111,24.9773025 C10.0698587,24.6268877 10.2048403,24.2844463 10.2755563,23.9151591 C10.3308903,23.6263235 10.5183828,23.3860465 10.7987488,23.2436734 C10.9709961,23.1562237 10.9787641,22.9424159 11.1133179,22.8232441 C11.141002,22.7986911 11.0946166,22.7508684 11.076805,22.7514159 C10.9107686,22.7565831 10.8092031,22.6027634 10.6075777,22.622748 C10.3484624,22.6483789 10.026228,22.6678844 9.83880398,22.3664387 C9.8003747,22.3046542 9.72882028,22.2166399 9.60958002,22.309599 C9.5342956,22.3683037 9.41524356,22.3799728 9.31576546,22.3551974 C9.19643965,22.3254943 9.10276188,22.2123966 8.96023478,22.3569084 C8.89023738,22.4278811 8.78480497,22.3370949 8.76843061,22.2051419 C8.75144028,22.0683295 8.74377496,22.0789549 8.61666406,22.1388574 C8.53260216,22.1784501 8.40090575,22.1863208 8.370484,22.091873 C8.28602857,21.8296266 8.06987673,21.6396532 8.00241162,21.3691084 C7.97761909,21.2696474 7.92724697,21.1660971 7.79491749,21.1376088 C7.606484,21.0970579 7.53239729,20.9418008 7.64949879,20.7940381 C7.74457959,20.674045 7.76452996,20.5266073 7.85351957,20.4044412 C7.96302418,20.2541461 7.95363074,20.1116019 7.73862527,20.0139546 C7.46876484,19.891395 7.32084807,19.6219623 7.25940571,19.3641131 C7.21666469,19.1846796 7.33128522,18.9592883 7.45940562,18.7826779 C7.57014216,18.6300558 7.74488757,18.5259067 7.75794257,18.2970078 C7.76470106,18.1786402 7.74617083,18.1264544 7.65035429,18.0787172 C7.50060673,18.0041172 7.3841212,17.915966 7.57335886,17.7575436 C7.60607336,17.7301674 7.62780318,17.66467 7.60590226,17.6589723 C7.41647639,17.6096097 7.41623685,17.3773915 7.25144952,17.3057857 C7.09756132,17.2389879 7.05694195,17.0718052 7.15174899,16.9303218 C7.31270366,16.690096 7.30493568,16.6298172 7.07100645,16.4341461 C6.99430189,16.3700004 6.95700188,16.3115181 7.07841512,16.272507 C7.31099265,16.1977017 7.41161712,15.9937151 7.56930377,15.8262415 C7.48337687,15.7734398 7.36961184,15.886298 7.34040491,15.7608467 C7.31852109,15.6668439 7.38730368,15.5995499 7.45114145,15.542693 C7.74836092,15.2780512 7.75031147,15.0307932 7.56802051,14.6674261 C7.45899498,14.4500594 7.28383893,14.2631145 7.24205608,14.0041019 C7.22338896,13.8883863 7.21647648,13.869531 7.33643536,13.8390921 C7.45066236,13.8101076 7.61154859,13.8372613 7.66082567,13.6576738 C7.68438627,13.5717811 7.76124482,13.6379972 7.78855253,13.6681965 C8.01224993,13.9156427 8.24149099,13.7525493 8.46241654,13.6738428 C8.5199578,13.6533449 8.55303161,13.6062579 8.62160888,13.6531909 C8.71631326,13.718004 8.81606511,13.6926468 8.85487081,13.5919026 C8.88987807,13.5010137 8.9062011,13.3590342 8.802993,13.3150612 C8.53181509,13.1994312 8.77053515,13.0715674 8.81827232,13.0624478 C9.0372131,13.0206136 9.13374826,12.8151042 9.31889661,12.7291773 C9.46607765,12.6608567 9.4031125,12.0958129 9.25215012,12.0423952 C9.21053837,12.0276805 9.15298001,12.0594368 9.1024539,12.0681801 C8.99226488,12.0872407 8.90219734,12.0352774 8.82200232,11.9735099 C8.72006037,11.8950259 8.72904317,11.8111351 8.82482548,11.7246778 C8.84323595,11.708081 8.82450039,11.6503002 8.82292626,11.6115116 C8.81556892,11.4302986 8.89947683,11.3896964 9.05620531,11.4593345 C9.32134335,11.5771375 9.40016956,11.5353546 9.44051517,11.2569905 C9.47704522,11.0050272 9.47745586,10.7506343 9.72760546,10.5724155 C9.85993494,10.4781047 9.79026263,10.2814241 9.75416033,10.1491802 C9.70305248,9.96199575 9.77108222,9.80240989 9.79974163,9.63331081 C9.82771663,9.46823261 9.91757886,9.40740622 10.0804327,9.54173758 C10.0876532,9.39378658 9.98721695,9.39770479 9.91653514,9.37792552 C9.85723155,9.36132873 9.78959534,9.37157768 9.73244762,9.35101134 C9.62229283,9.31136725 9.439557,9.39938158 9.40916947,9.2863694 C9.37573635,9.16197901 9.45351884,9.00730374 9.48462499,8.86624811 C9.49283784,8.82903365 9.50341188,8.77785736 9.55012244,8.78427364 C9.59570374,8.79053594 9.64617852,8.8667443 9.67423908,8.77174905 C9.68868,8.7228484 9.62301145,8.69663573 9.61011044,8.66558091 C9.55434863,8.5313351 9.72171959,8.51542271 9.7585063,8.42504718 C9.8041047,8.37097928 9.85334756,8.32194175 9.92546661,8.30448945 C10.0703207,8.2961055 10.2255777,8.34794909 10.3515935,8.23023163 C10.3820153,8.21200938 10.4143876,8.19830419 10.4481458,8.18767882 C10.5388978,8.15552895 10.631566,8.14190932 10.7273826,8.15886542 C10.7989541,8.17650593 10.8684553,8.15581983 10.9387436,8.14637505 C11.0660256,8.14741877 11.1997581,8.10835642 11.3112475,8.20622617 C11.3676424,8.28835463 11.4099898,8.38143355 11.4948388,8.44131888 C11.5985602,8.58177566 11.6197938,8.72199289 11.4960365,8.86359605 C11.4700292,8.89336761 11.4512423,8.92993189 11.4551092,8.97034593 C11.4622099,9.04467219 11.4912628,9.12101744 11.5705852,9.12565427 C11.6716888,9.13157437 11.666436,9.04405623 11.6615767,8.97291245 C11.6578467,8.91845101 11.6371093,8.86641921 11.6313945,8.81139314 C11.6519779,8.71304431 11.5742639,8.55042996 11.7843587,8.57588979 C11.9117263,8.56731763 11.9749139,8.77002093 12.0813558,8.70659381 C12.1542448,8.66316838 12.0658369,8.51090564 12.1085951,8.40297516 C12.1767103,8.23098448 12.1773605,8.03996737 12.2600365,7.86729228 C12.3593948,7.65974682 12.3929306,7.64060062 12.5571704,7.8113936 C12.6064817,7.86268967 12.6419852,7.89384715 12.7099978,7.88041572 C12.8458862,7.90315504 12.9726207,7.90922913 13.1116915,7.85341599 C13.3017505,7.77710497 13.4899444,7.82660447 13.6469467,7.96588065 C13.6773,7.98634433 13.699372,8.0145931 13.719117,8.04807755 C13.7209136,8.00706465 13.6946838,7.98699451 13.6673761,7.96745478 C13.5564343,7.88914187 13.4374678,7.82246383 13.3349441,7.73253317 C13.1287332,7.72960734 12.9137106,7.74605014 12.8182192,7.49856972 C12.7601304,7.43077952 12.7296402,7.35118335 12.7491457,7.26440095 C12.7698831,7.17217753 12.8217952,7.21627025 12.8661788,7.24893342 C13.0686596,7.14979753 12.8954884,7.0531426 12.8427893,7.00290735 C12.679559,6.84730814 12.6869505,6.71001673 12.9043343,6.57900473 C12.7061652,6.50154733 12.4894145,6.64224365 12.3104257,6.50686857 C12.2184419,6.48667866 12.1593436,6.44246617 12.185676,6.33599004 C12.2049249,6.30616715 12.2347991,6.29172622 12.2664699,6.28024535 C12.3166538,6.25622278 12.3818262,6.30072613 12.4255083,6.24528942 C12.4491715,6.19679941 12.5064903,6.21370419 12.5404197,6.18523299 C12.5712692,6.18348776 12.5856587,6.16538528 12.5889952,6.13629811 C12.6878573,6.07897929 12.8194169,6.15036261 12.9081669,6.05485406 C13.077574,5.89860466 13.0780018,5.86534264 12.9114863,5.73787242 C12.8761882,5.71506467 12.8443121,5.68621705 12.8005958,5.67879126 C12.6835285,5.65675346 12.6039152,5.6086912 12.5879173,5.47083516 C12.5724669,5.33773573 12.4703538,5.23762456 12.4079533,5.12216563 C12.3630906,5.03918167 12.3068668,4.95683077 12.4047024,4.87485631 C12.426244,4.81710973 12.4129152,4.75640311 12.4197079,4.69749305 C12.4280405,4.62525423 12.4557589,4.58170904 12.5350471,4.63225226 C12.6337723,4.65329768 12.7355945,4.70122305 12.8306582,4.6902897 C13.0960358,4.6597824 13.3160887,4.71581797 13.5061648,4.91562966 C13.6043938,5.01888909 13.7281683,4.98968216 13.8460397,4.9072115 C14.0685394,4.75156096 14.3554073,4.8067239 14.5188429,5.02622932 C14.5396317,5.05417011 14.5544148,5.11925691 14.5960266,5.07920218 C14.7931178,4.88953677 14.8079351,5.13549439 14.826106,5.19900707 C14.8879248,5.41505625 14.9970359,5.64689805 14.7932204,5.85406709 C14.8207163,5.88789374 14.6138382,5.92305499 14.7938193,5.95599193 C14.9056851,5.94528101 15.0215033,5.900521 15.1213407,5.99389079 C15.1609164,6.04727429 15.1403671,6.10792958 15.1415477,6.16577881 C15.1438234,6.27699443 15.1927925,6.16538528 15.2148474,6.18143455 C15.2796604,6.04754805 15.3897981,6.07269989 15.492664,6.11277173 C15.5637565,6.14049009 15.6267045,6.19028047 15.6913807,6.23312415 C15.9908587,6.43153282 16.0613694,6.43724759 16.3459103,6.22172882 C16.4558597,6.1384711 16.5330263,6.28536127 16.6274398,6.23156713 C16.6567323,6.18208473 16.6725762,6.10534595 16.6120578,6.0994943 C16.4032975,6.07930439 16.4843138,5.94827527 16.5384844,5.87897938 C16.6008336,5.79926345 16.6735344,5.64795887 16.8254549,5.7791762 C16.8721484,5.8195218 16.920895,5.86142443 16.9759211,5.88734622 C17.0565439,5.92533063 17.1038704,5.98104111 17.0897375,6.06819993 C17.0742186,6.16394803 16.9847499,6.1520394 16.9205528,6.15357931 C16.7390832,6.15802794 16.7259426,6.2628786 16.7100473,6.41514134 C16.6947509,6.56143266 16.81909,6.74091757 16.6332401,6.85777952 C16.5908926,6.97318712 16.4629433,6.99611465 16.3922273,7.08092939 C16.2962568,7.17780675 16.1919707,7.26741232 16.3116901,7.4224469 C16.3411879,7.46063664 16.3394084,7.53711876 16.2916199,7.58762777 C16.2838691,7.62121488 16.2538237,7.66248443 16.304213,7.68210971 C16.3384845,7.69543848 16.3827654,7.69015146 16.4041188,7.65240659 C16.4305026,7.60578158 16.403366,7.54759014 16.4296471,7.49920279 L16.6735344,7.3105811 C16.6992509,7.28539503 16.7129732,7.23392787 16.7659118,7.26842182 L16.8225975,7.30775793 C16.8845703,7.36825923 16.9818412,7.39402703 17.0048543,7.49288917 C17.1151117,7.59207639 17.1799419,7.40614098 17.3044521,7.46561567 C17.3340012,7.48979224 17.3328035,7.55178212 17.3930652,7.53609216 C17.4304166,7.47637792 17.4135289,7.39681598 17.4673744,7.34524615 C17.4871023,7.30339486 17.6759978,7.26984196 17.4725074,7.21657823 C17.4024587,7.19823621 17.4155137,7.15621381 17.4612832,7.12113812 C17.5578012,7.04718828 17.651171,6.9243549 17.7550635,6.91396908 C17.9928596,6.89018604 18.2116464,6.76223675 18.4564577,6.79558432 C18.476083,6.80810891 18.4883509,6.82826461 18.5057005,6.84315039 C18.5194571,6.81064121 18.5318448,6.7780807 18.5088317,6.74442514 L18.979308,6.23327814 C19.0078819,6.13024114 19.0766644,6.04147396 19.1329053,5.96105651 C19.2414347,5.80591928 19.4021156,5.90515783 19.5421617,5.94697491 C19.6525903,5.91518435 19.7699826,5.96150138 19.8825842,5.90515783 C19.9339658,5.87945847 19.9779901,5.93397123 19.9710776,6.00109414 C19.851478,6.08724347 19.7162911,6.02775167 19.5889749,6.04202149 C19.5950661,6.06159544 19.4689989,6.07259723 19.4647556,6.0767892 C19.310799,6.12144655 19.2244957,6.28664453 19.0673052,6.32941977 C19.0794363,6.36589849 19.0753127,6.40598744 19.0918924,6.44332167 C19.2558927,6.22364515 19.4406475,6.0496697 19.7479619,6.12669935 C19.775629,6.13364605 19.8069062,6.11053031 19.8358223,6.09952852 C19.8923369,6.07071512 19.9575264,6.06924365 20.014811,6.04256901 C20.072626,6.00964919 20.1234088,5.96133028 20.1956476,5.95992725 C20.2761335,6.03064327 20.2806505,6.13833422 20.3258212,6.22628011 C20.312732,6.39979359 20.3656364,6.52786266 20.5505452,6.57914161 C20.6174457,6.59768896 20.6771428,6.63995089 20.7158458,6.70315559 C20.7795467,6.79440373 20.9452409,6.81144538 20.9072907,6.97968895 C20.8969391,7.02562956 20.9564138,7.02545846 20.9941415,7.02605731 C21.0516144,7.0268786 21.0441886,6.99334281 21.0420669,6.95031092 C21.0325708,6.75825009 21.2421695,6.81257465 21.3236649,6.71118022 C21.3680656,6.65594883 21.3654991,6.79151212 21.4220993,6.79738088 C21.4282418,6.80107666 21.4132533,6.87242576 21.482669,7.04847154 C21.5249652,7.15570051 21.6300896,7.3422861 21.6990433,7.4587203 C21.7365828,7.55309959 21.6498175,7.64527168 21.6948,7.73908633 C21.7259061,7.77330653 21.7726167,7.78998887 21.7983332,7.83016337 C21.964592,7.96097006 22.1263679,8.10495151 22.3633427,7.99139181 C22.4126027,7.96779698 22.418557,8.00788594 22.4393971,8.04412512 C22.6643949,8.43550145 22.7664395,8.8585999 22.7889221,9.30650798 C22.7975456,9.47822491 22.6518874,9.61697067 22.6850125,9.78066296 C22.7350253,10.0278183 22.6256918,10.1747769 22.4483115,10.3261328 C22.2043899,10.5342771 22.2370018,10.7706189 22.5269495,10.9201269 C22.855258,11.08938 23.0766626,11.3623544 23.2997269,11.6387851 L23.3031661,11.9187919 C23.1278731,12.1815687 23.1477722,12.3324113 23.3898458,12.507978 C23.4985634,12.5868555 23.5585685,12.6736551 23.5449831,12.8192106 C23.5358976,12.9167382 23.5268635,13.0123836 23.6218929,13.1145993 C23.7358975,13.2371247 23.6463262,13.4735349 23.5784675,13.543635 C23.3441961,13.7856402 23.5101811,13.9775983 23.6200108,14.1513856 C23.7083502,14.2911751 23.7462149,14.4233334 23.7116183,14.5653815 C23.6824627,14.6850666 23.7124909,14.7227772 23.8204043,14.736568 C24.0508773,14.7660487 24.2219098,14.8504528 24.1834292,15.1306819 C24.1783817,15.1674686 24.1864234,15.2122971 24.2039955,15.2450116 L24.2039955,15.2449945 Z M11.8825536,5.19835689 C11.9215475,5.1536311 11.9998946,5.17623353 12.0281947,5.11323416 C12.1648873,5.10259168 12.2892263,5.11154026 12.3070893,5.28921149 C12.219554,5.39638913 12.102675,5.39301845 11.9820488,5.37551482 C11.9488552,5.31645077 11.9157129,5.25740383 11.8825536,5.19835689 Z M21.4734467,6.71184752 C21.6723002,6.58820996 21.7747041,6.65579484 21.8960831,6.99069075 L21.9009253,6.98826111 C21.8032266,7.19560125 21.7968959,7.19715827 21.5846281,7.06556452 C21.4977943,6.96170624 21.6010195,6.79719267 21.4703326,6.70705669 L21.4734295,6.71184752 L21.4734467,6.71184752 Z M21.5493128,6.37681473 C21.55975,6.42169451 21.5279252,6.44511823 21.4815226,6.4479414 C21.4307227,6.45102122 21.3981965,6.42968493 21.3638736,6.3913412 C21.3190965,6.34131128 21.3739686,6.24039594 21.2735494,6.22393602 C21.2221336,6.26493181 21.1756625,6.18179386 21.124452,6.21801593 C21.068348,6.30267669 20.8174114,6.29906646 20.9999932,6.49713292 C21.0148448,6.51326774 20.9837728,6.60355772 20.9070854,6.59620038 C20.716342,6.47550576 20.4350007,6.44729121 20.4339057,6.13285899 C20.6242555,6.11951311 20.6505024,6.08546402 20.580813,6.03758997 C20.4568332,5.95241592 20.5479616,5.84398924 20.5125266,5.75493119 C20.5248801,5.71284035 20.5282679,5.67394911 20.476852,5.65449493 C20.5000362,5.59656014 20.5565508,5.55262142 20.5983337,5.59635482 C20.7380205,5.74259481 20.753009,5.57320486 20.8147422,5.52154948 C20.7949971,5.46741314 20.7487657,5.4615786 20.7036292,5.46967167 C20.550203,5.49718471 20.5075133,5.41621974 20.5137756,5.28334273 C20.627438,5.17525826 20.739338,5.05998754 20.910285,5.18641404 C20.9533511,5.26234864 20.9247601,5.34798467 20.9429139,5.42730708 C20.9772881,5.48950228 21.0339738,5.44881447 21.0800342,5.45706153 C21.1670904,5.39300134 21.257791,5.31367893 21.3596303,5.42292689 C21.4722832,5.54375839 21.3847821,5.64552924 21.3037316,5.73258541 C21.2662092,5.7729139 21.1750637,5.77849179 21.2662092,5.85338268 C21.3231345,5.86741296 21.3614269,5.91610829 21.4161792,5.93412522 C21.5818391,6.04482754 21.5143569,6.22662231 21.5492957,6.37681473 L21.5493128,6.37681473 Z"/>
</svg>
