<svg width="32" height="32" viewBox="0 0 32 32" xmlns="http://www.w3.org/2000/svg">
  <path fill="#fff" d="M0 0h32v32H0z"/>
  <path fill="#999" d="M0 0v32h32V0H0zm2 2h28v28H2V2z"/>
  <path fill="#8c8c8c" d="M24.2,10.6V8H5v14.4c0,0,0,2.6,2.7,2.6h17.2c0,0,2.1,0,2.1-2.6V10.6H24.2z M7.7,23.7 c-1.4,0-1.4-1.3-1.4-1.3V9.3h16.5v13.1c0,0.6,0.2,1,0.5,1.3H7.7z"/>
  <path fill="#b9b9b9" d="M19.7,19.7V21h-4.6v-1.3H19.7z M21,17.1v1.3h-5.8v-1.3H21z M21,14.6v1.3h-5.8v-1.3H21z"/>
  <polygon fill="#515151" points="8,13.3 21,13.3 21,12 8,12"/>
  <polygon fill="#59f" points="8,21 13.8,21 13.8,14.6 8,14.6"/>
</svg>
