<svg width="36" height="36" viewBox="0 0 36 36" xmlns="http://www.w3.org/2000/svg">
  <g fill="none" fill-rule="nonzero">
    <path fill="#FFF" d="M2 2h32v32H2z"/>
    <path fill="#999" d="M2 2v32h32V2H2zm2 2h28v28H4V4z"/>
    <path fill="#8C8C8C" d="M25.955 7.525c.256.102-.126 1.235-.126 1.235l-1.533.638-1.866.673-.662 1.837.483 2.27 2.263.511 2.108-.663.578-1.826.53-1.509s1.168-.457 1.268-.226a5.422 5.422 0 01-1.198 6.022c-1.655 1.625-4.095 2.015-6.129 1.169h.001L11.661 27.49a2.122 2.122 0 01-2.962 0 2.029 2.029 0 010-2.909l10.011-9.83a5.412 5.412 0 011.194-6.022c1.637-1.607 4.034-2.009 6.051-1.204z"/>
  </g>
</svg>
