<svg width="32" height="32" viewBox="0 0 32 32" xmlns="http://www.w3.org/2000/svg">
  <path fill="#fff" d="M0 0h32v32H0z"/>
  <path fill="#999" d="M0 0v32h32V0H0zm2 2h28v28H2V2z"/>
  <path fill="#8c8c8c" d="M12.4595495,23.5735279 C13.7236159,23.5735279 14.7483442,24.5982561 14.7483442,25.8623225 C14.7483442,27.1263889 13.7236159,28.1511172 12.4595495,28.1511172 C11.1954831,28.1511172 10.1707548,27.1263889 10.1707548,25.8623225 C10.1707548,24.5982561 11.1954831,23.5735279 12.4595495,23.5735279 Z M21.7010978,23.5735279 C22.9651642,23.5735279 23.9898925,24.5982561 23.9898925,25.8623225 C23.9898925,27.1263889 22.9651642,28.1511172 21.7010978,28.1511172 C20.4370314,28.1511172 19.4123031,27.1263889 19.4123031,25.8623225 C19.4123031,24.5982561 20.4370314,23.5735279 21.7010978,23.5735279 Z M10.1719458,12 L11.9088902,20.6182601 L22.286515,20.6182602 L23.9937856,12 L25.7172847,13.7480107 C25.7172847,13.7480107 25.6149058,14.2588814 25.5637164,14.5143168 C25.0404061,17.1256349 23.9937856,22.3482711 23.9937856,22.3482711 L10.1719458,22.3482711 L8.37313606,13.6150385 L5,13.6150385 L5,12 L10.1719458,12 Z M20.1723725,5 C22.2402452,5 23.9165872,6.67634201 23.9165872,8.74421467 C23.9165872,10.8120873 22.2402452,12.4884293 20.1723725,12.4884293 C19.5570642,12.4884293 18.9764219,12.3400065 18.4642946,12.0770099 L13.8596266,16.6811177 L13.8596266,16.6811177 C13.4344502,17.1062941 12.7455147,17.1062941 12.3195063,16.6811177 C11.8934979,16.2559413 11.8934979,15.5661738 12.3195063,15.1409974 L16.8984425,10.5623529 C16.5988327,10.0239966 16.4281579,9.40403723 16.4281579,8.74421467 C16.4281579,6.67634201 18.1044999,5 20.1723725,5 Z M20.1723725,6.66409541 C19.0235544,6.66409541 18.0922533,7.59539652 18.0922533,8.74421467 C18.0922533,9.89303281 19.0235544,10.8243339 20.1723725,10.8243339 C21.3211907,10.8243339 22.2524918,9.89303281 22.2524918,8.74421467 C22.2524918,7.59539652 21.3211907,6.66409541 20.1723725,6.66409541 Z"/>
</svg>
