<svg width="36" height="36" viewBox="0 0 36 36" xmlns="http://www.w3.org/2000/svg">
  <g fill="none" fill-rule="nonzero">
    <path fill="#FFF" d="M2 2h32v32H2z"/>
    <path fill="#999" d="M2 2v32h32V2H2zm2 2h28v28H4V4z"/>
    <path fill="#979797" d="M26 6h-2v1h2V6zm-4 0h-2v1h2V6zm-4 0h-2v1h2V6zm-4 0h-2v1h2V6zm-4 0H8v1h2V6zM7 6H6v2h1V6zm0 4H6v2h1v-2zm0 4H6v2h1v-2zm2 2H7v1h2v-1zm4 0h-2v1h2v-1zm4 0h-2v1h2v-1zm4 0h-2v1h2v-1zm4 0h-2v1h2v-1zm4 0h-2v1h2v-1zm1-2h-1v2h1v-2zm0-4h-1v2h1v-2zm0-4h-2v1h1v1h1V6zm-2 13h-2v1h2v-1zm-4 0h-2v1h2v-1zm-4 0h-2v1h2v-1zm-4 0h-2v1h2v-1zm-4 0h-2v1h2v-1zm-4 0H6v1h2v-1zm-1 2H6v2h1v-2zm0 4H6v2h1v-2zm0 4H6v1h1v-1zm4 0H9v1h2v-1zm4 0h-2v1h2v-1zm4 0h-2v1h2v-1zm4 0h-2v1h2v-1zm4 0h-2v1h2v-1zm3 0h-1v1h1v-1zm0-4h-1v2h1v-2zm0-4h-1v2h1v-2z"/>
  </g>
</svg>
